<svg width="500" height="362" viewBox="0 0 500 362" fill="none" xmlns="http://www.w3.org/2000/svg">
<g clip-path="url(#clip0)">
<path opacity="0.06" d="M392.38 314.021C440.293 314.021 479.135 311.821 479.135 309.107C479.135 306.393 440.293 304.192 392.38 304.192C344.466 304.192 305.624 306.393 305.624 309.107C305.624 311.821 344.466 314.021 392.38 314.021Z" fill="#1A1552"/>
<path opacity="0.06" d="M33.2382 339.523C45.5811 339.523 55.5871 337.417 55.5871 334.818C55.5871 332.22 45.5811 330.113 33.2382 330.113C20.8953 330.113 10.8893 332.22 10.8893 334.818C10.8893 337.417 20.8953 339.523 33.2382 339.523Z" fill="#1A1552"/>
<path opacity="0.06" d="M79.3458 333.32C99.4093 333.32 115.674 332.408 115.674 331.282C115.674 330.157 99.4093 329.244 79.3458 329.244C59.2824 329.244 43.0177 330.157 43.0177 331.282C43.0177 332.408 59.2824 333.32 79.3458 333.32Z" fill="#1A1552"/>
<path opacity="0.06" d="M255.977 322.052C345.144 322.052 417.428 318.658 417.428 314.471C417.428 310.284 345.144 306.889 255.977 306.889C166.809 306.889 94.525 310.284 94.525 314.471C94.525 318.658 166.809 322.052 255.977 322.052Z" fill="#1A1552"/>
<path opacity="0.06" d="M477.335 339.643C489.778 339.643 499.864 338.006 499.864 335.987C499.864 333.968 489.778 332.331 477.335 332.331C464.893 332.331 454.807 333.968 454.807 335.987C454.807 338.006 464.893 339.643 477.335 339.643Z" fill="#1A1552"/>
<path opacity="0.06" d="M430.568 344.707C439.133 344.707 446.077 343.204 446.077 341.351C446.077 339.497 439.133 337.995 430.568 337.995C422.002 337.995 415.059 339.497 415.059 341.351C415.059 343.204 422.002 344.707 430.568 344.707Z" fill="#1A1552"/>
<path opacity="0.06" d="M192.44 362.388C235.036 362.388 269.566 360.241 269.566 357.593C269.566 354.945 235.036 352.798 192.44 352.798C149.845 352.798 115.314 354.945 115.314 357.593C115.314 360.241 149.845 362.388 192.44 362.388Z" fill="#1A1552"/>
<path opacity="0.06" d="M305.594 344.288C310.349 344.288 314.204 343.241 314.204 341.95C314.204 340.659 310.349 339.613 305.594 339.613C300.839 339.613 296.985 340.659 296.985 341.95C296.985 343.241 300.839 344.288 305.594 344.288Z" fill="#1A1552"/>
<path opacity="0.06" d="M368.141 351C381.66 351 392.62 349.645 392.62 347.974C392.62 346.302 381.66 344.947 368.141 344.947C354.622 344.947 343.662 346.302 343.662 347.974C343.662 349.645 354.622 351 368.141 351Z" fill="#1A1552"/>
<g opacity="0.11">
<path opacity="0.11" d="M273.046 50.5553C254.207 51.4543 241.008 50.8849 226.638 44.6219C203.299 34.4333 198.77 16.0637 174.591 20.9183C141.113 27.6608 146.932 71.442 119.394 92.3886C85.0755 118.519 62.2467 96.2244 33.2682 119.508C4.01971 143.032 12.1493 197.901 27.4785 230.415C45.7776 269.251 86.3055 301.585 131.723 307.189C179.781 313.122 188.15 283.575 246.407 280.519C321.193 276.593 341.652 323.521 398.139 311.444C450.577 300.237 493.895 246.806 485.015 213.334C479.165 191.278 454.777 192.267 441.007 162.151C426.308 129.997 448.177 116.272 434.948 87.1744C420.698 55.7994 376.421 30.178 339.163 33.4144C314.624 35.542 308.654 48.8472 273.046 50.5553Z" fill="#01CED3"/>
</g>
<path d="M27.1785 194.844C25.3186 194.844 23.8187 193.346 23.8187 191.488C23.8187 189.63 25.3186 188.132 27.1785 188.132C29.0384 188.132 30.5383 189.63 30.5383 191.488C30.5383 193.346 29.0384 194.844 27.1785 194.844ZM27.1785 189.48C26.0685 189.48 25.1686 190.379 25.1686 191.488C25.1686 192.597 26.0685 193.496 27.1785 193.496C28.2884 193.496 29.1884 192.597 29.1884 191.488C29.1884 190.379 28.2884 189.48 27.1785 189.48Z" fill="#FF8681"/>
<path d="M254.207 33.4744C252.347 33.4744 250.847 31.976 250.847 30.1181C250.847 28.2602 252.347 26.7618 254.207 26.7618C256.067 26.7618 257.567 28.2602 257.567 30.1181C257.567 31.976 256.067 33.4744 254.207 33.4744ZM254.207 28.1103C253.097 28.1103 252.197 29.0093 252.197 30.1181C252.197 31.2269 253.097 32.1259 254.207 32.1259C255.317 32.1259 256.217 31.2269 256.217 30.1181C256.247 29.0093 255.347 28.1103 254.207 28.1103Z" fill="#01AEB3"/>
<path d="M87.9854 72.341H81.2657C80.9058 72.341 80.6058 72.0414 80.6058 71.6818V65.149H74.0661C73.7061 65.149 73.4061 64.8494 73.4061 64.4898V57.7773C73.4061 57.4177 73.7061 57.118 74.0661 57.118H80.6058V50.5853C80.6058 50.2257 80.9058 49.926 81.2657 49.926H87.9854C88.3454 49.926 88.6454 50.2257 88.6454 50.5853V57.0581H95.185C95.545 57.0581 95.845 57.3577 95.845 57.7173V64.4298C95.845 64.7894 95.545 65.0891 95.185 65.0891H88.6454V71.6218C88.6753 72.0413 88.3754 72.341 87.9854 72.341ZM81.9557 70.9925H87.3254V64.4598C87.3254 64.1002 87.6254 63.8005 87.9854 63.8005H94.5251V58.4365H87.9854C87.6254 58.4365 87.3254 58.1369 87.3254 57.7773V51.2446H81.9557V57.7773C81.9557 58.1369 81.6557 58.4365 81.2957 58.4365H74.7561V63.8005H81.2957C81.6557 63.8005 81.9557 64.1002 81.9557 64.4598V70.9925Z" fill="#01AEB3"/>
<path d="M176.451 71.8016C174.591 71.8016 173.091 70.3033 173.091 68.4454C173.091 66.5874 174.591 65.0891 176.451 65.0891C178.311 65.0891 179.811 66.5874 179.811 68.4454C179.811 70.3033 178.281 71.8016 176.451 71.8016ZM176.451 66.4376C175.341 66.4376 174.441 67.3366 174.441 68.4454C174.441 69.5541 175.341 70.4531 176.451 70.4531C177.561 70.4531 178.461 69.5541 178.461 68.4454C178.461 67.3366 177.561 66.4376 176.451 66.4376Z" fill="#FF8681"/>
<path d="M423.188 91.3998C421.328 91.3998 419.828 89.9014 419.828 88.0435C419.828 86.1856 421.328 84.6873 423.188 84.6873C425.048 84.6873 426.548 86.1856 426.548 88.0435C426.548 89.9014 425.048 91.3998 423.188 91.3998ZM423.188 86.0358C422.078 86.0358 421.178 86.9348 421.178 88.0435C421.178 89.1523 422.078 90.0513 423.188 90.0513C424.298 90.0513 425.198 89.1523 425.198 88.0435C425.198 86.9348 424.298 86.0358 423.188 86.0358Z" fill="#FF8681"/>
<path d="M451.747 220.586L440.107 217.199L458.916 152.532C459.006 152.232 459.306 152.052 459.606 152.142L470.166 155.199C470.466 155.288 470.646 155.588 470.556 155.888L451.747 220.586Z" fill="#E2E8EB"/>
<path d="M467.986 157.009L460.497 154.834L439.156 228.15L446.645 230.325L467.986 157.009Z" fill="#E2E8EB"/>
<path d="M465.021 156.145L463.437 155.685L442.096 229.001L443.68 229.461L465.021 156.145Z" fill="#C8D0D7"/>
<path d="M449.617 232.632L435.458 228.527C435.128 228.437 434.948 228.107 435.038 227.778L435.188 227.208C435.278 226.879 435.608 226.699 435.938 226.789L450.097 230.894C450.427 230.984 450.607 231.314 450.517 231.644L450.367 232.213C450.277 232.543 449.917 232.722 449.617 232.632Z" fill="#E2E8EB"/>
<path d="M456.756 224.571L433.748 217.889C433.418 217.799 433.208 217.439 433.298 217.08L433.628 216.001C433.718 215.671 434.078 215.461 434.438 215.551L457.446 222.234C457.776 222.324 457.986 222.683 457.896 223.043L457.566 224.122C457.446 224.481 457.086 224.691 456.756 224.571Z" fill="#E2E8EB"/>
<path d="M467.842 152.06L463.262 150.73L462.601 153.003L467.181 154.333L467.842 152.06Z" fill="#E2E8EB"/>
<path d="M468.846 152.382L462.306 150.464C461.886 150.344 461.646 149.895 461.766 149.475L461.796 149.355C461.916 148.936 462.366 148.696 462.786 148.816L469.326 150.734C469.746 150.853 469.986 151.303 469.866 151.723L469.836 151.842C469.716 152.262 469.266 152.502 468.846 152.382Z" fill="#01AEB3"/>
<path d="M480.946 99.6792L480.312 99.4951L470.655 132.671L471.289 132.856L480.946 99.6792Z" fill="#A7B1BC"/>
<path d="M468.966 150.614L471.786 134.791H471.816L472.206 133.473C472.296 133.173 472.116 132.844 471.816 132.784L470.376 132.364C470.076 132.274 469.746 132.454 469.686 132.754L469.296 134.072H469.326L463.206 148.936L468.966 150.614Z" fill="#01CED3"/>
<path d="M468.636 160.683L457.986 157.596C457.746 157.536 457.596 157.326 457.716 157.177C458.106 156.727 459.426 155.978 459.546 155.558C459.666 155.139 458.976 153.79 458.886 153.221C458.856 153.041 459.096 152.951 459.336 153.011L469.986 156.098C470.226 156.158 470.376 156.367 470.256 156.517C469.866 156.967 468.546 157.716 468.426 158.135C468.306 158.555 468.996 159.903 469.086 160.473C469.116 160.683 468.906 160.773 468.636 160.683Z" fill="#A7B1BC"/>
<path d="M441.457 220.136L449.047 222.324L448.627 223.702L441.457 220.136Z" fill="#C8D0D7"/>
<path d="M451.843 220.231L440.178 216.843L440.077 217.188L451.743 220.576L451.843 220.231Z" fill="#C8D0D7"/>
<path d="M446.859 229.573L439.37 227.398L439.269 227.743L446.758 229.919L446.859 229.573Z" fill="#C8D0D7"/>
<path d="M463.296 150.764L467.646 152.801L467.856 152.082L463.296 150.764Z" fill="#C8D0D7"/>
<path d="M467.243 153.907L462.663 152.577L462.545 152.98L467.125 154.31L467.243 153.907Z" fill="#C8D0D7"/>
<path d="M467.076 156.517L461.556 154.929C461.376 154.869 461.286 154.689 461.346 154.539C461.406 154.36 461.586 154.27 461.736 154.33L467.256 155.918C467.436 155.978 467.526 156.158 467.466 156.307C467.436 156.457 467.256 156.577 467.076 156.517Z" fill="#A7B1BC"/>
<path d="M462.456 168.863L458.826 167.815C458.646 167.755 458.556 167.575 458.616 167.425C458.676 167.245 458.856 167.155 459.006 167.215L462.636 168.264C462.816 168.324 462.906 168.504 462.846 168.654C462.816 168.804 462.636 168.923 462.456 168.863Z" fill="#A7B1BC"/>
<path d="M459.726 181.749L454.207 180.161C454.027 180.101 453.937 179.921 453.997 179.771C454.057 179.591 454.237 179.502 454.387 179.561L459.906 181.15C460.086 181.21 460.176 181.389 460.116 181.539C460.086 181.719 459.906 181.809 459.726 181.749Z" fill="#A7B1BC"/>
<path d="M455.107 194.125L451.477 193.076C451.297 193.016 451.207 192.837 451.267 192.687C451.327 192.507 451.507 192.417 451.657 192.477L455.287 193.526C455.467 193.586 455.557 193.766 455.497 193.915C455.467 194.065 455.287 194.155 455.107 194.125Z" fill="#A7B1BC"/>
<path d="M452.377 207.011L446.857 205.423C446.677 205.363 446.587 205.183 446.647 205.033C446.707 204.853 446.887 204.763 447.037 204.823L452.557 206.412C452.737 206.471 452.827 206.651 452.767 206.801C452.707 206.951 452.557 207.071 452.377 207.011Z" fill="#A7B1BC"/>
<g opacity="0.4">
<path opacity="0.4" d="M442.927 215.761C442.627 215.671 442.477 215.372 442.567 215.102L459.696 156.307C459.786 156.008 460.086 155.858 460.356 155.948C460.656 156.038 460.806 156.337 460.716 156.607L443.587 215.401C443.497 215.671 443.197 215.851 442.927 215.761Z" fill="white"/>
</g>
<path opacity="0.15" d="M482.105 98.2921L480.125 97.7227C479.285 97.483 478.415 97.9624 478.175 98.8015L464.856 144.59L469.836 146.029L483.155 100.24C483.425 99.4008 482.945 98.5318 482.105 98.2921Z" fill="#018FA1"/>
<path opacity="0.25" d="M469.746 148.037L463.866 146.329C463.386 146.179 463.146 145.699 463.266 145.25L463.326 145.07C463.476 144.59 463.956 144.351 464.406 144.471L470.286 146.179C470.766 146.329 471.006 146.808 470.886 147.258L470.826 147.437C470.706 147.887 470.226 148.156 469.746 148.037Z" fill="#017280"/>
<path d="M404.859 254.867L358.902 240.933C357.102 240.394 356.082 238.476 356.652 236.708L394.27 112.976C394.81 111.178 396.73 110.159 398.499 110.728L444.457 124.663C446.257 125.202 447.277 127.12 446.707 128.888L409.089 252.62C408.549 254.418 406.659 255.437 404.859 254.867Z" fill="#D4DEE6"/>
<path d="M405.459 255.167L358.242 240.843C356.742 240.393 355.902 238.805 356.352 237.307L394.33 112.316C394.78 110.818 396.37 109.979 397.869 110.428L445.087 124.752C446.587 125.202 447.427 126.79 446.977 128.289L408.999 253.279C408.549 254.777 406.959 255.616 405.459 255.167ZM397.839 110.608C396.46 110.189 394.96 110.968 394.54 112.376L356.562 237.367C356.142 238.745 356.922 240.244 358.332 240.663L405.549 254.987C406.929 255.407 408.429 254.628 408.849 253.219L446.827 128.229C447.247 126.85 446.467 125.352 445.057 124.932L397.839 110.608Z" fill="#F3F5F7"/>
<path d="M437.315 138.056C439.31 134.412 437.969 129.842 434.321 127.849C430.672 125.856 426.097 127.195 424.102 130.84C422.108 134.485 423.448 139.055 427.097 141.048C430.746 143.04 435.321 141.701 437.315 138.056Z" fill="white"/>
<path d="M432.588 127.104L428.205 141.528L428.779 141.702L433.162 127.278L432.588 127.104Z" fill="#E2E8EB"/>
<path d="M406.922 135.076C411.655 133.731 414.401 128.809 413.055 124.081C411.709 119.353 406.781 116.61 402.048 117.954C397.315 119.298 394.569 124.221 395.915 128.949C397.261 133.677 402.189 136.42 406.922 135.076Z" fill="#E2E8EB"/>
<path d="M410.934 130.415C413.094 126.865 411.964 122.239 408.41 120.082C404.856 117.924 400.224 119.053 398.065 122.604C395.905 126.154 397.036 130.78 400.589 132.937C404.143 135.095 408.775 133.966 410.934 130.415Z" fill="#8FD0D6"/>
<path d="M409.5 120.825L398.871 131.524L399.446 132.094L410.075 121.395L409.5 120.825Z" fill="#C7EAED"/>
<path d="M436.315 141.364C440.156 138.292 440.777 132.691 437.702 128.853C434.627 125.016 429.019 124.395 425.178 127.467C421.336 130.54 420.715 136.141 423.791 139.978C426.866 143.816 432.473 144.436 436.315 141.364Z" fill="#E2E8EB"/>
<path d="M437.315 138.056C439.31 134.412 437.969 129.842 434.321 127.849C430.672 125.856 426.097 127.195 424.102 130.84C422.107 134.485 423.448 139.055 427.097 141.048C430.746 143.04 435.32 141.701 437.315 138.056Z" fill="#8FD0D6"/>
<path d="M432.502 127.078L428.119 141.502L428.894 141.737L433.277 127.313L432.502 127.078Z" fill="#C7EAED"/>
<path d="M398.082 160.173C402.961 159.529 406.393 155.057 405.749 150.184C405.105 145.311 400.628 141.882 395.75 142.525C390.872 143.169 387.439 147.641 388.083 152.514C388.727 157.387 393.204 160.816 398.082 160.173Z" fill="#E2E8EB"/>
<path d="M397.34 158.88C401.493 158.651 404.672 155.102 404.442 150.954C404.212 146.806 400.66 143.63 396.508 143.86C392.356 144.089 389.176 147.638 389.406 151.786C389.636 155.934 393.188 159.11 397.34 158.88Z" fill="#8FD0D6"/>
<path d="M391.433 146.163L390.908 146.78L402.403 156.544L402.928 155.928L391.433 146.163Z" fill="#C7EAED"/>
<path d="M423.758 168.223C428.667 167.888 432.374 163.64 432.038 158.736C431.702 153.832 427.449 150.128 422.54 150.464C417.631 150.8 413.924 155.048 414.26 159.952C414.596 164.856 418.848 168.559 423.758 168.223Z" fill="#E2E8EB"/>
<path d="M428.604 164.491C431.458 161.47 431.32 156.709 428.295 153.858C425.271 151.008 420.505 151.146 417.651 154.167C414.797 157.188 414.936 161.948 417.96 164.799C420.985 167.65 425.75 167.512 428.604 164.491Z" fill="#8FD0D6"/>
<path d="M423.34 151.779L422.53 151.802L422.966 166.87L423.776 166.846L423.34 151.779Z" fill="#C7EAED"/>
<path d="M389.637 185.152C394.554 184.986 398.406 180.869 398.24 175.957C398.074 171.044 393.952 167.197 389.035 167.363C384.117 167.529 380.265 171.646 380.432 176.558C380.598 181.471 384.719 185.318 389.637 185.152Z" fill="#E2E8EB"/>
<path d="M394.675 181.581C397.616 178.644 397.616 173.882 394.675 170.944C391.735 168.007 386.967 168.007 384.027 170.944C381.086 173.882 381.086 178.644 384.027 181.581C386.967 184.519 391.735 184.519 394.675 181.581Z" fill="#8FD0D6"/>
<path d="M394.207 170.446L383.906 181.46L384.498 182.013L394.799 170.999L394.207 170.446Z" fill="#C7EAED"/>
<path d="M415.569 193.106C420.489 193.106 424.478 189.122 424.478 184.206C424.478 179.291 420.489 175.306 415.569 175.306C410.648 175.306 406.659 179.291 406.659 184.206C406.659 189.122 410.648 193.106 415.569 193.106Z" fill="#E2E8EB"/>
<path d="M422.48 187.125C424.088 183.294 422.283 178.886 418.448 177.28C414.613 175.674 410.201 177.478 408.593 181.309C406.985 185.14 408.791 189.547 412.626 191.153C416.461 192.759 420.873 190.955 422.48 187.125Z" fill="#8FD0D6"/>
<path d="M415.049 176.689L414.245 176.786L416.059 191.749L416.863 191.652L415.049 176.689Z" fill="#C7EAED"/>
<path d="M390.546 202.787C391.471 197.959 388.304 193.296 383.471 192.372C378.638 191.447 373.969 194.611 373.044 199.439C372.118 204.267 375.286 208.93 380.119 209.855C384.952 210.779 389.62 207.615 390.546 202.787Z" fill="#E2E8EB"/>
<path d="M383.168 208.539C387.256 207.778 389.953 203.851 389.192 199.767C388.43 195.683 384.499 192.989 380.411 193.75C376.323 194.51 373.626 198.438 374.387 202.521C375.149 206.605 379.08 209.299 383.168 208.539Z" fill="#8FD0D6"/>
<path d="M381.652 193.596L380.844 193.65L381.856 208.689L382.664 208.634L381.652 193.596Z" fill="#C7EAED"/>
<path d="M414.31 215.401C417.79 211.925 417.79 206.29 414.31 202.814C410.831 199.338 405.19 199.338 401.711 202.814C398.231 206.29 398.231 211.925 401.711 215.401C405.19 218.876 410.831 218.876 414.31 215.401Z" fill="#E2E8EB"/>
<path d="M411.41 215.802C415.125 213.934 416.621 209.412 414.751 205.702C412.882 201.991 408.356 200.496 404.641 202.363C400.926 204.231 399.43 208.753 401.299 212.463C403.168 216.174 407.695 217.669 411.41 215.802Z" fill="#8FD0D6"/>
<path d="M400.946 206.334L400.692 207.103L415.019 211.833L415.273 211.064L400.946 206.334Z" fill="#C7EAED"/>
<path d="M383.125 226.648C383.482 221.746 379.793 217.482 374.885 217.125C369.977 216.769 365.709 220.454 365.352 225.356C364.995 230.259 368.684 234.522 373.592 234.879C378.5 235.236 382.768 231.551 383.125 226.648Z" fill="#E2E8EB"/>
<path d="M381.744 226.327C381.908 222.176 378.673 218.678 374.517 218.514C370.362 218.35 366.861 221.582 366.696 225.733C366.532 229.884 369.768 233.381 373.923 233.545C378.078 233.709 381.58 230.477 381.744 226.327Z" fill="#8FD0D6"/>
<path d="M379.781 220.96L368.087 230.485L368.599 231.112L380.293 221.587L379.781 220.96Z" fill="#C7EAED"/>
<path d="M409.356 234.302C409.546 229.39 405.713 225.255 400.796 225.065C395.879 224.875 391.739 228.704 391.549 233.615C391.359 238.527 395.192 242.663 400.109 242.853C405.026 243.042 409.166 239.214 409.356 234.302Z" fill="#E2E8EB"/>
<path d="M403.143 240.972C407.021 239.473 408.949 235.118 407.449 231.244C405.948 227.37 401.588 225.444 397.71 226.943C393.832 228.442 391.904 232.797 393.404 236.671C394.905 240.545 399.265 242.471 403.143 240.972Z" fill="#8FD0D6"/>
<path d="M407.673 231.766L393.052 235.49L393.252 236.274L407.873 232.55L407.673 231.766Z" fill="#C7EAED"/>
<path d="M420.848 118.999C420.698 118.939 420.608 118.789 420.638 118.609L420.938 117.65C420.998 117.5 421.148 117.411 421.328 117.441C421.478 117.5 421.568 117.65 421.538 117.83L421.238 118.789C421.178 118.939 420.998 119.029 420.848 118.999Z" fill="#A7B1BC"/>
<path d="M383.92 240.333C383.77 240.273 383.68 240.124 383.71 239.944L384.31 237.996C384.37 237.846 384.52 237.756 384.7 237.786C384.85 237.846 384.94 237.996 384.91 238.176L384.31 240.124C384.25 240.303 384.07 240.393 383.92 240.333ZM385.45 235.269C385.3 235.209 385.21 235.059 385.24 234.88L385.84 232.932C385.9 232.782 386.05 232.692 386.23 232.722C386.38 232.782 386.47 232.932 386.44 233.111L385.84 235.059C385.78 235.239 385.6 235.329 385.45 235.269ZM386.98 230.235C386.83 230.175 386.74 230.025 386.77 229.845L387.37 227.897C387.43 227.747 387.58 227.658 387.76 227.688C387.91 227.747 388 227.897 387.97 228.077L387.37 230.025C387.31 230.175 387.16 230.265 386.98 230.235ZM388.54 225.17C388.39 225.11 388.3 224.961 388.33 224.781L388.93 222.833C388.99 222.683 389.14 222.593 389.32 222.623C389.47 222.683 389.56 222.833 389.53 223.013L388.93 224.961C388.87 225.11 388.69 225.2 388.54 225.17ZM390.07 220.106C389.92 220.046 389.83 219.896 389.86 219.716L390.46 217.769C390.52 217.619 390.67 217.529 390.85 217.559C391 217.619 391.09 217.769 391.06 217.948L390.46 219.896C390.4 220.076 390.22 220.166 390.07 220.106ZM391.6 215.042C391.45 214.982 391.36 214.832 391.39 214.652L391.99 212.704C392.05 212.554 392.2 212.465 392.38 212.494C392.53 212.554 392.62 212.704 392.59 212.884L391.99 214.832C391.93 215.012 391.78 215.102 391.6 215.042ZM393.16 210.007C393.01 209.947 392.92 209.797 392.95 209.618L393.55 207.67C393.61 207.52 393.76 207.43 393.94 207.46C394.09 207.52 394.18 207.67 394.15 207.85L393.55 209.797C393.49 209.947 393.31 210.037 393.16 210.007ZM394.69 204.943C394.54 204.883 394.45 204.733 394.48 204.553L395.08 202.606C395.14 202.456 395.29 202.366 395.47 202.396C395.62 202.456 395.71 202.605 395.68 202.785L395.08 204.733C395.02 204.913 394.84 205.003 394.69 204.943ZM396.22 199.879C396.07 199.819 395.98 199.669 396.01 199.489L396.61 197.541C396.67 197.391 396.82 197.301 397 197.331C397.15 197.391 397.24 197.541 397.21 197.721L396.61 199.669C396.55 199.849 396.4 199.938 396.22 199.879ZM397.78 194.844C397.63 194.784 397.54 194.634 397.57 194.455L398.169 192.507C398.229 192.357 398.379 192.267 398.559 192.297C398.709 192.357 398.799 192.507 398.769 192.687L398.169 194.634C398.109 194.784 397.93 194.874 397.78 194.844ZM399.309 189.78C399.159 189.72 399.069 189.57 399.099 189.39L399.699 187.442C399.759 187.293 399.909 187.203 400.089 187.233C400.239 187.293 400.329 187.442 400.299 187.622L399.699 189.57C399.639 189.72 399.459 189.81 399.309 189.78ZM400.839 184.715C400.689 184.656 400.599 184.506 400.629 184.326L401.229 182.378C401.289 182.228 401.439 182.138 401.619 182.168C401.769 182.228 401.859 182.378 401.829 182.558L401.229 184.506C401.169 184.685 400.989 184.775 400.839 184.715ZM402.369 179.651C402.219 179.591 402.129 179.441 402.159 179.262L402.759 177.314C402.819 177.164 402.969 177.074 403.149 177.104C403.299 177.164 403.389 177.314 403.359 177.494L402.759 179.441C402.699 179.621 402.549 179.711 402.369 179.651ZM403.929 174.617C403.779 174.557 403.689 174.407 403.719 174.227L404.319 172.279C404.379 172.129 404.529 172.04 404.709 172.07C404.859 172.129 404.949 172.279 404.919 172.459L404.319 174.407C404.259 174.557 404.079 174.647 403.929 174.617ZM405.459 169.552C405.309 169.492 405.219 169.343 405.249 169.163L405.849 167.215C405.909 167.065 406.059 166.975 406.239 167.005C406.389 167.065 406.479 167.215 406.449 167.395L405.849 169.343C405.789 169.522 405.609 169.612 405.459 169.552ZM406.989 164.488C406.839 164.428 406.749 164.278 406.779 164.098L407.379 162.151C407.439 162.001 407.589 161.911 407.769 161.941C407.919 162.001 408.009 162.151 407.979 162.33L407.379 164.278C407.319 164.458 407.169 164.548 406.989 164.488ZM408.549 159.424C408.399 159.364 408.309 159.214 408.339 159.034L408.939 157.086C408.999 156.936 409.149 156.847 409.329 156.876C409.479 156.936 409.569 157.086 409.539 157.266L408.939 159.214C408.879 159.394 408.699 159.484 408.549 159.424ZM410.079 154.389C409.929 154.329 409.839 154.18 409.869 154L410.469 152.052C410.529 151.902 410.679 151.812 410.859 151.842C411.009 151.902 411.099 152.052 411.069 152.232L410.469 154.179C410.409 154.329 410.229 154.419 410.079 154.389ZM411.609 149.325C411.459 149.265 411.369 149.115 411.399 148.935L411.999 146.988C412.059 146.838 412.209 146.748 412.389 146.778C412.539 146.838 412.629 146.988 412.599 147.167L411.999 149.115C411.939 149.295 411.789 149.385 411.609 149.325ZM413.169 144.261C413.019 144.201 412.929 144.051 412.959 143.871L413.559 141.923C413.619 141.773 413.769 141.683 413.949 141.713C414.099 141.773 414.189 141.923 414.159 142.103L413.559 144.051C413.499 144.231 413.319 144.321 413.169 144.261ZM414.699 139.226C414.549 139.166 414.459 139.016 414.489 138.837L415.089 136.889C415.149 136.739 415.299 136.649 415.479 136.679C415.629 136.739 415.719 136.889 415.689 137.069L415.089 139.016C415.029 139.166 414.849 139.256 414.699 139.226ZM416.229 134.162C416.079 134.102 415.989 133.952 416.019 133.772L416.619 131.824C416.679 131.675 416.829 131.585 417.009 131.615C417.159 131.675 417.249 131.824 417.219 132.004L416.619 133.952C416.559 134.132 416.409 134.222 416.229 134.162ZM417.759 129.097C417.609 129.038 417.519 128.888 417.549 128.708L418.148 126.76C418.208 126.61 418.358 126.52 418.538 126.55C418.688 126.61 418.778 126.76 418.748 126.94L418.148 128.888C418.088 129.068 417.939 129.157 417.759 129.097ZM419.318 124.033C419.168 123.973 419.078 123.823 419.108 123.644L419.708 121.696C419.768 121.546 419.918 121.456 420.098 121.486C420.248 121.546 420.338 121.696 420.308 121.876L419.708 123.823C419.648 124.003 419.468 124.093 419.318 124.033Z" fill="#A7B1BC"/>
<path d="M382.66 244.409C382.51 244.349 382.42 244.199 382.45 244.019L382.75 243.06C382.81 242.911 382.96 242.821 383.14 242.851C383.29 242.911 383.38 243.06 383.35 243.24L383.05 244.199C382.99 244.379 382.84 244.469 382.66 244.409Z" fill="#A7B1BC"/>
<path d="M438.907 150.823L438.217 150.614C438.067 150.554 437.977 150.404 438.007 150.254C438.067 150.104 438.217 150.014 438.367 150.044L439.057 150.254C439.207 150.314 439.297 150.464 439.267 150.614C439.237 150.793 439.057 150.883 438.907 150.823ZM435.188 149.685L433.298 149.115C433.148 149.055 433.058 148.906 433.088 148.756C433.148 148.606 433.298 148.516 433.448 148.546L435.338 149.115C435.487 149.175 435.577 149.325 435.547 149.475C435.487 149.655 435.338 149.745 435.188 149.685ZM430.238 148.186L428.348 147.617C428.198 147.557 428.108 147.407 428.138 147.257C428.198 147.108 428.348 147.018 428.498 147.048L430.388 147.617C430.538 147.677 430.628 147.827 430.598 147.977C430.568 148.156 430.388 148.246 430.238 148.186ZM425.288 146.688L423.398 146.119C423.248 146.059 423.158 145.909 423.188 145.759C423.218 145.609 423.398 145.519 423.548 145.549L425.438 146.119C425.588 146.179 425.678 146.328 425.648 146.478C425.618 146.628 425.438 146.748 425.288 146.688ZM420.338 145.19L418.448 144.62C418.298 144.56 418.208 144.411 418.238 144.261C418.268 144.111 418.448 144.021 418.598 144.051L420.488 144.62C420.638 144.68 420.728 144.83 420.698 144.98C420.668 145.13 420.518 145.25 420.338 145.19ZM415.419 143.691L413.529 143.122C413.379 143.062 413.289 142.912 413.319 142.762C413.379 142.613 413.529 142.523 413.679 142.553L415.568 143.122C415.718 143.182 415.809 143.332 415.779 143.482C415.749 143.661 415.568 143.751 415.419 143.691ZM410.469 142.193L408.579 141.624C408.429 141.564 408.339 141.414 408.369 141.264C408.399 141.114 408.579 141.024 408.729 141.054L410.619 141.624C410.769 141.684 410.859 141.833 410.829 141.983C410.799 142.163 410.619 142.253 410.469 142.193ZM405.519 140.695L403.629 140.125C403.479 140.065 403.389 139.916 403.419 139.766C403.449 139.616 403.629 139.526 403.779 139.556L405.669 140.125C405.819 140.185 405.909 140.335 405.879 140.485C405.849 140.665 405.699 140.755 405.519 140.695ZM400.599 139.196L398.709 138.627C398.559 138.567 398.469 138.417 398.499 138.267C398.559 138.118 398.709 138.028 398.859 138.058L400.749 138.627C400.899 138.687 400.989 138.837 400.959 138.987C400.899 139.166 400.749 139.256 400.599 139.196ZM395.65 137.698L393.76 137.129C393.61 137.069 393.52 136.919 393.55 136.769C393.61 136.619 393.76 136.529 393.91 136.559L395.799 137.129C395.949 137.189 396.04 137.338 396.01 137.488C395.98 137.638 395.799 137.758 395.65 137.698ZM390.7 136.2L388.81 135.63C388.66 135.57 388.57 135.421 388.6 135.271C388.66 135.121 388.81 135.031 388.96 135.061L390.85 135.63C391 135.69 391.09 135.84 391.06 135.99C391.03 136.17 390.88 136.26 390.7 136.2Z" fill="#A7B1BC"/>
<path d="M431.348 175.726L430.658 175.516C430.508 175.456 430.418 175.306 430.448 175.156C430.508 175.006 430.658 174.916 430.808 174.946L431.498 175.156C431.648 175.216 431.738 175.366 431.708 175.516C431.678 175.666 431.498 175.756 431.348 175.726ZM427.598 174.587L425.708 174.017C425.558 173.958 425.468 173.808 425.498 173.658C425.558 173.508 425.708 173.418 425.858 173.448L427.748 174.017C427.898 174.077 427.988 174.227 427.958 174.377C427.928 174.527 427.778 174.617 427.598 174.587ZM422.678 173.089L420.788 172.519C420.638 172.459 420.548 172.309 420.578 172.16C420.608 172.01 420.788 171.92 420.938 171.95L422.828 172.519C422.978 172.579 423.068 172.729 423.038 172.879C423.008 173.029 422.828 173.118 422.678 173.089ZM417.729 171.59L415.839 171.021C415.689 170.961 415.599 170.811 415.629 170.661C415.659 170.511 415.839 170.421 415.989 170.451L417.879 171.021C418.029 171.081 418.118 171.231 418.088 171.38C418.058 171.53 417.879 171.62 417.729 171.59ZM412.779 170.092L410.889 169.522C410.739 169.463 410.649 169.313 410.679 169.163C410.709 169.013 410.889 168.923 411.039 168.953L412.929 169.522C413.079 169.582 413.169 169.732 413.139 169.882C413.109 170.032 412.959 170.122 412.779 170.092ZM407.859 168.594L405.969 168.024C405.819 167.964 405.729 167.814 405.759 167.665C405.789 167.515 405.969 167.425 406.119 167.455L408.009 168.024C408.159 168.084 408.249 168.234 408.219 168.384C408.159 168.534 408.009 168.623 407.859 168.594ZM402.909 167.095L401.019 166.526C400.869 166.466 400.779 166.316 400.809 166.166C400.839 166.016 401.019 165.926 401.169 165.956L403.059 166.526C403.209 166.586 403.299 166.736 403.269 166.885C403.239 167.035 403.059 167.125 402.909 167.095ZM397.96 165.597L396.07 165.027C395.92 164.968 395.83 164.818 395.86 164.668C395.92 164.518 396.07 164.428 396.22 164.458L398.11 165.027C398.259 165.087 398.349 165.237 398.319 165.387C398.289 165.537 398.11 165.627 397.96 165.597ZM393.01 164.099L391.12 163.529C390.97 163.469 390.88 163.319 390.91 163.17C390.94 163.02 391.12 162.93 391.27 162.96L393.16 163.529C393.31 163.589 393.4 163.739 393.37 163.889C393.34 164.039 393.19 164.128 393.01 164.099ZM388.09 162.6L386.2 162.031C386.05 161.971 385.96 161.821 385.99 161.671C386.05 161.521 386.2 161.432 386.35 161.461L388.24 162.031C388.39 162.091 388.48 162.241 388.45 162.39C388.42 162.54 388.24 162.63 388.09 162.6ZM383.14 161.102L381.25 160.532C381.1 160.473 381.01 160.323 381.04 160.173C381.07 160.023 381.25 159.933 381.4 159.963L383.29 160.532C383.44 160.592 383.53 160.742 383.5 160.892C383.47 161.042 383.29 161.132 383.14 161.102Z" fill="#A7B1BC"/>
<path d="M423.788 200.598L423.098 200.388C422.948 200.328 422.858 200.178 422.888 200.029C422.918 199.879 423.098 199.789 423.248 199.819L423.938 200.029C424.088 200.088 424.178 200.238 424.148 200.388C424.088 200.568 423.938 200.658 423.788 200.598ZM420.038 199.459L418.148 198.89C417.998 198.83 417.908 198.68 417.938 198.53C417.998 198.38 418.148 198.29 418.298 198.32L420.188 198.89C420.338 198.95 420.428 199.1 420.398 199.249C420.368 199.429 420.188 199.519 420.038 199.459ZM415.119 197.961L413.229 197.391C413.079 197.332 412.989 197.182 413.019 197.032C413.079 196.882 413.229 196.792 413.379 196.822L415.269 197.391C415.419 197.451 415.509 197.601 415.479 197.751C415.419 197.931 415.269 198.021 415.119 197.961ZM410.169 196.462L408.279 195.893C408.129 195.833 408.039 195.683 408.069 195.534C408.129 195.384 408.279 195.294 408.429 195.324L410.319 195.893C410.469 195.953 410.559 196.103 410.529 196.253C410.499 196.403 410.319 196.522 410.169 196.462ZM405.219 194.964L403.329 194.395C403.179 194.335 403.089 194.185 403.119 194.035C403.179 193.885 403.329 193.795 403.479 193.825L405.369 194.395C405.519 194.455 405.609 194.605 405.579 194.754C405.549 194.934 405.369 195.024 405.219 194.964ZM400.269 193.466L398.379 192.896C398.229 192.837 398.139 192.687 398.169 192.537C398.229 192.387 398.379 192.297 398.529 192.327L400.419 192.896C400.569 192.956 400.659 193.106 400.629 193.256C400.599 193.406 400.449 193.526 400.269 193.466ZM395.35 191.967L393.46 191.398C393.31 191.338 393.22 191.188 393.25 191.039C393.28 190.889 393.46 190.799 393.61 190.829L395.5 191.398C395.65 191.458 395.74 191.608 395.71 191.758C395.68 191.938 395.5 192.027 395.35 191.967ZM390.4 190.469L388.51 189.9C388.36 189.84 388.27 189.69 388.3 189.54C388.36 189.39 388.51 189.3 388.66 189.33L390.55 189.9C390.7 189.96 390.79 190.11 390.76 190.259C390.73 190.439 390.55 190.529 390.4 190.469ZM385.45 188.971L383.56 188.401C383.41 188.342 383.32 188.192 383.35 188.042C383.41 187.892 383.56 187.802 383.71 187.832L385.6 188.401C385.75 188.461 385.84 188.611 385.81 188.761C385.78 188.941 385.63 189.031 385.45 188.971ZM380.53 187.473L378.641 186.903C378.491 186.843 378.401 186.693 378.431 186.544C378.491 186.394 378.641 186.304 378.79 186.334L380.68 186.903C380.83 186.963 380.92 187.113 380.89 187.263C380.83 187.443 380.68 187.532 380.53 187.473ZM375.581 185.974L373.691 185.405C373.541 185.345 373.451 185.195 373.481 185.045C373.511 184.895 373.691 184.805 373.841 184.835L375.731 185.405C375.881 185.465 375.971 185.615 375.941 185.764C375.911 185.914 375.731 186.034 375.581 185.974Z" fill="#A7B1BC"/>
<path d="M416.199 225.5L415.509 225.29C415.359 225.23 415.269 225.08 415.299 224.931C415.359 224.781 415.509 224.691 415.659 224.721L416.349 224.931C416.499 224.991 416.589 225.14 416.559 225.29C416.529 225.44 416.379 225.53 416.199 225.5ZM412.479 224.361L410.589 223.792C410.439 223.732 410.349 223.582 410.379 223.432C410.439 223.282 410.589 223.193 410.739 223.223L412.629 223.792C412.779 223.852 412.869 224.002 412.839 224.151C412.809 224.301 412.629 224.391 412.479 224.361ZM407.529 222.863L405.639 222.294C405.489 222.234 405.399 222.084 405.429 221.934C405.489 221.784 405.639 221.694 405.789 221.724L407.679 222.294C407.829 222.354 407.919 222.503 407.889 222.653C407.859 222.803 407.709 222.893 407.529 222.863ZM402.609 221.365L400.719 220.795C400.569 220.735 400.479 220.585 400.509 220.436C400.569 220.286 400.719 220.196 400.869 220.226L402.759 220.795C402.909 220.855 402.999 221.005 402.969 221.155C402.909 221.305 402.759 221.395 402.609 221.365ZM397.66 219.866L395.77 219.297C395.62 219.237 395.53 219.087 395.56 218.937C395.59 218.787 395.77 218.698 395.92 218.728L397.809 219.297C397.959 219.357 398.049 219.507 398.019 219.657C397.989 219.806 397.809 219.896 397.66 219.866ZM392.71 218.368L390.82 217.799C390.67 217.739 390.58 217.589 390.61 217.439C390.64 217.289 390.82 217.199 390.97 217.229L392.86 217.799C393.01 217.859 393.1 218.008 393.07 218.158C393.04 218.308 392.86 218.398 392.71 218.368ZM387.79 216.87L385.9 216.3C385.75 216.24 385.66 216.09 385.69 215.941C385.75 215.791 385.9 215.701 386.05 215.731L387.94 216.3C388.09 216.36 388.18 216.51 388.15 216.66C388.09 216.81 387.94 216.9 387.79 216.87ZM382.84 215.371L380.95 214.802C380.8 214.742 380.71 214.592 380.74 214.442C380.8 214.292 380.95 214.203 381.1 214.233L382.99 214.802C383.14 214.862 383.23 215.012 383.2 215.162C383.17 215.311 382.99 215.401 382.84 215.371ZM377.89 213.873L376.001 213.304C375.851 213.244 375.761 213.094 375.791 212.944C375.851 212.794 376.001 212.704 376.151 212.734L378.04 213.304C378.19 213.364 378.28 213.513 378.25 213.663C378.22 213.813 378.04 213.903 377.89 213.873ZM372.941 212.375L371.051 211.805C370.901 211.745 370.811 211.595 370.841 211.446C370.871 211.296 371.051 211.206 371.201 211.236L373.091 211.805C373.241 211.865 373.331 212.015 373.301 212.165C373.271 212.315 373.121 212.405 372.941 212.375ZM368.021 210.876L366.131 210.307C365.981 210.247 365.891 210.097 365.921 209.947C365.951 209.797 366.131 209.708 366.281 209.738L368.171 210.307C368.321 210.367 368.411 210.517 368.381 210.667C368.351 210.816 368.171 210.906 368.021 210.876Z" fill="#A7B1BC"/>
<path d="M402.519 251.062L362.951 239.075C361.991 238.775 361.451 237.756 361.721 236.798C362.021 235.839 363.041 235.299 364.001 235.569L403.569 247.555C404.529 247.855 405.069 248.874 404.799 249.833C404.529 250.822 403.479 251.361 402.519 251.062Z" fill="#A7B1BC"/>
<path d="M435.368 209.948C435.368 209.888 434.678 202.516 430.418 195.384C424.958 186.214 416.259 181.539 404.559 181.569C392.74 181.569 384.01 186.304 378.58 195.653C374.411 202.815 373.811 209.948 373.811 210.007L366.191 209.378C366.221 209.019 366.971 200.418 371.981 191.788C376.721 183.637 386.23 173.898 404.559 173.898C422.918 173.868 432.428 183.577 437.167 191.728C442.207 200.358 442.957 208.929 442.987 209.288L435.368 209.948Z" fill="#799CA1"/>
<path d="M354.252 209.498H346.152C344.952 209.498 343.962 208.509 343.962 207.31V200.238C343.962 199.04 344.952 198.051 346.152 198.051H354.252C355.452 198.051 356.441 199.04 356.441 200.238V207.31C356.441 208.509 355.452 209.498 354.252 209.498Z" fill="#A7B1BC"/>
<path d="M462.756 209.408H454.656C453.457 209.408 452.467 208.419 452.467 207.221V200.148C452.467 198.95 453.457 197.961 454.656 197.961H462.756C463.956 197.961 464.946 198.95 464.946 200.148V207.221C464.916 208.419 463.956 209.408 462.756 209.408Z" fill="#799CA1"/>
<path d="M359.711 311.654H353.892C352.452 311.654 351.312 310.486 351.312 309.077V308.448C351.312 307.009 352.482 305.871 353.892 305.871H359.711C361.151 305.871 362.291 307.039 362.291 308.448V309.077C362.321 310.486 361.151 311.654 359.711 311.654Z" fill="#A7B1BC"/>
<path d="M455.167 311.355H449.347C447.907 311.355 446.767 310.186 446.767 308.777V308.148C446.767 306.71 447.937 305.571 449.347 305.571H455.167C456.606 305.571 457.746 306.74 457.746 308.148V308.777C457.746 310.186 456.576 311.355 455.167 311.355Z" fill="#799CA1"/>
<path d="M472.026 308.178L337.063 308.298C334.423 308.298 332.263 306.17 332.263 303.503L332.173 208.419C332.173 205.782 334.303 203.625 336.973 203.625L471.936 203.505C474.576 203.505 476.735 205.632 476.735 208.299L476.825 303.383C476.795 306.02 474.666 308.178 472.026 308.178Z" fill="#FF8681"/>
<path d="M404.559 228.617L404.619 283.156" stroke="white" stroke-width="49.5358" stroke-miterlimit="10"/>
<path d="M377.201 256.006L431.798 255.976" stroke="white" stroke-width="49.5358" stroke-miterlimit="10"/>
<path opacity="0.6" d="M346.602 200.029V201.946" stroke="white" stroke-width="3.6888" stroke-miterlimit="10" stroke-linecap="round"/>
<path opacity="0.5" d="M340.272 212.525L340.302 230.624" stroke="white" stroke-width="15.2823" stroke-miterlimit="10" stroke-linecap="round"/>
<path d="M192.89 298.679L71.4563 315.22C68.2464 315.67 65.3066 313.422 64.8566 310.216L42.4778 146.239C42.0278 143.032 44.2777 140.095 47.4875 139.646L168.921 123.104C172.131 122.655 175.071 124.902 175.521 128.109L197.9 292.086C198.32 295.262 196.07 298.229 192.89 298.679Z" fill="#799CA1"/>
<path d="M139.11 127.596L79.1306 135.76L80.2118 143.688L140.192 135.524L139.11 127.596Z" fill="#BEC5D9"/>
<path d="M175.281 294.963L73.7962 308.777C73.4662 308.837 73.1662 308.597 73.1062 308.268L50.7874 144.65C50.7274 144.321 50.9674 144.021 51.2973 143.961L166.401 128.258C166.731 128.199 167.031 128.438 167.091 128.768L187.67 279.71L175.281 294.963Z" fill="white"/>
<path d="M187.67 279.74L174.081 281.597C173.751 281.657 173.511 281.957 173.571 282.287L175.311 294.963L187.67 279.74Z" fill="white" stroke="#B4C2DF" stroke-width="2.7918" stroke-miterlimit="10" stroke-linecap="round" stroke-linejoin="round"/>
<path d="M161.752 168.234L90.5953 177.913C89.8454 178.003 89.1554 177.524 89.0354 176.774C88.9454 176.055 89.4554 175.366 90.2354 175.276L161.392 165.597C162.142 165.507 162.832 165.986 162.952 166.736C163.042 167.455 162.502 168.114 161.752 168.234Z" fill="#C1E2EB"/>
<path d="M158.152 175.336L91.4953 184.416C90.7453 184.506 90.0554 184.026 89.9354 183.277C89.8454 182.558 90.3554 181.869 91.1353 181.779L157.792 172.699C158.542 172.609 159.232 173.088 159.352 173.838C159.442 174.557 158.902 175.216 158.152 175.336Z" fill="#C1E2EB"/>
<path d="M66.8966 191.308C66.5366 191.308 66.0866 190.799 65.9966 190.319L64.1067 176.415C64.0167 175.815 64.4667 175.246 65.0667 175.156L78.9859 173.268C79.0459 173.268 79.0759 173.268 79.1359 173.268C79.7059 173.268 80.1559 173.688 80.2459 174.227L82.1358 188.132C82.1958 188.461 82.0758 188.791 81.8358 189.031C81.6258 189.24 81.2958 189.39 80.8759 189.45L66.9566 191.338C66.9566 191.308 66.9266 191.308 66.8966 191.308Z" fill="white"/>
<path d="M79.1359 173.748C79.4359 173.748 79.7059 173.958 79.7359 174.287L81.6258 188.192C81.6858 188.521 81.4458 188.821 80.8158 188.911L66.8965 190.799C66.8665 190.799 66.5665 190.559 66.5065 190.229L64.6166 176.325C64.5567 175.995 64.7966 175.696 65.1266 175.636L79.0459 173.748C79.0759 173.748 79.1059 173.748 79.1359 173.748ZM79.1359 172.729C79.0759 172.729 78.9859 172.729 78.9259 172.729L65.0066 174.617C64.1067 174.737 63.5067 175.546 63.6267 176.445L65.5166 190.349C65.6066 191.038 66.2366 191.788 66.8965 191.788C66.9265 191.788 66.9865 191.788 67.0465 191.788L80.9658 189.9C82.2858 189.72 82.7657 188.791 82.6457 188.042L80.7558 174.137C80.6358 173.328 79.9459 172.729 79.1359 172.729Z" fill="#BEC5D9"/>
<path d="M165.052 193.106L93.8951 202.785C93.1452 202.875 92.4552 202.396 92.3352 201.647C92.2452 200.927 92.7552 200.238 93.5352 200.148L164.692 190.469C165.441 190.379 166.131 190.859 166.251 191.608C166.341 192.327 165.801 192.986 165.052 193.106Z" fill="#C1E2EB"/>
<path d="M161.452 200.208L94.7951 209.288C94.0451 209.378 93.3552 208.898 93.2352 208.149C93.1452 207.43 93.6552 206.741 94.4351 206.651L161.092 197.571C161.842 197.481 162.532 197.961 162.652 198.71C162.742 199.429 162.202 200.088 161.452 200.208Z" fill="#C1E2EB"/>
<path d="M70.4063 216.15C69.8364 216.15 69.3864 215.731 69.2964 215.191L67.4065 201.287C67.3465 200.897 67.4965 200.538 67.6765 200.328C67.7065 200.268 67.8265 200.118 68.0665 200.088L81.9857 198.2C82.1057 198.17 82.1957 198.17 82.3157 198.17C83.1257 198.17 83.4857 198.65 83.5457 199.099L85.4356 213.004C85.5256 213.603 85.0756 214.173 84.4756 214.262L70.5563 216.15C70.5263 216.15 70.4663 216.15 70.4063 216.15Z" fill="white"/>
<path d="M82.3158 198.65C82.7957 198.65 83.0057 198.86 83.0657 199.159L84.9556 213.064C85.0156 213.393 84.7756 213.693 84.4456 213.753L70.5264 215.641C70.4964 215.641 70.4663 215.641 70.4364 215.641C70.1364 215.641 69.8664 215.431 69.8364 215.102L67.9465 201.197C67.8865 200.867 68.1265 200.568 68.1565 200.538L82.0758 198.65C82.1358 198.65 82.2258 198.65 82.3158 198.65ZM82.3158 197.631C82.1958 197.631 82.0758 197.631 81.9258 197.661L68.0065 199.549C67.7365 199.579 67.4665 199.729 67.2865 199.998C67.1665 200.148 66.8365 200.658 66.9265 201.347L68.8164 215.251C68.9364 216.06 69.6264 216.66 70.4364 216.66C70.4963 216.66 70.5863 216.66 70.6463 216.66L84.5656 214.772C85.4656 214.652 86.0656 213.843 85.9456 212.944L84.0557 199.039C83.9057 198.08 83.0657 197.631 82.3158 197.631Z" fill="#BEC5D9"/>
<path d="M168.441 217.978L97.285 227.658C96.535 227.748 95.845 227.268 95.7251 226.519C95.6351 225.8 96.145 225.11 96.925 225.021L168.081 215.341C168.831 215.251 169.521 215.731 169.641 216.48C169.731 217.199 169.191 217.859 168.441 217.978Z" fill="#C1E2EB"/>
<path d="M164.842 225.08L98.1849 234.16C97.435 234.25 96.745 233.771 96.625 233.022C96.535 232.302 97.045 231.613 97.825 231.523L164.482 222.443C165.231 222.354 165.921 222.833 166.041 223.582C166.131 224.301 165.591 224.961 164.842 225.08Z" fill="#C1E2EB"/>
<path d="M73.8262 240.993C73.2562 240.993 72.8063 240.573 72.7163 240.034L70.8264 226.129C70.7664 225.74 70.9163 225.38 71.0963 225.17C71.1263 225.11 71.2463 224.961 71.4863 224.931L85.4056 223.043C85.5256 223.013 85.6156 223.013 85.7356 223.013C86.5455 223.013 86.9055 223.492 86.9655 223.942L88.8554 237.846C88.8854 238.146 88.8254 238.446 88.6454 238.685C88.4654 238.925 88.1954 239.075 87.8954 239.105L73.9762 240.993C73.9162 240.993 73.8562 240.993 73.8262 240.993Z" fill="white"/>
<path d="M85.7056 223.522C86.1856 223.522 86.3956 223.732 86.4556 224.032L88.3455 237.936C88.4055 238.266 88.1655 238.566 87.8355 238.625L73.9162 240.513C73.8862 240.513 73.8562 240.513 73.8262 240.513C73.5262 240.513 73.2562 240.304 73.2262 239.974L71.3063 226.069C71.2463 225.74 71.4863 225.44 71.5163 225.41L85.4356 223.522C85.5256 223.522 85.6156 223.522 85.7056 223.522ZM85.7056 222.503C85.5856 222.503 85.4356 222.503 85.3156 222.533L71.3963 224.421C71.1263 224.451 70.8564 224.601 70.6764 224.871C70.5564 225.021 70.2264 225.53 70.3164 226.219L72.2063 240.124C72.3263 240.933 73.0162 241.532 73.8262 241.532C73.8862 241.532 73.9762 241.532 74.0362 241.532L87.9555 239.644C88.3755 239.584 88.7654 239.375 89.0354 239.015C89.3054 238.655 89.3954 238.236 89.3654 237.816L87.4755 223.912C87.2955 222.923 86.4556 222.503 85.7056 222.503Z" fill="#BEC5D9"/>
<path d="M171.831 242.821L100.675 252.5C99.9248 252.59 99.2349 252.11 99.1149 251.361C99.0249 250.642 99.5349 249.953 100.315 249.863L171.471 240.184C172.221 240.094 172.911 240.573 173.031 241.322C173.121 242.071 172.581 242.731 171.831 242.821Z" fill="#C1E2EB"/>
<path d="M168.231 249.923L101.575 259.003C100.825 259.092 100.135 258.613 100.015 257.864C99.9249 257.145 100.435 256.455 101.215 256.366L167.871 247.286C168.621 247.196 169.311 247.675 169.431 248.424C169.521 249.144 168.981 249.833 168.231 249.923Z" fill="#C1E2EB"/>
<path d="M77.246 265.865C76.646 265.865 76.166 265.415 76.0761 264.846L74.1861 251.091C74.1561 250.792 74.2161 250.462 74.4261 250.222C74.6061 249.983 74.9061 249.803 75.2061 249.773L88.9754 247.885C89.0354 247.885 89.0954 247.885 89.1254 247.885C89.7253 247.885 90.2053 248.334 90.2953 248.904L92.1852 262.658C92.2752 263.318 91.8252 263.887 91.1653 263.977L77.396 265.865C77.366 265.865 77.306 265.865 77.246 265.865Z" fill="white"/>
<path d="M89.1554 248.364C89.4854 248.364 89.7854 248.604 89.8154 248.934L91.7053 262.688C91.7653 263.048 91.4953 263.408 91.1353 263.437L77.366 265.325C77.336 265.325 77.306 265.325 77.276 265.325C76.946 265.325 76.646 265.086 76.616 264.756L74.7261 251.001C74.6661 250.642 74.9361 250.282 75.2961 250.252L89.0654 248.364C89.0954 248.364 89.1254 248.364 89.1554 248.364ZM89.1554 247.345C89.0654 247.345 89.0054 247.345 88.9154 247.375L75.1461 249.263C74.6961 249.323 74.3061 249.563 74.0362 249.923C73.7662 250.282 73.6462 250.732 73.7062 251.181L75.5961 264.936C75.7161 265.775 76.436 266.404 77.276 266.404C77.366 266.404 77.426 266.404 77.516 266.374L91.2853 264.486C92.2152 264.366 92.8452 263.497 92.7252 262.598L90.8353 248.844C90.7153 247.975 89.9953 247.345 89.1554 247.345Z" fill="#BEC5D9"/>
<path d="M175.221 267.693L104.065 277.372C103.315 277.462 102.625 276.983 102.505 276.233C102.415 275.514 102.925 274.825 103.705 274.735L174.861 265.056C175.611 264.966 176.301 265.446 176.421 266.195C176.511 266.914 175.971 267.603 175.221 267.693Z" fill="#C1E2EB"/>
<path d="M171.621 274.795L104.965 283.875C104.215 283.965 103.525 283.485 103.405 282.736C103.315 282.017 103.825 281.328 104.605 281.238L171.261 272.158C172.011 272.068 172.701 272.548 172.821 273.297C172.911 274.016 172.371 274.705 171.621 274.795Z" fill="#C1E2EB"/>
<path d="M80.6658 290.737C80.0658 290.737 79.5858 290.288 79.4958 289.718L77.6059 275.964C77.5759 275.664 77.6359 275.334 77.8459 275.095C78.0259 274.855 78.3259 274.675 78.6259 274.645L92.3952 272.757C92.4552 272.757 92.5152 272.757 92.5452 272.757C93.1451 272.757 93.6251 273.207 93.7151 273.776L95.605 287.531C95.635 287.83 95.575 288.16 95.365 288.4C95.185 288.64 94.885 288.819 94.5851 288.849L80.8158 290.737C80.7558 290.737 80.6958 290.737 80.6658 290.737Z" fill="white"/>
<path d="M92.5452 273.237C92.8752 273.237 93.1752 273.477 93.2052 273.806L95.0951 287.561C95.1551 287.92 94.8851 288.28 94.5251 288.31L80.7558 290.198C80.7258 290.198 80.6958 290.198 80.6658 290.198C80.3359 290.198 80.0359 289.958 80.0059 289.628L78.116 275.874C78.056 275.514 78.3259 275.155 78.6859 275.125L92.4552 273.237C92.4852 273.237 92.5152 273.237 92.5452 273.237ZM92.5452 272.218C92.4552 272.218 92.3952 272.218 92.3052 272.248L78.5359 274.136C78.086 274.196 77.696 274.435 77.426 274.795C77.156 275.155 77.036 275.604 77.096 276.054L78.9859 289.808C79.1059 290.647 79.8259 291.277 80.6658 291.277C80.7558 291.277 80.8158 291.277 80.9058 291.247L94.6751 289.359C95.1251 289.299 95.5151 289.059 95.7851 288.7C96.0551 288.34 96.1751 287.89 96.1151 287.441L94.2252 273.686C94.1052 272.847 93.3852 272.218 92.5452 272.218Z" fill="#BEC5D9"/>
<path d="M138.203 128.708L80.4858 136.559C79.4658 136.709 78.5359 135.99 78.3859 134.971C78.2359 133.952 78.9559 133.023 79.9758 132.873L137.693 125.022C138.713 124.872 139.643 125.592 139.793 126.61C139.943 127.629 139.223 128.588 138.203 128.708Z" fill="#BEC5D9"/>
<path d="M115.134 145.489C112.794 145.819 111.264 145.999 111.234 145.999C111.174 145.999 103.555 147.108 95.815 148.007C79.6759 149.865 78.6259 149.055 77.9959 148.576C77.666 148.336 77.486 148.007 77.426 147.617L76.106 138.028C75.9561 136.949 76.196 135.96 76.796 135.181C77.816 133.862 79.4659 133.623 79.6459 133.593L79.9458 135.93C79.4359 135.99 78.2659 136.32 78.4759 137.668L79.7059 146.688C82.6757 147.168 97.5249 145.579 110.964 143.631C124.434 141.923 139.133 139.526 141.923 138.297L140.693 129.218C140.633 128.768 140.483 128.438 140.213 128.229C139.673 127.839 138.833 127.929 138.803 127.929L138.473 125.592C138.653 125.562 140.333 125.352 141.653 126.341C142.433 126.91 142.913 127.809 143.063 128.888L144.383 138.597C144.443 138.957 144.323 139.346 144.083 139.646C143.633 140.245 142.853 141.264 126.773 143.781C122.394 144.471 118.104 145.07 115.134 145.489Z" fill="#BEC5D9"/>
<path d="M67.5865 180.97L72.5362 187.532L77.516 176.475" stroke="#FA938E" stroke-width="8.3753" stroke-miterlimit="10" stroke-linecap="round" stroke-linejoin="round"/>
<path d="M71.2163 205.662L76.1661 212.225L81.1458 201.167" stroke="#FA938E" stroke-width="8.3753" stroke-miterlimit="10" stroke-linecap="round" stroke-linejoin="round"/>
<path d="M81.2658 280.399L86.1855 286.962L91.1653 275.934" stroke="#FA938E" stroke-width="8.3753" stroke-miterlimit="10" stroke-linecap="round" stroke-linejoin="round"/>
<path d="M386.47 305.871H122.784V133.862C122.784 127.629 127.853 122.565 134.093 122.565H375.161C381.4 122.565 386.47 127.629 386.47 133.862V305.871V305.871Z" fill="#55B6C1"/>
<path d="M374.471 292.625H134.813C134.183 292.625 133.673 292.116 133.673 291.487V136.919C133.673 136.29 134.183 135.78 134.813 135.78H374.441C375.071 135.78 375.58 136.29 375.58 136.919V291.516C375.58 292.146 375.1 292.625 374.471 292.625Z" fill="#9AD1D6"/>
<path d="M401.499 313.122H107.694C102.415 313.122 98.1548 308.867 98.1548 303.593H411.069C411.039 308.837 406.779 313.122 401.499 313.122Z" fill="#018E9E"/>
<path d="M238.608 303.893C238.608 306.35 240.618 308.328 243.047 308.328H265.156C267.616 308.328 269.596 306.32 269.596 303.893C269.596 303.773 269.596 303.683 269.596 303.563H238.608C238.608 303.683 238.608 303.803 238.608 303.893Z" fill="#8FD0D6"/>
<path d="M254.657 132.274C256.015 132.274 257.117 131.174 257.117 129.817C257.117 128.46 256.015 127.36 254.657 127.36C253.298 127.36 252.197 128.46 252.197 129.817C252.197 131.174 253.298 132.274 254.657 132.274Z" fill="#8FD0D6"/>
<path d="M98.9348 330.533L49.1074 318.217C46.2875 317.527 44.5476 314.651 45.2376 311.804L61.5268 246.147C62.2167 243.33 65.0966 241.592 67.9464 242.281L117.774 254.628C120.594 255.317 122.334 258.194 121.644 261.04L105.355 326.697C104.635 329.514 101.755 331.252 98.9348 330.533Z" fill="#D4DEE6"/>
<path d="M99.8947 330.863L48.0874 318.067C45.7475 317.498 44.3376 315.13 44.9076 312.793L61.6767 245.158C62.2467 242.821 64.6166 241.412 66.9564 241.982L118.764 254.807C121.104 255.377 122.514 257.744 121.944 260.082L105.174 327.716C104.605 330.024 102.235 331.462 99.8947 330.863ZM66.9264 242.162C64.6766 241.622 62.4267 242.971 61.8567 245.218L45.0876 312.853C44.5476 315.1 45.8975 317.348 48.1474 317.917L99.9547 330.743C102.205 331.282 104.455 329.934 105.024 327.686L121.794 260.052C122.334 257.804 120.984 255.557 118.734 254.987L66.9264 242.162Z" fill="#F3F5F7"/>
<path d="M65.0366 269.791C62.6067 269.191 61.1368 266.734 61.7367 264.307C62.3367 261.879 64.7966 260.411 67.2265 261.01L80.3358 264.247C82.7657 264.846 84.2356 267.303 83.6357 269.731C83.0357 272.158 80.5758 273.626 78.1459 273.027L65.0366 269.791Z" fill="#F3F5F7"/>
<path d="M73.4361 263.618L71.7562 270.33L65.2766 268.742C63.4167 268.292 62.2767 266.405 62.7567 264.547C62.9967 263.618 63.5667 262.868 64.3466 262.419C65.0966 261.969 66.0565 261.79 66.9565 262.029L73.4361 263.618Z" fill="#01AEB3"/>
<path d="M82.6157 269.461C82.3757 270.39 81.8057 271.139 81.0257 271.589C80.2758 272.038 79.3158 272.218 78.4159 271.978L71.7562 270.33L73.4361 263.618L80.0958 265.266C81.9257 265.745 83.0656 267.633 82.6157 269.461Z" fill="#8FD0D6"/>
<path opacity="0.6" d="M67.6765 264.217C67.5565 264.636 66.8965 264.846 66.1766 264.666C65.4566 264.487 64.9766 264.007 65.0666 263.558C65.1866 263.138 65.8466 262.928 66.5666 263.108C67.2865 263.288 67.7965 263.797 67.6765 264.217Z" fill="white"/>
<path d="M94.3751 277.043C91.9453 276.443 90.4753 273.986 91.0753 271.559C91.6753 269.131 94.1351 267.663 96.565 268.262L109.674 271.499C112.104 272.098 113.574 274.555 112.974 276.983C112.374 279.41 109.914 280.878 107.484 280.279L94.3751 277.043Z" fill="#F3F5F7"/>
<path d="M102.775 270.899L101.095 277.612L94.6151 276.024C92.7552 275.574 91.6152 273.686 92.0952 271.828C92.3352 270.899 92.9052 270.15 93.6851 269.701C94.4351 269.251 95.395 269.071 96.295 269.311L102.775 270.899Z" fill="#01AEB3"/>
<path d="M111.954 276.743C111.714 277.672 111.144 278.421 110.364 278.871C109.614 279.32 108.654 279.5 107.754 279.26L101.095 277.612L102.775 270.899L109.434 272.548C111.294 272.997 112.404 274.885 111.954 276.743Z" fill="#8FD0D6"/>
<path opacity="0.6" d="M97.045 271.499C96.925 271.918 96.2651 272.128 95.5451 271.948C94.8251 271.769 94.3451 271.289 94.4351 270.84C94.5551 270.42 95.2151 270.21 95.9351 270.39C96.655 270.57 97.135 271.049 97.045 271.499Z" fill="white"/>
<path d="M61.6767 283.336C59.2468 282.736 57.7769 280.279 58.3769 277.852C58.9768 275.424 61.4367 273.956 63.8666 274.555L76.9759 277.792C79.4058 278.391 80.8757 280.848 80.2758 283.276C79.6758 285.703 77.2159 287.171 74.786 286.572L61.6767 283.336Z" fill="#F3F5F7"/>
<path d="M70.0763 277.163L68.3964 283.875L61.9167 282.287C60.0568 281.837 58.9169 279.949 59.3968 278.092C59.6368 277.163 60.2068 276.413 60.9867 275.964C61.7367 275.514 62.6967 275.335 63.5966 275.574L70.0763 277.163Z" fill="#01AEB3"/>
<path d="M79.2558 283.006C79.0158 283.935 78.4459 284.684 77.6659 285.134C76.9159 285.583 75.956 285.763 75.056 285.523L68.3964 283.875L70.0763 277.162L76.7359 278.811C78.5659 279.26 79.7058 281.148 79.2558 283.006Z" fill="#8FD0D6"/>
<path opacity="0.6" d="M64.3166 277.762C64.1966 278.181 63.5367 278.391 62.8167 278.211C62.0967 278.032 61.6168 277.552 61.7067 277.103C61.8267 276.683 62.4867 276.473 63.2067 276.653C63.9267 276.833 64.4366 277.342 64.3166 277.762Z" fill="white"/>
<path d="M91.0152 290.588C88.5853 289.988 87.1154 287.531 87.7154 285.104C88.3154 282.676 90.7752 281.208 93.2051 281.807L106.314 285.044C108.744 285.643 110.214 288.1 109.614 290.528C109.014 292.955 106.554 294.423 104.125 293.824L91.0152 290.588Z" fill="#F3F5F7"/>
<path d="M99.4148 284.445L97.7349 291.157L91.2552 289.569C89.3953 289.119 88.2554 287.231 88.7353 285.373C88.9753 284.445 89.5453 283.695 90.3253 283.246C91.0752 282.796 92.0352 282.617 92.9351 282.856L99.4148 284.445Z" fill="#01AEB3"/>
<path d="M108.594 290.288C108.354 291.217 107.784 291.966 107.004 292.416C106.254 292.865 105.294 293.045 104.395 292.805L97.7349 291.157L99.4148 284.444L106.074 286.093C107.934 286.542 109.074 288.43 108.594 290.288Z" fill="#8FD0D6"/>
<path opacity="0.6" d="M93.6851 285.014C93.5651 285.433 92.9052 285.643 92.1852 285.463C91.4652 285.284 90.9853 284.804 91.0753 284.355C91.1953 283.935 91.8552 283.725 92.5752 283.905C93.2952 284.115 93.7751 284.594 93.6851 285.014Z" fill="white"/>
<path d="M58.3169 296.881C55.887 296.281 54.4171 293.824 55.0171 291.397C55.617 288.969 58.0769 287.501 60.5068 288.1L73.6161 291.337C76.046 291.936 77.5159 294.393 76.9159 296.821C76.316 299.248 73.8561 300.716 71.4262 300.117L58.3169 296.881Z" fill="#F3F5F7"/>
<path d="M66.7165 290.707L65.0366 297.42L58.5569 295.832C56.697 295.382 55.5571 293.494 56.037 291.636C56.277 290.707 56.847 289.958 57.627 289.509C58.3769 289.059 59.3369 288.879 60.2368 289.119L66.7165 290.707Z" fill="#01AEB3"/>
<path d="M75.896 296.551C75.656 297.48 75.086 298.229 74.3061 298.678C73.5561 299.128 72.5962 299.308 71.6962 299.068L65.0366 297.42L66.7165 290.707L73.3761 292.355C75.206 292.805 76.346 294.693 75.896 296.551Z" fill="#8FD0D6"/>
<path opacity="0.6" d="M60.9567 291.307C60.8367 291.726 60.1768 291.936 59.4568 291.756C58.7369 291.576 58.2569 291.097 58.3469 290.647C58.4669 290.228 59.1268 290.018 59.8468 290.198C60.5667 290.378 61.0767 290.887 60.9567 291.307Z" fill="white"/>
<path d="M87.6554 304.132C85.2255 303.533 83.7556 301.076 84.3556 298.648C84.9555 296.221 87.4154 294.753 89.8453 295.352L102.955 298.589C105.384 299.188 106.854 301.645 106.254 304.072C105.654 306.5 103.195 307.968 100.765 307.369L87.6554 304.132Z" fill="#F3F5F7"/>
<path d="M96.0549 297.989L94.375 304.702L87.8954 303.114C86.0355 302.664 84.8956 300.776 85.3755 298.918C85.6155 297.989 86.1855 297.24 86.9654 296.791C87.7154 296.341 88.6753 296.161 89.5753 296.401L96.0549 297.989Z" fill="#01AEB3"/>
<path d="M105.235 303.833C104.995 304.762 104.425 305.511 103.645 305.96C102.895 306.41 101.935 306.59 101.035 306.35L94.3751 304.702L96.055 297.989L102.715 299.637C104.575 300.087 105.714 301.975 105.235 303.833Z" fill="#8FD0D6"/>
<path opacity="0.6" d="M90.3426 298.559C90.4502 298.125 89.9638 297.631 89.2562 297.456C88.5486 297.281 87.8877 297.491 87.7801 297.924C87.6725 298.358 88.159 298.852 88.8666 299.027C89.5742 299.202 90.235 298.992 90.3426 298.559Z" fill="white"/>
<path d="M54.9571 310.425C52.5272 309.826 51.0573 307.369 51.6573 304.942C52.2572 302.514 54.7171 301.046 57.147 301.645L70.2563 304.882C72.6862 305.481 74.1561 307.938 73.5561 310.365C72.9562 312.793 70.4963 314.261 68.0664 313.662L54.9571 310.425Z" fill="#F3F5F7"/>
<path d="M63.3567 304.252L61.6768 310.965L55.1971 309.377C53.3372 308.927 52.1973 307.039 52.6772 305.181C52.9172 304.252 53.4872 303.503 54.2671 303.054C55.0171 302.604 55.9771 302.424 56.877 302.664L63.3567 304.252Z" fill="#01AEB3"/>
<path d="M72.5362 310.096C72.2962 311.025 71.7262 311.774 70.9463 312.223C70.1963 312.673 69.2364 312.853 68.3364 312.613L61.6768 310.965L63.3567 304.252L70.0163 305.9C71.8462 306.35 72.9862 308.238 72.5362 310.096Z" fill="#8FD0D6"/>
<path opacity="0.6" d="M57.597 304.852C57.477 305.271 56.817 305.481 56.097 305.301C55.3771 305.121 54.8971 304.642 54.9871 304.192C55.1071 303.773 55.767 303.563 56.487 303.743C57.237 303.923 57.717 304.402 57.597 304.852Z" fill="white"/>
<path d="M84.2956 317.677C81.8657 317.078 80.3957 314.621 80.9957 312.193C81.5957 309.766 84.0556 308.298 86.4854 308.897L99.5948 312.133C102.025 312.733 103.495 315.19 102.895 317.617C102.295 320.045 99.8348 321.513 97.4049 320.914L84.2956 317.677Z" fill="#F3F5F7"/>
<path d="M92.6951 311.504L91.0152 318.217L84.5355 316.628C82.6756 316.179 81.5357 314.291 82.0157 312.433C82.2557 311.504 82.8256 310.755 83.6056 310.305C84.3555 309.856 85.3155 309.676 86.2154 309.916L92.6951 311.504Z" fill="#01AEB3"/>
<path d="M101.875 317.348C101.635 318.276 101.065 319.026 100.285 319.475C99.5348 319.925 98.5749 320.104 97.6749 319.865L91.0153 318.217L92.6952 311.504L99.3548 313.152C101.215 313.632 102.355 315.52 101.875 317.348Z" fill="#8FD0D6"/>
<path opacity="0.6" d="M86.9655 312.103C86.8455 312.523 86.1855 312.733 85.4655 312.553C84.7455 312.373 84.2656 311.894 84.3556 311.444C84.4755 311.025 85.1355 310.815 85.8555 310.995C86.5755 311.204 87.0855 311.684 86.9655 312.103Z" fill="white"/>
<path d="M68.3664 256.246C65.9365 255.647 64.4666 253.189 65.0666 250.762C65.6665 248.335 68.1264 246.866 70.5563 247.466L83.6656 250.702C86.0955 251.301 87.5654 253.759 86.9654 256.186C86.3655 258.613 83.9056 260.082 81.4757 259.482L68.3664 256.246Z" fill="#F3F5F7"/>
<path d="M76.766 250.073L75.086 256.785L68.6064 255.197C66.7465 254.747 65.6066 252.86 66.0865 251.002C66.3265 250.073 66.8965 249.324 67.6765 248.874C68.4264 248.425 69.3863 248.245 70.2863 248.484L76.766 250.073Z" fill="#01AEB3"/>
<path d="M85.9755 255.916C85.7356 256.845 85.1656 257.594 84.3856 258.044C83.6356 258.493 82.6757 258.673 81.7758 258.433L75.1161 256.785L76.796 250.073L83.4557 251.721C85.2856 252.2 86.4255 254.088 85.9755 255.916Z" fill="#8FD0D6"/>
<path opacity="0.6" d="M71.0363 250.672C70.9163 251.092 70.2563 251.301 69.5364 251.122C68.8164 250.942 68.3364 250.462 68.4264 250.013C68.5464 249.593 69.2064 249.384 69.9264 249.563C70.6463 249.773 71.1563 250.253 71.0363 250.672Z" fill="white"/>
<path d="M97.7349 263.498C95.305 262.898 93.8351 260.441 94.435 258.014C95.035 255.587 97.4949 254.118 99.9248 254.718L113.034 257.954C115.464 258.553 116.934 261.011 116.334 263.438C115.734 265.865 113.274 267.333 110.844 266.734L97.7349 263.498Z" fill="#F3F5F7"/>
<path d="M106.134 257.355L104.455 264.067L97.9749 262.479C96.115 262.029 94.975 260.142 95.455 258.284C95.695 257.355 96.265 256.606 97.0449 256.156C97.7949 255.707 98.7548 255.527 99.6548 255.766L106.134 257.355Z" fill="#01AEB3"/>
<path d="M115.314 263.198C115.074 264.127 114.504 264.876 113.724 265.326C112.974 265.775 112.014 265.955 111.114 265.715L104.455 264.067L106.134 257.355L112.794 259.003C114.624 259.452 115.764 261.34 115.314 263.198Z" fill="#8FD0D6"/>
<path opacity="0.6" d="M100.405 257.954C100.285 258.374 99.6248 258.583 98.9048 258.404C98.1849 258.224 97.7049 257.744 97.7949 257.295C97.9149 256.875 98.5748 256.665 99.2948 256.845C100.015 257.025 100.495 257.505 100.405 257.954Z" fill="white"/>
<path d="M98.4848 327.357L50.9973 315.61C50.2473 315.43 49.7674 314.651 49.9474 313.902C50.1273 313.152 50.9073 312.673 51.6573 312.853L99.1448 324.6C99.8948 324.779 100.375 325.559 100.195 326.308C100.015 327.057 99.2648 327.536 98.4848 327.357Z" fill="#A7B1BC"/>
<path d="M76.196 315.61C75.776 315.49 75.5061 315.07 75.626 314.651L90.5952 254.268C90.7152 253.848 91.1352 253.579 91.5552 253.699C91.9752 253.819 92.2452 254.238 92.1252 254.658L77.156 315.04C77.066 315.46 76.616 315.7 76.196 315.61Z" fill="#A7B1BC"/>
<path d="M51.0273 334.698H14.6092C13.1993 334.698 12.0593 333.56 12.0593 332.151V261.64H53.6072V332.151C53.6072 333.56 52.4373 334.698 51.0273 334.698Z" fill="#FA938E"/>
<path d="M24.1187 325.649V332.361H17.639C15.7791 332.361 14.2792 330.863 14.2792 329.005C14.2792 328.076 14.6692 327.237 15.2691 326.637C15.8691 326.038 16.7091 325.649 17.639 325.649H24.1187Z" fill="#FF663A"/>
<path d="M34.1081 329.005C34.1081 329.934 33.7182 330.773 33.1182 331.372C32.5182 331.971 31.6783 332.361 30.7483 332.361H24.1187V325.649H30.7483C32.6082 325.649 34.1081 327.147 34.1081 329.005Z" fill="#F3F5F7"/>
<path d="M41.6378 322.442L39.3879 328.765L33.2982 326.607C31.5583 325.978 30.6283 324.06 31.2583 322.322C31.5583 321.453 32.2182 320.794 32.9982 320.404C33.7781 320.045 34.7081 319.955 35.5781 320.254L41.6378 322.442Z" fill="#FF663A"/>
<path d="M49.9473 328.945C49.6473 329.814 48.9874 330.473 48.2074 330.863C47.4274 331.222 46.4975 331.312 45.6275 331.012L39.3578 328.795L41.6077 322.472L47.8774 324.689C49.6473 325.289 50.5773 327.207 49.9473 328.945Z" fill="#F3F5F7"/>
<path d="M28.4684 322.232L25.5286 316.179L31.3483 313.362C32.9982 312.553 35.0381 313.242 35.848 314.92C36.238 315.759 36.268 316.658 35.998 317.498C35.728 318.307 35.1281 319.026 34.2881 319.415L28.4684 322.232Z" fill="#FF663A"/>
<path d="M17.999 323.581C17.609 322.742 17.579 321.843 17.849 321.004C18.119 320.195 18.7189 319.475 19.5589 319.086L25.5286 316.179L28.4685 322.232L22.4988 325.139C20.8188 325.948 18.8089 325.259 17.999 323.581Z" fill="#F3F5F7"/>
<path opacity="0.7" d="M51.0873 334.698H14.6392C13.2292 334.698 12.0893 333.56 12.0893 332.151V261.64H53.6672V332.151C53.6372 333.56 52.4972 334.698 51.0873 334.698Z" fill="#FA938E"/>
<path d="M53.2471 311.774H20.2488C20.0088 311.774 19.8289 311.594 19.8289 311.355V276.503C19.8289 276.264 20.0088 276.084 20.2488 276.084H53.2471C53.4871 276.084 53.6671 276.264 53.6671 276.503V311.355C53.6371 311.594 53.4571 311.774 53.2471 311.774Z" fill="#F1F7FE"/>
<path d="M48.3874 290.138H25.0186C24.6286 290.138 24.2986 289.809 24.2986 289.419C24.2986 289.029 24.6286 288.7 25.0186 288.7H48.3874C48.7774 288.7 49.1074 289.029 49.1074 289.419C49.1074 289.809 48.7774 290.138 48.3874 290.138Z" fill="#BEC5D9"/>
<path d="M42.6877 293.674H25.0186C24.6286 293.674 24.2986 293.345 24.2986 292.955C24.2986 292.565 24.6286 292.236 25.0186 292.236H42.6877C43.0777 292.236 43.4077 292.565 43.4077 292.955C43.4077 293.345 43.0777 293.674 42.6877 293.674Z" fill="#BEC5D9"/>
<path d="M48.3874 297.18H25.0186C24.6286 297.18 24.2986 296.851 24.2986 296.461C24.2986 296.072 24.6286 295.742 25.0186 295.742H48.3874C48.7774 295.742 49.1074 296.072 49.1074 296.461C49.1074 296.851 48.7774 297.18 48.3874 297.18Z" fill="#BEC5D9"/>
<path d="M45.2976 300.716H25.0486C24.6587 300.716 24.3287 300.387 24.3287 299.997C24.3287 299.608 24.6587 299.278 25.0486 299.278H45.2976C45.6876 299.278 46.0176 299.608 46.0176 299.997C46.0176 300.387 45.6876 300.716 45.2976 300.716Z" fill="#BEC5D9"/>
<path d="M40.7078 304.223H25.0186C24.6286 304.223 24.2986 303.893 24.2986 303.503C24.2986 303.114 24.6286 302.784 25.0186 302.784H40.7078C41.0978 302.784 41.4278 303.114 41.4278 303.503C41.4278 303.893 41.0978 304.223 40.7078 304.223Z" fill="#BEC5D9"/>
<path d="M48.3874 282.766H24.9585C24.3586 282.766 23.8786 282.287 23.8786 281.688C23.8786 281.088 24.3586 280.609 24.9585 280.609H48.3874C48.9873 280.609 49.4673 281.088 49.4673 281.688C49.4673 282.287 48.9873 282.766 48.3874 282.766Z" fill="#BEC5D9"/>
<path opacity="0.3" d="M12.0293 262.419L53.6072 264.697V262L12.0293 262.419Z" fill="#3D4652"/>
<path d="M56.787 260.082H8.84943V251.451C8.84943 250.043 9.98937 248.904 11.3993 248.904H54.2371C55.647 248.904 56.787 250.043 56.787 251.451V260.082Z" fill="#DFECFE"/>
<path d="M56.727 258.164H8.84943V259.063H56.727V258.164Z" fill="#BEC5D9"/>
<path d="M57.3869 262.419H8.24947C7.85949 262.419 7.55951 262.089 7.55951 261.73V259.692C7.55951 259.302 7.88949 259.003 8.24947 259.003H57.3869C57.7769 259.003 58.0769 259.332 58.0769 259.692V261.73C58.0769 262.089 57.7769 262.419 57.3869 262.419Z" fill="#DFECFE"/>
<g opacity="0.6">
<path opacity="0.6" d="M12.0593 256.755C11.5493 256.755 11.0993 256.336 11.0993 255.796V251.661C11.0993 251.152 11.5193 250.702 12.0593 250.702C12.5992 250.702 13.0192 251.122 13.0192 251.661V255.796C13.0192 256.336 12.5992 256.755 12.0593 256.755Z" fill="white"/>
</g>
<g opacity="0.2">
<path opacity="0.2" d="M15.8691 331.192C15.3592 331.192 14.9092 330.773 14.9092 330.233V266.974C14.9092 266.464 15.3292 266.015 15.8691 266.015C16.4091 266.015 16.8291 266.435 16.8291 266.974V330.233C16.8291 330.773 16.3791 331.192 15.8691 331.192Z" fill="white"/>
</g>
<path d="M492.005 262.449H462.876V270.001H492.005V262.449Z" fill="#E2E8EB"/>
<path opacity="0.2" d="M462.876 263.768L491.975 266.225L491.945 263.288L462.876 263.768Z" fill="#3D4652"/>
<path d="M494.494 263.768H460.326C459.276 263.768 458.436 262.929 458.436 261.88V251.901C458.436 250.852 459.276 250.013 460.326 250.013H494.494C495.544 250.013 496.384 250.852 496.384 251.901V261.88C496.414 262.899 495.544 263.768 494.494 263.768Z" fill="#E2E8EB"/>
<path d="M484.745 259.872C484.595 259.872 484.475 259.752 484.475 259.602V253.039C484.475 252.89 484.595 252.77 484.745 252.77C484.895 252.77 485.015 252.89 485.015 253.039V259.602C485.015 259.752 484.895 259.872 484.745 259.872Z" fill="#C8D0D7"/>
<path d="M462.786 259.872C462.636 259.872 462.516 259.752 462.516 259.602V253.039C462.516 252.89 462.636 252.77 462.786 252.77C462.936 252.77 463.056 252.89 463.056 253.039V259.602C463.056 259.752 462.936 259.872 462.786 259.872Z" fill="#C8D0D7"/>
<path d="M466.446 259.872C466.296 259.872 466.176 259.752 466.176 259.602V253.039C466.176 252.89 466.296 252.77 466.446 252.77C466.596 252.77 466.716 252.89 466.716 253.039V259.602C466.716 259.752 466.596 259.872 466.446 259.872Z" fill="#C8D0D7"/>
<path d="M470.106 259.872C469.956 259.872 469.836 259.752 469.836 259.602V253.039C469.836 252.89 469.956 252.77 470.106 252.77C470.256 252.77 470.376 252.89 470.376 253.039V259.602C470.376 259.752 470.256 259.872 470.106 259.872Z" fill="#C8D0D7"/>
<path d="M473.766 259.872C473.616 259.872 473.496 259.752 473.496 259.602V253.039C473.496 252.89 473.616 252.77 473.766 252.77C473.916 252.77 474.036 252.89 474.036 253.039V259.602C474.036 259.752 473.916 259.872 473.766 259.872Z" fill="#C8D0D7"/>
<path d="M477.425 259.872C477.275 259.872 477.155 259.752 477.155 259.602V253.039C477.155 252.89 477.275 252.77 477.425 252.77C477.575 252.77 477.695 252.89 477.695 253.039V259.602C477.695 259.752 477.575 259.872 477.425 259.872Z" fill="#C8D0D7"/>
<path d="M481.085 259.872C480.935 259.872 480.815 259.752 480.815 259.602V253.039C480.815 252.89 480.935 252.77 481.085 252.77C481.235 252.77 481.355 252.89 481.355 253.039V259.602C481.355 259.752 481.235 259.872 481.085 259.872Z" fill="#C8D0D7"/>
<path d="M488.405 259.872C488.255 259.872 488.135 259.752 488.135 259.602V253.039C488.135 252.89 488.255 252.77 488.405 252.77C488.555 252.77 488.675 252.89 488.675 253.039V259.602C488.675 259.752 488.555 259.872 488.405 259.872Z" fill="#C8D0D7"/>
<path d="M492.065 259.872C491.915 259.872 491.795 259.752 491.795 259.602V253.039C491.795 252.89 491.915 252.77 492.065 252.77C492.215 252.77 492.335 252.89 492.335 253.039V259.602C492.365 259.752 492.215 259.872 492.065 259.872Z" fill="#C8D0D7"/>
<path d="M458.436 262.06V262.209C458.436 263.048 459.126 263.738 459.966 263.738H494.884C495.724 263.738 496.414 263.048 496.414 262.209V262.06H458.436Z" fill="#D2DCE3"/>
<path d="M494.524 336.077H460.326C458.766 336.077 457.476 334.788 457.476 333.23V275.275C457.476 271.019 460.926 267.573 465.186 267.573H489.665C493.925 267.573 497.374 271.019 497.374 275.275V333.23C497.374 334.788 496.084 336.077 494.524 336.077Z" fill="#E2E8EB"/>
<path d="M497.434 283.006H457.446V317.468H497.434V283.006Z" fill="#6DCDD9"/>
<g opacity="0.6">
<path opacity="0.6" d="M461.376 280.908C460.866 280.908 460.476 280.489 460.476 280.009C460.476 276.713 461.076 274.136 462.276 272.338C463.236 270.87 464.226 270.45 464.346 270.42L465.006 272.128H465.036C465.006 272.128 462.306 273.417 462.306 280.039C462.276 280.489 461.886 280.908 461.376 280.908Z" fill="white"/>
</g>
<g opacity="0.6">
<path opacity="0.6" d="M461.376 332.331C460.866 332.331 460.476 331.912 460.476 331.432V322.862C460.476 322.352 460.896 321.963 461.376 321.963C461.886 321.963 462.276 322.382 462.276 322.862V331.432C462.276 331.942 461.886 332.331 461.376 332.331Z" fill="white"/>
</g>
<path d="M256.667 77.2854C256.667 77.2854 239.928 72.4608 229.218 82.11C218.509 91.7293 224.418 90.141 217.939 94.5461C211.459 98.9512 194.06 107.791 192.71 122.625C191.36 137.458 197.06 146.298 196.07 157.536C195.08 168.773 175.941 175.875 177.321 198.86C178.221 213.573 190.7 216.24 190.7 216.24L242.477 216.84L256.667 77.2854Z" fill="#45484F"/>
<path d="M253.487 109.859C253.487 109.859 238.038 70.9025 271.066 71.4119C304.094 71.9214 297.855 117.83 298.725 129.068C299.594 140.305 342.672 173.598 318.434 205.213C316.304 207.97 314.504 211.026 311.294 211.026H266.536L253.487 109.859Z" fill="#45484F"/>
<path d="M315.344 214.772C301.334 199.849 273.106 198.141 273.106 198.141L276.316 220.196L273.196 225.11L273.646 232.482L255.317 276.054L258.677 344.407H299.535C299.535 344.407 298.965 303.233 301.304 273.057L307.514 289.569L321.943 322.292L353.262 298.978C353.232 298.948 329.353 229.695 315.344 214.772Z" fill="#ECF4FC"/>
<path d="M279.496 219.896L271.756 224.721L277.096 232.692L255.317 276.024L258.677 344.378H251.267L209.899 336.347C209.899 336.347 211.219 292.715 207.649 262.838C204.079 232.962 218.089 198.081 230.148 198.081L251.237 197.481H251.357H251.477L272.566 198.081C272.836 198.081 273.076 198.111 273.346 198.141C276.706 198.53 278.416 200.418 282.345 204.883L279.496 219.896Z" fill="#01ADC1"/>
<path d="M226.878 232.932L230.238 224.661L221.509 221.544V221.425L230.178 198.141C230.178 198.141 202.25 199.849 188.36 214.772C174.471 229.695 150.862 298.948 150.862 298.948L181.851 322.262L196.13 289.539L201.62 274.825C203.779 304.822 203.239 344.378 203.239 344.378H245.777L246.557 274.465L226.878 232.932Z" fill="#ECF4FC"/>
<path d="M237.858 178.393C237.858 178.393 237.528 198.111 230.148 198.111C230.148 198.111 235.848 214.832 250.217 213.813C264.616 212.824 273.376 198.051 273.376 198.051C273.376 198.051 265.966 194.095 263.296 175.696L237.858 178.393Z" fill="#EBA994"/>
<path d="M220.429 136.799C220.429 136.799 227.298 187.323 250.517 187.323C273.736 187.323 279.916 146.868 275.746 130.596C272.236 116.901 250.637 95.3252 250.637 95.3252C250.637 95.3252 232.728 129.937 220.429 136.799Z" fill="#FABCA7"/>
<path d="M224.298 139.136C224.148 138.387 223.578 137.758 222.858 137.518C220.279 136.679 214.399 135.45 212.929 141.534C211.309 148.216 219.049 153.251 224.658 153.371C226.068 153.4 227.118 152.082 226.818 150.703L224.298 139.136Z" fill="#FABCA7"/>
<path d="M273.406 198.081C273.406 198.081 279.286 194.874 285.615 200.058L282.135 221.335L273.196 225.14L280.126 232.512L255.317 276.084L273.406 198.081Z" fill="white"/>
<path d="M246.557 276.923L226.878 232.902L230.238 224.631L221.508 221.515L219.679 204.044L219.259 200.029C225.618 194.844 231.468 198.051 231.468 198.051L233.628 206.861L246.527 274.675V276.923H246.557Z" fill="white"/>
<path d="M256.667 77.2854L250.427 137.548L193.34 136.2C192.44 131.585 192.17 127.869 192.74 121.816C194.09 107.252 211.489 98.5616 217.969 94.2464C224.448 89.9013 218.539 91.4895 229.248 82.0201C239.928 72.5506 256.667 77.2854 256.667 77.2854Z" fill="#45484F"/>
<path d="M303.824 138.657L257.207 137.548L253.487 109.26C253.487 109.26 238.038 70.9325 271.066 71.4419C304.094 71.9514 297.855 117.111 298.725 128.139C298.905 130.386 301.004 134.731 303.824 138.657Z" fill="#45484F"/>
<path d="M276.856 138.657H220.729C220.519 137.458 220.429 136.799 220.429 136.799C232.728 129.937 250.667 99.4308 250.667 99.4308C250.667 99.4308 272.236 116.901 275.746 130.596C276.316 132.873 276.706 135.6 276.856 138.657Z" fill="#FABCA7"/>
<path d="M224.298 139.136C224.148 138.387 223.578 137.758 222.858 137.518C220.279 136.679 214.399 135.451 212.929 141.534C211.309 148.216 219.049 153.251 224.658 153.371C226.068 153.401 227.118 152.082 226.818 150.704L224.298 139.136Z" fill="#FABCA7"/>
<path d="M126.713 356.874L119.334 357.563C118.014 357.683 116.844 356.724 116.724 355.405C116.604 354.087 117.564 352.918 118.884 352.798L126.263 352.109L126.713 356.874Z" fill="#FFEBEB"/>
<path d="M227.508 332.78C220.639 333.5 213.859 334.608 207.169 335.957C189.38 339.493 172.011 344.647 154.192 348.453C150.742 349.202 126.053 352.139 126.053 352.139L126.503 356.844C126.503 356.844 151.312 355.106 154.822 355.195C179.241 355.705 203.569 358.821 227.958 356.963C235.878 356.364 243.977 355.525 251.657 353.278L249.647 332.121C242.327 331.432 234.798 332.031 227.508 332.78Z" fill="#FFEBEB"/>
<path d="M252.377 332.481C251.477 332.361 250.547 332.241 249.647 332.151L251.657 353.308C252.167 353.158 252.677 353.008 253.187 352.828C258.197 351.24 265.636 348.153 265.426 341.8C265.426 341.651 265.396 341.471 265.396 341.321C264.796 335.118 257.507 333.23 252.377 332.481Z" fill="#FA938E"/>
<path d="M185.39 356.664C175.221 356.095 165.051 355.435 154.852 355.196C151.312 355.106 126.533 356.844 126.533 356.844L126.083 352.139C126.083 352.139 150.772 349.172 154.222 348.453C164.091 346.355 173.841 343.808 183.59 341.381C180.441 343.928 178.761 346.685 179.001 349.412C179.271 352.289 181.581 354.746 185.39 356.664Z" fill="#FA938E"/>
<path d="M222.348 350.431L202.609 352.289C201.979 352.349 201.439 351.899 201.379 351.27L200.66 343.538C200.6 342.909 201.05 342.37 201.679 342.31L221.418 340.452C222.048 340.392 222.588 340.841 222.648 341.471L223.368 349.202C223.428 349.831 222.978 350.371 222.348 350.431Z" fill="#CFE5FF"/>
<g opacity="0.2">
<path opacity="0.2" d="M220.789 341.441L200.6 343.359C200.54 342.849 200.93 342.4 201.41 342.37L221.598 340.452C222.108 340.392 222.558 340.782 222.588 341.261L223.368 349.412C223.428 349.921 223.038 350.371 222.558 350.401L221.778 342.25C221.748 341.77 221.299 341.411 220.789 341.441Z" fill="#3D4652"/>
</g>
<path d="M243.744 345.357C244.491 341.861 242.261 338.421 238.761 337.674C235.262 336.927 231.818 339.155 231.071 342.651C230.323 346.147 232.553 349.587 236.053 350.334C239.552 351.081 242.996 348.853 243.744 345.357Z" fill="#FA938E"/>
<path d="M235.158 341.351C235.158 341.201 235.218 341.051 235.338 340.931C235.878 340.512 236.538 340.272 237.228 340.212C239.298 340.002 241.127 341.531 241.337 343.598C241.547 345.666 240.018 347.494 237.948 347.704C237.258 347.764 236.568 347.644 235.968 347.344C235.728 347.224 235.638 346.955 235.758 346.745C235.878 346.505 236.148 346.415 236.358 346.535C236.838 346.775 237.348 346.865 237.858 346.805C239.418 346.655 240.558 345.276 240.438 343.718C240.288 342.16 238.908 341.021 237.348 341.141C236.838 341.201 236.328 341.381 235.908 341.681C235.698 341.83 235.428 341.8 235.278 341.591C235.188 341.531 235.158 341.441 235.158 341.351Z" fill="white"/>
<path d="M233.478 344.347C233.448 344.108 233.628 343.868 233.898 343.838L237.408 343.508C237.648 343.478 237.888 343.658 237.918 343.928C237.948 344.198 237.768 344.407 237.498 344.437L233.988 344.767C233.748 344.797 233.508 344.617 233.478 344.347Z" fill="white"/>
<path opacity="0.6" d="M258.797 339.463C257.387 339.103 256.397 338.234 256.577 337.545C256.757 336.856 258.047 336.556 259.457 336.916C260.866 337.276 261.856 338.145 261.676 338.834C261.466 339.553 260.207 339.823 258.797 339.463Z" fill="white"/>
<path d="M355.572 334.249L360.191 342.49L352.272 346.925C349.992 348.184 347.112 347.374 345.852 345.097C345.222 343.958 345.102 342.67 345.432 341.501C345.762 340.332 346.542 339.283 347.652 338.654L355.572 334.249Z" fill="#01ADC1"/>
<path d="M370.121 331.522C370.751 332.661 370.871 333.949 370.541 335.118C370.211 336.287 369.431 337.336 368.321 337.965L360.191 342.52L355.572 334.279L363.701 329.724C365.981 328.435 368.861 329.245 370.121 331.522Z" fill="#8FD0D6"/>
<path opacity="0.6" d="M350.412 340.152C350.712 340.692 350.232 341.501 349.362 341.98C348.492 342.46 347.532 342.43 347.232 341.92C346.932 341.381 347.412 340.572 348.282 340.092C349.182 339.613 350.112 339.643 350.412 340.152Z" fill="white"/>
<path d="M377.531 338.894L377.591 348.334L368.501 348.394C365.891 348.424 363.761 346.296 363.761 343.719C363.761 342.43 364.271 341.232 365.141 340.393C365.981 339.524 367.181 338.984 368.471 338.984L377.531 338.894Z" fill="#018E9E"/>
<path d="M391.6 343.539C391.6 344.827 391.09 346.026 390.22 346.865C389.38 347.734 388.18 348.273 386.89 348.273L377.561 348.333L377.501 338.894L386.83 338.834C389.44 338.834 391.6 340.932 391.6 343.539Z" fill="#8FD0D6"/>
<path d="M307.92 341.597C311.637 340.331 313.622 336.296 312.355 332.583C311.088 328.87 307.048 326.887 303.332 328.153C299.615 329.418 297.63 333.454 298.897 337.167C300.164 340.879 304.204 342.863 307.92 341.597Z" fill="#8FD0D6"/>
<path d="M308.416 328.331L302.145 341.079L302.845 341.423L309.116 328.674L308.416 328.331Z" fill="#C7EAED"/>
<path d="M437.167 298.858V296.072H423.368V298.858C420.548 299.128 418.328 301.496 418.328 304.372V339.853C418.328 340.392 418.778 340.812 419.288 340.812H441.217C441.757 340.812 442.177 340.362 442.177 339.853V304.372C442.207 301.496 439.987 299.128 437.167 298.858Z" fill="#E2E8EB"/>
<path d="M438.217 296.251H422.408C422.138 296.251 421.898 296.042 421.898 295.742V292.775C421.898 292.505 422.108 292.266 422.408 292.266H438.127C438.397 292.266 438.637 292.475 438.637 292.775V295.862C438.607 296.072 438.427 296.251 438.217 296.251Z" fill="#E2E8EB"/>
<path d="M439.027 293.644H421.478C421.268 293.644 421.088 293.464 421.088 293.255V280.908C421.088 280.699 421.268 280.519 421.478 280.519H439.027C439.237 280.519 439.417 280.699 439.417 280.908V293.255C439.447 293.464 439.267 293.644 439.027 293.644Z" fill="#E2E8EB"/>
<path d="M439.447 280.519H421.088C424.808 280.519 426.068 272.518 426.368 270.03C426.428 269.611 426.758 269.311 427.178 269.311H433.328C433.748 269.311 434.078 269.611 434.138 270.03C434.408 272.548 435.578 280.519 439.447 280.519Z" fill="#E2E8EB"/>
<path d="M438.607 293.734H421.898V294.214H438.607V293.734Z" fill="#C8D0D7"/>
<path d="M423.368 296.251H437.167V297.45L423.368 296.251Z" fill="#C8D0D7"/>
<path d="M423.638 292.176C423.458 292.176 423.338 292.026 423.338 291.846L423.428 282.197C423.428 282.017 423.578 281.897 423.728 281.897C423.908 281.897 424.028 282.047 424.028 282.227L423.938 291.876C423.938 292.056 423.818 292.176 423.638 292.176Z" fill="#C8D0D7"/>
<path d="M426.938 292.206C426.758 292.206 426.638 292.056 426.638 291.876L426.728 282.227C426.728 282.047 426.878 281.927 427.028 281.927C427.208 281.927 427.328 282.077 427.328 282.257L427.238 291.906C427.238 292.056 427.088 292.206 426.938 292.206Z" fill="#C8D0D7"/>
<path d="M430.208 292.236C430.028 292.236 429.908 292.086 429.908 291.906L429.998 282.257C429.998 282.077 430.148 281.957 430.298 281.957C430.478 281.957 430.598 282.107 430.598 282.287L430.508 291.936C430.538 292.086 430.388 292.236 430.208 292.236Z" fill="#C8D0D7"/>
<path d="M433.508 292.266C433.328 292.266 433.208 292.116 433.208 291.936L433.298 282.287C433.298 282.107 433.448 281.987 433.598 281.987C433.778 281.987 433.898 282.137 433.898 282.317L433.808 291.966C433.808 292.116 433.688 292.266 433.508 292.266Z" fill="#C8D0D7"/>
<path d="M436.777 292.296C436.597 292.296 436.477 292.146 436.477 291.966L436.567 282.317C436.567 282.137 436.717 282.017 436.867 282.017C437.047 282.017 437.167 282.167 437.167 282.347L437.077 291.996C437.107 292.146 436.957 292.296 436.777 292.296Z" fill="#C8D0D7"/>
<path d="M442.177 310.276H418.328V328.106H442.177V310.276Z" fill="#8FD0D6"/>
<g opacity="0.6">
<path opacity="0.6" d="M426.278 279.44C426.098 279.44 425.918 279.38 425.768 279.26C425.438 278.99 425.408 278.481 425.678 278.151C427.028 276.563 427.778 272.757 427.928 271.409C427.988 270.989 428.378 270.69 428.798 270.75C429.218 270.81 429.518 271.199 429.458 271.619C429.428 271.829 428.768 276.893 426.848 279.17C426.698 279.35 426.488 279.44 426.278 279.44Z" fill="white"/>
</g>
<g opacity="0.6">
<path opacity="0.6" d="M420.758 308.777C420.338 308.777 419.978 308.418 419.978 307.998C419.978 301.585 423.698 300.776 423.848 300.746C424.268 300.656 424.688 300.926 424.748 301.346C424.838 301.765 424.568 302.155 424.148 302.245C424.028 302.274 421.508 302.934 421.508 307.968C421.538 308.448 421.178 308.777 420.758 308.777Z" fill="white"/>
</g>
<g opacity="0.6">
<path opacity="0.6" d="M420.758 337.965C420.338 337.965 419.978 337.605 419.978 337.186V330.713C419.978 330.293 420.338 329.934 420.758 329.934C421.178 329.934 421.538 330.293 421.538 330.713V337.186C421.538 337.635 421.178 337.965 420.758 337.965Z" fill="white"/>
</g>
<path d="M361.091 23.3156C381.07 24.4244 393.85 25.1136 400.869 34.6729C410.019 47.169 405.159 69.2544 392.35 81.211C378.52 94.1266 359.621 91.3397 352.572 90.2909C347.892 89.6017 316.874 85.0168 312.224 63.0513C309.224 48.8771 318.614 34.0736 329.833 27.3012C338.502 22.087 346.722 22.5365 361.091 23.3156Z" fill="#72B9C2"/>
<path d="M380.227 59.8513C381.914 58.1661 381.914 55.4339 380.227 53.7488C378.54 52.0636 375.805 52.0636 374.118 53.7488C372.431 55.4339 372.431 58.1661 374.118 59.8513C375.805 61.5365 378.54 61.5365 380.227 59.8513Z" fill="white"/>
<path d="M363.329 59.8304C365.016 58.1453 365.016 55.4131 363.329 53.7279C361.642 52.0427 358.907 52.0427 357.22 53.7279C355.533 55.4131 355.533 58.1453 357.22 59.8304C358.907 61.5156 361.642 61.5156 363.329 59.8304Z" fill="white"/>
<path d="M346.411 59.8308C348.098 58.1456 348.098 55.4134 346.411 53.7283C344.724 52.0431 341.988 52.0431 340.301 53.7283C338.615 55.4134 338.615 58.1456 340.301 59.8308C341.988 61.516 344.724 61.516 346.411 59.8308Z" fill="white"/>
<path d="M339.462 82.5595C339.462 82.5595 343.422 95.2953 319.663 95.9845C319.663 95.9845 325.453 85.5561 320.623 70.0934L339.462 82.5595Z" fill="#72B9C2"/>
</g>
<defs>
<clipPath id="clip0">
<rect width="500" height="362" fill="white"/>
</clipPath>
</defs>
</svg>
