<svg width="39" height="39" viewBox="0 0 39 39" fill="none" xmlns="http://www.w3.org/2000/svg">
<circle cx="12.5" cy="12.5" r="3.5" fill="white"/>
<circle cx="26.5" cy="12.5" r="3.5" fill="white"/>
<path d="M1.93195 22.1921C0.989228 22.3366 0.334487 23.2207 0.561744 24.1469C1.53615 28.1184 3.73945 31.699 6.87884 34.3646C10.4587 37.4042 15.0152 39.0497 19.7111 38.9989C24.407 38.948 28.9268 37.2042 32.44 34.0879C35.521 31.3549 37.6462 27.7275 38.5344 23.7358C38.7416 22.8048 38.0678 21.9352 37.1222 21.8111V21.8111C36.1766 21.6871 35.3187 22.3567 35.0938 23.2835C34.3255 26.4506 32.6065 29.3234 30.1481 31.5041C27.2572 34.0685 23.5379 35.5035 19.6737 35.5453C15.8095 35.5871 12.06 34.233 9.11425 31.7318C6.60922 29.6049 4.82848 26.7699 3.99172 23.6202C3.74685 22.6985 2.87468 22.0477 1.93195 22.1921V22.1921Z" fill="white"/>
</svg>
