<svg width="31" height="32" viewBox="0 0 31 32" fill="none" xmlns="http://www.w3.org/2000/svg">
<ellipse cx="22.5" cy="10.5" rx="3.5" ry="3.5" fill="white"/>
<ellipse cx="8.5" cy="10.5" rx="3.5" ry="3.5" fill="white"/>
<path d="M29.9982 30.2196C30.7762 29.668 30.9653 28.5843 30.347 27.8581C28.6898 25.9118 26.6621 24.3059 24.3761 23.1373C21.5763 21.7059 18.4718 20.9729 15.3275 21.0008C12.1832 21.0286 9.09221 21.8164 6.31815 23.297C4.05312 24.5059 2.05423 26.1474 0.431709 28.1227C-0.173652 28.8597 0.0345728 29.9399 0.822202 30.4777V30.4777C1.60983 31.0155 2.67762 30.8058 3.29692 30.0805C4.59571 28.5594 6.17091 27.2905 7.9444 26.3439C10.2271 25.1255 12.7706 24.4773 15.3581 24.4544C17.9455 24.4315 20.5001 25.0347 22.804 26.2125C24.5939 27.1275 26.1914 28.3683 27.5168 29.8662C28.1489 30.5804 29.2202 30.7713 29.9982 30.2196V30.2196Z" fill="white"/>
<rect x="16" y="9.58008" width="16" height="3.30111" rx="1.65056" transform="rotate(-36.7808 16 9.58008)" fill="white"/>
<rect x="2.09985" width="16" height="3.30111" rx="1.65056" transform="rotate(39.5019 2.09985 0)" fill="white"/>
</svg>
