<svg width="500" height="362" fill="none" xmlns="http://www.w3.org/2000/svg"><g clip-path="url(#clip0)"><path opacity=".06" d="M392.38 314.021c47.913 0 86.755-2.2 86.755-4.914 0-2.714-38.842-4.915-86.755-4.915-47.914 0-86.756 2.201-86.756 4.915s38.842 4.914 86.756 4.914zM33.238 339.523c12.343 0 22.35-2.106 22.35-4.705 0-2.598-10.007-4.705-22.35-4.705-12.343 0-22.349 2.107-22.349 4.705 0 2.599 10.006 4.705 22.35 4.705z" fill="#1A1552"/><path opacity=".06" d="M79.346 333.32c20.063 0 36.328-.912 36.328-2.038 0-1.125-16.265-2.038-36.328-2.038-20.064 0-36.328.913-36.328 2.038 0 1.126 16.264 2.038 36.328 2.038zm176.631-11.268c89.167 0 161.451-3.394 161.451-7.581s-72.284-7.582-161.451-7.582c-89.168 0-161.452 3.395-161.452 7.582 0 4.187 72.284 7.581 161.452 7.581zm221.358 17.591c12.443 0 22.529-1.637 22.529-3.656s-10.086-3.656-22.529-3.656c-12.442 0-22.528 1.637-22.528 3.656s10.086 3.656 22.528 3.656zm-46.767 5.064c8.565 0 15.509-1.503 15.509-3.356 0-1.854-6.944-3.356-15.509-3.356-8.566 0-15.509 1.502-15.509 3.356 0 1.853 6.943 3.356 15.509 3.356zM192.44 362.388c42.596 0 77.126-2.147 77.126-4.795s-34.53-4.795-77.126-4.795c-42.595 0-77.126 2.147-77.126 4.795s34.531 4.795 77.126 4.795zm113.154-18.1c4.755 0 8.61-1.047 8.61-2.338 0-1.291-3.855-2.337-8.61-2.337-4.755 0-8.609 1.046-8.609 2.337 0 1.291 3.854 2.338 8.609 2.338zM368.141 351c13.519 0 24.479-1.355 24.479-3.026 0-1.672-10.96-3.027-24.479-3.027-13.519 0-24.479 1.355-24.479 3.027 0 1.671 10.96 3.026 24.479 3.026z" fill="#1A1552"/><path opacity=".11" d="M273.046 50.555c-18.839.9-32.038.33-46.408-5.933-23.339-10.189-27.868-28.558-52.047-23.704-33.478 6.743-27.659 50.524-55.197 71.47-34.319 26.131-57.147 3.836-86.126 27.12-29.248 23.524-21.119 78.393-5.79 110.907 18.3 38.836 58.828 71.17 104.245 76.774 48.058 5.933 56.427-23.614 114.684-26.67 74.786-3.926 95.245 43.002 151.732 30.925 52.438-11.207 95.756-64.638 86.876-98.11-5.85-22.056-30.238-21.067-44.008-51.183-14.699-32.154 7.17-45.879-6.059-74.977-14.25-31.375-58.527-56.996-95.785-53.76-24.539 2.128-30.509 15.433-66.117 17.141z" fill="#01CED3"/><path d="M27.178 194.844a3.352 3.352 0 01-3.36-3.356c0-1.858 1.5-3.356 3.36-3.356 1.86 0 3.36 1.498 3.36 3.356 0 1.858-1.5 3.356-3.36 3.356zm0-5.364a2.009 2.009 0 10-.001 4.018 2.009 2.009 0 00.002-4.018z" fill="#FF8681"/><path d="M254.207 33.474a3.353 3.353 0 01-3.36-3.356c0-1.858 1.5-3.356 3.36-3.356 1.86 0 3.36 1.498 3.36 3.356 0 1.858-1.5 3.356-3.36 3.356zm0-5.364a2.009 2.009 0 102.01 2.008c.03-1.109-.87-2.008-2.01-2.008zM87.985 72.341h-6.72c-.36 0-.66-.3-.66-.66V65.15h-6.539c-.36 0-.66-.3-.66-.66v-6.712c0-.36.3-.659.66-.659h6.54v-6.533c0-.36.3-.659.66-.659h6.72c.36 0 .66.3.66.66v6.472h6.539c.36 0 .66.3.66.66v6.712c0 .36-.3.66-.66.66h-6.54v6.532c.03.42-.27.719-.66.719zm-6.03-1.348h5.37V64.46c0-.36.3-.66.66-.66h6.54v-5.363h-6.54c-.36 0-.66-.3-.66-.66v-6.532h-5.37v6.532c0 .36-.3.66-.66.66h-6.539V63.8h6.54c.36 0 .66.3.66.659v6.533z" fill="#01AEB3"/><path d="M176.451 71.802a3.353 3.353 0 01-3.36-3.357c0-1.858 1.5-3.356 3.36-3.356 1.86 0 3.36 1.498 3.36 3.356 0 1.858-1.53 3.357-3.36 3.357zm0-5.364a2.008 2.008 0 100 4.015 2.009 2.009 0 100-4.015zM423.188 91.4a3.353 3.353 0 01-3.36-3.357c0-1.857 1.5-3.356 3.36-3.356 1.86 0 3.36 1.499 3.36 3.356 0 1.858-1.5 3.357-3.36 3.357zm0-5.364a2.009 2.009 0 102.01 2.007c0-1.108-.9-2.007-2.01-2.007z" fill="#FF8681"/><path d="M451.747 220.586l-11.64-3.387 18.809-64.667c.09-.3.39-.48.69-.39l10.56 3.057c.3.089.48.389.39.689l-18.809 64.698z" fill="#E2E8EB"/><path d="M467.986 157.009l-7.489-2.175-21.341 73.316 7.489 2.175 21.341-73.316z" fill="#E2E8EB"/><path d="M465.021 156.145l-1.584-.46-21.341 73.316 1.584.46 21.341-73.316z" fill="#C8D0D7"/><path d="M449.617 232.632l-14.159-4.105a.6.6 0 01-.42-.749l.15-.57a.6.6 0 01.75-.419l14.159 4.105a.6.6 0 01.42.75l-.15.569a.612.612 0 01-.75.419zm7.139-8.061l-23.008-6.682c-.33-.09-.54-.45-.45-.809l.33-1.079c.09-.33.45-.54.81-.45l23.008 6.683c.33.09.54.449.45.809l-.33 1.079c-.12.359-.48.569-.81.449zm11.086-72.511l-4.58-1.33-.661 2.273 4.58 1.33.661-2.273z" fill="#E2E8EB"/><path d="M468.846 152.382l-6.54-1.918a.801.801 0 01-.54-.989l.03-.12a.802.802 0 01.99-.539l6.54 1.918a.8.8 0 01.54.989l-.03.119c-.12.42-.57.66-.99.54z" fill="#01AEB3"/><path d="M480.946 99.68l-.634-.185-9.657 33.176.634.185 9.657-33.177z" fill="#A7B1BC"/><path d="M468.966 150.614l2.82-15.823h.03l.39-1.318c.09-.3-.09-.629-.39-.689l-1.44-.42c-.3-.09-.63.09-.69.39l-.39 1.318h.03l-6.12 14.864 5.76 1.678z" fill="#01CED3"/><path d="M468.636 160.683l-10.65-3.087c-.24-.06-.39-.27-.27-.419.39-.45 1.71-1.199 1.83-1.619.12-.419-.57-1.768-.66-2.337-.03-.18.21-.27.45-.21l10.65 3.087c.24.06.39.269.27.419-.39.45-1.71 1.199-1.83 1.618-.12.42.57 1.768.66 2.338.03.21-.18.3-.45.21z" fill="#A7B1BC"/><path d="M441.457 220.136l7.59 2.188-.42 1.378-7.17-3.566zm10.386.095l-11.665-3.388-.101.345 11.666 3.388.1-.345zm-4.984 9.342l-7.489-2.175-.101.345 7.489 2.176.101-.346zm16.437-78.809l4.35 2.037.21-.719-4.56-1.318zm3.947 3.143l-4.58-1.33-.118.403 4.58 1.33.118-.403z" fill="#C8D0D7"/><path d="M467.076 156.517l-5.52-1.588c-.18-.06-.27-.24-.21-.39.06-.179.24-.269.39-.209l5.52 1.588c.18.06.27.24.21.389-.03.15-.21.27-.39.21zm-4.62 12.346l-3.63-1.048c-.18-.06-.27-.24-.21-.39.06-.18.24-.27.39-.21l3.63 1.049c.18.06.27.24.21.39-.03.15-.21.269-.39.209zm-2.73 12.886l-5.519-1.588c-.18-.06-.27-.24-.21-.39.06-.18.24-.269.39-.21l5.519 1.589c.18.06.27.239.21.389-.03.18-.21.27-.39.21zm-4.619 12.376l-3.63-1.049c-.18-.06-.27-.239-.21-.389.06-.18.24-.27.39-.21l3.63 1.049c.18.06.27.24.21.389-.03.15-.21.24-.39.21zm-2.73 12.886l-5.52-1.588c-.18-.06-.27-.24-.21-.39.06-.18.24-.27.39-.21l5.52 1.589c.18.059.27.239.21.389-.06.15-.21.27-.39.21z" fill="#A7B1BC"/><path opacity=".4" d="M442.927 215.761a.519.519 0 01-.36-.659l17.129-58.795a.52.52 0 01.66-.359c.3.09.45.389.36.659l-17.129 58.794c-.09.27-.39.45-.66.36z" fill="#fff"/><path opacity=".15" d="M482.105 98.292l-1.98-.57c-.84-.239-1.71.24-1.95 1.08l-13.319 45.788 4.98 1.439 13.319-45.789a1.53 1.53 0 00-1.05-1.948z" fill="#018FA1"/><path opacity=".25" d="M469.746 148.037l-5.88-1.708a.884.884 0 01-.6-1.079l.06-.18a.884.884 0 011.08-.599l5.88 1.708c.48.15.72.629.6 1.079l-.06.179c-.12.45-.6.719-1.08.6z" fill="#017280"/><path d="M404.859 254.867l-45.957-13.934c-1.8-.539-2.82-2.457-2.25-4.225l37.618-123.732c.54-1.798 2.46-2.817 4.229-2.248l45.958 13.935c1.8.539 2.82 2.457 2.25 4.225L409.089 252.62a3.354 3.354 0 01-4.23 2.247z" fill="#D4DEE6"/><path d="M405.459 255.167l-47.217-14.324a2.836 2.836 0 01-1.89-3.536l37.978-124.991c.45-1.498 2.04-2.337 3.539-1.888l47.218 14.324c1.5.45 2.34 2.038 1.89 3.537l-37.978 124.99c-.45 1.498-2.04 2.337-3.54 1.888zm-7.62-144.559a2.65 2.65 0 00-3.299 1.768l-37.978 124.991a2.646 2.646 0 001.77 3.296l47.217 14.324a2.65 2.65 0 003.3-1.768l37.978-124.99a2.647 2.647 0 00-1.77-3.297l-47.218-14.324z" fill="#F3F5F7"/><path d="M437.315 138.056a7.517 7.517 0 00-2.994-10.207 7.534 7.534 0 00-10.219 2.991 7.518 7.518 0 002.995 10.208c3.649 1.992 8.224.653 10.218-2.992z" fill="#fff"/><path d="M432.588 127.104l-4.383 14.424.574.174 4.383-14.424-.574-.174zm-25.666 7.972c4.733-1.345 7.479-6.267 6.133-10.995-1.346-4.728-6.274-7.471-11.007-6.127-4.733 1.344-7.479 6.267-6.133 10.995 1.346 4.728 6.274 7.471 11.007 6.127z" fill="#E2E8EB"/><path d="M410.934 130.415a7.515 7.515 0 00-2.524-10.333 7.533 7.533 0 00-10.345 2.522 7.516 7.516 0 002.524 10.333 7.533 7.533 0 0010.345-2.522z" fill="#8FD0D6"/><path d="M409.5 120.825l-10.629 10.699.575.57 10.629-10.699-.575-.57z" fill="#C7EAED"/><path d="M436.315 141.364a8.895 8.895 0 001.387-12.511c-3.075-3.837-8.683-4.458-12.524-1.386a8.893 8.893 0 00-1.387 12.511c3.075 3.838 8.682 4.458 12.524 1.386z" fill="#E2E8EB"/><path d="M437.315 138.056a7.517 7.517 0 00-2.994-10.207 7.534 7.534 0 00-10.219 2.991 7.517 7.517 0 002.995 10.208 7.534 7.534 0 0010.218-2.992z" fill="#8FD0D6"/><path d="M432.502 127.078l-4.383 14.424.775.235 4.383-14.424-.775-.235z" fill="#C7EAED"/><path d="M398.082 160.173c4.879-.644 8.311-5.116 7.667-9.989-.644-4.873-5.121-8.302-9.999-7.659-4.878.644-8.311 5.116-7.667 9.989.644 4.873 5.121 8.302 9.999 7.659z" fill="#E2E8EB"/><path d="M397.34 158.88a7.524 7.524 0 007.102-7.926c-.23-4.148-3.782-7.324-7.934-7.094-4.152.229-7.332 3.778-7.102 7.926.23 4.148 3.782 7.324 7.934 7.094z" fill="#8FD0D6"/><path d="M391.433 146.163l-.525.617 11.495 9.764.525-.616-11.495-9.765z" fill="#C7EAED"/><path d="M423.758 168.223c4.909-.335 8.616-4.583 8.28-9.487-.336-4.904-4.589-8.608-9.498-8.272-4.909.336-8.616 4.584-8.28 9.488.336 4.904 4.588 8.607 9.498 8.271z" fill="#E2E8EB"/><path d="M428.604 164.491a7.516 7.516 0 00-.309-10.633 7.536 7.536 0 00-10.644.309 7.516 7.516 0 00.309 10.632 7.535 7.535 0 0010.644-.308z" fill="#8FD0D6"/><path d="M423.34 151.779l-.81.023.436 15.068.81-.024-.436-15.067z" fill="#C7EAED"/><path d="M389.637 185.152c4.917-.166 8.769-4.283 8.603-9.195-.166-4.913-4.288-8.76-9.205-8.594-4.918.166-8.77 4.283-8.603 9.195.166 4.913 4.287 8.76 9.205 8.594z" fill="#E2E8EB"/><path d="M394.675 181.581a7.515 7.515 0 000-10.637 7.535 7.535 0 00-10.648 0 7.515 7.515 0 000 10.637 7.534 7.534 0 0010.648 0z" fill="#8FD0D6"/><path d="M394.207 170.446l-10.301 11.014.592.553 10.301-11.014-.592-.553z" fill="#C7EAED"/><path d="M415.569 193.106c4.92 0 8.909-3.984 8.909-8.9 0-4.915-3.989-8.9-8.909-8.9-4.921 0-8.91 3.985-8.91 8.9 0 4.916 3.989 8.9 8.91 8.9z" fill="#E2E8EB"/><path d="M422.48 187.125a7.518 7.518 0 00-4.032-9.845 7.533 7.533 0 00-9.855 4.029 7.518 7.518 0 004.033 9.844c3.835 1.606 8.247-.198 9.854-4.028z" fill="#8FD0D6"/><path d="M415.049 176.689l-.804.097 1.814 14.963.804-.097-1.814-14.963z" fill="#C7EAED"/><path d="M390.546 202.787c.925-4.828-2.242-9.491-7.075-10.415-4.833-.925-9.502 2.239-10.427 7.067-.926 4.828 2.242 9.491 7.075 10.416 4.833.924 9.501-2.24 10.427-7.068z" fill="#E2E8EB"/><path d="M383.168 208.539c4.088-.761 6.785-4.688 6.024-8.772a7.529 7.529 0 00-8.781-6.017c-4.088.76-6.785 4.688-6.024 8.771.762 4.084 4.693 6.778 8.781 6.018z" fill="#8FD0D6"/><path d="M381.652 193.596l-.808.054 1.012 15.039.808-.055-1.012-15.038z" fill="#C7EAED"/><path d="M414.31 215.401a8.893 8.893 0 000-12.587 8.914 8.914 0 00-12.599 0 8.893 8.893 0 000 12.587 8.916 8.916 0 0012.599 0z" fill="#E2E8EB"/><path d="M411.41 215.802a7.517 7.517 0 003.341-10.1 7.533 7.533 0 00-10.11-3.339 7.519 7.519 0 00-3.342 10.1 7.534 7.534 0 0010.111 3.339z" fill="#8FD0D6"/><path d="M400.946 206.334l-.254.769 14.327 4.73.254-.769-14.327-4.73z" fill="#C7EAED"/><path d="M383.125 226.648c.357-4.902-3.332-9.166-8.24-9.523-4.908-.356-9.176 3.329-9.533 8.231-.357 4.903 3.332 9.166 8.24 9.523 4.908.357 9.176-3.328 9.533-8.231z" fill="#E2E8EB"/><path d="M381.744 226.327c.164-4.151-3.071-7.649-7.227-7.813a7.527 7.527 0 00-7.821 7.219c-.164 4.151 3.072 7.648 7.227 7.812 4.155.164 7.657-3.068 7.821-7.218z" fill="#8FD0D6"/><path d="M379.781 220.96l-11.694 9.525.512.627 11.694-9.525-.512-.627z" fill="#C7EAED"/><path d="M409.356 234.302c.19-4.912-3.643-9.047-8.56-9.237-4.917-.19-9.057 3.639-9.247 8.55-.19 4.912 3.643 9.048 8.56 9.238 4.917.189 9.057-3.639 9.247-8.551z" fill="#E2E8EB"/><path d="M403.143 240.972a7.52 7.52 0 004.306-9.728 7.532 7.532 0 00-9.739-4.301 7.52 7.52 0 00-4.306 9.728 7.532 7.532 0 009.739 4.301z" fill="#8FD0D6"/><path d="M407.673 231.766l-14.621 3.724.2.784 14.621-3.724-.2-.784z" fill="#C7EAED"/><path d="M420.848 118.999a.344.344 0 01-.21-.39l.3-.959c.06-.15.21-.239.39-.209.15.059.24.209.21.389l-.3.959c-.06.15-.24.24-.39.21zM383.92 240.333a.343.343 0 01-.21-.389l.6-1.948c.06-.15.21-.24.39-.21.15.06.24.21.21.39l-.6 1.948c-.06.179-.24.269-.39.209zm1.53-5.064a.343.343 0 01-.21-.389l.6-1.948c.06-.15.21-.24.39-.21.15.06.24.21.21.389l-.6 1.948c-.06.18-.24.27-.39.21zm1.53-5.034a.344.344 0 01-.21-.39l.6-1.948c.06-.15.21-.239.39-.209.15.059.24.209.21.389l-.6 1.948c-.06.15-.21.24-.39.21zm1.56-5.065a.343.343 0 01-.21-.389l.6-1.948c.06-.15.21-.24.39-.21.15.06.24.21.21.39l-.6 1.948a.363.363 0 01-.39.209zm1.53-5.064a.344.344 0 01-.21-.39l.6-1.947c.06-.15.21-.24.39-.21.15.06.24.21.21.389l-.6 1.948c-.06.18-.24.27-.39.21zm1.53-5.064a.344.344 0 01-.21-.39l.6-1.948c.06-.15.21-.239.39-.21.15.06.24.21.21.39l-.6 1.948c-.06.18-.21.27-.39.21zm1.56-5.035a.343.343 0 01-.21-.389l.6-1.948c.06-.15.21-.24.39-.21.15.06.24.21.21.39l-.6 1.947c-.06.15-.24.24-.39.21zm1.53-5.064a.344.344 0 01-.21-.39l.6-1.947c.06-.15.21-.24.39-.21.15.06.24.209.21.389l-.6 1.948c-.06.18-.24.27-.39.21zm1.53-5.064a.344.344 0 01-.21-.39l.6-1.948c.06-.15.21-.24.39-.21.15.06.24.21.21.39l-.6 1.948c-.06.18-.21.269-.39.21zm1.56-5.035a.343.343 0 01-.21-.389l.599-1.948c.06-.15.21-.24.39-.21.15.06.24.21.21.39l-.6 1.947a.362.362 0 01-.389.21zm1.529-5.064a.344.344 0 01-.21-.39l.6-1.948a.344.344 0 01.39-.209c.15.06.24.209.21.389l-.6 1.948c-.06.15-.24.24-.39.21zm1.53-5.065a.342.342 0 01-.21-.389l.6-1.948c.06-.15.21-.24.39-.21.15.06.24.21.21.39l-.6 1.948c-.06.179-.24.269-.39.209zm1.53-5.064a.343.343 0 01-.21-.389l.6-1.948c.06-.15.21-.24.39-.21.15.06.24.21.21.39l-.6 1.947c-.06.18-.21.27-.39.21zm1.56-5.034a.344.344 0 01-.21-.39l.6-1.948c.06-.15.21-.239.39-.209.15.059.24.209.21.389l-.6 1.948c-.06.15-.24.24-.39.21zm1.53-5.065a.343.343 0 01-.21-.389l.6-1.948c.06-.15.21-.24.39-.21.15.06.24.21.21.39l-.6 1.948c-.06.179-.24.269-.39.209zm1.53-5.064a.344.344 0 01-.21-.39l.6-1.947c.06-.15.21-.24.39-.21.15.06.24.21.21.389l-.6 1.948c-.06.18-.21.27-.39.21zm1.56-5.064a.344.344 0 01-.21-.39l.6-1.948c.06-.15.21-.239.39-.21.15.06.24.21.21.39l-.6 1.948c-.06.18-.24.27-.39.21zm1.53-5.035a.343.343 0 01-.21-.389l.6-1.948c.06-.15.21-.24.39-.21.15.06.24.21.21.39l-.6 1.947c-.06.15-.24.24-.39.21zm1.53-5.064a.344.344 0 01-.21-.39l.6-1.947c.06-.15.21-.24.39-.21.15.06.24.21.21.389l-.6 1.948c-.06.18-.21.27-.39.21zm1.56-5.064a.344.344 0 01-.21-.39l.6-1.948c.06-.15.21-.24.39-.21.15.06.24.21.21.39l-.6 1.948c-.06.18-.24.27-.39.21zm1.53-5.035a.343.343 0 01-.21-.389l.6-1.948c.06-.15.21-.24.39-.21.15.06.24.21.21.39l-.6 1.947c-.06.15-.24.24-.39.21zm1.53-5.064a.344.344 0 01-.21-.39l.6-1.948a.344.344 0 01.39-.209c.15.06.24.209.21.389l-.6 1.948c-.06.18-.21.27-.39.21zm1.53-5.065a.342.342 0 01-.21-.389l.599-1.948c.06-.15.21-.24.39-.21.15.06.24.21.21.39l-.6 1.948c-.06.18-.209.269-.389.209zm1.559-5.064a.343.343 0 01-.21-.389l.6-1.948c.06-.15.21-.24.39-.21.15.06.24.21.21.39l-.6 1.947c-.06.18-.24.27-.39.21zM382.66 244.409a.344.344 0 01-.21-.39l.3-.959a.344.344 0 01.39-.209c.15.06.24.209.21.389l-.3.959c-.06.18-.21.27-.39.21z" fill="#A7B1BC"/><path d="M438.907 150.823l-.69-.209a.326.326 0 01-.21-.36c.06-.15.21-.24.36-.21l.69.21c.15.06.24.21.21.36a.266.266 0 01-.36.209zm-3.719-1.138l-1.89-.57a.325.325 0 01-.21-.359c.06-.15.21-.24.36-.21l1.89.569c.149.06.239.21.209.36-.06.18-.209.27-.359.21zm-4.95-1.499l-1.89-.569a.326.326 0 01-.21-.36.326.326 0 01.36-.209l1.89.569c.15.06.24.21.21.36a.266.266 0 01-.36.209zm-4.95-1.498l-1.89-.569a.326.326 0 01-.21-.36c.03-.15.21-.24.36-.21l1.89.57c.15.06.24.209.21.359s-.21.27-.36.21zm-4.95-1.498l-1.89-.57a.325.325 0 01-.21-.359c.03-.15.21-.24.36-.21l1.89.569c.15.06.24.21.21.36s-.18.27-.36.21zm-4.919-1.499l-1.89-.569a.326.326 0 01-.21-.36.326.326 0 01.36-.209l1.889.569c.15.06.241.21.211.36a.267.267 0 01-.36.209zm-4.95-1.498l-1.89-.569a.326.326 0 01-.21-.36c.03-.15.21-.24.36-.21l1.89.57c.15.06.24.209.21.359-.03.18-.21.27-.36.21zm-4.95-1.498l-1.89-.57a.325.325 0 01-.21-.359c.03-.15.21-.24.36-.21l1.89.569c.15.06.24.21.21.36-.03.18-.18.27-.36.21zm-4.92-1.499l-1.89-.569a.326.326 0 01-.21-.36.326.326 0 01.36-.209l1.89.569c.15.06.24.21.21.36-.06.179-.21.269-.36.209zm-4.949-1.498l-1.89-.569a.326.326 0 01-.21-.36c.06-.15.21-.24.36-.21l1.889.57c.15.06.241.209.211.359s-.211.27-.36.21zm-4.95-1.498l-1.89-.57a.325.325 0 01-.21-.359c.06-.15.21-.24.36-.21l1.89.569c.15.06.24.21.21.36-.03.18-.18.27-.36.21zm40.648 39.526l-.69-.21a.326.326 0 01-.21-.36c.06-.15.21-.24.36-.21l.69.21c.15.06.24.21.21.36s-.21.24-.36.21zm-3.75-1.139l-1.89-.57a.324.324 0 01-.21-.359c.06-.15.21-.24.36-.21l1.89.569c.15.06.24.21.21.36s-.18.24-.36.21zm-4.92-1.498l-1.89-.57a.325.325 0 01-.21-.359c.03-.15.21-.24.36-.21l1.89.569c.15.06.24.21.21.36s-.21.239-.36.21zm-4.949-1.499l-1.89-.569a.326.326 0 01-.21-.36c.03-.15.21-.24.36-.21l1.89.57c.15.06.239.21.209.359-.03.15-.209.24-.359.21zm-4.95-1.498l-1.89-.57a.324.324 0 01-.21-.359c.03-.15.21-.24.36-.21l1.89.569c.15.06.24.21.21.36s-.18.24-.36.21zm-4.92-1.498l-1.89-.57a.325.325 0 01-.21-.359c.03-.15.21-.24.36-.21l1.89.569c.15.06.24.21.21.36a.327.327 0 01-.36.21zm-4.95-1.499l-1.89-.569a.326.326 0 01-.21-.36c.03-.15.21-.24.36-.21l1.89.57c.15.06.24.21.21.359-.03.15-.21.24-.36.21zm-4.949-1.498l-1.89-.57a.324.324 0 01-.21-.359c.06-.15.21-.24.36-.21l1.89.569c.149.06.239.21.209.36s-.209.24-.359.21zm-4.95-1.498l-1.89-.57a.325.325 0 01-.21-.359c.03-.15.21-.24.36-.21l1.89.569c.15.06.24.21.21.36s-.18.239-.36.21zm-4.92-1.499l-1.89-.569a.326.326 0 01-.21-.36c.06-.15.21-.239.36-.21l1.89.57c.15.06.24.21.21.359-.03.15-.21.24-.36.21zm-4.95-1.498l-1.89-.57a.324.324 0 01-.21-.359c.03-.15.21-.24.36-.21l1.89.569c.15.06.24.21.21.36s-.21.24-.36.21zm40.648 39.496l-.69-.21a.325.325 0 01-.21-.359c.03-.15.21-.24.36-.21l.69.21c.15.059.24.209.21.359-.06.18-.21.27-.36.21zm-3.75-1.139l-1.89-.569a.326.326 0 01-.21-.36c.06-.15.21-.24.36-.21l1.89.57c.15.06.24.21.21.359-.03.18-.21.27-.36.21zm-4.919-1.498l-1.89-.57a.324.324 0 01-.21-.359c.06-.15.21-.24.36-.21l1.89.569c.15.06.24.21.21.36-.06.18-.21.27-.36.21zm-4.95-1.499l-1.89-.569a.325.325 0 01-.21-.359c.06-.15.21-.24.36-.21l1.89.569c.15.06.24.21.21.36s-.21.269-.36.209zm-4.95-1.498l-1.89-.569a.326.326 0 01-.21-.36c.06-.15.21-.24.36-.21l1.89.57c.15.06.24.21.21.359-.03.18-.21.27-.36.21zm-4.95-1.498l-1.89-.57a.324.324 0 01-.21-.359c.06-.15.21-.24.36-.21l1.89.569c.15.06.24.21.21.36s-.18.27-.36.21zm-4.919-1.499l-1.89-.569a.325.325 0 01-.21-.359c.03-.15.21-.24.36-.21l1.89.569c.15.06.24.21.21.36a.266.266 0 01-.36.209zm-4.95-1.498l-1.89-.569a.326.326 0 01-.21-.36c.06-.15.21-.24.36-.21l1.89.57c.15.06.24.21.21.359-.03.18-.21.27-.36.21zm-4.95-1.498l-1.89-.57a.324.324 0 01-.21-.359c.06-.15.21-.24.36-.21l1.89.569c.15.06.24.21.21.36-.03.18-.18.27-.36.21zm-4.92-1.498l-1.889-.57a.325.325 0 01-.21-.359c.06-.15.21-.24.359-.21l1.89.569c.15.06.24.21.21.36-.06.18-.21.269-.36.21zm-4.949-1.499l-1.89-.569a.326.326 0 01-.21-.36c.03-.15.21-.24.36-.21l1.89.57c.15.06.24.21.21.359-.03.15-.21.27-.36.21zm40.618 39.526l-.69-.21a.325.325 0 01-.21-.359c.06-.15.21-.24.36-.21l.69.21c.15.06.24.209.21.359s-.18.24-.36.21zm-3.72-1.139l-1.89-.569a.326.326 0 01-.21-.36c.06-.15.21-.239.36-.209l1.89.569c.15.06.24.21.21.359-.03.15-.21.24-.36.21zm-4.95-1.498l-1.89-.569a.326.326 0 01-.21-.36c.06-.15.21-.24.36-.21l1.89.57c.15.06.24.209.21.359s-.18.24-.36.21zm-4.92-1.498l-1.89-.57a.325.325 0 01-.21-.359c.06-.15.21-.24.36-.21l1.89.569c.15.06.24.21.21.36-.06.15-.21.24-.36.21zm-4.949-1.499l-1.89-.569a.326.326 0 01-.21-.36c.03-.15.21-.239.36-.209l1.889.569c.15.06.24.21.21.36-.03.149-.21.239-.359.209zm-4.95-1.498l-1.89-.569a.326.326 0 01-.21-.36c.03-.15.21-.24.36-.21l1.89.57c.15.06.24.209.21.359s-.21.24-.36.21zm-4.92-1.498l-1.89-.57a.325.325 0 01-.21-.359c.06-.15.21-.24.36-.21l1.89.569c.15.06.24.21.21.36-.06.15-.21.24-.36.21zm-4.95-1.499l-1.89-.569a.326.326 0 01-.21-.36c.06-.15.21-.239.36-.209l1.89.569c.15.06.24.21.21.36-.03.149-.21.239-.36.209zm-4.95-1.498l-1.889-.569a.326.326 0 01-.21-.36c.06-.15.21-.24.36-.21l1.889.57c.15.06.24.209.21.359s-.21.24-.36.21zm-4.949-1.498l-1.89-.57a.325.325 0 01-.21-.359c.03-.15.21-.24.36-.21l1.89.569c.15.06.24.21.21.36s-.18.24-.36.21zm-4.92-1.499l-1.89-.569a.326.326 0 01-.21-.36c.03-.15.21-.239.36-.209l1.89.569c.15.06.24.21.21.36-.03.149-.21.239-.36.209zm34.498 40.186l-39.568-11.987c-.96-.3-1.5-1.319-1.23-2.277a1.865 1.865 0 012.28-1.229l39.568 11.986c.96.3 1.5 1.319 1.23 2.278-.27.989-1.32 1.528-2.28 1.229z" fill="#A7B1BC"/><path d="M435.368 209.948c0-.06-.69-7.432-4.95-14.564-5.46-9.17-14.159-13.845-25.859-13.815-11.819 0-20.549 4.735-25.979 14.084-4.169 7.162-4.769 14.295-4.769 14.354l-7.62-.629c.03-.359.78-8.96 5.79-17.59 4.74-8.151 14.249-17.89 32.578-17.89 18.359-.03 27.869 9.679 32.608 17.83 5.04 8.63 5.79 17.201 5.82 17.56l-7.619.66z" fill="#799CA1"/><path d="M354.252 209.498h-8.1c-1.2 0-2.19-.989-2.19-2.188v-7.072c0-1.198.99-2.187 2.19-2.187h8.1a2.2 2.2 0 012.189 2.187v7.072a2.2 2.2 0 01-2.189 2.188z" fill="#A7B1BC"/><path d="M462.756 209.408h-8.1a2.2 2.2 0 01-2.189-2.187v-7.073a2.2 2.2 0 012.189-2.187h8.1c1.2 0 2.19.989 2.19 2.187v7.073c-.03 1.198-.99 2.187-2.19 2.187z" fill="#799CA1"/><path d="M359.711 311.654h-5.819a2.578 2.578 0 01-2.58-2.577v-.629a2.578 2.578 0 012.58-2.577h5.819c1.44 0 2.58 1.168 2.58 2.577v.629c.03 1.409-1.14 2.577-2.58 2.577z" fill="#A7B1BC"/><path d="M455.167 311.355h-5.82a2.579 2.579 0 01-2.58-2.578v-.629a2.579 2.579 0 012.58-2.577h5.82a2.578 2.578 0 012.579 2.577v.629a2.598 2.598 0 01-2.579 2.578z" fill="#799CA1"/><path d="M472.026 308.178l-134.963.12c-2.64 0-4.8-2.128-4.8-4.795l-.09-95.084a4.792 4.792 0 014.8-4.794l134.963-.12a4.79 4.79 0 014.799 4.794l.09 95.084c-.03 2.637-2.159 4.795-4.799 4.795z" fill="#FF8681"/><path d="M404.559 228.617l.06 54.539m-27.418-27.15l54.597-.03" stroke="#fff" stroke-width="49.536" stroke-miterlimit="10"/><path opacity=".6" d="M346.602 200.029v1.917" stroke="#fff" stroke-width="3.689" stroke-miterlimit="10" stroke-linecap="round"/><path opacity=".5" d="M340.272 212.525l.03 18.099" stroke="#fff" stroke-width="15.282" stroke-miterlimit="10" stroke-linecap="round"/><path d="M192.89 298.679L71.456 315.22c-3.21.45-6.15-1.798-6.6-5.004L42.479 146.239c-.45-3.207 1.8-6.144 5.01-6.593l121.433-16.542c3.21-.449 6.15 1.798 6.6 5.005L197.9 292.086c.42 3.176-1.83 6.143-5.01 6.593z" fill="#799CA1"/><path d="M139.11 127.596l-59.98 8.164 1.082 7.928 59.98-8.164-1.082-7.928z" fill="#BEC5D9"/><path d="M175.281 294.963L73.796 308.777c-.33.06-.63-.18-.69-.509L50.787 144.65c-.06-.329.18-.629.51-.689l115.104-15.703c.33-.059.63.18.69.51L187.67 279.71l-12.389 15.253z" fill="#fff"/><path d="M187.67 279.74l-13.589 1.857c-.33.06-.57.36-.51.69l1.74 12.676 12.359-15.223z" fill="#fff" stroke="#B4C2DF" stroke-width="2.792" stroke-miterlimit="10" stroke-linecap="round" stroke-linejoin="round"/><path d="M161.752 168.234l-71.157 9.679c-.75.09-1.44-.389-1.56-1.139a1.346 1.346 0 011.2-1.498l71.157-9.679c.75-.09 1.44.389 1.56 1.139.09.719-.45 1.378-1.2 1.498zm-3.6 7.102l-66.657 9.08c-.75.09-1.44-.39-1.56-1.139a1.346 1.346 0 011.2-1.498l66.657-9.08c.75-.09 1.44.389 1.56 1.139.09.719-.45 1.378-1.2 1.498z" fill="#C1E2EB"/><path d="M66.897 191.308c-.36 0-.81-.509-.9-.989l-1.89-13.904c-.09-.6.36-1.169.96-1.259l13.919-1.888h.15c.57 0 1.02.42 1.11.959l1.89 13.905c.06.329-.06.659-.3.899-.21.209-.54.359-.96.419l-13.92 1.888c0-.03-.03-.03-.06-.03z" fill="#fff"/><path d="M79.136 173.748c.3 0 .57.21.6.539l1.89 13.905c.06.329-.18.629-.81.719l-13.92 1.888c-.03 0-.33-.24-.39-.57l-1.89-13.904c-.06-.33.18-.629.51-.689l13.92-1.888h.09zm0-1.019h-.21l-13.92 1.888c-.9.12-1.5.929-1.38 1.828l1.89 13.904c.09.689.72 1.439 1.38 1.439h.15l13.92-1.888c1.32-.18 1.8-1.109 1.68-1.858l-1.89-13.905a1.644 1.644 0 00-1.62-1.408z" fill="#BEC5D9"/><path d="M165.052 193.106l-71.157 9.679c-.75.09-1.44-.389-1.56-1.138-.09-.72.42-1.409 1.2-1.499l71.157-9.679c.749-.09 1.439.39 1.559 1.139.09.719-.45 1.378-1.199 1.498zm-3.6 7.102l-66.657 9.08c-.75.09-1.44-.39-1.56-1.139a1.346 1.346 0 011.2-1.498l66.657-9.08c.75-.09 1.44.39 1.56 1.139.09.719-.45 1.378-1.2 1.498z" fill="#C1E2EB"/><path d="M70.406 216.15c-.57 0-1.02-.419-1.11-.959l-1.89-13.904c-.06-.39.09-.749.27-.959.03-.06.15-.21.39-.24l13.92-1.888c.12-.03.21-.03.33-.03.81 0 1.17.48 1.23.929l1.89 13.905c.09.599-.36 1.169-.96 1.258l-13.92 1.888h-.15z" fill="#fff"/><path d="M82.316 198.65c.48 0 .69.21.75.509l1.89 13.905c.06.329-.18.629-.51.689l-13.92 1.888h-.09a.59.59 0 01-.6-.539l-1.89-13.905c-.06-.33.18-.629.21-.659l13.92-1.888h.24zm0-1.019c-.12 0-.24 0-.39.03l-13.92 1.888c-.27.03-.54.18-.72.449-.12.15-.45.66-.36 1.349l1.89 13.904c.12.809.81 1.409 1.62 1.409h.21l13.92-1.888c.9-.12 1.5-.929 1.38-1.828l-1.89-13.905c-.15-.959-.99-1.408-1.74-1.408z" fill="#BEC5D9"/><path d="M168.441 217.978l-71.156 9.68c-.75.09-1.44-.39-1.56-1.139a1.345 1.345 0 011.2-1.498l71.156-9.68c.75-.09 1.44.39 1.56 1.139.09.719-.45 1.379-1.2 1.498zm-3.599 7.102l-66.657 9.08c-.75.09-1.44-.389-1.56-1.138-.09-.72.42-1.409 1.2-1.499l66.657-9.08c.749-.089 1.439.39 1.559 1.139.09.719-.45 1.379-1.199 1.498z" fill="#C1E2EB"/><path d="M73.826 240.993c-.57 0-1.02-.42-1.11-.959l-1.89-13.905c-.06-.389.09-.749.27-.959.03-.06.15-.209.39-.239l13.92-1.888c.12-.03.21-.03.33-.03.81 0 1.17.479 1.23.929l1.89 13.904c.03.3-.03.6-.21.839-.18.24-.45.39-.75.42l-13.92 1.888h-.15z" fill="#fff"/><path d="M85.706 223.522c.48 0 .69.21.75.51l1.89 13.904c.06.33-.18.63-.51.689l-13.92 1.888h-.09c-.3 0-.57-.209-.6-.539l-1.92-13.905c-.06-.329.18-.629.21-.659l13.92-1.888h.27zm0-1.019c-.12 0-.27 0-.39.03l-13.92 1.888c-.27.03-.54.18-.72.45-.12.15-.45.659-.36 1.348l1.89 13.905c.12.809.81 1.408 1.62 1.408h.21l13.92-1.888c.42-.06.81-.269 1.08-.629s.36-.779.33-1.199l-1.89-13.904c-.18-.989-1.02-1.409-1.77-1.409z" fill="#BEC5D9"/><path d="M171.831 242.821l-71.156 9.679c-.75.09-1.44-.39-1.56-1.139a1.346 1.346 0 011.2-1.498l71.156-9.679c.75-.09 1.44.389 1.56 1.138.09.749-.45 1.409-1.2 1.499zm-3.6 7.102l-66.656 9.08c-.75.089-1.44-.39-1.56-1.139a1.345 1.345 0 011.2-1.498l66.656-9.08c.75-.09 1.44.389 1.56 1.138.09.72-.45 1.409-1.2 1.499z" fill="#C1E2EB"/><path d="M77.246 265.865c-.6 0-1.08-.45-1.17-1.019l-1.89-13.755c-.03-.299.03-.629.24-.869.18-.239.48-.419.78-.449l13.77-1.888h.15c.6 0 1.08.449 1.17 1.019l1.89 13.754c.09.66-.36 1.229-1.02 1.319l-13.77 1.888h-.15z" fill="#fff"/><path d="M89.155 248.364c.33 0 .63.24.66.57l1.89 13.754c.06.36-.21.72-.57.749l-13.769 1.888h-.09c-.33 0-.63-.239-.66-.569l-1.89-13.755c-.06-.359.21-.719.57-.749l13.77-1.888h.09zm0-1.019c-.09 0-.15 0-.24.03l-13.769 1.888c-.45.06-.84.3-1.11.66-.27.359-.39.809-.33 1.258l1.89 13.755c.12.839.84 1.468 1.68 1.468.09 0 .15 0 .24-.03l13.77-1.888c.93-.12 1.56-.989 1.44-1.888l-1.89-13.754c-.12-.869-.84-1.499-1.68-1.499z" fill="#BEC5D9"/><path d="M175.221 267.693l-71.156 9.679c-.75.09-1.44-.389-1.56-1.139a1.346 1.346 0 011.2-1.498l71.156-9.679c.75-.09 1.44.39 1.56 1.139.09.719-.45 1.408-1.2 1.498zm-3.6 7.102l-66.656 9.08c-.75.09-1.44-.39-1.56-1.139a1.346 1.346 0 011.2-1.498l66.656-9.08c.75-.09 1.44.39 1.56 1.139.09.719-.45 1.408-1.2 1.498z" fill="#C1E2EB"/><path d="M80.666 290.737c-.6 0-1.08-.449-1.17-1.019l-1.89-13.754c-.03-.3.03-.63.24-.869.18-.24.48-.42.78-.45l13.77-1.888h.15c.6 0 1.08.45 1.17 1.019l1.889 13.755c.03.299-.03.629-.24.869-.18.24-.48.419-.78.449l-13.77 1.888h-.15z" fill="#fff"/><path d="M92.545 273.237c.33 0 .63.24.66.569l1.89 13.755c.06.359-.21.719-.57.749l-13.77 1.888h-.09c-.33 0-.63-.24-.66-.57l-1.889-13.754c-.06-.36.21-.719.57-.749l13.77-1.888h.09zm0-1.019c-.09 0-.15 0-.24.03l-13.77 1.888c-.449.06-.839.299-1.109.659-.27.36-.39.809-.33 1.259l1.89 13.754c.12.839.84 1.469 1.68 1.469.09 0 .15 0 .24-.03l13.77-1.888c.45-.06.84-.3 1.11-.659.27-.36.39-.81.33-1.259l-1.89-13.755a1.708 1.708 0 00-1.68-1.468zm45.658-143.51l-57.717 7.851c-1.02.15-1.95-.569-2.1-1.588-.15-1.019.57-1.948 1.59-2.098l57.717-7.851c1.02-.15 1.95.57 2.1 1.588.15 1.019-.57 1.978-1.59 2.098z" fill="#BEC5D9"/><path d="M115.134 145.489c-2.34.33-3.87.51-3.9.51-.06 0-7.679 1.109-15.419 2.008-16.14 1.858-17.19 1.048-17.82.569a1.404 1.404 0 01-.569-.959l-1.32-9.589c-.15-1.079.09-2.068.69-2.847 1.02-1.319 2.67-1.558 2.85-1.588l.3 2.337c-.51.06-1.68.39-1.47 1.738l1.23 9.02c2.97.48 17.819-1.109 31.258-3.057 13.47-1.708 28.169-4.105 30.959-5.334l-1.23-9.079c-.06-.45-.21-.78-.48-.989-.54-.39-1.38-.3-1.41-.3l-.33-2.337c.18-.03 1.86-.24 3.18.749.78.569 1.26 1.468 1.41 2.547l1.32 9.709c.06.36-.06.749-.3 1.049-.45.599-1.23 1.618-17.31 4.135-4.379.69-8.669 1.289-11.639 1.708z" fill="#BEC5D9"/><path d="M67.587 180.97l4.95 6.562 4.979-11.057m-6.3 29.187l4.95 6.563 4.98-11.058m.12 79.232l4.92 6.563 4.98-11.028" stroke="#FA938E" stroke-width="8.375" stroke-miterlimit="10" stroke-linecap="round" stroke-linejoin="round"/><path d="M386.47 305.871H122.784V133.862c0-6.233 5.069-11.297 11.309-11.297h241.068c6.239 0 11.309 5.064 11.309 11.297v172.009z" fill="#55B6C1"/><path d="M374.471 292.625H134.813c-.63 0-1.14-.509-1.14-1.138V136.919c0-.629.51-1.139 1.14-1.139h239.628c.63 0 1.139.51 1.139 1.139v154.597c0 .63-.48 1.109-1.109 1.109z" fill="#9AD1D6"/><path d="M401.499 313.122H107.694a9.52 9.52 0 01-9.54-9.529H411.07c-.03 5.244-4.29 9.529-9.57 9.529z" fill="#018E9E"/><path d="M238.608 303.893c0 2.457 2.01 4.435 4.439 4.435h22.109c2.46 0 4.44-2.008 4.44-4.435v-.33h-30.988v.33zm16.049-171.619c1.358 0 2.46-1.1 2.46-2.457a2.459 2.459 0 00-2.46-2.457 2.458 2.458 0 100 4.914z" fill="#8FD0D6"/><path d="M98.935 330.533l-49.828-12.316c-2.82-.69-4.56-3.566-3.87-6.413l16.29-65.657c.69-2.817 3.57-4.555 6.42-3.866l49.827 12.347c2.82.689 4.56 3.566 3.87 6.412l-16.289 65.657c-.72 2.817-3.6 4.555-6.42 3.836z" fill="#D4DEE6"/><path d="M99.895 330.863l-51.808-12.796c-2.34-.569-3.75-2.937-3.18-5.274l16.77-67.635c.57-2.337 2.94-3.746 5.28-3.176l51.807 12.825c2.34.57 3.75 2.937 3.18 5.275l-16.77 67.634c-.569 2.308-2.939 3.746-5.28 3.147zm-32.969-88.701a4.2 4.2 0 00-5.07 3.056l-16.768 67.635a4.195 4.195 0 003.06 5.064l51.807 12.826a4.2 4.2 0 005.069-3.057l16.77-67.634a4.196 4.196 0 00-3.06-5.065l-51.808-12.825z" fill="#F3F5F7"/><path d="M65.037 269.791a4.523 4.523 0 01-3.3-5.484c.6-2.428 3.06-3.896 5.49-3.297l13.109 3.237a4.522 4.522 0 013.3 5.484c-.6 2.427-3.06 3.895-5.49 3.296l-13.11-3.236z" fill="#F3F5F7"/><path d="M73.436 263.618l-1.68 6.712-6.48-1.588c-1.86-.45-3-2.337-2.52-4.195.24-.929.81-1.679 1.59-2.128.75-.45 1.71-.629 2.61-.39l6.48 1.589z" fill="#01AEB3"/><path d="M82.616 269.461c-.24.929-.81 1.678-1.59 2.128-.75.449-1.71.629-2.61.389l-6.66-1.648 1.68-6.712 6.66 1.648c1.83.479 2.97 2.367 2.52 4.195z" fill="#8FD0D6"/><path opacity=".6" d="M67.677 264.217c-.12.419-.78.629-1.5.449-.72-.179-1.2-.659-1.11-1.108.12-.42.78-.63 1.5-.45s1.23.689 1.11 1.109z" fill="#fff"/><path d="M94.375 277.043a4.523 4.523 0 01-3.3-5.484c.6-2.428 3.06-3.896 5.49-3.297l13.109 3.237a4.522 4.522 0 013.3 5.484c-.6 2.427-3.06 3.895-5.49 3.296l-13.109-3.236z" fill="#F3F5F7"/><path d="M102.775 270.899l-1.68 6.713-6.48-1.588c-1.86-.45-3-2.338-2.52-4.196.24-.929.81-1.678 1.59-2.127.75-.45 1.71-.63 2.61-.39l6.48 1.588z" fill="#01AEB3"/><path d="M111.954 276.743c-.24.929-.81 1.678-1.59 2.128-.75.449-1.71.629-2.61.389l-6.659-1.648 1.68-6.713 6.659 1.649c1.86.449 2.97 2.337 2.52 4.195z" fill="#8FD0D6"/><path opacity=".6" d="M97.045 271.499c-.12.419-.78.629-1.5.449-.72-.179-1.2-.659-1.11-1.108.12-.42.78-.63 1.5-.45s1.2.659 1.11 1.109z" fill="#fff"/><path d="M61.677 283.336a4.523 4.523 0 01-3.3-5.484c.6-2.428 3.06-3.896 5.49-3.297l13.109 3.237a4.522 4.522 0 013.3 5.484c-.6 2.427-3.06 3.895-5.49 3.296l-13.11-3.236z" fill="#F3F5F7"/><path d="M70.076 277.163l-1.68 6.712-6.48-1.588c-1.86-.45-3-2.338-2.52-4.195.24-.929.81-1.679 1.59-2.128.75-.45 1.71-.629 2.61-.39l6.48 1.589z" fill="#01AEB3"/><path d="M79.256 283.006c-.24.929-.81 1.678-1.59 2.128-.75.449-1.71.629-2.61.389l-6.66-1.648 1.68-6.713 6.66 1.649c1.83.449 2.97 2.337 2.52 4.195z" fill="#8FD0D6"/><path opacity=".6" d="M64.317 277.762c-.12.419-.78.629-1.5.449-.72-.179-1.2-.659-1.11-1.108.12-.42.78-.63 1.5-.45s1.23.689 1.11 1.109z" fill="#fff"/><path d="M91.015 290.588a4.523 4.523 0 01-3.3-5.484c.6-2.428 3.06-3.896 5.49-3.297l13.109 3.237a4.522 4.522 0 013.3 5.484c-.6 2.427-3.06 3.895-5.489 3.296l-13.11-3.236z" fill="#F3F5F7"/><path d="M99.415 284.445l-1.68 6.712-6.48-1.588c-1.86-.45-3-2.338-2.52-4.196.24-.928.81-1.678 1.59-2.127.75-.45 1.71-.629 2.61-.39l6.48 1.589z" fill="#01AEB3"/><path d="M108.594 290.288c-.24.929-.81 1.678-1.59 2.128-.75.449-1.71.629-2.609.389l-6.66-1.648 1.68-6.713 6.659 1.649c1.86.449 3 2.337 2.52 4.195z" fill="#8FD0D6"/><path opacity=".6" d="M93.685 285.014c-.12.419-.78.629-1.5.449-.72-.179-1.2-.659-1.11-1.108.12-.42.78-.63 1.5-.45.72.21 1.2.689 1.11 1.109z" fill="#fff"/><path d="M58.317 296.881a4.523 4.523 0 01-3.3-5.484c.6-2.428 3.06-3.896 5.49-3.297l13.11 3.237a4.522 4.522 0 013.299 5.484c-.6 2.427-3.06 3.895-5.49 3.296l-13.11-3.236z" fill="#F3F5F7"/><path d="M66.716 290.707l-1.68 6.713-6.48-1.588a3.436 3.436 0 01-2.519-4.196c.24-.929.81-1.678 1.59-2.127.75-.45 1.71-.63 2.61-.39l6.48 1.588z" fill="#01AEB3"/><path d="M75.896 296.551c-.24.929-.81 1.678-1.59 2.127-.75.45-1.71.63-2.61.39l-6.66-1.648 1.68-6.713 6.66 1.648c1.83.45 2.97 2.338 2.52 4.196z" fill="#8FD0D6"/><path opacity=".6" d="M60.957 291.307c-.12.419-.78.629-1.5.449s-1.2-.659-1.11-1.109c.12-.419.78-.629 1.5-.449s1.23.689 1.11 1.109z" fill="#fff"/><path d="M87.655 304.132a4.522 4.522 0 01-3.3-5.484c.6-2.427 3.06-3.895 5.49-3.296l13.11 3.237a4.521 4.521 0 013.299 5.483c-.6 2.428-3.059 3.896-5.489 3.297l-13.11-3.237z" fill="#F3F5F7"/><path d="M96.055 297.989l-1.68 6.713-6.48-1.588c-1.86-.45-3-2.338-2.52-4.196.24-.929.81-1.678 1.59-2.127.75-.45 1.71-.63 2.61-.39l6.48 1.588z" fill="#01AEB3"/><path d="M105.235 303.833c-.24.929-.81 1.678-1.59 2.127-.75.45-1.71.63-2.61.39l-6.66-1.648 1.68-6.713 6.66 1.648a3.437 3.437 0 012.52 4.196z" fill="#8FD0D6"/><path opacity=".6" d="M90.343 298.559c.107-.434-.38-.928-1.087-1.103-.707-.175-1.368.035-1.476.468-.108.434.379.928 1.087 1.103.707.175 1.368-.035 1.476-.468z" fill="#fff"/><path d="M54.957 310.425a4.521 4.521 0 01-3.3-5.483c.6-2.428 3.06-3.896 5.49-3.297l13.11 3.237a4.521 4.521 0 013.3 5.483c-.6 2.428-3.06 3.896-5.49 3.297l-13.11-3.237z" fill="#F3F5F7"/><path d="M63.357 304.252l-1.68 6.713-6.48-1.588c-1.86-.45-3-2.338-2.52-4.196.24-.929.81-1.678 1.59-2.127.75-.45 1.71-.63 2.61-.39l6.48 1.588z" fill="#01AEB3"/><path d="M72.536 310.096c-.24.929-.81 1.678-1.59 2.127-.75.45-1.71.63-2.61.39l-6.66-1.648 1.68-6.713 6.66 1.648c1.83.45 2.97 2.338 2.52 4.196z" fill="#8FD0D6"/><path opacity=".6" d="M57.597 304.852c-.12.419-.78.629-1.5.449s-1.2-.659-1.11-1.109c.12-.419.78-.629 1.5-.449.75.18 1.23.659 1.11 1.109z" fill="#fff"/><path d="M84.296 317.677a4.522 4.522 0 01-3.3-5.484c.6-2.427 3.06-3.895 5.49-3.296l13.109 3.236c2.43.6 3.9 3.057 3.3 5.484-.6 2.428-3.06 3.896-5.49 3.297l-13.11-3.237z" fill="#F3F5F7"/><path d="M92.695 311.504l-1.68 6.713-6.48-1.589a3.435 3.435 0 01-2.52-4.195c.24-.929.81-1.678 1.59-2.128.75-.449 1.71-.629 2.61-.389l6.48 1.588z" fill="#01AEB3"/><path d="M101.875 317.348c-.24.928-.81 1.678-1.59 2.127-.75.45-1.71.629-2.61.39l-6.66-1.648 1.68-6.713 6.66 1.648c1.86.48 3 2.368 2.52 4.196z" fill="#8FD0D6"/><path opacity=".6" d="M86.966 312.103c-.12.42-.78.63-1.5.45s-1.2-.659-1.11-1.109c.12-.419.78-.629 1.5-.449.72.209 1.23.689 1.11 1.108z" fill="#fff"/><path d="M68.366 256.246a4.522 4.522 0 01-3.3-5.484c.6-2.427 3.06-3.896 5.49-3.296l13.11 3.236a4.522 4.522 0 013.3 5.484c-.6 2.427-3.06 3.896-5.49 3.296l-13.11-3.236z" fill="#F3F5F7"/><path d="M76.766 250.073l-1.68 6.712-6.48-1.588c-1.86-.45-3-2.337-2.52-4.195.24-.929.81-1.678 1.59-2.128.75-.449 1.71-.629 2.61-.39l6.48 1.589z" fill="#01AEB3"/><path d="M85.975 255.916c-.24.929-.81 1.678-1.59 2.128-.75.449-1.71.629-2.61.389l-6.659-1.648 1.68-6.712 6.66 1.648c1.83.479 2.97 2.367 2.52 4.195z" fill="#8FD0D6"/><path opacity=".6" d="M71.036 250.672c-.12.42-.78.629-1.5.45-.72-.18-1.2-.66-1.11-1.109.12-.42.78-.629 1.5-.45.72.21 1.23.69 1.11 1.109z" fill="#fff"/><path d="M97.735 263.498a4.523 4.523 0 01-3.3-5.484c.6-2.427 3.06-3.896 5.49-3.296l13.109 3.236a4.522 4.522 0 013.3 5.484c-.6 2.427-3.06 3.895-5.49 3.296l-13.11-3.236z" fill="#F3F5F7"/><path d="M106.134 257.355l-1.679 6.712-6.48-1.588c-1.86-.45-3-2.337-2.52-4.195.24-.929.81-1.678 1.59-2.128.75-.449 1.71-.629 2.61-.39l6.479 1.589z" fill="#01AEB3"/><path d="M115.314 263.198c-.24.929-.81 1.678-1.59 2.128-.75.449-1.71.629-2.61.389l-6.659-1.648 1.679-6.712 6.66 1.648c1.83.449 2.97 2.337 2.52 4.195z" fill="#8FD0D6"/><path opacity=".6" d="M100.405 257.954c-.12.42-.78.629-1.5.45-.72-.18-1.2-.66-1.11-1.109.12-.42.78-.63 1.5-.45s1.2.66 1.11 1.109z" fill="#fff"/><path d="M98.485 327.357L50.997 315.61a1.433 1.433 0 01-1.05-1.708c.18-.75.96-1.229 1.71-1.049L99.145 324.6c.75.179 1.23.959 1.05 1.708a1.422 1.422 0 01-1.71 1.049zM76.196 315.61c-.42-.12-.69-.54-.57-.959l14.97-60.383c.12-.42.54-.689.96-.569.42.12.69.539.57.959l-14.97 60.382c-.09.42-.54.66-.96.57z" fill="#A7B1BC"/><path d="M51.027 334.698H14.61a2.546 2.546 0 01-2.55-2.547V261.64h41.548v70.511c0 1.409-1.17 2.547-2.58 2.547z" fill="#FA938E"/><path d="M24.119 325.649v6.712h-6.48a3.352 3.352 0 01-3.36-3.356c0-.929.39-1.768.99-2.368.6-.599 1.44-.988 2.37-.988h6.48z" fill="#FF663A"/><path d="M34.108 329.005a3.35 3.35 0 01-.99 2.367 3.36 3.36 0 01-2.37.989h-6.63v-6.712h6.63c1.86 0 3.36 1.498 3.36 3.356z" fill="#F3F5F7"/><path d="M41.638 322.442l-2.25 6.323-6.09-2.158c-1.74-.629-2.67-2.547-2.04-4.285.3-.869.96-1.528 1.74-1.918a3.486 3.486 0 012.58-.15l6.06 2.188z" fill="#FF663A"/><path d="M49.947 328.945c-.3.869-.96 1.528-1.74 1.918a3.48 3.48 0 01-2.58.149l-6.27-2.217 2.25-6.323 6.27 2.217c1.77.6 2.7 2.518 2.07 4.256z" fill="#F3F5F7"/><path d="M28.468 322.232l-2.94-6.053 5.82-2.817a3.372 3.372 0 014.5 1.558c.39.839.42 1.738.15 2.578a3.251 3.251 0 01-1.71 1.917l-5.82 2.817z" fill="#FF663A"/><path d="M17.999 323.581a3.494 3.494 0 01-.15-2.577c.27-.809.87-1.529 1.71-1.918l5.97-2.907 2.94 6.053-5.97 2.907c-1.68.809-3.69.12-4.5-1.558z" fill="#F3F5F7"/><path opacity=".7" d="M51.087 334.698H14.64a2.546 2.546 0 01-2.55-2.547V261.64h41.578v70.511c-.03 1.409-1.17 2.547-2.58 2.547z" fill="#FA938E"/><path d="M53.247 311.774H20.25a.41.41 0 01-.42-.419v-34.852a.41.41 0 01.42-.419h32.998c.24 0 .42.18.42.419v34.852c-.03.239-.21.419-.42.419z" fill="#F1F7FE"/><path d="M48.387 290.138H25.02a.73.73 0 01-.72-.719c0-.39.33-.719.72-.719h23.368c.39 0 .72.329.72.719a.73.73 0 01-.72.719zm-5.699 3.536h-17.67a.73.73 0 01-.72-.719c0-.39.33-.719.72-.719h17.67c.39 0 .72.329.72.719a.73.73 0 01-.72.719zm5.699 3.506H25.02a.73.73 0 01-.72-.719.73.73 0 01.72-.719h23.368c.39 0 .72.33.72.719a.73.73 0 01-.72.719zm-3.089 3.536h-20.25a.73.73 0 01-.72-.719.73.73 0 01.72-.719h20.25c.39 0 .72.33.72.719a.73.73 0 01-.72.719zm-4.59 3.507h-15.69a.73.73 0 01-.72-.72.73.73 0 01.72-.719h15.69c.39 0 .72.33.72.719 0 .39-.33.72-.72.72zm7.679-21.457H24.96c-.6 0-1.08-.479-1.08-1.078 0-.6.48-1.079 1.08-1.079h23.428c.6 0 1.08.479 1.08 1.079 0 .599-.48 1.078-1.08 1.078z" fill="#BEC5D9"/><path opacity=".3" d="M12.03 262.419l41.577 2.278V262l-41.578.419z" fill="#3D4652"/><path d="M56.787 260.082H8.849v-8.631a2.547 2.547 0 012.55-2.547h42.838c1.41 0 2.55 1.139 2.55 2.547v8.631z" fill="#DFECFE"/><path d="M56.727 258.164H8.849v.899h47.878v-.899z" fill="#BEC5D9"/><path d="M57.387 262.419H8.249c-.39 0-.69-.33-.69-.689v-2.038c0-.39.33-.689.69-.689h49.138c.39 0 .69.329.69.689v2.038c0 .359-.3.689-.69.689z" fill="#DFECFE"/><path opacity=".6" d="M12.06 256.755a.966.966 0 01-.96-.959v-4.135c0-.509.42-.959.96-.959s.96.42.96.959v4.135c0 .54-.42.959-.96.959z" fill="#fff"/><path opacity=".2" d="M15.87 331.192a.966.966 0 01-.96-.959v-63.259c0-.51.42-.959.96-.959s.96.42.96.959v63.259c0 .54-.45.959-.96.959z" fill="#fff"/><path d="M492.005 262.449h-29.129v7.552h29.129v-7.552z" fill="#E2E8EB"/><path opacity=".2" d="M462.876 263.768l29.099 2.457-.03-2.937-29.069.48z" fill="#3D4652"/><path d="M494.494 263.768h-34.168c-1.05 0-1.89-.839-1.89-1.888v-9.979c0-1.049.84-1.888 1.89-1.888h34.168c1.05 0 1.89.839 1.89 1.888v9.979c.03 1.019-.84 1.888-1.89 1.888z" fill="#E2E8EB"/><path d="M484.745 259.872c-.15 0-.27-.12-.27-.27v-6.563c0-.149.12-.269.27-.269.15 0 .27.12.27.269v6.563c0 .15-.12.27-.27.27zm-21.959 0c-.15 0-.27-.12-.27-.27v-6.563c0-.149.12-.269.27-.269.15 0 .27.12.27.269v6.563c0 .15-.12.27-.27.27zm3.66 0c-.15 0-.27-.12-.27-.27v-6.563c0-.149.12-.269.27-.269.15 0 .27.12.27.269v6.563c0 .15-.12.27-.27.27zm3.66 0c-.15 0-.27-.12-.27-.27v-6.563c0-.149.12-.269.27-.269.15 0 .27.12.27.269v6.563c0 .15-.12.27-.27.27zm3.66 0c-.15 0-.27-.12-.27-.27v-6.563c0-.149.12-.269.27-.269.15 0 .27.12.27.269v6.563c0 .15-.12.27-.27.27zm3.659 0c-.15 0-.27-.12-.27-.27v-6.563c0-.149.12-.269.27-.269.15 0 .27.12.27.269v6.563c0 .15-.12.27-.27.27zm3.66 0c-.15 0-.27-.12-.27-.27v-6.563c0-.149.12-.269.27-.269.15 0 .27.12.27.269v6.563c0 .15-.12.27-.27.27zm7.32 0c-.15 0-.27-.12-.27-.27v-6.563c0-.149.12-.269.27-.269.15 0 .27.12.27.269v6.563c0 .15-.12.27-.27.27zm3.66 0c-.15 0-.27-.12-.27-.27v-6.563c0-.149.12-.269.27-.269.15 0 .27.12.27.269v6.563c.03.15-.12.27-.27.27z" fill="#C8D0D7"/><path d="M458.436 262.06v.149c0 .839.69 1.529 1.53 1.529h34.918c.84 0 1.53-.69 1.53-1.529v-.149h-37.978z" fill="#D2DCE3"/><path d="M494.524 336.077h-34.198a2.867 2.867 0 01-2.85-2.847v-57.955a7.703 7.703 0 017.71-7.702h24.479a7.702 7.702 0 017.709 7.702v57.955a2.867 2.867 0 01-2.85 2.847z" fill="#E2E8EB"/><path d="M497.434 283.006h-39.988v34.462h39.988v-34.462z" fill="#6DCDD9"/><path opacity=".6" d="M461.376 280.908c-.51 0-.9-.419-.9-.899 0-3.296.6-5.873 1.8-7.671.96-1.468 1.95-1.888 2.07-1.918l.66 1.708h.03c-.03 0-2.73 1.289-2.73 7.911a.945.945 0 01-.93.869zm0 51.423c-.51 0-.9-.419-.9-.899v-8.57c0-.51.42-.899.9-.899.51 0 .9.419.9.899v8.57c0 .51-.39.899-.9.899z" fill="#fff"/><path d="M256.667 77.285s-16.739-4.824-27.449 4.825c-10.709 9.62-4.8 8.031-11.279 12.436-6.48 4.405-23.879 13.245-25.229 28.079-1.35 14.833 4.35 23.673 3.36 34.911-.99 11.237-20.129 18.339-18.749 41.324.9 14.713 13.379 17.38 13.379 17.38l51.777.6 14.19-139.555z" fill="#45484F"/><path d="M253.487 109.859s-15.449-38.956 17.579-38.447c33.028.51 26.789 46.418 27.659 57.656.869 11.237 43.947 44.53 19.709 76.145-2.13 2.757-3.93 5.813-7.14 5.813h-44.758l-13.049-101.167z" fill="#45484F"/><path d="M315.344 214.772c-14.01-14.923-42.238-16.631-42.238-16.631l3.21 22.055-3.12 4.914.45 7.372-18.329 43.572 3.36 68.353h40.858s-.57-41.174 1.769-71.35l6.21 16.512 14.429 32.723 31.319-23.314c-.03-.03-23.909-69.283-37.918-84.206z" fill="#ECF4FC"/><path d="M279.496 219.896l-7.74 4.825 5.34 7.971-21.779 43.332 3.36 68.354h-7.41l-41.368-8.031s1.32-43.632-2.25-73.509c-3.57-29.876 10.44-64.757 22.499-64.757l21.089-.6h.24l21.089.6c.27 0 .51.03.78.06 3.36.389 5.07 2.277 8.999 6.742l-2.849 15.013z" fill="#01ADC1"/><path d="M226.878 232.932l3.36-8.271-8.729-3.117v-.119l8.669-23.284s-27.928 1.708-41.818 16.631c-13.889 14.923-37.498 84.176-37.498 84.176l30.989 23.314 14.279-32.723 5.49-14.714c2.159 29.997 1.619 69.553 1.619 69.553h42.538l.78-69.913-19.679-41.533z" fill="#ECF4FC"/><path d="M237.858 178.393s-.33 19.718-7.71 19.718c0 0 5.7 16.721 20.069 15.702 14.399-.989 23.159-15.762 23.159-15.762s-7.41-3.956-10.08-22.355l-25.438 2.697z" fill="#EBA994"/><path d="M220.429 136.799s6.869 50.524 30.088 50.524 29.399-40.455 25.229-56.727c-3.51-13.695-25.109-35.27-25.109-35.27s-17.909 34.611-30.208 41.473z" fill="#FABCA7"/><path d="M224.298 139.136a2.19 2.19 0 00-1.44-1.618c-2.579-.839-8.459-2.068-9.929 4.016-1.62 6.682 6.12 11.717 11.729 11.837 1.41.029 2.46-1.289 2.16-2.668l-2.52-11.567z" fill="#FABCA7"/><path d="M273.406 198.081s5.88-3.207 12.209 1.977l-3.48 21.277-8.939 3.805 6.93 7.372-24.809 43.572 18.089-78.003zm-26.849 78.842l-19.679-44.021 3.36-8.271-8.73-3.116-1.829-17.471-.42-4.015c6.359-5.185 12.209-1.978 12.209-1.978l2.16 8.81 12.899 67.814v2.248h.03z" fill="#fff"/><path d="M256.667 77.285l-6.24 60.263-57.087-1.348c-.9-4.615-1.17-8.331-.6-14.384 1.35-14.564 18.749-23.254 25.229-27.57 6.479-4.345.57-2.756 11.279-12.226 10.68-9.47 27.419-4.735 27.419-4.735z" fill="#45484F"/><path d="M303.824 138.657l-46.617-1.109-3.72-28.288s-15.449-38.328 17.579-37.818c33.028.51 26.789 45.669 27.659 56.697.18 2.247 2.279 6.592 5.099 10.518z" fill="#45484F"/><path d="M276.856 138.657h-56.127a55.76 55.76 0 01-.3-1.858c12.299-6.862 30.238-37.368 30.238-37.368s21.569 17.47 25.079 31.165c.57 2.277.96 5.004 1.11 8.061z" fill="#FABCA7"/><path d="M224.298 139.136a2.19 2.19 0 00-1.44-1.618c-2.579-.839-8.459-2.067-9.929 4.016-1.62 6.682 6.12 11.717 11.729 11.837 1.41.03 2.46-1.289 2.16-2.667l-2.52-11.568z" fill="#FABCA7"/><path d="M126.713 356.874l-7.379.689a2.392 2.392 0 01-2.61-2.158 2.39 2.39 0 012.16-2.607l7.379-.689.45 4.765z" fill="#FFEBEB"/><path d="M227.508 332.78c-6.869.72-13.649 1.828-20.339 3.177-17.789 3.536-35.158 8.69-52.977 12.496-3.45.749-28.139 3.686-28.139 3.686l.45 4.705s24.809-1.738 28.319-1.649c24.419.51 48.747 3.626 73.136 1.768 7.92-.599 16.019-1.438 23.699-3.685l-2.01-21.157c-7.32-.689-14.849-.09-22.139.659z" fill="#FFEBEB"/><path d="M252.377 332.481c-.9-.12-1.83-.24-2.73-.33l2.01 21.157c.51-.15 1.02-.3 1.53-.48 5.01-1.588 12.449-4.675 12.239-11.028 0-.149-.03-.329-.03-.479-.6-6.203-7.889-8.091-13.019-8.84zm-66.987 24.183c-10.169-.569-20.339-1.229-30.538-1.468-3.54-.09-28.319 1.648-28.319 1.648l-.45-4.705s24.689-2.967 28.139-3.686c9.869-2.098 19.619-4.645 29.368-7.072-3.149 2.547-4.829 5.304-4.589 8.031.27 2.877 2.58 5.334 6.389 7.252z" fill="#FA938E"/><path d="M222.348 350.431l-19.739 1.858c-.63.06-1.17-.39-1.23-1.019l-.719-7.732a1.117 1.117 0 011.019-1.228l19.739-1.858c.63-.06 1.17.389 1.23 1.019l.72 7.731c.06.629-.39 1.169-1.02 1.229z" fill="#CFE5FF"/><path opacity=".2" d="M220.789 341.441l-20.189 1.918a.89.89 0 01.81-.989l20.188-1.918c.51-.06.96.33.99.809l.78 8.151a.89.89 0 01-.81.989l-.78-8.151c-.03-.48-.479-.839-.989-.809z" fill="#3D4652"/><path d="M243.744 345.357a6.474 6.474 0 00-4.983-7.683 6.472 6.472 0 10-2.708 12.66 6.48 6.48 0 007.691-4.977z" fill="#FA938E"/><path d="M235.158 341.351c0-.15.06-.3.18-.42.54-.419 1.2-.659 1.89-.719 2.07-.21 3.899 1.319 4.109 3.386.21 2.068-1.319 3.896-3.389 4.106-.69.06-1.38-.06-1.98-.36-.24-.12-.33-.389-.21-.599.12-.24.39-.33.6-.21.48.24.99.33 1.5.27a2.872 2.872 0 002.58-3.087c-.15-1.558-1.53-2.697-3.09-2.577-.51.06-1.02.24-1.44.54-.21.149-.48.119-.63-.09a.273.273 0 01-.12-.24z" fill="#fff"/><path d="M233.478 344.347a.466.466 0 01.42-.509l3.51-.33c.24-.03.48.15.51.42.03.27-.15.479-.42.509l-3.51.33a.467.467 0 01-.51-.42z" fill="#fff"/><path opacity=".6" d="M258.797 339.463c-1.41-.36-2.4-1.229-2.22-1.918.18-.689 1.47-.989 2.88-.629 1.409.36 2.399 1.229 2.219 1.918-.21.719-1.469.989-2.879.629z" fill="#fff"/><path d="M355.572 334.249l4.619 8.241-7.919 4.435c-2.28 1.259-5.16.449-6.42-1.828a4.764 4.764 0 011.8-6.443l7.92-4.405z" fill="#01ADC1"/><path d="M370.121 331.522a4.764 4.764 0 01-1.8 6.443l-8.13 4.555-4.619-8.241 8.129-4.555c2.28-1.289 5.16-.479 6.42 1.798z" fill="#8FD0D6"/><path opacity=".6" d="M350.412 340.152c.3.54-.18 1.349-1.05 1.828-.87.48-1.83.45-2.13-.06-.3-.539.18-1.348 1.05-1.828.9-.479 1.83-.449 2.13.06z" fill="#fff"/><path d="M377.531 338.894l.06 9.44-9.09.06c-2.61.03-4.74-2.098-4.74-4.675 0-1.289.51-2.487 1.38-3.326a4.649 4.649 0 013.33-1.409l9.06-.09z" fill="#018E9E"/><path d="M391.6 343.539c0 1.288-.51 2.487-1.38 3.326a4.648 4.648 0 01-3.33 1.408l-9.329.06-.06-9.439 9.329-.06c2.61 0 4.77 2.098 4.77 4.705zm-83.68-1.942a7.1 7.1 0 004.435-9.014 7.11 7.11 0 00-9.023-4.43 7.1 7.1 0 00-4.435 9.014 7.111 7.111 0 009.023 4.43z" fill="#8FD0D6"/><path d="M308.416 328.331l-6.271 12.748.7.344 6.271-12.749-.7-.343z" fill="#C7EAED"/><path d="M437.167 298.858v-2.786h-13.799v2.786c-2.82.27-5.04 2.638-5.04 5.514v35.481c0 .539.45.959.96.959h21.929c.54 0 .96-.45.96-.959v-35.481c.03-2.876-2.19-5.244-5.01-5.514z" fill="#E2E8EB"/><path d="M438.217 296.251h-15.809a.505.505 0 01-.51-.509v-2.967c0-.27.21-.509.51-.509h15.719c.27 0 .51.209.51.509v3.087c-.03.21-.21.389-.42.389z" fill="#E2E8EB"/><path d="M439.027 293.644h-17.549c-.21 0-.39-.18-.39-.389v-12.347c0-.209.18-.389.39-.389h17.549c.21 0 .39.18.39.389v12.347c.03.209-.15.389-.39.389zm.42-13.125h-18.359c3.72 0 4.98-8.001 5.28-10.489a.811.811 0 01.81-.719h6.15c.42 0 .75.3.81.719.27 2.518 1.44 10.489 5.309 10.489z" fill="#E2E8EB"/><path d="M438.607 293.734h-16.709v.48h16.709v-.48zm-15.239 2.517h13.799v1.199l-13.799-1.199zm.27-4.075c-.18 0-.3-.15-.3-.33l.09-9.649c0-.18.15-.3.3-.3.18 0 .3.15.3.33l-.09 9.649c0 .18-.12.3-.3.3zm3.3.03c-.18 0-.3-.15-.3-.33l.09-9.649c0-.18.15-.3.3-.3.18 0 .3.15.3.33l-.09 9.649c0 .15-.15.3-.3.3zm3.27.03c-.18 0-.3-.15-.3-.33l.09-9.649c0-.18.15-.3.3-.3.18 0 .3.15.3.33l-.09 9.649c.03.15-.12.3-.3.3zm3.3.03c-.18 0-.3-.15-.3-.33l.09-9.649c0-.18.15-.3.3-.3.18 0 .3.15.3.33l-.09 9.649a.3.3 0 01-.3.3zm3.269.03c-.18 0-.3-.15-.3-.33l.09-9.649c0-.18.15-.3.3-.3.18 0 .3.15.3.33l-.09 9.649c.03.15-.12.3-.3.3z" fill="#C8D0D7"/><path d="M442.177 310.276h-23.849v17.83h23.849v-17.83z" fill="#8FD0D6"/><path opacity=".6" d="M426.278 279.44c-.18 0-.36-.06-.51-.18-.33-.27-.36-.779-.09-1.109 1.35-1.588 2.1-5.394 2.25-6.742.06-.42.45-.719.87-.659.42.06.72.449.66.869-.03.21-.69 5.274-2.61 7.551-.15.18-.36.27-.57.27zm-5.52 29.337a.793.793 0 01-.78-.779c0-6.413 3.72-7.222 3.87-7.252.42-.09.84.18.9.6.09.419-.18.809-.6.899-.12.029-2.64.689-2.64 5.723a.74.74 0 01-.75.809zm0 29.188c-.42 0-.78-.36-.78-.779v-6.473c0-.42.36-.779.78-.779.42 0 .78.359.78.779v6.473c0 .449-.36.779-.78.779z" fill="#fff"/><path d="M361.091 23.316c19.979 1.108 32.759 1.798 39.778 11.357 9.15 12.496 4.29 34.581-8.519 46.538-13.83 12.916-32.729 10.129-39.778 9.08-4.68-.69-35.698-5.274-40.348-27.24-3-14.174 6.39-28.977 17.609-35.75 8.669-5.214 16.889-4.764 31.258-3.985z" fill="#72B9C2"/><path d="M380.227 59.851a4.312 4.312 0 000-6.102 4.323 4.323 0 00-6.109 0 4.312 4.312 0 000 6.102 4.323 4.323 0 006.109 0zm-16.898-.021a4.312 4.312 0 000-6.102 4.323 4.323 0 00-6.109 0 4.312 4.312 0 000 6.102 4.323 4.323 0 006.109 0zm-16.918 0a4.312 4.312 0 000-6.102 4.324 4.324 0 00-6.11 0 4.314 4.314 0 000 6.103 4.324 4.324 0 006.11 0z" fill="#fff"/><path d="M339.462 82.56s3.96 12.735-19.799 13.424c0 0 5.79-10.428.96-25.89l18.839 12.466z" fill="#72B9C2"/></g><defs><clipPath id="clip0"><path fill="#fff" d="M0 0h500v362H0z"/></clipPath></defs></svg>