<svg width="31" height="32" fill="none" xmlns="http://www.w3.org/2000/svg"><circle cx="22.5" cy="10.5" fill="#fff" r="3.5"/><circle cx="8.5" cy="10.5" fill="#fff" r="3.5"/><path d="M29.998 30.22c.778-.552.967-1.636.349-2.362a19.5 19.5 0 00-29.915.265c-.606.737-.397 1.817.39 2.355.788.537 1.856.328 2.475-.398a16.047 16.047 0 0124.22-.214c.632.714 1.703.905 2.481.354z" fill="#fff"/><rect x="16" y="9.58" width="16" height="3.301" rx="1.651" transform="rotate(-36.78 16 9.58)" fill="#fff"/><rect x="2.1" width="16" height="3.301" rx="1.651" transform="rotate(39.502 2.1 0)" fill="#fff"/></svg>