<svg width="1196" height="500" viewBox="0 0 1196 500" fill="none" xmlns="http://www.w3.org/2000/svg">
<path opacity="0.1" d="M832.542 -166C833.416 -166 835.163 -165.126 835.163 -164.251L929.5 697.766L1038.69 167.092C1038.69 166.218 1039.56 165.344 1040.43 165.344C1041.31 165.344 1042.18 166.218 1043.05 167.092L1098.96 308.722L1141.76 221.296C1141.76 220.422 1142.63 220.422 1143.51 220.422C1144.38 220.422 1145.25 220.422 1145.25 221.296L1166.22 252.769H1769.38C1770.25 252.769 1772 253.644 1772 255.392C1772 256.266 1771.13 258.015 1769.38 258.015H1166.22C1165.34 258.015 1164.47 258.015 1164.47 257.141L1145.25 228.29L1101.58 317.464C1101.58 318.339 1100.7 319.213 1098.96 318.339C1098.08 318.339 1097.21 317.464 1097.21 316.59L1042.18 177.583L932.12 715.252C932.12 716.126 931.247 717 929.5 717C928.627 717 927.753 716.126 926.88 715.252L831.669 -147.641L721.609 341.069C721.609 341.944 720.735 342.818 719.861 342.818C718.988 342.818 718.115 341.944 717.241 341.069L671.819 230.913L618.536 298.231C617.663 299.105 617.663 299.105 616.789 299.105C615.916 299.105 615.042 298.231 615.042 298.231L581.849 237.907L566.127 252.769C566.127 252.769 565.253 253.644 564.38 253.644H-685.379C-686.253 253.644 -688 252.769 -688 251.021C-688 250.147 -687.126 248.398 -685.379 248.398H563.506L580.976 231.787C581.849 230.913 581.849 230.913 582.723 230.913C583.596 230.913 584.47 231.787 584.47 231.787L617.663 292.111L671.819 224.793C672.693 223.919 672.693 223.919 673.566 223.919C674.44 223.919 675.313 224.793 675.313 225.667L719.861 332.327L831.669 -163.377C830.795 -166 831.669 -166 832.542 -166Z" stroke="white" stroke-width="3"/>
</svg>
