<svg width="697" height="337" fill="none" xmlns="http://www.w3.org/2000/svg"><path d="M473.284 243.297l-34.458-14.272 8.306 107.463h28.955l-2.803-93.191z" fill="#27AAE1"/><path opacity=".3" d="M473.284 243.374v-.077l-6.66-1.543-.386-.077-1.157-.283c-.309-.077-.617-.154-.926-.206l-.257-.051a6108.754 6108.754 0 00-17.923-4.166c1.542 6.3 2.957 12.626 4.603 18.9 3.728 14.041 5.734 27.541 7.148 42.019 1.26 12.934 3.138 25.792 5.143 38.649h13.038c-.232-8.666-.489-17.357-.72-26.023-.643-22.424-1.26-44.77-1.903-67.142z" fill="#1D80A9"/><path d="M444.74 224.165l.36 12.574 14.684 24.481 9.103 75.268h39.729l2.263-49.116 1.106-2.88a76.55 76.55 0 00-.206-54.953l-67.039-5.374z" fill="#27AAE1"/><path opacity=".3" d="M516.948 254.38v-.257a75.968 75.968 0 00-3.06-18.438c-.026-.128-.077-.257-.103-.36-.154-.514-.309-1.003-.463-1.517-.051-.18-.103-.334-.154-.514-.154-.463-.309-.952-.489-1.415-.051-.154-.103-.334-.18-.488l-.694-1.852-20.983-1.671-8.564-.695c-.54.875-1.002 1.775-1.337 2.778-.411 1.208-.643 2.545-.231 3.78.694 1.98 2.828 2.983 4.577 4.166 6.455 4.474 7.895 12.908 8.306 20.212.437 7.714 2.031 16.534-1.697 23.709-.797 1.517-1.8 3.06-1.8 4.783 0 1.183.463 2.288.9 3.368 4.268 10.801 5.4 22.552 6.506 34.124.385 4.115.771 8.306.54 12.446h10.62l2.263-49.115 1.106-2.88a96.25 96.25 0 001.954-5.812c.051-.257.077-.489.129-.746 1.028-4.86 2.237-9.514 2.674-14.477.026-.309.051-.643.077-.952.026-.565.077-1.131.103-1.697 0-.077 0-.154.026-.257.025-.669.051-1.337.051-2.006v-2.417c-.051-.643-.051-1.234-.077-1.8z" fill="#1D80A9"/><path d="M383.719 117.679l9.283-15.12 55.544 59.581-22.012-.488-42.815-43.973z" fill="#fff"/><path d="M514.916 64.115c-3.883-8.486-4.577-18.412-1.877-27.36l-.103-.67-3.394 12.498c-.566 2.083-1.131 4.166-2.134 6.069-.977 1.825-2.315 3.42-3.395 5.194-2.366 3.96-3.214 8.82-2.314 13.346.308 1.569.823 3.086 1.749 4.372 1.568 2.134 4.088 3.343 6.531 4.346a101.267 101.267 0 0018.515 5.657c-3.24-8.46-9.823-15.223-13.578-23.452z" fill="#4D5068"/><path d="M408.534 145.966l-7.226-3.369a2.602 2.602 0 01-1.26-3.472 2.2 2.2 0 012.931-1.054l7.586 3.549-2.031 4.346z" fill="#536DFE"/><path d="M448.546 162.14l22.321-83.11-15.558 5.785a8.796 8.796 0 00-4.063 5.04l-18.463 55.442 15.763 16.843z" fill="#27AAE1"/><path d="M414.602 139.511l-5.863 2.777-3.574 4.603c-.823 1.08-.874 2.572-.077 3.678l1.363 1.928 2.52 4.526 2.854 2.88 3.189 2.237 7.02 1.903 8.28-8.769-6.351-5.657-6.172-9.232c-.72-1.028-2.083-1.414-3.189-.874z" fill="#536DFE"/><path d="M470.944 81.215l-24.712 43.767a34.419 34.419 0 00-4.5 24.249l-3.24 27.233-6.198 50.864c15.224 16.329 89.54 7.226 89.54 7.226l-8.358-64.622 1.389-93.268-37.055 5.58-6.866-1.029z" fill="#27AAE1"/><path opacity=".3" d="M452.866 172.941c1.132-4.346-1.363-4.912-2.186-9.335-.077-.36-.18-.668-.282-1.003 3.343-1.08-1.338-2.031 4.783-3.163 2.237-.411 7.508-3.574 5.117-3.42-5.477.36-10.672-.386-15.789-2.468-.052-.026-.077 0-.129-.026a12.915 12.915 0 01-1.285-2.52c-.232-.669-.721-1.029-1.261-1.157l1.775 9.54c.051.026.128.026.18.051-.052.18-.052.335-.077.515l.308 1.671c.206.386.437.746.797 1.029.489.437 1.003.617 1.518.694 1.594 3.909 1.337 8.589.36 12.652l.051.257c-.026-.026 5.632-1.414 6.12-3.317z" fill="#1D80A9"/><path d="M480.51 54.6c-.052-3.883-.643-7.689-.874-11.494-.258-3.986.539-8.075.282-12.112a68.47 68.47 0 00-5.425-22.578c-.258-.591-.541-1.208-1.081-1.543-.54-.36-1.234-.36-1.877-.334-2.957.051-6.12.206-8.409 2.083-2.031 1.671-2.905 4.346-3.651 6.866-1.517 5.143-4.68 11.88-4.629 17.255.052 5.065 2.829 10.337 4.012 15.197 1.877 7.715 1.157 15.79 2.314 23.632.566 3.857 1.543 7.946.952 11.88-.54 3.575-3.446 6.532-5.838 9.155-.154.18-.334.36-.54.489-.308.18-.668.205-1.003.231-2.134.283-4.088 1.697-5.065 3.626.9 1.209 2.777 1.054 4.191.54 1.414-.514 2.932-1.26 4.372-.849.051 1.08-1.492 1.903-1.183 2.932.18.668 1.028.926 1.723.951 4.474.283 4.911-1.671 6.428-4.989 2.186-4.86 1.492 3.55 1.312 4.886 1.208-.257 2.186-1.208 2.854-2.237.669-1.054 1.106-2.211 1.697-3.317 1.389-2.597 3.575-4.732 4.938-7.355 3.24-6.274 4.628-12.111 4.654-19.157-.051-4.577-.077-9.18-.154-13.758z" fill="#4D5068"/><path d="M495.142 97.133l-15.121 12.137-2.134-25.766-.874-30.73 23.014-.642.875 30.73c.154 6.376-5.76 14.27-5.76 14.27z" fill="#FFCEBD"/><path opacity=".4" d="M494.884 83.041l-.874-30.73 5.992-.18.874 30.73c.18 6.352-4.834 11.649-11.186 11.829-1.054.026-2.031-.129-3.009-.36 4.861-1.44 8.358-5.966 8.203-11.289z" fill="#A58877"/><path d="M460.786 33.128l.386 13.578a10.25 10.25 0 001.415 4.886L473.541 69.9a5.256 5.256 0 004.629 2.546l5.451-.155a5.106 5.106 0 003.498-1.491l11.623-11.366a9.383 9.383 0 002.828-6.995l-.822-29.752s-11.444-11.443-27.207-6.994c-7.74 2.16-12.986 9.386-12.755 17.434z" fill="#FFCEBD"/><path opacity=".4" d="M492.03 61.03c1.877-1.827 1.646-5.761 1.569-8.384l-1.646-13.295c-6.017-4.886-8.872-11.52-9.54-18.283-.283-2.777-1.775-5.426-6.275-5.992 14.426-2.597 24.609 7.586 24.609 7.586l.823 29.752a9.426 9.426 0 01-2.828 6.995l-11.624 11.366c-.9.926 4.912-9.746 4.912-9.746z" fill="#A58877"/><path opacity=".3" d="M521.834 234.579l-8.358-64.621v-.437l-17.82 2.468c3.729 4.14 2.571 10.723.103 15.712-2.469 4.989-6.095 9.643-6.763 15.172-.797 6.609 2.751 12.832 4.731 19.183 1.337 4.295 2.263 10.158 2.186 14.632l25.921-2.109z" fill="#1D80A9"/><path d="M501.108 150.131l-2.752 13.912-46.827-.463-16.046-7.817-9.386-6.223.051 1.697a8.667 8.667 0 003.395 6.609l.848.643-3.96 3.291-2.186 1.697a5.436 5.436 0 00-1.491 6.789l1.62 3.137a10.081 10.081 0 009.18 5.401l8.461-.232 4.731-2.34 53.899 9.952c8.846 1.646 17.589-3.42 20.572-11.906l5.785-16.458-25.894-7.689z" fill="#536DFE"/><path d="M450.398 162.603l1.234-.694 44.255 1.774 8.898-46.827-3.009-31.732 10.003-11.135 19.492 17.024a25.123 25.123 0 018.1 23.863l-15.223 61.896a16.588 16.588 0 01-18.052 10.852l-57.061-8.486-2.315-2.906 3.678-13.629z" fill="#27AAE1"/><path opacity=".3" d="M506.636 185.541c5.889-.926 10.595-5.683 13.038-11.109 2.443-5.426 3.034-11.495 3.523-17.409.488-6.094.9-12.369-1.055-18.18-.591-1.723-1.363-3.575-.72-5.272.309-.797.9-1.466 1.44-2.109 5.966-7.123 7.921-17.306 5.323-26.203-.977-3.369-2.545-6.532-4.14-9.643-2.931-5.735-5.94-11.444-7.894-17.59l-.077-.23 15.171 13.242a25.127 25.127 0 018.101 23.864l-15.224 61.896c-2.648 7.457-10.209 12.009-18.052 10.852l-6.3-.926c2.006-.9 4.603-.823 6.866-1.183z" fill="#7DCCED"/><path opacity=".3" d="M501.159 176.104c-.232.36-.592.72-.977.617-.309-.077-.463-.386-.592-.669-1.054-2.597-1.028-5.734-2.957-7.766-2.391-2.546-6.48-2.083-9.952-1.774-7.123.617-14.271-.283-21.317-1.44-3.189-.54-6.558-1.235-9.232-2.906l39.781 1.594 8.615-45.309c1.208 4.191 2.391 8.383 3.6 12.548-1.08-.745-2.7.18-3.112 1.441-.411 1.26-.026 2.622.36 3.882.566 1.903 1.157 3.781 1.723 5.683.283.978.591 1.981.463 2.958-.206 1.62-1.492 2.828-2.469 4.114-3.368 4.346-3.986 10.646-1.517 15.558.874 1.723 2.109 3.291 3.729 4.32.694.437 1.491.823 1.851 1.568.36.746-.231 1.903-1.003 1.672-.308-.077-.54-.36-.771-.617a13.119 13.119 0 00-5.966-3.986c.643 2.828 1.311 6.043-.257 8.512z" fill="#1D80A9"/><path d="M491.696 70.08l8.563-17.074.154-2.52-7.843 15.12-.874 4.475zm-22.346 1.08l-5.709-19.054-.154-2.906 5.143 17.1.72 4.86zm18.874-16.251c.54-4.217 6.095-10.955 11.829-13.423l-.257-1.415c-6.197 2.418-9.849 8.203-11.212 11.418a11.19 11.19 0 00-.36 3.42z" fill="#fff"/><path d="M491.85 70.312c-10.132 4.552-15.197 4.912-25.869 1.826-2.34-7.303-4.346-15.61-4.912-23.53a47.142 47.142 0 0132.324-2.288c.54 7.946-.129 15.712-1.543 23.992z" fill="#fff"/><path d="M493.47 48.12c-.026-.591-.051-1.183-.103-1.774a47.15 47.15 0 00-32.323 2.288l.154 1.775c10.132-4.552 21.626-5.375 32.272-2.289z" fill="#05668D"/><path opacity=".3" d="M462.741 60.155c9.797-2.418 20.597-3.189 30.626-2.16.026-.283.026-.592.052-.875-10.106-1.028-21.009-.257-30.858 2.186.051.257.128.54.18.849zm2.211 8.743c.077.308.18.617.257.9 8.898.694 18.309.025 27.001-1.903l.154-.926c-8.82 2.006-18.386 2.675-27.412 1.929z" fill="#B3CDFA"/><path d="M468.964 4.816c2.186-1.131 4.783-1.054 7.2-1.594 2.726-.592 5.246-1.98 7.972-2.623 6.454-1.543 13.371 1.311 18.077 6.017 4.68 4.706 7.432 10.98 9.335 17.332 3.471 11.52 4.5 23.76 3.034 35.718-.643 5.323-2.674 10.62-2.957 15.944-.257 4.911-1.62 7.405-4.783 11.391-1.929 2.417-3.832 4.835-5.76 7.226-1.466 1.826-2.983 3.754-4.912 5.117-1.491 1.08-3.548 1.466-4.783 2.675-1.234-1.26-1.183-3.138-.797-4.758s1.106-3.214 1.132-4.885c-.901 1.825-2.906 3.214-4.938 3.394-.694.077-2.494.309-2.726-.669-.282-1.208 1.08-.977 1.569-1.543.129-.154.129-.41.129-.617a55.947 55.947 0 01-.129-2.083c-1.826.849-3.934 1.132-5.914.72 3.445-2.803 6.865-5.631 10.311-8.434 4.783-3.909 7.149-11.726 8.383-17.59a98.722 98.722 0 002.083-17.382 34.025 34.025 0 00-.694-7.92c-.566-2.778-.334-5.607-1.003-8.358-.206-.849-.514-1.723-1.054-2.417-1.003-1.286-2.623-1.852-4.166-2.34-5.066-1.672-10.183-3.343-15.48-3.909-2.495-.257-5.041-.283-7.509-.823-2.469-.54-4.912-1.723-6.326-3.806-3.034-4.371.36-11.546 4.706-13.783z" fill="#4D5068"/><path d="M650.409 254.148h-76.4l-2.777 82.34h36.053l5.734-44.024 10.312 44.024h39.446l-12.368-82.34z" fill="#00A79D"/><path opacity=".5" d="M655.886 148.126l-81.877 111.577s78.945 18.926 76.4 0c-3.652-26.949 5.477-111.577 5.477-111.577z" fill="#007D76"/><path d="M595.816 72.91l-21.807 16.766v164.447s75.808 19.08 76.4 0c.925-29.444 5.503-111.578 5.503-111.578l-27.464-70.176-32.632.54z" fill="#00A79D"/><path d="M607.002 92.196l-14.735-13.424a1.5 1.5 0 01-.051-2.185l3.6-3.652-.412-14.143h31.373v12.137l4.551 4.037a1.52 1.52 0 01-.077 2.34l-19.158 15.095a4 4 0 01-5.091-.205z" fill="#FFCEBD"/><path opacity=".4" d="M595.816 72.91l-3.6 3.65c-.618.618-.592 1.62.051 2.187l14.735 13.423a3.91 3.91 0 002.083.977c-.026-.103-.077-.206-.103-.334-1.517-5.169 1.62-11.006-.36-15.995-.694-1.749-1.955-3.214-3.009-4.783-2.571-3.934-3.703-8.563-3.986-13.295h-6.274l.463 14.17z" fill="#A58877"/><path d="M589.67 25.054l.154 24.866a26.173 26.173 0 006.866 17.538l3.446 3.754a12.105 12.105 0 008.923 3.909 12.1 12.1 0 008.126-3.24l3.806-3.549a26.138 26.138 0 008.306-19.312l-.155-24.198-10.517-9.206-17.821.103-11.134 9.335z" fill="#FFCEBD"/><path d="M631.817 21.762a8.708 8.708 0 00-2.186-5.786c-4.732-5.297-11.726-8.666-19.518-8.666-8.46 0-15.943 3.935-20.649 10.004a8.703 8.703 0 00-1.774 5.297v16.123c4.449-7.56 12.832-12.652 22.423-12.652 9.103 0 17.126 5.94 21.704 12.858V21.762z" fill="#00A79D"/><path d="M628.422 72.395l37.236 15.352c7.997 3.446 13.937 10.415 16.123 18.849l13.835 53.847c.745 2.88.9 5.889.488 8.82l-12.215 85.477-1.98 3.163-18.026-5.246-2.134-6.763 6.454-74.728-28.672-66.602-11.109-32.169z" fill="#fff"/><path d="M658.457 86.77l-19.749-6.532-11.803-12.677c-3.266 41.041-4.371 189.442-6.429 268.927h53.539l-18.901-135.467 15.558-94.091c1.414-8.794-3.754-17.357-12.215-20.16z" fill="#fff"/><path d="M622.276 188.858c.026.823.077 1.62.155 2.417l.205 1.852c.026.154-.308 48.035-.282 48.19l18.051-141.741-6.454-9.026 9.18-5.195-16.226-17.794c-4.654 58.141-5.143 97.434-4.629 121.297z" fill="#A9DDF3"/><path d="M595.584 67.56l-11.829 12.678-19.749 6.532c-8.46 2.803-13.629 11.34-12.163 20.135l15.558 94.091L548.5 336.462h49.399c-2.623-25.406-3.883-58.939 2.185-95.145.823-4.963-.102-18.952-.102-18.952s-1.903-123.406-4.398-154.804z" fill="#fff"/><path d="M600.187 188.858c-.025.823-.077 1.62-.154 2.417l-.206 1.852c-.025.154.309 48.035.283 48.19L582.058 99.576l6.455-9.026-9.181-5.195 16.227-17.794c4.654 58.141 5.143 97.434 4.628 121.297z" fill="#A9DDF3"/><path opacity=".5" d="M589.207 228.459c.566-2.906-.977-5.76-2.392-8.357a106.75 106.75 0 01-8.203-19.904c-.488-1.594-1.26-4.011-.617-5.657.695-1.774 2.623-1.62 3.266-3.317.309-.772.026-1.646-.283-2.417a15.985 15.985 0 00-3.703-5.323c-.771-.746-1.671-1.492-1.826-2.546-.231-1.62 1.389-2.88 2.983-3.317 1.569-.438 3.318-.412 4.681-1.286-.9-2.572-3.009-4.5-4.501-6.789-2.725-4.243-3.188-9.514-3.445-14.555-.232-5.04-.36-10.26-2.546-14.811-2.186-4.552-7.123-8.229-12.06-7.175l-3.446 5.606 10.311 62.41-7.2 51.636c2.109-5.066 4.603-9.926 7.818-14.375 2.288-3.188 5.014-6.351 5.708-10.209.926-5.117-1.928-10.183-2.005-15.377 5.04 2.16 6.3 7.534 9.72 11.649 1.903 2.366 4.706 4.731 7.74 4.114z" fill="#A9DDF3"/><path d="M575.552 82.655l-20.186 7.175a24.917 24.917 0 00-16.38 20.34l-6.583 51.533a40.173 40.173 0 003.265 25.715l25.278 51.944 1.8 1.8 15.841-8.383.283-5.426-16.098-49.501 2.957-27.592 8.306-61.073 1.517-6.532z" fill="#fff"/><path opacity=".5" d="M566.063 241.137l-1.208 2.005 20.778-2.545-2.263 32.092 1.954-1.8 2.289-32.787-21.55 3.035z" fill="#A9DDF3"/><path d="M578.587 232.754l5.246 5.888-17.769 2.495-2.803-.258 15.326-8.125z" fill="#536DFE"/><path opacity=".5" d="M655.089 201.021l6.711-40.552a38.605 38.605 0 00-1.697-4.14c.103 4.346-4.963 6.608-9 8.203-4.037 1.594-8.64 5.426-6.789 9.36 5.349 4.654 3.523 14.863-3.086 17.409-1.954.746-4.654 1.466-4.68 3.574-.025 2.289 3.138 2.958 5.4 2.598 2.263-.36 5.221-.643 6.198 1.44a22.98 22.98 0 01-6.3 6.3c2.597-1.646 6.094 1.157 6.48 4.191.385 3.035-1.106 5.966-2.16 8.821-2.829 7.663-2.7 16.354.334 23.94 3.086 7.663 8.897 13.912 12.626 21.266 2.7 5.323 4.372 11.264 7.02 16.535l-11.057-78.945z" fill="#A9DDF3"/><path d="M679.492 257.234l-.951 1.826-.463 6.969a19.938 19.938 0 01-2.777 8.871c-.746.617-1.312 11.238-1.852 12.703-.411 1.132-2.983.823-2.726-1.028.026-.18 1.132-10.62.926-10.646-.463-.026-4.088 13.757-4.371 14.117-1.132 1.492-2.829.849-2.932.078-.026-.283 2.52-14.401 2.237-14.427-.463-.077-3.985 14.092-4.268 14.401-1.595 1.723-3.472 1.414-3.266-1.003.026-.386 2.648-14.889 2.366-14.992l-3.858 10.8c-1.363 2.418-2.777 2.752-4.294 1.569l8.743-23.401-2.803 1.749c-.591 1.209-2.263 3.009-3.626 4.063a2.41 2.41 0 01-1.8.514l-1.157-.103a.655.655 0 01-.514-.977l3.497-6.12c.566-1.029 4.732-4.834 5.812-5.297l2.88-1.235 1.003-2.571 14.194 4.14z" fill="#536DFE"/><path opacity=".3" d="M560.715 333.119c-.206 1.157-.514 2.263-.874 3.369h3.265c1.543-8.821 4.629-17.744 1.055-25.741-4.86 5.966-2.083 14.812-3.446 22.372zm108.774-28.904a1.03 1.03 0 00-.386-.257c-1.928-1.003-3.317 2.057-3.343 4.218-.102 9.308.643 18.617 2.16 27.797-7.56-.771-7.02-13.629-13.886-16.894-1.182 6.223 2.52 11.751 5.786 17.434h14.169l-4.5-32.298z" fill="#A9DDF3"/><path opacity=".5" d="M631.817 38.966V21.762a8.708 8.708 0 00-2.186-5.786c-4.732-5.297-11.726-8.666-19.518-8.666-.463 0-.925.026-1.388.026 1.054 4.372 7.688 5.4 8.974 9.72-1.8-.051-3.6-.308-5.349-.72-.411.9.155 1.93.72 2.752 1.749 2.571 3.523 5.169 5.709 7.38 1.183 1.183 2.469 2.263 3.755 3.369 3.78 2.391 6.968 5.631 9.283 9.129z" fill="#007D76"/><path d="M633.34 42.464c.389-3.643-.748-6.752-2.542-6.944-1.793-.192-3.563 2.606-3.953 6.249-.39 3.643.748 6.752 2.542 6.944 1.793.192 3.563-2.606 3.953-6.25zm-43.725 6.231c1.793-.191 2.931-3.3 2.541-6.944-.389-3.643-2.159-6.44-3.953-6.249-1.793.192-2.931 3.301-2.541 6.944.39 3.644 2.16 6.441 3.953 6.25z" fill="#FFCEBD"/><path opacity=".2" d="M609.496 153.577c-1.954-5.04-4.449-9.9-5.811-15.12-1.621-6.223-1.415-13.603-4.732-19.106l.283 5.811 1.131 29.289c.36 1.672 1.775 3.601 2.7 5.041 1.003 1.594 2.443 2.828 3.626 4.268 2.777 3.42 3.986 7.843 4.886 12.163.463 2.212 1.08 4.706 3.086 5.761.051-9.566-1.723-19.158-5.169-28.107zm-2.571 43.818c-1.286-1.722-2.752-3.342-3.6-5.323-.952-2.211-1.055-4.654-1.158-7.071-.154-3.806-.283-7.586-.437-11.392l-1.388.437c-.463 2.623-.386 5.323-.335 7.998.437 17.46.849 34.921 1.286 52.381 2.134-7.56 4.294-15.583 2.134-23.143-.257-.9-.54-2.006.129-2.675.591-.617 1.594-.463 2.443-.591 2.134-.309 3.497-2.649 3.42-4.809-.077-2.16-1.209-4.089-2.494-5.812zm17.511-102.139c-4.86 7.123-9.925 15.069-9 23.632 1.132-.72 2.237-1.415 3.369-2.135-1.106 6.943-2.237 13.886-3.343 20.83.926-.206 1.569-.978 2.314-1.595.72-.591 1.8-1.054 2.598-.514 1.491 1.003.694 5.271 2.262 6.094.9-14.863 1.209-31.012 2.109-45.875l-.309-.437z" fill="#007D76"/><path d="M631.38 72.395c6.635 4.449 10.878 12.163 10.492 20.726l-.592 12.961 2.289.102.591-12.96c.489-10.492-5.374-19.8-14.168-24.3l-2.495-.798c0 .026 3.137 3.78 3.883 4.269zm11.443 62.436c.103-2.032 1.825-3.626 3.857-3.523 2.031.103 1.697 7.483-.334 7.38-2.032-.077-3.626-1.826-3.523-3.857zm-2.778-.129c.103-2.031-1.491-3.754-3.523-3.857-2.031-.103-2.365 7.277-.334 7.38 2.032.103 3.755-1.465 3.857-3.523z" fill="#4D5068"/><path d="M642.488 104.307c7.843.36 13.938 7.046 13.578 14.889l-.18 3.986c-.206 4.783-.386 8.897-2.855 11.16-1.337 1.209-3.162 1.749-5.631 1.646l.077-1.851c1.929.077 3.343-.283 4.294-1.158 1.903-1.748 2.058-5.503 2.263-9.874l.18-3.986c.309-6.84-4.988-12.652-11.828-12.96-6.841-.309-12.652 4.988-12.961 11.829l-.18 3.985c-.206 4.372-.386 8.126 1.337 10.055.875.951 2.238 1.466 4.166 1.543l-.077 1.851-.797-.051c-2.057-.206-3.575-.9-4.655-2.083-2.262-2.469-2.057-6.609-1.825-11.366l.18-3.986c.385-7.894 7.071-13.989 14.914-13.629zm-69.019 34.844c.258 4.114 3.832 7.252 7.946 6.995 4.115-.258 7.252-3.832 6.995-7.946-.257-4.115-3.832-7.252-7.946-6.995-4.115.257-7.252 3.832-6.995 7.946z" fill="#E3EDFE"/><path d="M575.835 138.997a5.103 5.103 0 005.426 4.783 5.102 5.102 0 004.783-5.426 5.099 5.099 0 00-5.426-4.757 5.063 5.063 0 00-4.783 5.4z" fill="#4D5068"/><path d="M579.692 137.222l2.289-.154-3.42-41.067c-.592-9.231 3.394-17.357 10.672-21.652 1.003-.591 4.191-4.474 4.191-4.474-11.494 3.523-17.897 14.709-17.152 26.28l3.42 41.067z" fill="#4D5068"/><path d="M577.584 138.894a3.403 3.403 0 003.574 3.163 3.403 3.403 0 003.163-3.575 3.404 3.404 0 00-3.574-3.163 3.338 3.338 0 00-3.163 3.575z" fill="#E3EDFE"/><path d="M625.259 69.078l5.118-20.367h-.978l-3.548 15.327-.592 5.04zm-30.292 2.212l-6.043-22.579h.926l4.526 17.538.591 5.04zm1.749-15.558c.874-4.32-1.543-14.246-6.326-18.566l-.72-1.39c5.323 2.727 7.56 12.91 7.817 16.51a11.024 11.024 0 01-.771 3.446zm25.663-.438c-.874-4.32 1.826-14.374 6.635-18.694l.283-1.183c-5.323 2.726-7.406 12.832-7.689 16.432a11.03 11.03 0 00.771 3.446z" fill="#fff"/><path d="M624.385 72.344c-11.752 4.063-17.46 4.063-29.212 0-2.057-7.87-3.626-16.792-3.626-25.201 11.752-4.063 24.738-4.063 36.49 0-.026 8.409-1.389 16.56-3.652 25.2z" fill="#00A79D"/><path d="M627.985 49.02c.026-.617.026-1.26.026-1.877-11.752-4.063-24.738-4.063-36.49 0 0 .617 0 1.26.026 1.877 11.752-4.037 24.686-4.037 36.438 0z" fill="#05668D"/><path opacity=".3" d="M592.499 59.435c11.186-1.826 23.4-1.826 34.586 0 .052-.309.077-.617.129-.926-11.263-1.852-23.581-1.852-34.844 0 .026.309.077.617.129.926zm1.8 9.411c.077.335.154.643.231.977 9.926 1.415 20.546 1.415 30.472 0 .077-.334.154-.642.232-.977-10.055 1.466-20.855 1.466-30.935 0z" fill="#02606C"/><path d="M282.633 185.541L245.655 83.478h-38.212l-33.07 93.757 3.78 19.235 4.706 29.598s-8.692 58.733-11.623 110.471h124.435c-3.42-44.101-11.778-94.039-14.195-109.931-.514-3.266 1.157-13.141 1.157-16.458v-24.609z" fill="#27AAE1"/><path d="M207.443 83.478l-31.578 16.664c-10.518 5.554-17.332 16.277-17.872 28.157l-2.135 46.262c-.643 13.68 11.855 24.275 25.252 21.42l65.728-14.014 4.011-4.758-4.011-18.463-5.22-2.134-50.916 1.08 3.343-21.781 13.398-52.433z" fill="#27AAE1"/><path opacity=".3" d="M231.923 156.817a5.487 5.487 0 013.806-3.034c3.806-.771 7.895-.206 11.829.077 1.311.103 2.7.129 3.883-.437 1.183-.566 2.109-1.954 1.697-3.189-.36-1.08-1.568-1.851-1.568-3.008.025-1.672 2.442-2.186 3.111-3.703.489-1.055-.051-2.315-.797-3.215-.772-.874-1.774-1.517-2.494-2.443-.283-.36-.54-.797-.515-1.26.052-.463.515-.771.695-1.208 1.8-4.295 4.165-7.355 4.32-12.086l6.377 33.455-30.344.051z" fill="#1D80A9"/><path d="M231.923 227.636c-19.8 0-37.518-1.697-49.501-4.397l.437 2.777-.077.463c11.957 2.649 29.521 4.32 49.116 4.32 19.826 0 37.569-1.697 49.527-4.397-.103-.771-.103-1.877-.026-3.163-11.932 2.7-29.649 4.397-49.476 4.397z" fill="#05668D"/><path opacity=".3" d="M281.476 226.556c0-.077-.026-.128-.026-.205a480.606 480.606 0 00-26.435 9.334c-1.414.54-3.06 1.389-3.214 2.906-.231 2.237 2.88 3.189 5.066 2.7 2.186-.489 4.628-1.517 6.506-.309 2.957 1.903 1.028 6.429-1.055 9.258-2.083 2.828-3.651 7.637-.488 9.154 2.211 1.055 4.911-.771 7.277-.025 2.083.668 3.086 3.188 2.829 5.374-.257 2.186-1.415 4.14-2.366 6.12a34.651 34.651 0 00-3.317 13.115c-.077 1.8-.026 3.651.643 5.348 1.903 4.912 7.817 6.686 11.649 10.312 4.242 4.012 5.708 10.183 5.811 16.021.129 5.837-.874 11.648-.591 17.486.051 1.131.154 2.237.283 3.368h11.648c-3.42-44.126-11.777-94.065-14.22-109.957zm-35.487-29.855c.849.077 1.672-.154 2.495-.257 3.625-.54 7.508 1.209 9.54 4.243 1.26 1.877 1.8 4.114 2.803 6.146.977 2.031 2.597 3.986 4.834 4.346.386-3.112 2.366-5.992 5.143-7.458 1.697-.9 4.012-1.183 5.375.18.771.772 1.131 1.98 2.083 2.546 1.002.566 2.314.18 3.163-.591.514-.489.9-1.08 1.208-1.697v-16.124c-.874-.72-1.903-1.286-2.957-1.8-4.32-2.057-9-3.137-13.68-4.217-4.346-1.003-8.692-2.006-13.012-3.009-9.129-2.108-18.438-4.217-27.798-3.6-5.632.386-11.109 1.749-16.586 3.112l-9.952 2.468c-4.089 1.029-8.254 2.058-12.009 3.986-3.343 1.697-6.274 4.063-9 6.635-.129.128-.257.257-.386.36l.875 4.423 1.722 10.826c.36-.54.695-1.106 1.055-1.646.797-1.26 2.237-2.7 3.523-1.954.411.231.694.668 1.003 1.054 1.208 1.543 3.06 2.571 4.988 2.751 4.603.437 8.306-3.368 11.983-6.12 2.958-2.211 6.249-3.909 9.541-5.58 4.654-2.366 9.386-4.757 14.529-5.632 5.143-.874 10.826-.051 14.734 3.395 1.518 1.337 2.88 3.034 4.783 3.214z" fill="#1D80A9"/><path d="M245.655 83.478l31.578 16.664c10.517 5.554 17.332 16.277 17.872 28.157l2.134 46.262c.643 13.68-11.854 24.275-25.252 21.42l-65.727-14.014-4.012-4.758 4.012-18.463 5.22-2.134 50.916 1.08-3.343-21.781-13.398-52.433z" fill="#27AAE1"/><path d="M247.095 159.929l17.049-3.549 18.669-12.78a2.56 2.56 0 013.189.257c.977.926 1.028 2.469.154 3.471l-6.043 6.969 11.34 1.492c.9.128 1.775.462 2.52 1.003l1.543 1.08c1.775 1.26 2.803 3.291 2.803 5.477v14.992c0 1.723-1.851 2.803-3.343 1.954l-4.268-2.391-10.363-.952-18.824-1.44-11.314-1.157-3.112-14.426z" fill="#536DFE"/><path opacity=".3" d="M176.945 195.158c-.052-.18-.155-.36-.232-.514-3.137-5.117-9.823-7.586-13.192-12.883-3.445-5.426-4.474-12.318-3.368-18.592.386-2.16 1.054-4.423 2.777-5.786 1.209-.951 2.88-1.466 3.472-2.88.951-2.366-1.878-4.294-3.678-6.12-2.108-2.109-3.06-5.297-2.494-8.229.154-.797.54-1.671 1.311-1.903.515-.154 1.08.052 1.62-.051 1.055-.18 1.672-1.415 1.543-2.495-.128-1.08-.745-2.005-1.337-2.905-2.057-3.266-3.574-6.841-4.551-10.595a34.146 34.146 0 00-.849 6.069l-2.134 46.261c-.515 11.263 8.64 21.652 20.032 21.832.308 0 .668 0 .9-.206.308-.231.308-.617.18-1.003z" fill="#1D80A9"/><path opacity=".2" d="M184.042 167.823c-.592-2.288.694-4.937 2.88-5.863 2.777-1.183 6.094.335 8.975-.54 1.542-.463 2.802-1.568 4.165-2.417a16.039 16.039 0 013.42-1.62l-12.831.257 2.7-17.666c-.9-1.389-1.8-2.777-2.777-4.114a4879.705 4879.705 0 01-5.298-7.149c-.745-1.003-1.517-2.032-2.623-2.623-1.105-.592-2.623-.592-3.445.334-.438.489-.618 1.132-.746 1.775-.669 3.6.797 7.483 3.626 9.771-2.34-.154-4.681-.283-7.021-.437-1.08-.077-2.288-.077-3.008.72-1.8 1.929 1.748 5.297.308 7.509-.411.617-1.157.977-1.543 1.62-.488.797-.308 1.877.206 2.649 1.363 2.082 3.652 3.162 4.68 5.605.977 2.263 1.055 4.963 0 7.252.926.386 1.8-.566 2.392-1.389.566-.822 1.517-1.723 2.417-1.26.823.438.746 1.62.746 2.546.051 2.006 1.105 3.96 2.777 5.04z" fill="#1D80A9"/><path d="M202.274 157.434l-5.992-15.711-8.871-11.624c-.798-1.054-2.34-1.208-3.318-.308a2.282 2.282 0 00-.231 3.137l3.626 4.397 3.086 5.838-6.558-3.215-6.994-1.44c-1.183-.257-2.315.669-2.315 1.877 0 .849.566 1.62 1.415 1.852l6.326 1.749 6.043 3.934-11.598-1.8c-1.183-.18-2.314.643-2.494 1.826-.154 1.131.566 2.185 1.671 2.417l6.121 1.363 8.46 5.966 11.623-.258z" fill="#536DFE"/><path opacity=".2" d="M238.969 309.436c-3.651 8.46-4.603 17.949-3.137 27.052h20.212c-8.075-7.535-14.683-16.432-17.075-27.052z" fill="#1D80A9"/><path d="M221.226 101.093l-15.198-13.835a1.548 1.548 0 01-.051-2.263l3.729-3.78-.438-14.58h32.35v12.523l4.706 4.166c.72.643.694 1.8-.077 2.417L226.472 101.3a4.085 4.085 0 01-5.246-.206z" fill="#FFCEBD"/><path d="M203.354 31.843l.154 25.637a27.074 27.074 0 007.098 18.078l3.548 3.883a12.397 12.397 0 009.206 4.011 12.417 12.417 0 008.383-3.342l3.935-3.678a27.013 27.013 0 008.563-19.903l-.155-24.944-10.851-9.488-18.386.102-11.495 9.644z" fill="#FFCEBD"/><path d="M248.767 28.474c0-2.443.591-5.015-.772-6.995-.771-1.105-2.108-1.851-2.546-3.137-.231-.643-.18-1.337-.283-2.006-.282-2.16-2.005-4.062-4.14-4.551-.848-.206-1.748-.18-2.571-.489-1.492-.54-2.469-1.928-3.755-2.854-1.62-1.157-3.805-1.517-5.708-.926-1.903.592-3.703 2.083-5.632 1.646-.591-.129-1.131-.437-1.697-.669-1.774-.694-3.909-.488-5.529.54-1.98 1.26-3.446 3.755-5.786 3.73-.565 0-1.131-.18-1.723-.232-2.648-.309-5.322 1.851-5.58 4.5-1.697.128-3.163 1.44-3.831 3.008-.669 1.569-.669 3.343-.412 5.04-1.62.566-2.623 2.495-2.16 4.166.335 1.209 1.312 2.212 1.389 3.446.051.9-.386 1.8-.334 2.7.025.72.36 1.415.694 2.057.951 1.852 4.243 6.198 2.854 8.538 4.578-7.792 13.218-13.038 23.144-13.038 9.386 0 17.666 6.146 22.372 13.27-.437-.67-.052-3.318 0-4.09.206-2.237.926-4.551 1.774-6.634.36-.9.797-1.8.797-2.751 0-.823-.308-1.62-.463-2.443a21.299 21.299 0 01-.102-1.826z" fill="#00A79D"/><path opacity=".5" d="M248.767 28.474c0-2.443.591-5.015-.772-6.995-.771-1.105-2.108-1.851-2.546-3.137-.231-.643-.18-1.337-.282-2.006-.283-2.16-2.006-4.062-4.141-4.551-.848-.206-1.748-.18-2.571-.489-1.492-.54-2.469-1.928-3.754-2.854-1.621-1.157-3.806-1.517-5.709-.926-.926.283-1.826.797-2.752 1.183.026 0 .052.026.077.026 2.521 1.337 5.555 2.777 6.018 5.606-2.135-.592-4.295-1.209-6.429-1.8a99111.7 99111.7 0 018.717 12.188c-1.8-.257-3.625-.488-5.425-.745-.875 1.491 1.954 2.263 2.957 3.651.411.54.514 1.235.617 1.903.334 1.955.9 3.858 1.62 5.709 5.117 2.417 9.437 6.48 12.395 10.929-.438-.669-.052-3.317 0-4.089.205-2.237.925-4.551 1.774-6.634.36-.9.797-1.8.797-2.752 0-.823-.309-1.62-.463-2.443a12.812 12.812 0 01-.128-1.774z" fill="#007D76"/><path d="M198.854 23.82a11.31 11.31 0 01-.129-1.338c-.025.463-.025.926 0 1.389.026-.026.077-.026.129-.051zm49.938 3.985c.052-1.131.155-2.263.103-3.343-.026.9-.128 1.826-.128 2.752 0 .206 0 .411.025.591zm-2.186 16.844c-4.757-6.995-12.908-12.96-22.192-12.96-9.694 0-18.18 5.014-22.834 12.523.077.642 0 1.26-.309 1.748 4.577-7.791 13.217-13.037 23.118-13.037 9.386 0 17.666 6.145 22.372 13.268-.129-.282-.18-.874-.155-1.542z" fill="#fff"/><path opacity=".4" d="M209.371 71.032l.309 10.158-3.729 3.78c-.617.643-.591 1.671.052 2.263l15.197 13.834c.617.566 1.389.9 2.186 1.029a29.38 29.38 0 00.309-8.486c-.155-1.44-.412-2.906-.129-4.346.309-1.414 1.337-2.803 2.777-2.983-.951-3.163-2.983-5.837-4.5-8.769a27.91 27.91 0 01-3.06-10.903h-1.209l-8.203 4.423z" fill="#A58877"/><path d="M239.201 77.255l6.043-21.163-1.055.128-4.397 15.97-.591 5.065zm-30.293 2.185l-6.506-23.348 1.08.154 4.835 18.155.591 5.04zm1.466-16.354c.874-4.32-1.543-14.246-6.326-18.566l-.72-1.389c5.323 2.726 7.56 12.91 7.818 16.51a11.22 11.22 0 01-.772 3.445zm26.924-.36c-.875-4.32 1.825-14.374 6.634-18.695l.283-1.182c-5.323 2.725-7.406 12.831-7.689 16.431.077 1.209.335 2.366.772 3.446z" fill="#fff"/><path d="M238.326 80.52c-11.751 4.064-17.46 4.064-29.212 0-2.057-7.868-3.626-16.791-3.626-25.2 11.752-4.063 24.738-4.063 36.49 0-.026 8.409-1.389 16.56-3.652 25.2z" fill="#fff"/><path d="M241.926 57.197c.026-.617.026-1.26.026-1.877-11.752-4.063-24.738-4.063-36.489 0 0 .617 0 1.26.025 1.877 11.752-4.037 24.712-4.037 36.438 0z" fill="#05668D"/><path opacity=".3" d="M206.44 67.586c11.186-1.825 23.4-1.825 34.586 0 .052-.308.077-.617.129-.925-11.263-1.852-23.581-1.852-34.844 0 .052.308.077.617.129.925zm1.8 9.438c.077.334.154.643.231.977 9.926 1.414 20.547 1.414 30.472 0 .078-.334.155-.643.232-.977-10.055 1.44-20.855 1.44-30.935 0z" fill="#B3CDFA"/><path d="M248.383 49.783c.402-3.756-.772-6.961-2.622-7.16-1.85-.197-3.675 2.687-4.077 6.444-.402 3.756.772 6.961 2.622 7.16 1.849.197 3.675-2.687 4.077-6.444zm-45.104 6.447c1.85-.197 3.024-3.403 2.622-7.16-.402-3.755-2.228-6.64-4.078-6.442-1.849.198-3.023 3.404-2.621 7.16.402 3.756 2.227 6.64 4.077 6.443z" fill="#FFCEBD"/><path opacity=".4" d="M236.398 103.999h-25.715a10.69 10.69 0 01-10.698-10.698V36.523l23.041-14.246 24.121 14.246v56.753c-.052 5.94-4.835 10.723-10.749 10.723z" fill="#fff"/><path opacity=".4" d="M222.975 22.277l-23.041 14.246v56.753a10.69 10.69 0 0010.697 10.697h25.715a10.69 10.69 0 0010.698-10.697V36.523l-24.069-14.246zm23.837 70.87c0 5.837-4.731 10.569-10.569 10.569h-25.406c-5.837 0-10.569-4.732-10.569-10.569V36.985l22.758-14.066 23.812 14.067v56.161h-.026z" fill="#fff"/><path opacity=".5" d="M205.463 102.662a10.765 10.765 0 005.194 1.337h4.526V27.111l-9.72 6.017v69.534z" fill="#fff"/><path d="M224.517 21.608c-11.108 0-20.906 5.4-26.769 13.603v.129c.026.72.36 1.414.694 2.057.283.591.823 1.414 1.363 2.34 5.966-6.737 14.812-11.006 24.712-11.006 8.872 0 16.947 4.5 22.81 10.543.334-1.311.797-2.597 1.285-3.831.18-.438.36-.875.515-1.312-5.966-7.02-14.787-12.523-24.61-12.523z" fill="#05668D"/><path d="M360.472 119.736L337.149 92.35l7.02-5.297a8.014 8.014 0 003.189-6.378v-15.3h27.926V79.26a7.968 7.968 0 004.166 7.02l7.509 4.089-26.487 29.366z" fill="#FFCEBD"/><path opacity=".4" d="M358.878 117.833a31.401 31.401 0 01-.026-3.471c.155-3.009.746-6.069-.025-8.975-.335-1.285-.952-2.52-1.312-3.805-1.543-5.246.823-10.878.077-16.304-.463-3.42-2.237-6.634-4.834-8.897l-5.375-4.5v8.769a7.94 7.94 0 01-3.188 6.377l-7.02 5.297 21.703 25.509z" fill="#A58877"/><path d="M315.008 264.177v72.311h40.244l4.783-56.959 3.575 56.959h41.658l5.606-77.685-53.025-10.621-42.841 15.995z" fill="#00A79D"/><path opacity=".5" d="M358.544 292.258c-3.78 14.195-5.683 29.418-7.895 44.23h4.603l3.729-44.256c-.129-.026-.283 0-.437.026zm3.214 14.478l1.852 29.752h3.137c-1.672-9.926-3.343-19.826-4.989-29.752z" fill="#007D76"/><path opacity=".5" d="M396.088 329.776c-.155 2.237-.335 4.475-.489 6.712h9.669l4.5-62.41a89.746 89.746 0 00-8.769 20.803c-3.163 11.34-4.037 23.169-4.911 34.895zm-77.248-39.524c-.206-4.423-1.235-9.026-3.832-12.497v58.733h2.675c-.103-.72-.206-1.466-.309-2.186 1.26.9 2.649 1.646 4.114 2.186h.283c3.549-9.592-1.954-19.981-2.931-30.19-.489-5.323.257-10.697 0-16.046z" fill="#33B9B1"/><path d="M339.077 30.094l1.286 26.152a27.633 27.633 0 008.023 18.155l3.78 3.806a12.644 12.644 0 009.566 3.703 12.562 12.562 0 008.409-3.78l3.832-3.91a27.552 27.552 0 007.868-20.7l-1.234-25.458-11.494-9.231-18.772.925-11.264 10.338z" fill="#FFCEBD"/><path d="M385.39 32.897c.077-3.137 0-6.352-.874-9.386-.566-2.006-1.466-3.909-2.315-5.786-1.08-2.392-2.108-4.834-3.78-6.814-1.671-2.006-4.114-3.55-6.737-3.446-2.057.077-2.211 1.954-2.211 3.548 0 2.546.077 5.066.154 7.586.051 1.646.154 3.395 1.157 4.706 1.054 1.363 2.803 1.929 4.294 2.777 6.532 3.806 5.503 12.01 5.349 18.49-.026 1.105-.026 2.314.694 3.162 2.726 3.189 3.215-3.548 3.395-4.654a89.82 89.82 0 00.874-10.183z" fill="#4D5068"/><path d="M386.759 47.648c.579-3.82-.089-7.088-1.493-7.301-1.404-.213-3.012 2.71-3.592 6.53-.579 3.819.089 7.087 1.493 7.3 1.405.214 3.013-2.71 3.592-6.53z" fill="#FFCEBD"/><path opacity=".3" d="M315.008 264.177v5.426c13.681 2.134 63.413 8.563 95.454-5.22l.412-5.606-53.025-10.62-42.841 16.02z" fill="#007D76"/><path d="M360.472 119.736l-25.817-30.395-24.764 16.689c-6.737 4.552-10.929 12.035-11.263 20.135l-2.469 60.353-4.886 72.542 1.492 4.5h11.649l1.877-6.017 14.426-77.171-9.309 83.188s68.556 12.78 104.994-7.509l-12.034-67.656 2.057-38.572 19.363 23.169-6.017 39.087-.386 6.017 11.495 5.914 2.803-4.037 14.94-54.31a23.599 23.599 0 00-2.7-18.72l-23.58-38.058c-4.603-7.458-11.341-13.347-19.312-16.972l-12.575-5.709-29.984 33.532z" fill="#00A79D"/><path opacity=".5" d="M335.323 202.718c3.317-2.365 8.075-5.04 7.046-8.974-.926-3.523-5.657-4.063-8.666-6.146-4.346-3.034-4.68-9.257-4.397-14.555a207.857 207.857 0 013.6-28.492c-7.637 4.68-9.849 14.606-11.34 23.452l-.875 12.421-9.309 83.187s13.552 2.521 31.81 3.549a16.47 16.47 0 00-1.389-3.96c-1.748-3.523-4.397-6.48-6.686-9.669-5.4-7.586-8.64-16.689-9.257-25.998-.566-9.257 1.954-19.466 9.463-24.815zm81.079 53.359l-12.034-67.656 1.826-34.381a59.017 59.017 0 01-.078-4.269c-6.84 8.589-14.117 18.875-11.546 29.547.798 3.266 2.495 6.454 2.006 9.772-.488 3.317-4.963 6.094-7.174 3.574-1.672 2.083-.412 5.271 1.491 7.149 1.929 1.851 4.449 3.111 5.94 5.348 5.735 8.486-8.074 20.649-2.52 29.238.617.926 1.44 1.826 1.517 2.932.078 1.311-.925 2.366-1.568 3.497-1.8 3.189-.694 7.149-.463 10.8.283 4.732-1.234 9.412-3.96 13.295 9.694-1.749 18.849-4.552 26.563-8.846z" fill="#007D76"/><path d="M292.765 263.586v20.957a5.753 5.753 0 002.854 4.989l9.566 5.555a3.036 3.036 0 002.7.205l6.12-2.391a3.54 3.54 0 001.98-1.877l.695-1.543c.591-1.286-.283-2.752-1.697-2.88l-6.275.745.206-14.349a9.09 9.09 0 00-1.672-5.348l-2.905-4.089h-11.572v.026zm126.646-45.49l-.54 1.594-8.769.952h-5.76l-6.737 7.611c-.72.798-.643 2.032.154 2.778a1.973 1.973 0 002.649 0l5.811-5.195 3.009-.668-.129 2.185-2.494 2.649-7.895 10.8a1.694 1.694 0 00.206 2.237l.772.72c.745.695 1.928.592 2.52-.231l1.44 1.157a2.436 2.436 0 003.24-.18l.977-.977 1.029 1.029c.822.823 2.16.874 3.008.077l5.092-4.603 9.334-4.526a12.042 12.042 0 004.269-3.523 4.767 4.767 0 00.9-3.523l-.591-4.423-11.495-5.94z" fill="#536DFE"/><path opacity=".5" d="M304.285 277.06c.051 2.675-.283 5.323-.591 7.946-.258 2.109-.926 4.886.051 6.892.591 1.209 2.134 2.16 3.472 1.491 1.748-.874 1.362-3.343 2.005-4.86.155-.385-.463-.565-.643-.18-.565 1.337-.36 5.092-2.725 4.552-2.212-.514-1.929-3.446-1.775-5.169.309-3.574.952-7.097.9-10.697-.025-.412-.694-.412-.694.025zm98.36-34.123c1.388-1.312 2.7-2.7 3.883-4.218 1.08-1.414 2.006-2.957 3.574-3.908.36-.232.026-.797-.334-.566-1.363.849-2.263 2.109-3.214 3.394a35.618 35.618 0 01-4.372 4.861c-.334.257.154.72.463.437zm6.429-.077a27.017 27.017 0 014.731-5.529c.309-.283-.154-.746-.463-.463a27.483 27.483 0 00-4.834 5.657c-.232.36.334.695.566.335z" fill="#3E52BF"/><path opacity=".5" d="M422.368 108.885c-4.603-7.458-11.34-13.346-19.312-16.972l-2.057-.952c1.029 3.858 3.446 7.586 5.837 10.878 3.806 5.22 7.998 11.16 6.969 17.537 2.212 1.389 5.555-.72 7.535.978.823.72 1.08 1.851 1.388 2.88 2.932 9.874 13.809 14.991 19.595 23.529 4.294 6.326 5.477 13.989 5.529 21.755l.797-2.855a23.603 23.603 0 00-2.7-18.72l-23.581-38.058z" fill="#33B9B1"/><path d="M360.472 133.057l-.103-.103-33.146-38.573.206-.18 33.043 38.444 36.567-43.51.206.18-36.773 43.742z" fill="#007D76"/><path opacity=".5" d="M306.959 133.468c.901 2.469 1.929 5.76 4.552 5.709l-2.16-23.761c-.257-2.828.309-6.737 3.163-6.969.849-.077 1.671.283 2.52.386 4.474.643 7.509-4.706 7.714-9.206.026-.771.026-1.543.026-2.314l-12.909 8.692c-6.737 4.551-10.929 12.034-11.263 20.134l-2.469 60.353-1.388 20.649c.771-3.394 1.208-6.865 1.44-10.286.72-10.62-.103-21.497 2.803-31.732 1.08-3.831 2.674-7.534 3.266-11.469 1.003-6.84-1.158-13.706-1.44-20.623-.026-.772-.026-1.594.385-2.263 1.466-2.109 4.86.231 5.76 2.7z" fill="#33B9B1"/><path opacity=".4" d="M353.504 72.498c-1.878-4.783-1.492-10.312.72-14.94 1.054-2.186 2.52-4.32 2.674-6.738.206-3.317-2.109-6.609-1.26-9.823.463-1.723 1.749-3.086 2.597-4.654 2.109-3.909 1.003-9.284-2.494-12.035l-3.189-1.337a10.96 10.96 0 00-3.626-1.929l-9.874 9.052 1.286 26.152a27.628 27.628 0 008.023 18.155l3.78 3.806a12.643 12.643 0 009.566 3.703c.437-.026.848-.078 1.26-.129-4.269-1.492-7.792-5.04-9.463-9.283z" fill="#A58877"/><path d="M341.212 43.851c-.694.9-1.466 1.723-2.366 2.418-.36.282-.797.565-1.26.514-1.106-.103-.951-3.832-1.054-4.68-.669-6.866-.283-14.015 2.494-20.34 2.777-6.327 8.203-11.727 14.94-13.244 1.286-.283 2.623-.437 3.935-.566 1.517-.154 3.06-.334 4.577-.488 1.954-.206 3.806-.463 5.709.128.514.155 1.028.386 1.337.823.257.36.334.823.411 1.286.386 2.88.335 5.812.258 8.717-.026.849-.052 1.749-.54 2.469-.438.643-1.132 1.029-1.852 1.363-3.651 1.697-7.586 2.597-11.315 4.114-3.754 1.543-6.505 3.832-8.948 7.02-2.443 3.24-3.858 7.303-6.326 10.466z" fill="#4D5068"/><path d="M341.16 48.866c.952 3.754.618 7.071-.771 7.406-1.363.334-3.24-2.417-4.192-6.146-.951-3.755-.617-7.072.772-7.406 1.363-.36 3.24 2.392 4.191 6.146z" fill="#FFCEBD"/><path opacity=".4" d="M341.16 48.866c.952 3.754.618 7.071-.771 7.406-1.363.334-3.24-2.417-4.192-6.146-.951-3.755-.617-7.072.772-7.406 1.363-.36 3.24 2.392 4.191 6.146z" fill="#A58877"/><path d="M377.213 84.378c7.921 4.115 13.192 12.575 12.755 22.064l-.591 12.96 2.288.103.592-12.96c.488-10.492-5.375-19.801-14.169-24.301l-2.495-.797 1.62 2.931zm13.732 63.773c.102-2.031 1.825-3.625 3.857-3.523 2.031.103 1.697 7.483-.334 7.381-2.058-.103-3.626-1.826-3.523-3.858zm-2.778-.128c.103-2.032-1.491-3.755-3.523-3.858-2.031-.102-2.365 7.278-.334 7.381a3.718 3.718 0 003.857-3.523z" fill="#4D5068"/><path d="M390.61 117.602c7.843.36 13.938 7.046 13.578 14.889l-.18 3.986c-.206 4.783-.386 8.897-2.855 11.16-1.337 1.209-3.163 1.749-5.631 1.646l.077-1.852c1.929.078 3.343-.282 4.294-1.157 1.903-1.748 2.058-5.503 2.263-9.874l.18-3.986c.309-6.84-4.988-12.652-11.829-12.961-6.84-.308-12.651 4.989-12.96 11.829l-.18 3.986c-.206 4.372-.386 8.126 1.337 10.055.875.951 2.237 1.465 4.166 1.543l-.077 1.851-.797-.051c-2.057-.206-3.575-.9-4.655-2.083-2.263-2.469-2.057-6.609-1.825-11.366l.18-3.986c.385-7.895 7.071-13.989 14.914-13.629zm-63.49 33.944c.257 4.114 3.832 7.251 7.946 6.994 4.114-.257 7.252-3.831 6.994-7.946-.257-4.114-3.831-7.251-7.946-6.994-4.114.257-7.251 3.806-6.994 7.946z" fill="#E3EDFE"/><path d="M329.486 151.391a5.102 5.102 0 005.426 4.783 5.102 5.102 0 10-.643-10.183 5.064 5.064 0 00-4.783 5.4z" fill="#4D5068"/><path d="M333.343 149.617l2.289-.154-3.42-41.067c-.669-10.492 4.551-19.543 13.86-23.195l1.029-2.931c-11.495 3.523-17.898 14.709-17.152 26.28l3.394 41.067z" fill="#4D5068"/><path d="M331.234 151.263a3.404 3.404 0 003.575 3.163 3.404 3.404 0 003.163-3.575 3.403 3.403 0 00-3.575-3.162c-1.877.128-3.291 1.722-3.163 3.574z" fill="#E3EDFE"/><path opacity=".5" d="M382.819 23.51a70.71 70.71 0 001.337 1.544c-1.286-3.163-2.572-6.326-3.857-9.515-.566-1.414-1.158-2.854-2.058-4.088-.9-1.235-2.185-2.263-3.677-2.572-1.131-.231-2.494.103-3.034 1.106-.335.591-.309 1.311-.309 2.006.026 1.337.412 2.545.463 3.857.103 2.366-1.491 5.503 1.234 6.969 1.029.565 2.238.72 3.24 1.311 1.44.849 2.263 2.443 2.906 3.986l-.077-2.392c.746.36 1.492.746 2.237 1.106a7.102 7.102 0 01-.463-2.931c.643.925 1.415 1.723 2.34 2.34a7.458 7.458 0 01-.282-2.726zm-14.144-5.58c.515-1.85.515-3.857.052-5.708-.412-1.671-1.389-3.369-3.009-3.909-.848-.283-1.748-.231-2.648-.18-3.061.206-6.326.463-8.795 2.289-.18.129-.36.283-.386.514-.025.257.155.489.335.643a3.573 3.573 0 002.751.926c-1.106.488-2.237.951-3.343 1.44 1.106.54 2.392.771 3.626.591a5.25 5.25 0 01-2.649 3.703 12.942 12.942 0 003.703-.463 40.046 40.046 0 00-1.877 4.14 4.38 4.38 0 013.317-.848c-.565 1.054-1.105 2.083-1.671 3.137 2.443-1.08 4.371-3.266 6.994-3.831.849-.18 1.775-.206 2.572-.566.797-.36 1.44-1.286 1.131-2.109l-.103.232z" fill="#717386"/><path d="M376.596 75.635l6.145-21.498-.591-1.131-4.963 17.563-.591 5.066zm-30.267 2.185l-6.146-21.497.643-1.208 4.912 17.666.591 5.04zm.206-13.217c.874-4.32-1.543-14.246-6.326-18.566l-.72-1.388c5.323 2.725 7.56 12.908 7.817 16.509a11.024 11.024 0 01-.771 3.445zm28.723 0c-.874-4.32 1.826-14.374 6.635-18.694l.283-1.183c-5.323 2.726-7.406 12.831-7.689 16.432.077 1.208.334 2.365.771 3.445z" fill="#fff"/><path d="M375.747 78.901c-11.752 4.063-17.46 4.063-29.212 0-2.057-7.869-3.626-16.792-3.626-25.2 11.752-4.064 24.738-4.064 36.49 0-.026 8.382-1.389 16.56-3.652 25.2z" fill="#00A79D"/><path d="M379.347 55.578c.026-.618.026-1.26.026-1.878-11.752-4.063-24.738-4.063-36.49 0 0 .617 0 1.26.026 1.877 11.752-4.037 24.686-4.037 36.438 0z" fill="#05668D"/><path opacity=".3" d="M343.86 65.966c11.186-1.825 23.401-1.825 34.587 0 .051-.308.077-.617.129-.925-11.264-1.852-23.581-1.852-34.844 0 .026.308.077.617.128.925zm1.8 9.438c.078.334.155.643.232.977 9.926 1.414 20.546 1.414 30.472 0 .077-.334.154-.643.232-.977-10.055 1.44-20.855 1.44-30.936 0z" fill="#02606C"/><path d="M31.038 336.179l38.007.052 7.354-56.856 2.469 56.984 40.372.129 6.815-107.592H29.058l1.98 107.283z" fill="#05668D"/><path opacity=".2" d="M98.36 269.937c2.674 15.661 7.971 30.833 9.669 46.622.72 6.66.771 13.294.385 19.903l10.826.026 6.532-103.169-9.9-4.423h-14.195c-5.76 12.472-5.657 27.31-3.317 41.041zm-51.739 66.268c.129-5.837.566-11.675 1.517-17.435 3.266-19.903 12.524-38.881 12.55-59.041 0-10.698-2.675-21.37-7.69-30.807h-23.94l1.954 107.283h15.61z" fill="#191C3C"/><path d="M11.417 259.78l1.75 6.917-2.212 3.6a6.967 6.967 0 00-.823 5.349l2.7 10.646.72.9c1.183 1.517 3.163 2.186 5.04 1.723l9.489-2.417a6.283 6.283 0 003.523-2.366l.797-1.08a5.604 5.604 0 00.926-4.706l-1.518-5.94 2.006-2.829-1.723-6.763-2.983-1.054-3.96-1.26-1.414-3.806-12.318 3.086z" fill="#536DFE"/><path d="M117.029 225.425H31.038V117.988l35.538-37.313 50.453 10.055v134.695z" fill="#27AAE1"/><path d="M152.181 259.06v7.123l3.009 2.932a7.005 7.005 0 012.108 4.988v10.981l-.462 1.054a4.842 4.842 0 01-4.449 2.906h-9.798a6.217 6.217 0 01-3.985-1.44l-1.029-.849c-1.311-1.054-2.057-2.649-2.057-4.346v-6.12l-2.649-2.237v-6.995l2.649-1.748 3.523-2.186.437-4.037h12.703v-.026z" fill="#536DFE"/><path d="M117.235 221.259H31.038v7.637h86.197v-7.637z" fill="#4D5068"/><path d="M82.237 221.259h-22.27v7.637h22.27v-7.637z" fill="#FEC55E"/><path d="M97.177 87.49l-15.3 11.237L66.575 87.49V61.852h30.6V87.49z" fill="#FFCEBD"/><path opacity=".3" d="M31.038 117.988v125.72h1.414l.026.206 13.989-9.772c9.514-6.66 13.269-18.823 9.463-29.803-9.129-26.358-15.712-68.839 10.646-118.418v-5.246l-35.538 37.313z" fill="#191C3C"/><path d="M66.576 80.675L51.481 91.09l-14.117 2.288c-.746.129-2.417.54-4.475 1.106-8.511 2.366-14.426 10.106-14.503 18.926l-.334 37.159 4.397 72.361.232 107.026h30.266C51.2 276.135 41.53 129.842 66.602 87.49v-6.815h-.026z" fill="#fff"/><path opacity=".3" d="M123.02 246.768l.412-25.535h-6.403V90.73l-17.05-3.395c-8.048 54.336-11.314 92.111-12.574 115.872-1.003 18.772 10.852 35.795 28.775 41.427l6.84 2.134z" fill="#191C3C"/><path d="M97.177 73.732l12.832 13.758 21.446 7.097c9.18 3.034 14.812 12.318 13.217 21.884l-16.894 102.216 13.963 111.269h-49.81c-.206-52.047.797-200.628 5.246-256.224z" fill="#fff"/><path d="M81.876 98.727l-11.829 12.009-7.457-16.149 3.986-7.097 15.3 11.237zm0 0l5.683 12.009 7.38-6.017 1.132-16.406-14.195 10.414z" fill="#7DCCED"/><path d="M92.162 205.496c.026.874.103 1.748.18 2.623l.232 2.005c.026.18-.334 52.176-.309 52.356l19.595-153.955-7.02-9.798 9.952-5.657-17.64-19.338c-5.015 63.13-5.555 105.817-4.99 131.764zM42.661 102.147s-14.966 88.691 7.663 156.913c.926-25.304-7.766-89.179 16.252-171.57v-6.815L51.481 91.09l6.198 3.728-15.018 7.329z" fill="#A9DDF3"/><path d="M19.03 108.525L0 185.721l10.955 74.445 17.64.283-4.011-76.065 11.494-41.427-17.049-34.432z" fill="#fff"/><path opacity=".5" d="M28.338 161.729c-3.189 6.429-7.277 13.269-10.466 19.698-.771 1.568-1.44 3.78-.052 4.86.643.514 1.57.591 2.084 1.234.745.951-.13 2.469-1.286 2.803-1.157.334-2.392-.103-3.523-.514-.977.9-.257 2.623.874 3.317 1.132.694 2.546.823 3.703 1.466 1.157.642 2.006 2.288 1.131 3.291-.334.386-.874.592-1.285.926-1.698 1.466-.077 4.166 1.388 5.863a32.858 32.858 0 015.195 8.254l-1.517-28.595 4.603-16.637c-.258-2.957-.592-2.957-.849-5.966zm92.137 62.333c-2.006-.72-4.243-.694-6.121-1.672-.18-1.62 1.389-2.931 2.932-3.471s3.266-.669 4.629-1.543c1.362-.9 2.108-3.06.874-4.14-1.414-1.234-3.677.18-5.452-.412.437-5.914 8.692-9.206 8.589-15.146-.026-1.851-.951-3.574-1.286-5.426-.694-3.805 1.106-7.56 2.829-11.031 3.266-6.506 6.557-13.012 9.823-19.518l-9.463 56.933 8.563 66.447a15.72 15.72 0 01-1.826-2.905c-2.263-4.629-3.265-9.772-4.217-14.838-1.234-6.454-2.443-12.883-3.677-19.337-1.003-5.298-3.112-11.701-8.409-12.524-.849-1.337.411-3.034 1.8-3.831 1.363-.797 3.06-1.44 3.6-2.906.694-1.929-1.208-3.986-3.188-4.68z" fill="#A9DDF3"/><path d="M60.816 64.732c-.026-.026-.052-.077-.077-.103-.103-.051-.18-.103-.283-.154l.36.257zm44.615-29.624c.077-.411.129-.822.206-1.26.514-3.548.617-7.277-.797-10.569-1.414-3.291-4.629-5.991-8.203-5.914.437-1.003.206-2.211-.412-3.137-.617-.926-1.517-1.595-2.468-2.134-3.446-2.006-7.535-2.726-11.52-2.546-3.523.154-6.866 1.054-10.21 2.083-2.417.745-4.885.874-7.277 1.928-4.628 2.006-8.408 5.735-9.823 10.672-.566 1.929-.746 3.96-.797 5.966-.154 5.606.694 11.186 1.543 16.715.566 3.703.823 7.663 1.774 11.288.514 1.955 1.389 5.272 3.266 6.378 3.729 2.185 7.535 4.346 11.777 5.22 3.395.694 6.892.514 10.338.308 4.346-.231 9.129-.668 12.163-3.805 1.183-1.235 1.98-2.778 2.752-4.295 1.028-2.005 2.057-4.037 3.085-6.043.798-1.568 1.595-3.111 2.135-4.783.874-2.674.797-5.786 1.157-8.537.308-2.494.874-5.014 1.311-7.535z" fill="#A58877"/><path d="M101.317 44.777s4.68-2.803 4.68-.308c0 1.44.617 3.883-.283 7.097a8.394 8.394 0 01-5.348 5.683l-2.958-7.612 3.909-4.86z" fill="#FFCEBD"/><path opacity=".4" d="M66.525 82.604c1.723.926 3.651 1.491 5.657 1.491h3.497c4.037 0 7.998-1.311 11.238-3.703l3.06-2.262c4.243-3.138 7.148-7.715 8.254-12.806v-.438H66.525v17.718z" fill="#A58877"/><path d="M57.344 42.463l.823 15.892a27.642 27.642 0 006.583 16.56 11.952 11.952 0 009.078 4.192h3.497c4.037 0 7.997-1.312 11.237-3.703l3.06-2.263a21.818 21.818 0 008.744-15.84l1.054-14.04c.566-7.638-2.777-15.121-9.026-19.57-3.934-2.803-9-4.989-15.043-4.577-11.83.797-20.598 11.469-20.007 23.349z" fill="#FFCEBD"/><path opacity=".4" d="M67.476 77.255c.026.026.052.026.077.052l.386.231c.077.026.129.077.206.103.103.051.205.103.334.18.077.051.154.077.231.129.103.05.232.102.335.154.077.025.154.077.231.103.129.051.231.103.36.128l.232.077c.128.052.257.078.385.129l.232.077c.128.026.257.077.385.103.078.026.155.026.232.051l.386.078c.077.025.154.025.205.05.129.027.258.052.412.078.385.052.745.103 1.131.129h.052c-1.26-1.183-2.546-2.315-3.78-3.549-1.106-1.106-2.058-2.366-2.546-3.857-.463-1.363-.54-2.803-.514-4.243a30.697 30.697 0 011.594-9.258c.463-1.337 1.003-2.725.771-4.14-.411-2.546-3.317-4.448-2.906-6.968.129-.875.643-1.62 1.158-2.34 1.311-1.93 2.571-4.09 2.545-6.43-.025-2.185-1.208-4.165-2.34-6.042-1.054-1.723-2.083-3.446-3.137-5.195l-1.388-.437a22.942 22.942 0 00-3.78 6.3 30.926 30.926 0 00-.695 2.006c-.103.334-.18.694-.283 1.029-.077.334-.154.694-.231 1.054-.077.36-.129.694-.18 1.054-.052.36-.103.72-.129 1.08l-.077 1.08c-.026.36-.026.72-.026 1.106 0 .36 0 .746.026 1.106l.823 15.892a28.1 28.1 0 002.854 10.903 29.967 29.967 0 001.698 2.931c.41.643.848 1.26 1.337 1.852.231.308.488.591.72.874.745.9 1.671 1.697 2.674 2.34z" fill="#A58877"/><path d="M59.041 34.028c.052-.18.103-.334.155-.514.154-.463.334-.926.72-1.234.308-.257.72-.335 1.106-.386 1.774-.154 3.188 1.183 4.757 1.852 1.671.72 3.471 1.182 5.271 1.44 3.703.514 7.535.077 10.98-1.39 2.135-.9 4.166-2.185 6.455-2.57 2.289-.386 5.04.437 5.889 2.622.283.746.334 1.595.668 2.315.695 1.414 2.238 1.928 3.266 2.983 1.286 1.311 1.44 3.008 1.363 4.757-.077 1.851-.514 3.986-.463 5.734.026.823.103 1.029.875 1.337.154.078 1.8.103 1.825.026.335-1.774 0-3.6.026-5.4.026-2.211.514-4.397.694-6.609.155-1.8 1.106-3.368 1.209-5.194.257-4.397-2.7-8.409-6.352-10.877-3.651-2.444-7.946-3.678-12.06-5.246-3.343-1.286-5.914-3.138-9.669-2.829a32.017 32.017 0 00-10.877 2.88c-2.135.977-4.218 2.237-5.658 4.114-1.311 1.672-2.725 3.086-3.42 5.17-.668 1.953-.823 4.062-.9 6.12a97.856 97.856 0 00.515 13.165c.18 1.672.565 3.6 2.057 4.398.874-3.395.591-7.355.797-10.878.129-1.928.257-3.908.771-5.786z" fill="#A58877"/><path opacity=".3" d="M91.442 13.148c2.829 1.131 3.395 2.957 2.083 5.606-1.44 2.88-3.626 4.731-6.403 6.197l-4.937 2.623c-1.183.617-2.34 1.234-3.626 1.646-3.291 1.08-6.891.643-10.337.231-3.446-.386-7.072-.72-10.286.566 2.674-1.697 5.143-3.703 8.357-4.089 1.749-.206 3.549-.026 5.297.129-1.748-1.235-3.728-1.775-5.888-1.492-1.903.232-3.729 1.029-5.349 2.057 2.16-2.905 5.992-4.088 9.617-4.268 1.543-.077 3.292.026 4.68-.746-1.285-.154-2.597-.514-3.882-.797-.643-.129-1.286-.283-1.955-.283-1.697-.051-3.317.694-4.834 1.414.797-1.003 1.594-2.005 2.726-2.623 1.62-.848 3.548-.694 5.348-.642.566.025 6.018-.412 4.423-1.723-.257-.206-.591-.232-.9-.232-1.568-.026-3.137.386-4.706.334-1.568-.05-3.291-.668-3.96-2.082a8.285 8.285 0 005.812-.669c1.131-.591 2.109-1.44 3.24-2.031 1.183-.643 2.237-.54 3.497-.67 1.26-.102 2.469-.282 3.755-.23 2.828.128 5.606.72 8.228 1.774zm9.566 7.946a5.375 5.375 0 00-1.697-2.366c-.668-.514-1.466-.772-2.263-.489-.925.36-1.208 1.466-1.903 2.186-.462.489-1.002.9-1.491 1.337-1.106 1.055-1.98 2.315-2.854 3.575-.412.591-.823 1.208-.952 1.928s.103 1.543.746 1.877c.283.155.617.18.951.283 2.006.515 3.163 2.598 4.063 4.475.155-2.032-.514-4.037-1.157-5.992a7.351 7.351 0 012.34 1.929 23.76 23.76 0 01.643-4.475 17.35 17.35 0 011.054 3.755c.335-2.315.695-4.603 1.029-6.918a8.712 8.712 0 01.977 3.292c.797-1.26 1.003-2.932.514-4.397z" fill="#B7A092"/><path d="M66.473 81.807c-8.974 2.828-15.969 10.646-17.255 20.572l-1.748 13.552-2.392-.309 1.749-13.552c1.414-10.954 9.18-19.569 19.106-22.629l2.726-.36-2.186 2.726zm-25.843 63.67a3.867 3.867 0 00-3.369-4.346c-2.134-.283-3.137 7.458-1.003 7.715 2.134.257 4.089-1.235 4.372-3.369zm2.905.36a3.914 3.914 0 014.346-3.369c2.135.283 1.132 7.998-1.003 7.715-2.108-.257-3.6-2.212-3.343-4.346z" fill="#4D5068"/><path d="M46.544 113.848c-8.203-1.055-15.737 4.757-16.792 12.986l-.54 4.166c-.668 4.988-1.234 9.308.926 12.111 1.157 1.517 2.983 2.392 5.554 2.726l.258-1.929c-2.032-.257-3.42-.9-4.243-1.98-1.672-2.16-1.132-6.094-.54-10.671l.54-4.166c.925-7.149 7.483-12.215 14.631-11.289 7.15.926 12.215 7.483 11.29 14.632l-.54 4.166c-.566 4.577-1.08 8.511-3.215 10.183-1.08.823-2.572 1.105-4.603.848l-.257 1.929.823.077c2.16.154 3.883-.283 5.22-1.311 2.803-2.16 3.343-6.481 3.96-11.469l.54-4.166c1.003-8.255-4.809-15.789-13.012-16.843zm71.179 38.829a7.886 7.886 0 11-7.354-8.383c4.32.309 7.637 4.037 7.354 8.383z" fill="#E3EDFE"/><path d="M115.229 152.523c-.18 2.957-2.752 5.22-5.709 5.04-2.957-.18-5.22-2.751-5.04-5.709.18-2.957 2.752-5.22 5.709-5.014 2.983.154 5.22 2.726 5.04 5.683z" fill="#4D5068"/><path d="M111.166 150.646l-2.392-.155 3.6-43.252c.721-11.058-4.808-20.572-14.58-24.43l-1.26.052.18-3.137c12.112 3.728 18.849 15.48 18.078 27.695l-3.626 43.227z" fill="#4D5068"/><path d="M113.403 152.394a3.564 3.564 0 01-3.78 3.318 3.563 3.563 0 01-3.317-3.78 3.564 3.564 0 013.78-3.318c1.954.155 3.446 1.826 3.317 3.78z" fill="#E3EDFE"/><path d="M90.954 78.052l9.977-20.777-.591-1.106-8.358 17.306-1.028 4.577zm-27.412 2.726l-5.323-19.826-.078-3.009 4.81 17.795.59 5.04zm.823-9.643c.874-4.32-1.75-14.169-6.532-18.489l-.077-1.697c5.323 2.726 7.123 13.14 7.38 16.74a10.35 10.35 0 01-.771 3.446zm26.46-3.575c-.874-4.32 6.249-17.408 11.032-21.703l-1.543.103c-5.272 4.423-10.003 14.58-10.286 18.18.103 1.183.36 2.34.797 3.42z" fill="#fff"/><path d="M90.465 81.138c-11.443 3.96-16.998 3.96-28.466 0-2.006-7.663-3.549-16.355-3.549-24.558 11.443-3.96 24.095-3.96 35.538 0 .026 8.178-1.311 16.124-3.523 24.558z" fill="#fff"/><path d="M93.988 58.406c.026-.617.026-1.208.026-1.826-11.443-3.96-24.095-3.96-35.538 0 0 .618 0 1.209.025 1.826 11.444-3.934 24.044-3.934 35.487 0z" fill="#05668D"/><path opacity=".3" d="M59.427 68.538c10.903-1.775 22.784-1.775 33.687 0 .051-.309.077-.592.128-.9-10.98-1.8-22.963-1.8-33.943 0 .025.308.077.617.128.9zm1.749 9.18c.077.309.154.643.231.951 9.67 1.363 20.032 1.363 29.701 0 .077-.308.154-.642.232-.95-9.824 1.413-20.341 1.413-30.164 0z" fill="#B3CDFA"/><path d="M87.74 54.575h-4.012c-3.24 0-4.5-2.598-5.194-4.552-.283-1.183-1.518-6.84.154-8.383 2.571-2.314 11.52-2.314 14.066 0 1.671 1.517.437 7.2.18 8.332.026 2.468-2.34 4.603-5.195 4.603zm-2.006-13.527c-2.546 0-5.092.463-6.146 1.39-.874.796-.437 4.73.18 7.25.9 2.572 2.083 3.678 3.96 3.678h4.011c2.16 0 3.935-1.594 3.935-3.574.617-2.649 1.054-6.583.18-7.38-1.029-.875-3.575-1.364-6.12-1.364z" fill="#4D5068"/><path d="M74.213 45.626l-.72-1.055c1.029-.72 3.498-1.594 5.4.052l-.848.977c-1.62-1.44-3.729-.051-3.832.026zm19.081.745l-.206-3.342 8.898 1.414-.129 1.414-8.563.514zm-34.15 0l.18-3.342-1.98.668.386 1.954 1.414.72z" fill="#4D5068"/><path d="M68.608 54.575h-4.012c-2.88 0-5.22-2.109-5.22-4.732-.257-1.003-1.491-6.686.18-8.203 2.572-2.314 11.52-2.314 14.066 0 1.671 1.517.437 7.2.18 8.332-.874 2.931-2.777 4.603-5.194 4.603zm-2.006-13.527c-2.546 0-5.092.463-6.12 1.415-.875.797-.437 4.731.18 7.252.025 2.082 1.774 3.677 3.96 3.677h4.011c2.572 0 3.626-2.598 3.96-3.729.592-2.494 1.055-6.429.155-7.226-1.055-.926-3.6-1.389-6.146-1.389z" fill="#4D5068"/><path d="M143.695 105.799l20.521 74.882c.9 3.317 1.131 6.789.617 10.183l-10.209 69.302-17.64.283.257-70.202-10.286-39.601 16.74-44.847z" fill="#fff"/></svg>