<svg width="348" height="264" viewBox="0 0 348 264" fill="none" xmlns="http://www.w3.org/2000/svg">
<path d="M347.679 125.934C347.679 125.834 347.679 125.834 347.679 125.934C346.879 109.334 336.279 87.7339 325.079 82.2339C323.279 61.4339 307.379 39.834 283.679 26.134C267.279 16.634 248.879 12.134 232.679 13.634C227.779 8.73397 219.679 5.23396 210.279 2.93396C206.179 1.63396 201.979 0.833972 197.579 0.633972C197.279 0.633972 196.879 0.633972 196.579 0.633972C189.579 -0.0660278 182.479 -0.166052 175.779 0.233948C165.779 0.933948 148.879 3.53397 140.579 12.634C136.179 11.134 131.479 10.2339 126.379 9.73395C117.879 8.83395 108.879 9.53397 100.079 11.534C94.5788 12.734 89.1788 14.434 83.9788 16.634C65.5788 24.434 51.9788 37.3339 45.3788 53.2339C7.27882 71.4339 -2.4212 109.834 0.478798 131.534C3.7788 155.834 16.2788 172.734 37.8788 181.934C55.6788 189.534 79.8788 191.734 109.779 188.634C113.579 192.134 118.279 195.234 123.579 197.934C135.979 205.234 149.679 209.034 162.779 209.034C163.979 209.034 165.079 209.034 166.179 208.934C169.179 209.134 172.079 209.134 174.979 209.134C176.979 210.734 179.179 212.134 181.379 213.434C213.079 231.234 221.379 241.134 234.079 261.334C234.979 262.734 236.579 263.634 238.279 263.634H273.279C274.979 263.634 276.679 262.734 277.579 261.234C278.479 259.734 278.479 257.934 277.679 256.334C268.579 239.334 267.279 225.034 268.279 221.034C282.779 216.134 294.879 206.834 301.979 195.334C326.279 190.134 349.279 165.034 347.679 125.934ZM306.779 183.634C308.479 176.334 308.579 168.434 306.979 160.134C306.479 157.434 303.879 155.734 301.179 156.234C298.479 156.734 296.779 159.334 297.279 162.034C299.179 171.634 298.379 180.634 294.979 188.034C294.879 188.234 294.779 188.434 294.779 188.634C288.879 199.334 277.679 207.934 264.179 212.234C262.679 212.734 260.779 213.934 259.479 216.934C256.879 223.334 258.679 238.134 265.579 253.934H241.179C228.579 234.234 218.679 223.134 186.479 205.034C186.379 205.034 186.279 204.934 186.179 204.834C197.479 200.334 205.579 193.034 213.579 179.234C216.179 185.334 220.679 190.234 226.579 193.434C230.879 195.734 235.479 196.734 239.979 196.734C250.279 196.734 260.179 191.234 265.379 181.534C268.079 176.434 269.179 170.734 268.579 165.034C268.279 162.334 265.879 160.334 263.079 160.634C260.379 160.934 258.379 163.334 258.679 166.134C259.079 169.834 258.379 173.534 256.579 176.934C251.779 186.034 240.379 189.534 231.179 184.734C226.779 182.434 223.479 178.434 221.979 173.634C220.779 169.734 220.879 165.634 222.279 161.834C222.979 160.234 223.679 158.634 224.379 157.034C234.079 134.334 250.679 132.134 257.379 132.334C267.879 132.534 276.079 137.934 277.979 143.034C278.979 145.634 281.779 146.834 284.379 145.934C286.979 144.934 288.179 142.134 287.279 139.534C283.579 129.734 271.379 122.734 257.579 122.434C248.879 122.234 227.279 124.934 215.279 153.234C214.979 153.834 214.779 154.434 214.479 155.134C213.879 156.234 213.379 157.434 212.979 158.634C201.779 183.734 193.479 192.734 177.979 197.534C174.179 198.734 170.179 199.334 166.079 199.534C164.079 199.434 162.079 199.234 160.079 199.034C148.579 197.634 137.879 194.534 129.179 190.134C127.979 189.434 126.679 188.734 125.579 187.934C110.679 178.134 101.279 164.434 99.6788 150.334C98.1788 137.134 102.779 123.334 111.979 113.534C123.679 101.034 138.579 98.834 145.779 98.634C145.979 98.634 146.179 98.634 146.279 98.634C146.379 98.634 146.479 98.634 146.479 98.634C147.279 98.634 147.979 98.634 148.479 98.634H148.579C148.679 98.634 148.679 98.634 148.779 98.634H148.879C149.179 98.634 149.479 98.634 149.779 98.634C149.879 98.634 150.079 98.634 150.179 98.634C155.379 99.234 159.779 101.934 161.279 105.934C162.479 109.134 161.479 112.434 160.879 114.134C159.879 116.634 161.079 119.534 163.579 120.634C164.179 120.934 164.879 121.034 165.479 121.034C167.479 121.034 169.279 119.834 170.079 117.934C171.279 114.934 173.079 108.834 170.579 102.434C169.379 99.234 167.279 96.4339 164.579 94.2339C170.879 90.5339 176.079 84.734 177.179 78.334C177.679 75.634 175.779 73.034 173.079 72.634C170.379 72.134 167.779 74.0339 167.379 76.7339C166.479 82.2339 157.379 88.534 150.379 88.834C148.979 88.734 147.479 88.734 146.079 88.834C137.679 89.034 119.079 91.434 104.579 106.934C93.4788 118.834 87.8788 135.534 89.6788 151.634C90.7788 161.634 95.0788 171.434 101.979 180.134C76.8788 182.134 56.6788 179.934 41.8788 173.534C23.4788 165.734 13.1788 151.734 10.3788 130.934C7.87882 112.534 15.9788 80.334 47.4788 64.034C47.2788 70.334 48.3788 81.034 56.2788 90.834C57.2788 92.034 58.6788 92.634 60.1788 92.634C61.2788 92.634 62.3788 92.234 63.2788 91.534C65.3788 89.834 65.7788 86.734 64.0788 84.534C56.1788 74.734 57.4788 63.234 57.7788 61.034C59.3788 50.534 66.3788 40.534 77.3788 32.834C86.8788 26.234 98.4788 21.934 109.979 20.434C110.479 20.334 110.879 20.3339 111.379 20.2339C111.879 20.1339 112.479 20.134 112.979 20.034C113.679 19.934 114.279 19.934 114.979 19.934C115.479 19.934 115.979 19.834 116.479 19.834C117.079 19.834 117.579 19.834 118.179 19.834C119.079 19.834 119.979 19.834 120.879 19.834C120.979 19.834 120.979 19.834 121.079 19.834C124.479 19.934 127.879 20.334 131.079 21.034C139.979 22.934 148.279 27.0339 155.979 33.2339C158.079 34.9339 161.179 34.634 162.979 32.534C164.679 30.434 164.379 27.334 162.279 25.534C158.479 22.434 154.479 19.834 150.379 17.634C155.579 13.934 164.879 11.434 176.379 10.634C187.179 9.83397 198.179 10.734 207.179 12.834C220.079 16.834 230.979 26.634 237.079 40.034C237.879 41.834 239.679 42.934 241.579 42.934C242.279 42.934 242.979 42.834 243.579 42.534C246.079 41.434 247.179 38.434 246.079 36.034C244.079 31.534 241.579 27.4339 238.779 23.7339C251.579 23.7339 265.779 27.734 278.579 35.134C297.579 46.134 311.179 63.234 314.479 79.434C312.579 78.534 310.579 77.834 308.579 77.134C287.679 70.534 269.579 79.434 264.479 82.334C262.079 83.734 261.279 86.734 262.679 89.134C264.079 91.534 267.079 92.334 269.479 90.934C273.679 88.534 288.579 81.234 305.679 86.534C322.079 91.734 334.279 106.234 337.579 124.534C337.579 124.734 337.679 124.834 337.679 125.034C337.779 125.634 337.779 126.234 337.779 126.834C338.979 156.134 324.179 176.334 306.779 183.634ZM196.479 134.334C195.979 151.334 182.879 165.534 166.179 167.234C165.079 167.334 163.879 167.434 162.779 167.434C148.079 167.434 134.679 157.634 130.379 143.134C129.579 140.534 131.079 137.734 133.679 136.934C136.279 136.134 139.079 137.634 139.879 140.234C143.179 151.334 153.879 158.534 165.179 157.334C176.979 156.134 186.279 146.134 186.579 134.034C186.679 131.334 188.979 129.134 191.679 129.234C194.379 129.334 196.579 131.634 196.479 134.334ZM256.379 71.034C250.379 79.934 239.979 84.734 228.779 84.834C231.379 90.334 231.779 96.534 229.579 101.934C226.979 108.234 221.579 111.434 218.579 112.834C217.879 113.134 217.179 113.234 216.579 113.234C214.679 113.234 212.879 112.134 212.079 110.334C210.979 107.834 212.079 104.934 214.579 103.734C216.279 102.934 219.179 101.234 220.479 98.134C222.479 93.234 219.979 86.634 214.479 82.434L214.379 82.334C212.479 81.634 210.679 80.934 208.879 79.934C192.179 71.434 182.579 53.534 185.979 37.534C186.579 34.834 189.179 33.1339 191.879 33.7339C194.579 34.3339 196.279 36.934 195.679 39.634C193.179 51.234 200.879 64.7339 213.479 71.2339C226.679 77.9339 241.679 75.534 248.479 65.534C249.979 63.234 253.079 62.6339 255.379 64.2339C257.279 65.6339 257.879 68.734 256.379 71.034ZM153.079 58.2339C154.879 60.2339 154.679 63.4339 152.679 65.2339C150.679 67.0339 147.479 66.834 145.679 64.834C136.479 54.434 121.979 51.334 111.979 57.634C102.579 63.634 101.479 75.8339 101.479 77.2339C101.279 79.8339 99.1788 81.834 96.5788 81.834C96.4788 81.834 96.3788 81.834 96.2788 81.834C93.5788 81.634 91.4788 79.334 91.6788 76.534C91.8788 73.434 93.4788 57.534 106.879 49.134C120.779 40.434 140.679 44.2339 153.079 58.2339ZM84.0788 104.634C83.8788 107.534 82.3788 122.234 69.9788 130.034C65.2788 133.034 59.7788 134.434 54.2788 134.434C44.4788 134.434 34.2788 130.034 26.9788 121.734C25.1788 119.734 25.3788 116.534 27.3788 114.734C29.3788 112.934 32.5788 113.134 34.3788 115.134C42.6788 124.534 55.6788 127.334 64.6788 121.634C73.1788 116.334 74.0788 105.234 74.1788 103.934C74.3788 101.234 76.6788 99.134 79.4788 99.334C82.1788 99.534 84.1788 101.834 84.0788 104.634Z" fill="#FF010F"/>
</svg>
