<svg width="289" height="267" viewBox="0 0 289 267" fill="none" xmlns="http://www.w3.org/2000/svg">
<path d="M103.1 191.9C102.5 195.3 103.3 198.9 105.2 201.1C106.6 202.8 108.5 203.7 110.5 203.7H155.4C157.4 203.7 159.3 202.8 160.7 201.1C162.6 198.8 163.4 195.3 162.8 191.9L161.1 182H249.5C258.6 182 266 174.6 266 165.5V16.5C266 7.4 258.6 0 249.5 0H16.5C7.4 0 0 7.4 0 16.5V165.5C0 174.6 7.4 182 16.5 182H104.9L103.1 191.9ZM112.9 193.8C112.9 193.7 112.9 193.7 112.9 193.8L115 182.1H150.9L153 193.7C153 193.7 153 193.7 153 193.8H112.9V193.8ZM9.90001 16.6C9.90001 13 12.8 10.1 16.4 10.1H249.4C253 10.1 255.9 13 255.9 16.6V146.1H9.90001V16.6ZM16.4 172.1C12.8 172.1 9.90001 169.2 9.90001 165.6V156.1H255.9V165.6C255.9 169.2 253 172.1 249.4 172.1H159.3H106.6H16.4Z" fill="#FF0310"/>
<path d="M217.4 217.1C216.1 214.1 213.1 212.1 209.7 212.1H56.1C52.8 212.1 49.8 214.1 48.4 217.1L42.6 230.3C41.5 232.9 41.7 235.9 43.3 238.2C44.9 240.6 47.5 242 50.3 242H215.5C218.3 242 221 240.6 222.5 238.2C224.1 235.8 224.3 232.9 223.2 230.3L217.4 217.1ZM52.8 232.1L57.2 222.1H208.7L213.1 232.1H52.8Z" fill="#FF0310"/>
<path d="M260.9 238.6C245.7 238.6 233.3 248.9 233.3 261.6V266.6H288.6V261.6C288.6 248.9 276.2 238.6 260.9 238.6ZM244.7 256.6C247.4 251.9 253.7 248.6 261 248.6C268.3 248.6 274.6 251.9 277.3 256.6H244.7Z" fill="#FF0310"/>
</svg>
