<svg width="289" height="267" fill="none" xmlns="http://www.w3.org/2000/svg"><path d="M103.1 191.9c-.6 3.4.2 7 2.1 9.2 1.4 1.7 3.3 2.6 5.3 2.6h44.9c2 0 3.9-.9 5.3-2.6 1.9-2.3 2.7-5.8 2.1-9.2l-1.7-9.9h88.4c9.1 0 16.5-7.4 16.5-16.5v-149C266 7.4 258.6 0 249.5 0h-233C7.4 0 0 7.4 0 16.5v149c0 9.1 7.4 16.5 16.5 16.5h88.4l-1.8 9.9zm9.8 1.9c0-.1 0-.1 0 0l2.1-11.7h35.9l2.1 11.6v.1h-40.1zM9.9 16.6c0-3.6 2.9-6.5 6.5-6.5h233c3.6 0 6.5 2.9 6.5 6.5v129.5H9.9V16.6zm6.5 155.5c-3.6 0-6.5-2.9-6.5-6.5v-9.5h246v9.5c0 3.6-2.9 6.5-6.5 6.5h-233zm201 45c-1.3-3-4.3-5-7.7-5H56.1c-3.3 0-6.3 2-7.7 5l-5.8 13.2c-1.1 2.6-.9 5.6.7 7.9 1.6 2.4 4.2 3.8 7 3.8h165.2c2.8 0 5.5-1.4 7-3.8 1.6-2.4 1.8-5.3.7-7.9l-5.8-13.2zm-164.6 15l4.4-10h151.5l4.4 10H52.8zm208.1 6.5c-15.2 0-27.6 10.3-27.6 23v5h55.3v-5c0-12.7-12.4-23-27.7-23zm-16.2 18c2.7-4.7 9-8 16.3-8 7.3 0 13.6 3.3 16.3 8h-32.6z" fill="#FF0310"/></svg>