<svg viewBox="0 0 1196 500" xmlns="http://www.w3.org/2000/svg" xmlns:xlink="http://www.w3.org/1999/xlink"><style>:root&gt;svg{display:none}:root&gt;svg:target{display:block}</style><svg fill="none" viewBox="0 0 1196 500" id="css--slide-1--stream" xmlns="http://www.w3.org/2000/svg"><path opacity=".1" d="M832.542-166c.874 0 2.621.874 2.621 1.749L929.5 697.766l109.19-530.674c0-.874.87-1.748 1.74-1.748.88 0 1.75.874 2.62 1.748l55.91 141.63 42.8-87.426c0-.874.87-.874 1.75-.874.87 0 1.74 0 1.74.874l20.97 31.473h603.16c.87 0 2.62.875 2.62 2.623 0 .874-.87 2.623-2.62 2.623h-603.16c-.88 0-1.75 0-1.75-.874l-19.22-28.851-43.67 89.174c0 .875-.88 1.749-2.62.875-.88 0-1.75-.875-1.75-1.749l-55.03-139.007-110.06 537.669c0 .874-.873 1.748-2.62 1.748-.873 0-1.747-.874-2.62-1.748l-95.211-862.893-110.06 488.71c0 .875-.874 1.749-1.748 1.749-.873 0-1.746-.874-2.62-1.749l-45.422-110.156-53.283 67.318c-.873.874-.873.874-1.747.874-.873 0-1.747-.874-1.747-.874l-33.193-60.324-15.722 14.862s-.874.875-1.747.875H-685.379c-.874 0-2.621-.875-2.621-2.623 0-.874.874-2.623 2.621-2.623H563.506l17.47-16.611c.873-.874.873-.874 1.747-.874.873 0 1.747.874 1.747.874l33.193 60.324 54.156-67.318c.874-.874.874-.874 1.747-.874.874 0 1.747.874 1.747 1.748l44.548 106.66 111.808-495.704c-.874-2.623 0-2.623.873-2.623z" stroke="#fff" stroke-width="3"/></svg><svg fill="none" viewBox="0 0 416 215" id="css--slide-6--blump" xmlns="http://www.w3.org/2000/svg"><path d="M412.502 81.232c15.224 88.136-37.161 104.171-199.56 128.342C-47.797 248.382-38.267 66.716 79.807 37.632c227.98-63.8 317.902-42.037 332.695 43.6z" fill="#D6E8FF"/></svg></svg>