<svg width="348" height="264" fill="none" xmlns="http://www.w3.org/2000/svg"><path d="M347.679 125.934c0-.1 0-.1 0 0-.8-16.6-11.4-38.2-22.6-43.7-1.8-20.8-17.7-42.4-41.4-56.1-16.4-9.5-34.8-14-51-12.5-4.9-4.9-13-8.4-22.4-10.7-4.1-1.3-8.3-2.1-12.7-2.3h-1c-7-.7-14.1-.8-20.8-.4-10 .7-26.9 3.3-35.2 12.4-4.4-1.5-9.1-2.4-14.2-2.9-8.5-.9-17.5-.2-26.3 1.8-5.5 1.2-10.9 2.9-16.1 5.1-18.4 7.8-32 20.7-38.6 36.6-38.1 18.2-47.8 56.6-44.9 78.3 3.3 24.3 15.8 41.2 37.4 50.4 17.8 7.6 42 9.8 71.9 6.7 3.8 3.5 8.5 6.6 13.8 9.3 12.4 7.3 26.1 11.1 39.2 11.1 1.2 0 2.3 0 3.4-.1 3 .2 5.9.2 8.8.2 2 1.6 4.2 3 6.4 4.3 31.7 17.8 40 27.7 52.7 47.9.9 1.4 2.5 2.3 4.2 2.3h35c1.7 0 3.4-.9 4.3-2.4.9-1.5.9-3.3.1-4.9-9.1-17-10.4-31.3-9.4-35.3 14.5-4.9 26.6-14.2 33.7-25.7 24.3-5.2 47.3-30.3 45.7-69.4zm-40.9 57.7c1.7-7.3 1.8-15.2.2-23.5-.5-2.7-3.1-4.4-5.8-3.9-2.7.5-4.4 3.1-3.9 5.8 1.9 9.6 1.1 18.6-2.3 26-.1.2-.2.4-.2.6-5.9 10.7-17.1 19.3-30.6 23.6-1.5.5-3.4 1.7-4.7 4.7-2.6 6.4-.8 21.2 6.1 37h-24.4c-12.6-19.7-22.5-30.8-54.7-48.9-.1 0-.2-.1-.3-.2 11.3-4.5 19.4-11.8 27.4-25.6 2.6 6.1 7.1 11 13 14.2 4.3 2.3 8.9 3.3 13.4 3.3 10.3 0 20.2-5.5 25.4-15.2 2.7-5.1 3.8-10.8 3.2-16.5-.3-2.7-2.7-4.7-5.5-4.4-2.7.3-4.7 2.7-4.4 5.5.4 3.7-.3 7.4-2.1 10.8-4.8 9.1-16.2 12.6-25.4 7.8-4.4-2.3-7.7-6.3-9.2-11.1-1.2-3.9-1.1-8 .3-11.8l2.1-4.8c9.7-22.7 26.3-24.9 33-24.7 10.5.2 18.7 5.6 20.6 10.7 1 2.6 3.8 3.8 6.4 2.9 2.6-1 3.8-3.8 2.9-6.4-3.7-9.8-15.9-16.8-29.7-17.1-8.7-.2-30.3 2.5-42.3 30.8-.3.6-.5 1.2-.8 1.9-.6 1.1-1.1 2.3-1.5 3.5-11.2 25.1-19.5 34.1-35 38.9-3.8 1.2-7.8 1.8-11.9 2-2-.1-4-.3-6-.5-11.5-1.4-22.2-4.5-30.9-8.9-1.2-.7-2.5-1.4-3.6-2.2-14.9-9.8-24.3-23.5-25.9-37.6-1.5-13.2 3.1-27 12.3-36.8 11.7-12.5 26.6-14.7 33.8-14.9h4.4c5.2.6 9.6 3.3 11.1 7.3 1.2 3.2.2 6.5-.4 8.2-1 2.5.2 5.4 2.7 6.5.6.3 1.3.4 1.9.4 2 0 3.8-1.2 4.6-3.1 1.2-3 3-9.1.5-15.5-1.2-3.2-3.3-6-6-8.2 6.3-3.7 11.5-9.5 12.6-15.9.5-2.7-1.4-5.3-4.1-5.7-2.7-.5-5.3 1.4-5.7 4.1-.9 5.5-10 11.8-17 12.1-1.4-.1-2.9-.1-4.3 0-8.4.2-27 2.6-41.5 18.1-11.1 11.9-16.7 28.6-14.9 44.7 1.1 10 5.4 19.8 12.3 28.5-25.1 2-45.3-.2-60.1-6.6-18.4-7.8-28.7-21.8-31.5-42.6-2.5-18.4 5.6-50.6 37.1-66.9-.2 6.3.9 17 8.8 26.8 1 1.2 2.4 1.8 3.9 1.8 1.1 0 2.2-.4 3.1-1.1 2.1-1.7 2.5-4.8.8-7-7.9-9.8-6.6-21.3-6.3-23.5 1.6-10.5 8.6-20.5 19.6-28.2 9.5-6.6 21.1-10.9 32.6-12.4.5-.1.9-.1 1.4-.2.5-.1 1.1-.1 1.6-.2.7-.1 1.3-.1 2-.1.5 0 1-.1 1.5-.1h4.6c3.4.1 6.8.5 10 1.2 8.9 1.9 17.2 6 24.9 12.2 2.1 1.7 5.2 1.4 7-.7 1.7-2.1 1.4-5.2-.7-7-3.8-3.1-7.8-5.7-11.9-7.9 5.2-3.7 14.5-6.2 26-7 10.8-.8 21.8.1 30.8 2.2 12.9 4 23.8 13.8 29.9 27.2.8 1.8 2.6 2.9 4.5 2.9.7 0 1.4-.1 2-.4 2.5-1.1 3.6-4.1 2.5-6.5-2-4.5-4.5-8.6-7.3-12.3 12.8 0 27 4 39.8 11.4 19 11 32.6 28.1 35.9 44.3-1.9-.9-3.9-1.6-5.9-2.3-20.9-6.6-39 2.3-44.1 5.2-2.4 1.4-3.2 4.4-1.8 6.8 1.4 2.4 4.4 3.2 6.8 1.8 4.2-2.4 19.1-9.7 36.2-4.4 16.4 5.2 28.6 19.7 31.9 38 0 .2.1.3.1.5.1.6.1 1.2.1 1.8 1.2 29.3-13.6 49.5-31 56.8zm-110.3-49.3c-.5 17-13.6 31.2-30.3 32.9-1.1.1-2.3.2-3.4.2-14.7 0-28.1-9.8-32.4-24.3-.8-2.6.7-5.4 3.3-6.2 2.6-.8 5.4.7 6.2 3.3 3.3 11.1 14 18.3 25.3 17.1 11.8-1.2 21.1-11.2 21.4-23.3.1-2.7 2.4-4.9 5.1-4.8 2.7.1 4.9 2.4 4.8 5.1zm59.9-63.3c-6 8.9-16.4 13.7-27.6 13.8 2.6 5.5 3 11.7.8 17.1-2.6 6.3-8 9.5-11 10.9-.7.3-1.4.4-2 .4-1.9 0-3.7-1.1-4.5-2.9-1.1-2.5 0-5.4 2.5-6.6 1.7-.8 4.6-2.5 5.9-5.6 2-4.9-.5-11.5-6-15.7l-.1-.1c-1.9-.7-3.7-1.4-5.5-2.4-16.7-8.5-26.3-26.4-22.9-42.4.6-2.7 3.2-4.4 5.9-3.8 2.7.6 4.4 3.2 3.8 5.9-2.5 11.6 5.2 25.1 17.8 31.6 13.2 6.7 28.2 4.3 35-5.7 1.5-2.3 4.6-2.9 6.9-1.3 1.9 1.4 2.5 4.5 1 6.8zm-103.3-12.8c1.8 2 1.6 5.2-.4 7-2 1.8-5.2 1.6-7-.4-9.2-10.4-23.7-13.5-33.7-7.2-9.4 6-10.5 18.2-10.5 19.6-.2 2.6-2.3 4.6-4.9 4.6h-.3c-2.7-.2-4.8-2.5-4.6-5.3.2-3.1 1.8-19 15.2-27.4 13.9-8.7 33.8-4.9 46.2 9.1zm-69 46.4c-.2 2.9-1.7 17.6-14.1 25.4-4.7 3-10.2 4.4-15.7 4.4-9.8 0-20-4.4-27.3-12.7-1.8-2-1.6-5.2.4-7 2-1.8 5.2-1.6 7 .4 8.3 9.4 21.3 12.2 30.3 6.5 8.5-5.3 9.4-16.4 9.5-17.7.2-2.7 2.5-4.8 5.3-4.6 2.7.2 4.7 2.5 4.6 5.3z" fill="#FF010F"/></svg>