<svg width="163" height="56" fill="none" xmlns="http://www.w3.org/2000/svg"><g clip-path="url(#clip0)" fill="#fff"><path d="M48.867 3.75c.978-.94 1.723-.658 3.167.469 3.68 1.596 2.842 7.465.606 11.597-2.33 4.46-6.056 7.935-10.062 6.433-2.422-.892-3.354-3.146-3.354-5.587 0-1.503.326-2.959.839-4.32 1.257.047 1.91 1.408 1.583 2.864-.699 2.911-.28 5.353 1.025 5.916 1.957.845 5.45-1.55 7.919-6.15 2.702-4.978 2.562-9.438.932-10.049-1.072-.376-1.025.376-3.261 2.583-.699.657-1.258.845-1.817.845-.466 0-.652-.188-.512-.517.838-1.878 1.584-2.77 2.934-4.085zm-3.494 12.395c-.606-.376-.885-.704-1.025-.939-.186-.376-.14-.47.373-.47.466.047.838.094 1.257.094 2.004.047 3.494-.516 5.45-.61 1.957-.141-1.07 2.3-1.07 2.3-2.143.282-3.541.517-4.985-.375zm20.263 1.409c.187-.423.513-.282.56 0 .046.281.139 1.033-.373 1.972-1.118 2.066-3.121 3.052-5.264 3.192-1.91.141-3.121-.14-4.146-1.08a3.261 3.261 0 01-1.025-1.972 114.315 114.315 0 00-4.332 8.922c-.14.281-.326.328-.512.047-.466-.61-.606-1.456-.047-3.287.885-2.911 5.87-12.349 7.732-14.837.28-.376.56-.33.7.046.139.376.186.846.186 1.362 1.304-1.127 3.028-1.972 4.332-.61 1.397 1.502.745 4.179-.326 6.62-.885 1.972-1.957 3.38-3.121 4.085 2.934-.282 4.705-2.441 5.636-4.46zM57.02 20.98c.931.751 2.888-1.408 4.238-4.273 1.165-2.394 1.491-4.836.746-5.211-.699-.376-2.562 1.126-3.913 3.427-.326.517-.652 1.08-1.025 1.69-.745 1.879-.885 3.663-.046 4.367zm14.905-10.61c.978.14 1.91 1.596 1.165 3.145-.606 1.315-2.05 3.522-2.75 5.071-.744 1.738-.605 3.146.467 3.052 1.211-.047 2.655-2.019 3.773-4.132.14-.281.373-.281.512-.047.187.33.14 1.034-.279 1.879-.792 1.69-2.655 3.192-4.379 3.192-2.515 0-3.12-1.83-2.236-4.413.978-2.911 3.494-5.775 2.935-6.01-.28-.141-2.795.704-4.705 2.817-.838.798-.373-1.033-.047-1.362 1.352-1.408 4.566-3.38 5.544-3.192z"/><path d="M83.524 16.004c-.606 2.536-2.47 5.54-4.658 6.292-1.072.376-2.562.235-3.727-1.315-1.304-1.737-.839-4.32.466-6.714 1.118-2.02 2.935-3.756 4.704-3.85.932-.047 1.398.187 2.004 1.033.698.939 1.583 1.127 1.397 3.286-.047.235-.047.47-.047.705.187 0 .373-.047.606-.047.186 0 .186.14.093.281-.233.188-.559.282-.838.33zm-2.516-.751c-.605-.47-1.35-1.503-1.35-2.63-.792.705-1.678 1.69-2.283 2.818-1.258 2.253-1.677 5.024-.932 5.634.839.704 2.609-.376 4.1-3.099.465-.845.791-1.69 1.024-2.394-.186-.048-.372-.188-.559-.33zm1.025-2.63c-.14-.939-.745-.75-.885.094-.14.798.186 1.69.652 2.113.233-.939.326-1.69.233-2.207zM7.641 3.937c-.652-.751-.373-2.019.606-2.911C9.225.18 10.529.086 11.18.79c.653.751.373 2.02-.605 2.911-1.025.892-2.33.986-2.935.235z"/><path d="M8.992 6.38c4.146 1.22 13.695 5.915 7.78 4.46-6.336-1.503-7.035-1.69-6.709 3.944.047.845.14 1.784.233 2.723.093.892 1.49 7.419 2.143 10.752h-.699c-1.397-3.521-3.82-10.095-4.006-9.155-.233 1.173 1.584 6.573 2.516 9.202h-.373C3.262 17.226 4.567 10.84 3.82 7.271c-.093-.516-1.118-.939-2.702-3.24C.141 2.576.001.322.001.322c-.046-1.69.979 3.71 8.99 6.057z"/><path fill-rule="evenodd" clip-rule="evenodd" d="M21.103 4.876v3.475H26.6V4.876h1.118l-1.91-2.019L23.852.791l-1.957 2.066-1.956 2.019h1.164z"/><path d="M31.398 16.708h-.14c-4.239-.375-9.083-1.033-1.304-3.521 10.481-3.38 2.143-4.695-2.19-4.883v.094c3.308.47 8.292 1.784-1.816 5.07-.652.235-2.236.658-3.773 1.174-4.426 1.55-4.938 3.287-.28 3.616 5.124.329 7.267 2.911.187 6.433-2.702 1.502-6.242 2.817-9.364 3.756 0 0 9.503 1.408 17.096-1.878 6.988-2.77 7.08-9.25 1.584-9.86zm55.526-5.446h1.91v4.742h.046l4.519-4.742h2.609l-5.078 5.07 5.404 5.87h-2.702l-4.752-5.494h-.046v5.494h-1.91v-10.94zm15.233-.282c3.4 0 5.869 2.207 5.869 5.728 0 3.428-2.469 5.776-5.869 5.776-3.354 0-5.823-2.348-5.823-5.776.046-3.521 2.515-5.728 5.823-5.728zm.046 9.766c2.236 0 3.727-1.69 3.727-4.038 0-2.253-1.491-3.99-3.727-3.99-2.236 0-3.726 1.737-3.726 3.99 0 2.348 1.49 4.038 3.726 4.038zm7.733-9.484h3.028l2.841 7.794h.047l2.795-7.794h3.028v10.94h-1.957v-8.78h-.046l-3.308 8.78h-1.304l-3.261-8.78h-.047v8.78h-1.863v-10.94h.047zm14.114 0h1.957v4.413h5.077v-4.413h1.91v10.94h-1.91v-4.836h-5.077v4.836h-1.957v-10.94zm14.72 0h1.677l4.659 10.94h-2.19l-1.024-2.489h-4.705l-.979 2.489h-2.142l4.704-10.94zm2.469 6.761l-1.677-4.46-1.723 4.46h3.4zm6.242-5.071h-3.307v-1.69h8.571v1.69h-3.307v9.25h-1.957v-9.25zm8.991-1.69h1.677l4.658 10.94h-2.19l-1.024-2.489h-4.705l-.978 2.489h-2.143l4.705-10.94zm2.469 6.761l-1.678-4.46-1.723 4.46h3.401zm-44.347 29.299c-.326-.422-1.77-.282-2.981.564-.186.14-.326.187-.419-.048-.373-1.032.186-1.784 1.024-2.253 3.587-2.066 5.124-4.414 4.472-5.259-.652-.798-3.913.892-5.729 3.193-.14.188-.326.14-.373-.094-.186-.61.093-1.737.978-2.583.978-.939 2.329-1.596 3.447-1.737 1.072-.14 1.771 0 2.376.845.559.798.652 1.926-.093 3.193-.606 1.08-2.003 2.254-3.54 3.24.559-.047 1.117.141 1.49.47.326.328.513.704.606 1.173 1.118-.563 2.096-1.643 2.841-3.098.094-.188.327-.235.42 0 .093.187 0 .845-.326 1.502-.56 1.033-1.91 1.831-2.935 2.3 0 2.583-2.469 6.198-4.006 7.044-.466.282-.978.422-1.584-.329-.513-.61-1.118-1.455-.559-2.817.885-2.066 2.841-3.24 4.891-4.085.233-.47.186-.94 0-1.221zm-3.819 7.325c.419.516 2.934-2.864 3.726-5.306-3.168 1.831-4.192 4.742-3.726 5.306z"/><path d="M126.845 39.34c.233-.329.419-.376.559-.14.373.422.559 1.455-.046 2.676-.513 1.08-1.724 2.864-2.283 4.178-.605 1.362-.605 2.395.186 2.348.978-.047 2.283-1.69 3.121-3.334.14-.234.28-.234.373-.047.093.235.093.799-.233 1.503-.605 1.314-2.143 2.63-3.447 2.582-1.304-.094-1.957-.845-1.957-1.972-.745.986-1.816 1.878-2.981 1.878-2.236 0-2.655-3.052-.698-5.963 1.956-2.817 3.819-3.944 5.031-3.944 1.024 0 1.49.798 1.443 1.737.373-.61.652-1.126.932-1.502zm-1.91.986c-.745-.094-2.515 1.502-3.82 3.615-1.257 2.066-1.583 4.18-.652 4.226.979.047 2.236-1.502 3.447-3.615 1.491-2.63 1.724-4.132 1.025-4.226z"/><path d="M128.103 48.778c-.093.234-.233.328-.466.094-.466-.47-.605-1.268-.233-2.489.466-1.503 2.329-4.883 3.82-7.09.186-.282.372-.235.512 0 .373.61.466 1.643 0 2.442-1.024 1.784-2.608 4.742-3.633 7.043zm5.916-4.977c-1.258.61-5.869 1.314-5.869 1.314-.699.141-.466-.892.326-1.08 0 0 4.611-.657 5.729-1.314l-.186 1.08zm-1.677 1.69c.606-1.737 2.189-4.601 3.074-5.87.233-.28.373-.375.56-.14.372.376.558 1.409-.047 2.63-.513 1.08-1.491 2.676-2.003 3.897-.559 1.408-.513 2.347.233 2.3 1.071-.047 2.375-1.643 3.121-3.286.139-.235.279-.188.372 0 .187.375.14.892-.186 1.502-.699 1.502-2.236 2.488-3.54 2.488-1.817 0-2.236-1.549-1.584-3.521z"/><path d="M144.64 43.754c-.513 2.066-2.003 4.46-3.774 5.07-.838.282-2.049.188-3.028-1.08-1.071-1.408-.698-3.474.373-5.4.885-1.642 2.376-3.051 3.774-3.145.745-.047 1.164.188 1.63.798.559.751 1.258.892 1.118 2.63-.047.187-.047.375-.047.563.14 0 .28-.047.466-.047s.186.141.093.235c-.093.282-.372.376-.605.376zm-2.003-.564c-.513-.376-1.072-1.22-1.118-2.113-.653.563-1.351 1.362-1.817 2.254-1.025 1.831-1.351 4.038-.745 4.554.652.564 2.142-.281 3.307-2.488.373-.657.652-1.362.838-1.925a3.983 3.983 0 01-.465-.282zm.791-2.16c-.139-.751-.605-.61-.698.094-.14.658.139 1.362.512 1.69.186-.75.279-1.361.186-1.784zm3.727.141c-.745.094-1.304.047-1.444-.094-.233-.14-.14-.329.093-.375 1.538-.47 3.168-1.315 4.892-2.77.046 0 1.024-.095 1.071-.048-.047 0-2.888 2.912-4.612 3.287zm1.724-2.488c1.491-3.146 3.027-7.043 4.937-7.842.466-.187.932-.14 1.398.517.512.704.932 1.55.466 3.005-.699 2.16-2.748 3.615-5.124 4.554-.233.517-.466 1.127-.699 1.644.699-.705 1.537-1.221 2.422-1.221 2.189 0 2.189 3.24.932 5.916-1.444 3.052-2.655 3.71-3.96 3.71-1.63 0-2.935-1.128-2.935-3.381.094-1.456.746-2.583 2.563-6.902zm-.326 9.39c1.118-.093 2.375-1.643 3.353-3.756 1.026-2.207 1.072-4.179.14-4.226-.931-.047-2.236 1.456-3.354 3.616-1.257 2.347-1.024 4.413-.139 4.366zm6.195-15.87c-.326-.47-2.189 2.066-3.726 5.681 3.074-1.784 4.099-5.117 3.726-5.681zm7.36 11.551c-.512 2.066-2.003 4.46-3.773 5.07-.839.282-2.05.188-3.028-1.08-1.071-1.408-.699-3.474.373-5.4.885-1.642 2.375-3.051 3.773-3.145.745-.047 1.164.188 1.63.798.559.751 1.258.892 1.118 2.63-.046.187-.046.375-.046.563.14 0 .279-.047.466-.047.186 0 .186.141.093.235-.093.282-.326.376-.606.376zm-2.003-.564c-.512-.376-1.071-1.22-1.118-2.113-.652.563-1.351 1.362-1.817 2.254-1.024 1.831-1.351 4.038-.745 4.554.652.564 2.143-.281 3.307-2.488.373-.657.652-1.362.839-1.925-.187-.094-.326-.188-.466-.282zm.792-2.16c-.14-.751-.606-.61-.699.094-.14.658.14 1.362.512 1.69.187-.75.28-1.361.187-1.784zM58.462 27.555h1.025l2.236 5.54 2.236-5.54h1.025v6.667h-.652V28.4l-2.376 5.822h-.373L59.161 28.4v5.822h-.652v-6.667h-.047zm7.826 4.46c0-1.314.978-2.3 2.19-2.3 1.397 0 2.096.986 2.096 2.207v.281H66.94c0 .892.7 1.597 1.584 1.597.652 0 1.165-.376 1.398-.752l.466.376c-.513.657-1.165.939-1.864.939-1.258-.047-2.236-1.033-2.236-2.348zm3.68-.328c-.046-.846-.559-1.456-1.444-1.456-.838 0-1.49.704-1.537 1.456h2.981zm1.584.328c0-1.314.932-2.3 2.33-2.3.605 0 1.257.234 1.63.75l-.513.377c-.186-.33-.652-.564-1.118-.564-1.025 0-1.677.751-1.677 1.784 0 .986.652 1.785 1.677 1.785a1.5 1.5 0 001.211-.564l.466.376c-.373.47-.885.751-1.677.751-1.397-.094-2.329-1.08-2.329-2.395zm6.009-1.69h-1.584v-.517h3.82v.517h-1.584v3.897h-.652v-3.897zm2.749 1.69c0-1.314.978-2.3 2.329-2.3 1.35 0 2.329.986 2.329 2.3 0 1.315-.979 2.301-2.33 2.301-1.35 0-2.329-.986-2.329-2.3zm4.005 0c0-.986-.652-1.784-1.676-1.784-1.025 0-1.678.798-1.678 1.784s.653 1.785 1.678 1.785c1.024 0 1.676-.799 1.676-1.785zm2.05 3.522h-.512l.605-2.207h.652l-.745 2.207zm4.193-5.729h2.888v.517h-2.283v3.897h-.652v-4.414h.047zm3.121 3.851h.512c.373-.47.699-1.409.699-2.677v-1.174h3.167v3.85h.7v1.973h-.607v-1.456h-3.912v1.456h-.606v-1.972h.047zm3.726 0v-3.334h-1.91v.798c0 1.174-.279 1.925-.605 2.489h2.515v.047zm2.097-1.644c0-1.314.978-2.3 2.189-2.3 1.397 0 2.096.986 2.096 2.207v.281h-3.633c0 .892.698 1.597 1.584 1.597.652 0 1.164-.376 1.397-.752l.466.376c-.513.657-1.165.939-1.863.939-1.258-.047-2.236-1.033-2.236-2.348zm3.679-.328c-.046-.846-.558-1.456-1.443-1.456-.839 0-1.491.704-1.538 1.456h2.981zm5.683.234l-2.049-2.113h.932l1.909 2.066h.047v-2.066h.652v2.066h.047l1.909-2.066h.932l-2.049 2.113 2.282 2.301h-.932l-2.096-2.207h-.046v2.207h-.653v-2.207h-.046l-2.096 2.207h-.932l2.189-2.3zm5.357-2.113h.652v3.522l2.609-3.522h.699v4.414h-.606v-3.568l-2.608 3.568h-.699v-4.414h-.047zm4.938 3.662l.513-.375c.233.376.791.705 1.35.705.513 0 1.072-.188 1.072-.799 0-.563-.652-.798-1.305-.798h-.279v-.516h.279c.653 0 1.165-.235 1.165-.799 0-.47-.466-.657-1.025-.657-.466 0-.885.235-1.118.61l-.512-.375c.28-.517.932-.798 1.63-.798.932 0 1.631.422 1.631 1.173 0 .517-.373.892-.932 1.033.606.094 1.072.517 1.072 1.08 0 .846-.699 1.362-1.724 1.362-.745 0-1.397-.235-1.817-.845zm4.845-3.662h.652v1.832h2.516v-1.832h.652v4.414h-.652v-2.019h-2.516v2.019h-.652v-4.414zm5.403 0h.653v1.644h1.071c1.071 0 1.724.47 1.724 1.408 0 .892-.606 1.362-1.724 1.362h-1.724v-4.414zm1.77 3.85c.699 0 .979-.281.979-.798 0-.516-.28-.845-.979-.845h-1.117v1.644h1.117zm-72.761 5.588h.652v1.831h2.515v-1.83h.653v4.413h-.653v-2.02h-2.515v2.02h-.652v-4.414zm5.077 3.193c0-1.362 1.49-1.503 3.074-1.503v-.14c0-.752-.419-1.127-1.164-1.127-.512 0-.978.187-1.304.516l-.373-.422c.373-.376.979-.61 1.724-.61.931 0 1.723.516 1.723 1.595v1.926c0 .328.047.75.093.986h-.559c-.046-.235-.046-.47-.046-.705-.42.564-.885.845-1.584.845-.745-.046-1.584-.375-1.584-1.361zm3.074-.657v-.33h-.186c-1.024 0-2.236.095-2.236.94 0 .61.513.845 1.025.845.885 0 1.397-.704 1.397-1.455zm4.753.046c-.28.094-.84.188-1.305.188-1.072 0-1.49-.563-1.49-1.408v-1.362h.651v1.268c0 .798.373.939.979.939.466 0 .978-.094 1.117-.141v-2.066h.652v4.414h-.652v-1.832h.047zm2.235-2.582h.652v3.522l2.609-3.522h.698v4.414h-.651v-3.57l-2.61 3.569h-.698v-4.414zm5.544 0h.651v1.831h2.516v-1.83h.652v4.413h-.652v-2.02H79.75v2.02h-.65v-4.414zm5.031 3.193c0-1.362 1.49-1.503 3.074-1.503v-.14c0-.752-.42-1.127-1.165-1.127-.512 0-.978.187-1.304.516l-.373-.422c.373-.376.979-.61 1.724-.61.931 0 1.723.516 1.723 1.595v1.926c0 .328.047.75.094.986h-.56c-.046-.235-.046-.47-.046-.705-.42.564-.885.845-1.584.845-.745-.046-1.584-.375-1.584-1.361zm3.074-.657v-.33h-.187c-1.024 0-2.236.095-2.236.94 0 .61.513.845 1.025.845.932 0 1.398-.704 1.398-1.455zm1.863-.329c0-1.315.978-2.3 2.19-2.3 1.397 0 2.096.985 2.096 2.206v.282h-3.634c0 .892.699 1.596 1.584 1.596.652 0 1.164-.375 1.397-.751l.466.376c-.512.657-1.165.938-1.863.938-1.304-.046-2.236-1.032-2.236-2.347zm3.633-.329c-.046-.845-.559-1.455-1.444-1.455-.838 0-1.49.704-1.537 1.455H92.7zm2.842-1.361h-1.584v-.517h3.82v.517h-1.584v3.897h-.652v-3.897zm2.748 1.69c0-1.315.932-2.3 2.329-2.3.606 0 1.258.234 1.631.75l-.513.376c-.186-.329-.652-.563-1.118-.563-1.024 0-1.677.75-1.677 1.784 0 .986.653 1.784 1.677 1.784.559 0 .932-.235 1.212-.563l.466.375c-.373.47-.886.752-1.678.752-1.397-.094-2.329-1.08-2.329-2.395zm5.776.423c-.652-.141-1.071-.564-1.071-1.268 0-.892.652-1.362 1.677-1.362h1.863v4.414h-.652v-1.738h-1.164l-1.072 1.738h-.792l1.211-1.784zm1.864-.517v-1.596h-1.211c-.653 0-1.072.281-1.072.798 0 .516.373.798 1.072.798h1.211z"/></g><defs><clipPath id="clip0"><path fill="#fff" d="M0 0h163v56H0z"/></clipPath></defs></svg>