<svg width="472" height="500" fill="none" xmlns="http://www.w3.org/2000/svg"><path d="M.112 145.249V33.667L51.99 16.154 108.357.142h107.038c.758-.186 1.177-.193 1.206 0h-1.206c-10.603 2.599-87.382 40.215-82.596 55.541 5.127 16.42 27.934 24.018 37.91 27.52C180.686 86.706 293.122 101.495 345 108c51.878 6.505 123.173 44.5 126 121.812 2 54.688-18.069 85.922-54.483 131.956-52.711 59.792-110.664 82.146-187.046 111.609l-2.894 1.116c-28.278 10.91-51.88 18.514-80.313 25.019-67.341 0-149.672 1.098-146.155 0L.112 389.43s161.116-71.052 160.119-147.109C159.233 166.265.112 161.762.112 161.762v-16.513z" fill="#fff" fill-opacity=".15"/></svg>