<svg width="163" height="56" viewBox="0 0 163 56" fill="none" xmlns="http://www.w3.org/2000/svg">
<g clip-path="url(#clip0)">
<path d="M48.8665 3.74929C49.8449 2.81022 50.59 3.09194 52.0342 4.21884C55.7141 5.81524 54.8755 11.6844 52.6399 15.8163C50.3107 20.2769 46.5841 23.7515 42.5778 22.249C40.1556 21.3568 39.224 19.1031 39.224 16.6615C39.224 15.159 39.5501 13.7034 40.0625 12.3418C41.3201 12.3887 41.9725 13.7504 41.6461 15.206C40.9474 18.1171 41.3669 20.5586 42.6709 21.1221C44.6277 21.9672 48.1214 19.5726 50.59 14.9712C53.2919 9.99412 53.152 5.53352 51.5216 4.92312C50.4502 4.54748 50.4969 5.29876 48.2608 7.50556C47.5621 8.16292 47.0032 8.35072 46.4443 8.35072C45.9784 8.35072 45.7923 8.16292 45.9317 7.83424C46.7703 5.95612 47.5157 5.064 48.8665 3.74929ZM45.3728 16.145C44.7671 15.7694 44.4879 15.4407 44.348 15.206C44.1619 14.8303 44.2082 14.7364 44.7208 14.7364C45.1866 14.7834 45.5593 14.8303 45.9784 14.8303C47.9816 14.8773 49.4722 14.3138 51.4286 14.2199C53.385 14.079 50.3571 16.5206 50.3571 16.5206C48.2145 16.8024 46.817 17.0371 45.3728 16.145Z" fill="white"/>
<path d="M65.6363 17.5536C65.8225 17.131 66.1485 17.2718 66.1952 17.5536C66.2415 17.8353 66.335 18.5865 65.8225 19.5256C64.7046 21.5916 62.7015 22.5776 60.5585 22.7184C58.6489 22.8593 57.4376 22.5776 56.4128 21.6385C55.8072 21.075 55.4812 20.3708 55.3881 19.6664C53.9906 22.2489 52.5 25.2539 51.0558 28.5876C50.916 28.8693 50.7298 28.9163 50.5436 28.6346C50.0778 28.0242 49.938 27.179 50.4969 25.3478C51.3818 22.4367 56.3665 12.999 58.2294 10.5105C58.509 10.1349 58.7887 10.1818 58.9281 10.5575C59.068 10.9331 59.1147 11.4026 59.1147 11.9191C60.4191 10.7922 62.1426 9.94708 63.447 11.3087C64.8441 12.8112 64.1921 15.4876 63.1206 17.9292C62.2357 19.9012 61.1642 21.3098 59.9996 22.0141C62.9344 21.7324 64.7046 19.5726 65.6363 17.5536ZM57.0185 20.9812C57.9501 21.7324 59.9065 19.5726 61.2573 16.7084C62.4218 14.3138 62.7482 11.8722 62.0028 11.4965C61.304 11.1209 59.4407 12.6234 58.09 14.9242C57.7636 15.4406 57.4376 16.0041 57.0652 16.6145C56.3197 18.4926 56.1799 20.2768 57.0185 20.9812Z" fill="white"/>
<path d="M71.925 10.3695C72.903 10.5104 73.8346 11.9659 73.0896 13.5154C72.4839 14.8301 71.0397 17.0369 70.3409 18.5864C69.5959 20.3237 69.7353 21.7323 70.8068 21.6384C72.0181 21.5914 73.4619 19.6194 74.5801 17.5064C74.7196 17.2247 74.9525 17.2247 75.0923 17.4595C75.2789 17.7882 75.2321 18.4925 74.813 19.3376C74.0208 21.028 72.1579 22.5305 70.434 22.5305C67.9187 22.5305 67.3131 20.6993 68.1984 18.1168C69.1764 15.2057 71.6921 12.3416 71.1328 12.1068C70.8535 11.9659 68.3378 12.8111 66.4282 14.924C65.5896 15.7222 66.0554 13.891 66.3814 13.5624C67.7325 12.1538 70.9466 10.1817 71.925 10.3695Z" fill="white"/>
<path d="M83.5239 16.0041C82.9182 18.5396 81.0549 21.5446 78.8656 22.2959C77.7941 22.6715 76.3036 22.5306 75.139 20.9811C73.8346 19.2439 74.3004 16.6614 75.6048 14.2668C76.7226 12.2478 78.5396 10.5105 80.3094 10.4166C81.2411 10.3697 81.7069 10.6044 82.3126 11.4496C83.0113 12.3887 83.8962 12.5765 83.7101 14.7363C83.6633 14.9711 83.6633 15.2059 83.6633 15.4406C83.8499 15.4406 84.0361 15.3937 84.269 15.3937C84.4555 15.3937 84.4555 15.5345 84.3621 15.6754C84.1291 15.8632 83.8031 15.9571 83.5239 16.0041ZM81.0082 15.2528C80.4025 14.7833 79.6574 13.7503 79.6574 12.6234C78.8656 13.3277 77.9803 14.3137 77.375 15.4406C76.117 17.6944 75.6979 20.4647 76.4434 21.0751C77.2816 21.7794 79.0518 20.6994 80.5423 17.9761C81.0082 17.131 81.3342 16.2858 81.5671 15.5815C81.3809 15.5345 81.1947 15.3937 81.0082 15.2528ZM82.0329 12.6234C81.8935 11.6843 81.2878 11.8722 81.148 12.7173C81.0082 13.5155 81.3342 14.4077 81.8 14.8303C82.0329 13.8912 82.1264 13.1399 82.0329 12.6234Z" fill="white"/>
<path d="M7.64105 3.93697C6.98889 3.18572 7.26839 1.91797 8.24663 1.02585C9.22487 0.180692 10.5291 0.086785 11.1813 0.791086C11.8335 1.54235 11.554 2.81009 10.5757 3.70221C9.55095 4.59431 8.24663 4.68823 7.64105 3.93697Z" fill="white"/>
<path d="M8.99185 6.37908C13.1377 7.59988 22.687 12.2952 16.7711 10.8397C10.4359 9.33716 9.73717 9.14936 10.0633 14.7838C10.1098 15.629 10.203 16.568 10.2962 17.5071C10.3893 18.3992 11.7868 24.9258 12.4389 28.2594H11.7402C10.3427 24.7379 7.92044 18.1644 7.73411 19.1035C7.50124 20.2774 9.31793 25.677 10.2496 28.3064H9.87692C3.26223 17.2254 4.56652 10.8397 3.82122 7.2712C3.72805 6.75472 2.70324 6.33216 1.11944 4.03144C0.14121 2.57586 0.0014631 0.32209 0.0014631 0.32209C-0.045119 -1.36824 0.97969 4.03144 8.99185 6.37908Z" fill="white"/>
<path fill-rule="evenodd" clip-rule="evenodd" d="M21.1034 4.87596V8.35052H26.6001V4.87596H27.7181L25.8082 2.85697L23.8518 0.791016L21.8953 2.85697L19.9388 4.87596H21.1034Z" fill="white"/>
<path d="M31.398 16.7084C31.3514 16.7084 31.3049 16.7084 31.2583 16.7084C27.0193 16.3328 22.1747 15.6754 29.954 13.1869C40.4351 9.80623 32.0968 8.49151 27.7646 8.30371V8.39759C31.0719 8.86715 36.0563 10.1818 25.9479 13.4686C25.2958 13.7034 23.7119 14.1259 22.1747 14.6424C17.7494 16.1919 17.237 17.9292 21.8952 18.2578C27.0193 18.5865 29.1621 21.169 22.0816 24.6905C19.3798 26.193 15.8396 27.5077 12.7185 28.4467C12.7185 28.4467 22.2213 29.8553 29.8142 26.5686C36.8016 23.7983 36.8948 17.3188 31.398 16.7084Z" fill="white"/>
<path d="M86.9241 11.2617H88.8341V16.004H88.8805L93.3989 11.2617H96.0077L90.9304 16.3327L96.3337 22.2019H93.6319L88.8805 16.7083H88.8341V22.2019H86.9241V11.2617Z" fill="white"/>
<path d="M102.157 10.9801C105.557 10.9801 108.026 13.1869 108.026 16.7084C108.026 20.136 105.557 22.4837 102.157 22.4837C98.8027 22.4837 96.3337 20.136 96.3337 16.7084C96.3805 13.1869 98.8491 10.9801 102.157 10.9801ZM102.203 20.7464C104.439 20.7464 105.93 19.0561 105.93 16.7084C105.93 14.4546 104.439 12.7174 102.203 12.7174C99.9673 12.7174 98.4767 14.4546 98.4767 16.7084C98.4767 19.0561 99.9673 20.7464 102.203 20.7464Z" fill="white"/>
<path d="M109.936 11.2617H112.964L115.805 19.056H115.852L118.647 11.2617H121.675V22.2019H119.718V13.4216H119.672L116.364 22.2019H115.06L111.799 13.4216H111.752V22.2019H109.889V11.2617H109.936Z" fill="white"/>
<path d="M124.05 11.2617H126.007V15.6754H131.084V11.2617H132.994V22.2019H131.084V17.3657H126.007V22.2019H124.05V11.2617Z" fill="white"/>
<path d="M138.77 11.2617H140.447L145.106 22.2019H142.916L141.892 19.7134H137.187L136.208 22.2019H134.066L138.77 11.2617ZM141.239 18.023L139.562 13.5624L137.839 18.023H141.239Z" fill="white"/>
<path d="M147.481 12.952H144.174V11.2617H152.745V12.952H149.438V22.2019H147.481V12.952Z" fill="white"/>
<path d="M156.472 11.2617H158.149L162.807 22.2019H160.617L159.593 19.7134H154.888L153.91 22.2019H151.767L156.472 11.2617ZM158.941 18.023L157.263 13.5624L155.54 18.023H158.941Z" fill="white"/>
<path d="M114.594 47.322C114.268 46.8996 112.824 47.0404 111.613 47.8856C111.427 48.0264 111.287 48.0732 111.194 47.8384C110.821 46.8056 111.38 46.0544 112.218 45.5848C115.805 43.5188 117.342 41.1712 116.69 40.326C116.038 39.5278 112.777 41.218 110.961 43.5188C110.821 43.7068 110.635 43.6596 110.588 43.4248C110.402 42.8144 110.681 41.6876 111.566 40.8424C112.544 39.9034 113.895 39.2461 115.013 39.1052C116.085 38.9644 116.784 39.1052 117.389 39.9504C117.948 40.7484 118.041 41.8756 117.296 43.1432C116.69 44.2232 115.293 45.3968 113.756 46.3828C114.315 46.336 114.873 46.524 115.246 46.8524C115.572 47.1812 115.759 47.5568 115.852 48.0264C116.97 47.4628 117.948 46.3828 118.693 44.9276C118.787 44.7396 119.02 44.6928 119.113 44.9276C119.206 45.1152 119.113 45.7728 118.787 46.43C118.227 47.4628 116.877 48.2612 115.852 48.7308C115.852 51.3132 113.383 54.9284 111.846 55.7736C111.38 56.0556 110.868 56.1964 110.262 55.4452C109.749 54.8348 109.144 53.9896 109.703 52.628C110.588 50.562 112.544 49.388 114.594 48.5428C114.827 48.0732 114.78 47.6036 114.594 47.322ZM110.775 54.6468C111.194 55.1632 113.709 51.7828 114.501 49.3412C111.333 51.1724 110.309 54.0832 110.775 54.6468Z" fill="white"/>
<path d="M126.845 39.3399C127.078 39.0113 127.264 38.9643 127.404 39.1991C127.777 39.6216 127.963 40.6548 127.358 41.8756C126.845 42.9552 125.634 44.7396 125.075 46.0544C124.47 47.416 124.47 48.4488 125.261 48.402C126.239 48.3552 127.544 46.7116 128.382 45.0684C128.522 44.8336 128.662 44.8336 128.755 45.0212C128.848 45.256 128.848 45.8196 128.522 46.524C127.917 47.8384 126.379 49.1532 125.075 49.1064C123.771 49.0124 123.118 48.2612 123.118 47.1344C122.373 48.1204 121.302 49.0124 120.137 49.0124C117.901 49.0124 117.482 45.9604 119.439 43.0492C121.395 40.232 123.258 39.1052 124.47 39.1052C125.494 39.1052 125.96 39.9034 125.913 40.8424C126.286 40.232 126.565 39.7156 126.845 39.3399ZM124.935 40.326C124.19 40.232 122.42 41.8284 121.115 43.9412C119.858 46.0072 119.532 48.1204 120.463 48.1672C121.442 48.214 122.699 46.6648 123.91 44.5516C125.401 41.9224 125.634 40.42 124.935 40.326Z" fill="white"/>
<path d="M128.103 48.7776C128.01 49.0124 127.87 49.1064 127.637 48.8716C127.171 48.402 127.032 47.604 127.404 46.3832C127.87 44.8804 129.733 41.5 131.224 39.2931C131.41 39.0114 131.596 39.0583 131.736 39.2931C132.109 39.9035 132.202 40.9364 131.736 41.7348C130.712 43.5188 129.128 46.4768 128.103 48.7776ZM134.019 43.8008C132.761 44.4112 128.15 45.1152 128.15 45.1152C127.451 45.256 127.684 44.2232 128.476 44.0356C128.476 44.0356 133.087 43.378 134.205 42.7208L134.019 43.8008ZM132.342 45.4908C132.948 43.7536 134.531 40.8896 135.416 39.6218C135.649 39.3401 135.789 39.2462 135.976 39.4809C136.348 39.8566 136.534 40.8896 135.929 42.1104C135.416 43.1904 134.438 44.7868 133.926 46.0076C133.367 47.416 133.413 48.3552 134.159 48.308C135.23 48.2612 136.534 46.6648 137.28 45.0216C137.419 44.7868 137.559 44.8336 137.652 45.0216C137.839 45.3972 137.792 45.9136 137.466 46.524C136.767 48.0264 135.23 49.0124 133.926 49.0124C132.109 49.0124 131.69 47.4632 132.342 45.4908Z" fill="white"/>
<path d="M144.64 43.7536C144.127 45.8196 142.637 48.214 140.866 48.8244C140.028 49.106 138.817 49.0124 137.838 47.7444C136.767 46.336 137.14 44.27 138.211 42.3448C139.096 40.7016 140.587 39.2929 141.985 39.199C142.73 39.152 143.149 39.3868 143.615 39.9972C144.174 40.7484 144.873 40.8892 144.733 42.6264C144.686 42.8144 144.686 43.0024 144.686 43.19C144.826 43.19 144.966 43.1432 145.152 43.1432C145.338 43.1432 145.338 43.284 145.245 43.378C145.152 43.6596 144.873 43.7536 144.64 43.7536ZM142.637 43.19C142.124 42.8144 141.565 41.9692 141.519 41.0772C140.866 41.6404 140.168 42.4388 139.702 43.3308C138.677 45.162 138.351 47.3688 138.957 47.8852C139.609 48.4488 141.099 47.6036 142.264 45.3968C142.637 44.7396 142.916 44.0352 143.102 43.4716C142.916 43.378 142.776 43.284 142.637 43.19ZM143.428 41.03C143.289 40.2788 142.823 40.4196 142.73 41.124C142.59 41.7816 142.869 42.4856 143.242 42.8144C143.428 42.0632 143.521 41.4528 143.428 41.03Z" fill="white"/>
<path d="M147.155 41.1712C146.41 41.2652 145.851 41.218 145.711 41.0772C145.478 40.9364 145.571 40.7484 145.804 40.7016C147.342 40.232 148.972 39.3869 150.696 37.9314C150.742 37.9314 151.72 37.8374 151.767 37.8844C151.72 37.8844 148.879 40.7956 147.155 41.1712ZM148.879 38.6826C150.37 35.5367 151.906 31.6396 153.816 30.8414C154.282 30.6536 154.748 30.7005 155.214 31.3579C155.726 32.0622 156.146 32.9073 155.68 34.3629C154.981 36.5228 152.932 37.9783 150.556 38.9174C150.323 39.4339 150.09 40.0444 149.857 40.5608C150.556 39.8564 151.394 39.34 152.279 39.34C154.468 39.34 154.468 42.5796 153.211 45.256C151.767 48.308 150.556 48.9656 149.251 48.9656C147.621 48.9656 146.316 47.8384 146.316 45.5848C146.41 44.1292 147.062 43.0024 148.879 38.6826ZM148.553 48.0732C149.671 47.9796 150.928 46.43 151.906 44.3172C152.932 42.1104 152.978 40.138 152.046 40.0912C151.115 40.0444 149.81 41.5468 148.692 43.7068C147.435 46.0544 147.668 48.1204 148.553 48.0732ZM154.748 32.203C154.422 31.7335 152.559 34.269 151.022 37.8844C154.096 36.1002 155.121 32.7665 154.748 32.203Z" fill="white"/>
<path d="M162.108 43.7536C161.596 45.8196 160.105 48.214 158.335 48.8244C157.496 49.106 156.285 49.0124 155.307 47.7444C154.236 46.336 154.608 44.27 155.68 42.3448C156.565 40.7016 158.055 39.2929 159.453 39.199C160.198 39.152 160.617 39.3868 161.083 39.9972C161.642 40.7484 162.341 40.8892 162.201 42.6264C162.155 42.8144 162.155 43.0024 162.155 43.19C162.295 43.19 162.434 43.1432 162.621 43.1432C162.807 43.1432 162.807 43.284 162.714 43.378C162.621 43.6596 162.388 43.7536 162.108 43.7536ZM160.105 43.19C159.593 42.8144 159.034 41.9692 158.987 41.0772C158.335 41.6404 157.636 42.4388 157.17 43.3308C156.146 45.162 155.819 47.3688 156.425 47.8852C157.077 48.4488 158.568 47.6036 159.732 45.3968C160.105 44.7396 160.384 44.0352 160.571 43.4716C160.384 43.378 160.245 43.284 160.105 43.19ZM160.897 41.03C160.757 40.2788 160.291 40.4196 160.198 41.124C160.058 41.7816 160.338 42.4856 160.71 42.8144C160.897 42.0632 160.99 41.4528 160.897 41.03Z" fill="white"/>
<path d="M58.4623 27.5547H59.487L61.7231 33.0952L63.9591 27.5547H64.9839V34.2221H64.3319V28.3998L61.956 34.2221H61.5832L59.161 28.3998V34.2221H58.509V27.5547H58.4623Z" fill="white"/>
<path d="M66.2883 32.0154C66.2883 30.7007 67.2663 29.7146 68.4776 29.7146C69.8751 29.7146 70.5739 30.7007 70.5739 31.9215C70.5739 32.0154 70.5739 32.1093 70.5739 32.2032H66.9403C66.9403 33.0953 67.6391 33.7996 68.5244 33.7996C69.1764 33.7996 69.689 33.424 69.9219 33.0484L70.3877 33.424C69.8751 34.0813 69.2231 34.363 68.5244 34.363C67.2663 34.3161 66.2883 33.3301 66.2883 32.0154ZM69.9682 31.6867C69.9219 30.8415 69.4093 30.2311 68.5244 30.2311C67.6858 30.2311 67.0334 30.9354 66.9871 31.6867H69.9682Z" fill="white"/>
<path d="M71.5522 32.0154C71.5522 30.7007 72.4839 29.7146 73.8814 29.7146C74.4866 29.7146 75.139 29.9494 75.5114 30.4659L74.9992 30.8415C74.813 30.5128 74.3472 30.2781 73.8814 30.2781C72.8562 30.2781 72.2042 31.0294 72.2042 32.0623C72.2042 33.0484 72.8562 33.8466 73.8814 33.8466C74.4403 33.8466 74.813 33.6118 75.0923 33.2831L75.5581 33.6588C75.1854 34.1283 74.6732 34.41 73.8814 34.41C72.4839 34.3161 71.5522 33.3301 71.5522 32.0154Z" fill="white"/>
<path d="M77.5612 30.3249H75.9775V29.8084H79.7972V30.3249H78.2132V34.222H77.5612V30.3249Z" fill="white"/>
<path d="M80.3094 32.0154C80.3094 30.7007 81.2879 29.7146 82.6386 29.7146C83.9893 29.7146 84.9677 30.7007 84.9677 32.0154C84.9677 33.3301 83.9893 34.3161 82.6386 34.3161C81.2879 34.3161 80.3094 33.3301 80.3094 32.0154ZM84.3153 32.0154C84.3153 31.0294 83.6633 30.2311 82.6386 30.2311C81.6139 30.2311 80.9614 31.0294 80.9614 32.0154C80.9614 33.0014 81.6139 33.7996 82.6386 33.7996C83.6633 33.7996 84.3153 33.0014 84.3153 32.0154Z" fill="white"/>
<path d="M86.3652 35.5369H85.8527L86.4583 33.3301H87.1103L86.3652 35.5369Z" fill="white"/>
<path d="M90.5577 29.8084H93.4458V30.3249H91.1634V34.222H90.511V29.8084H90.5577Z" fill="white"/>
<path d="M93.6787 33.6586H94.1913C94.5636 33.189 94.89 32.25 94.89 30.9822V29.8084H98.0573V33.6586H98.7561V35.6306H98.1504V34.1751H94.2376V35.6306H93.632V33.6586H93.6787ZM97.4053 33.6586V30.3249H95.4953V31.1231C95.4953 32.2969 95.216 33.0482 94.89 33.6116H97.4053V33.6586Z" fill="white"/>
<path d="M99.5016 32.0154C99.5016 30.7007 100.48 29.7146 101.691 29.7146C103.088 29.7146 103.787 30.7007 103.787 31.9215C103.787 32.0154 103.787 32.1093 103.787 32.2032H100.154C100.154 33.0953 100.852 33.7996 101.738 33.7996C102.39 33.7996 102.902 33.424 103.135 33.0484L103.601 33.424C103.088 34.0813 102.436 34.363 101.738 34.363C100.48 34.3161 99.5016 33.3301 99.5016 32.0154ZM103.181 31.6867C103.135 30.8415 102.623 30.2311 101.738 30.2311C100.899 30.2311 100.247 30.9354 100.2 31.6867H103.181Z" fill="white"/>
<path d="M108.864 31.9213L106.815 29.8084H107.747L109.656 31.8744H109.703V29.8084H110.355V31.8744H110.402L112.311 29.8084H113.243L111.194 31.9213L113.476 34.222H112.544L110.448 32.0152H110.402V34.222H109.749V32.0152H109.703L107.607 34.222H106.675L108.864 31.9213Z" fill="white"/>
<path d="M114.221 29.8084H114.873V33.3299L117.482 29.8084H118.181V34.222H117.575V30.6536L114.967 34.222H114.268V29.8084H114.221Z" fill="white"/>
<path d="M119.159 33.4708L119.672 33.0952C119.905 33.4708 120.463 33.7995 121.022 33.7995C121.535 33.7995 122.094 33.6117 122.094 33.0013C122.094 32.4378 121.442 32.2031 120.789 32.2031H120.51V31.6866H120.789C121.442 31.6866 121.954 31.4518 121.954 30.8884C121.954 30.4189 121.488 30.231 120.929 30.231C120.463 30.231 120.044 30.4658 119.811 30.8414L119.299 30.4658C119.579 29.9493 120.231 29.6676 120.929 29.6676C121.861 29.6676 122.56 30.0902 122.56 30.8414C122.56 31.3579 122.187 31.7335 121.628 31.8744C122.234 31.9683 122.7 32.3909 122.7 32.9543C122.7 33.7995 122.001 34.316 120.976 34.316C120.231 34.316 119.579 34.0812 119.159 33.4708Z" fill="white"/>
<path d="M124.004 29.8084H124.656V31.6396H127.172V29.8084H127.824V34.222H127.172V32.203H124.656V34.222H124.004V29.8084Z" fill="white"/>
<path d="M129.407 29.8084H130.06V31.4518H131.131C132.202 31.4518 132.855 31.9213 132.855 32.8604C132.855 33.7525 132.249 34.222 131.131 34.222H129.407V29.8084ZM131.177 33.6586C131.876 33.6586 132.156 33.3769 132.156 32.8604C132.156 32.3439 131.876 32.0152 131.177 32.0152H130.06V33.6586H131.177Z" fill="white"/>
<path d="M58.4159 39.2461H59.0679V41.0772H61.5832V39.2461H62.2356V43.6596H61.5832V41.6408H59.0679V43.6596H58.4159V39.2461Z" fill="white"/>
<path d="M63.4933 42.4388C63.4933 41.0772 64.9839 40.9364 66.5675 40.9364V40.7956C66.5675 40.0444 66.1484 39.6686 65.4033 39.6686C64.8908 39.6686 64.4249 39.8564 64.0989 40.1852L63.7262 39.7626C64.0989 39.3869 64.7046 39.1522 65.4497 39.1522C66.3813 39.1522 67.1732 39.6686 67.1732 40.7484V42.6736C67.1732 43.0024 67.2199 43.4248 67.2663 43.6596H66.7073C66.661 43.4248 66.661 43.19 66.661 42.9552C66.2415 43.5188 65.7757 43.8004 65.0769 43.8004C64.3319 43.7536 63.4933 43.4248 63.4933 42.4388ZM66.5675 41.7816V41.4528H66.3813C65.3566 41.4528 64.1453 41.5468 64.1453 42.392C64.1453 43.0024 64.6579 43.2372 65.1704 43.2372C66.0553 43.2372 66.5675 42.5328 66.5675 41.7816Z" fill="white"/>
<path d="M71.3193 41.8284C71.0396 41.9224 70.4807 42.0164 70.0149 42.0164C68.9434 42.0164 68.5243 41.4528 68.5243 40.6076V39.2461H69.1763V40.514C69.1763 41.312 69.549 41.4528 70.1547 41.4528C70.6205 41.4528 71.1327 41.3592 71.2725 41.312V39.2461H71.9245V43.6596H71.2725V41.8284H71.3193Z" fill="white"/>
<path d="M73.5549 39.2461H74.2073V42.7676L76.8157 39.2461H77.5145V43.6596H76.8625V40.0912L74.2537 43.6596H73.5549V39.2461Z" fill="white"/>
<path d="M79.0985 39.2461H79.7505V41.0772H82.2658V39.2461H82.9182V43.6596H82.2658V41.6408H79.7505V43.6596H79.0985V39.2461Z" fill="white"/>
<path d="M84.1292 42.4388C84.1292 41.0772 85.6197 40.9364 87.2038 40.9364V40.7956C87.2038 40.0444 86.7843 39.6686 86.0392 39.6686C85.5266 39.6686 85.0608 39.8564 84.7348 40.1852L84.3621 39.7626C84.7348 39.3869 85.3405 39.1522 86.0856 39.1522C87.0172 39.1522 87.809 39.6686 87.809 40.7484V42.6736C87.809 43.0024 87.8558 43.4248 87.9025 43.6596H87.3432C87.2969 43.4248 87.2969 43.19 87.2969 42.9552C86.8774 43.5188 86.4116 43.8004 85.7128 43.8004C84.9677 43.7536 84.1292 43.4248 84.1292 42.4388ZM87.2038 41.7816V41.4528H87.0172C85.9925 41.4528 84.7812 41.5468 84.7812 42.392C84.7812 43.0024 85.2937 43.2372 85.8063 43.2372C86.738 43.2372 87.2038 42.5328 87.2038 41.7816Z" fill="white"/>
<path d="M89.0671 41.4528C89.0671 40.138 90.0451 39.1522 91.2564 39.1522C92.6539 39.1522 93.3527 40.138 93.3527 41.3588C93.3527 41.4528 93.3527 41.5468 93.3527 41.6408H89.7191C89.7191 42.5328 90.4179 43.2372 91.3028 43.2372C91.9552 43.2372 92.4674 42.8616 92.7003 42.486L93.1661 42.8616C92.6539 43.5188 92.0015 43.8004 91.3028 43.8004C89.9988 43.7536 89.0671 42.7676 89.0671 41.4528ZM92.7003 41.124C92.6539 40.2792 92.1414 39.6686 91.2564 39.6686C90.4179 39.6686 89.7659 40.3728 89.7191 41.124H92.7003Z" fill="white"/>
<path d="M95.542 39.7626H93.9584V39.2461H97.7781V39.7626H96.194V43.6596H95.542V39.7626Z" fill="white"/>
<path d="M98.2903 41.4528C98.2903 40.138 99.2219 39.1522 100.619 39.1522C101.225 39.1522 101.877 39.3869 102.25 39.9034L101.737 40.2792C101.551 39.9504 101.085 39.7156 100.619 39.7156C99.5947 39.7156 98.9423 40.4668 98.9423 41.5C98.9423 42.486 99.5947 43.284 100.619 43.284C101.178 43.284 101.551 43.0492 101.831 42.7208L102.297 43.0964C101.924 43.5656 101.411 43.8476 100.619 43.8476C99.2219 43.7536 98.2903 42.7676 98.2903 41.4528Z" fill="white"/>
<path d="M104.066 41.8756C103.414 41.7348 102.995 41.312 102.995 40.6076C102.995 39.7156 103.647 39.2461 104.672 39.2461H106.535V43.6596H105.883V41.9224H104.719L103.647 43.6596H102.855L104.066 41.8756ZM105.93 41.3592V39.7626H104.719C104.066 39.7626 103.647 40.0444 103.647 40.5608C103.647 41.0772 104.02 41.3592 104.719 41.3592H105.93Z" fill="white"/>
</g>
<defs>
<clipPath id="clip0">
<rect width="163" height="56" fill="white"/>
</clipPath>
</defs>
</svg>
