<svg width="471" height="500" viewBox="0 0 471 500" fill="none" xmlns="http://www.w3.org/2000/svg">
<path d="M0.111969 145.249V33.6667L51.9897 16.1537L108.357 0.141833H215.395C216.153 -0.0437812 216.572 -0.0507424 216.601 0.141833H215.395C204.792 2.74051 128.013 40.3573 132.799 55.683C137.926 72.1033 160.733 79.7007 170.709 83.2033C180.686 86.7059 291.923 103.218 343.8 109.723C395.678 116.228 462.907 145.249 471 229.812C459.415 311.731 452.931 315.734 416.517 361.768C363.806 421.56 305.854 443.914 229.471 473.377L226.577 474.493C198.299 485.403 174.697 493.007 146.264 499.512C78.9228 499.512 -3.40814 500.61 0.108951 499.512L0.111969 389.43C0.111969 389.43 161.228 318.378 160.231 242.321C159.233 166.265 0.111969 161.762 0.111969 161.762V145.249Z" fill="white" fill-opacity="0.15"/>
</svg>
