<svg width="697" height="337" viewBox="0 0 697 337" fill="none" xmlns="http://www.w3.org/2000/svg">
<path d="M473.284 243.297L438.826 229.025L447.132 336.488H476.087L473.284 243.297Z" fill="#27AAE1"/>
<path opacity="0.3" d="M473.284 243.374V243.297L466.624 241.754C466.495 241.728 466.367 241.702 466.238 241.677L465.081 241.394C464.772 241.317 464.464 241.24 464.155 241.188L463.898 241.137C456.003 239.285 445.975 236.971 445.975 236.971C447.517 243.271 448.932 249.597 450.578 255.871C454.306 269.912 456.312 283.412 457.726 297.89C458.986 310.824 460.864 323.682 462.869 336.539H475.907C475.675 327.873 475.418 319.182 475.187 310.516C474.544 288.092 473.927 265.746 473.284 243.374Z" fill="#1D80A9"/>
<path d="M444.74 224.165L445.1 236.739L459.784 261.22L468.887 336.488H508.616L510.879 287.372L511.985 284.492C518.722 266.775 518.645 247.205 511.779 229.539L444.74 224.165Z" fill="#27AAE1"/>
<g opacity="0.3">
<path opacity="0.3" d="M516.948 254.38C516.948 254.303 516.948 254.226 516.948 254.123C516.691 247.874 515.662 241.677 513.888 235.685C513.862 235.557 513.811 235.428 513.785 235.325C513.631 234.811 513.476 234.322 513.322 233.808C513.271 233.628 513.219 233.474 513.168 233.294C513.014 232.831 512.859 232.342 512.679 231.879C512.628 231.725 512.576 231.545 512.499 231.391C512.268 230.774 512.036 230.156 511.805 229.539L490.822 227.868L482.258 227.173C481.718 228.048 481.256 228.948 480.921 229.951C480.51 231.159 480.278 232.496 480.69 233.731C481.384 235.711 483.518 236.714 485.267 237.897C491.722 242.371 493.162 250.805 493.573 258.109C494.01 265.823 495.604 274.643 491.876 281.818C491.079 283.335 490.076 284.878 490.076 286.601C490.076 287.784 490.539 288.889 490.976 289.969C495.244 300.77 496.376 312.521 497.482 324.093C497.867 328.208 498.253 332.399 498.022 336.539H508.642L510.905 287.424L512.011 284.544C512.731 282.615 513.374 280.686 513.965 278.732C514.016 278.475 514.042 278.243 514.094 277.986C515.122 273.126 516.331 268.472 516.768 263.509C516.794 263.2 516.819 262.866 516.845 262.557C516.871 261.992 516.922 261.426 516.948 260.86C516.948 260.783 516.948 260.706 516.974 260.603C516.999 259.934 517.025 259.266 517.025 258.597C517.025 258.469 517.025 258.366 517.025 258.237C517.025 257.671 517.025 257.106 517.025 256.566C517.025 256.437 517.025 256.308 517.025 256.18C516.974 255.537 516.974 254.946 516.948 254.38Z" fill="#1D80A9"/>
</g>
<path d="M383.719 117.679L393.002 102.559L448.546 162.14L426.534 161.652L383.719 117.679Z" fill="white"/>
<path d="M514.916 64.1149C511.033 55.6289 510.339 45.703 513.039 36.7542L512.936 36.0856C511.805 40.2514 510.673 44.4172 509.542 48.5831C508.976 50.666 508.411 52.7489 507.408 54.6518C506.431 56.4775 505.093 58.0719 504.013 59.8462C501.647 63.8063 500.799 68.6664 501.699 73.1923C502.007 74.7609 502.522 76.2781 503.448 77.5638C505.016 79.6981 507.536 80.9068 509.979 81.9096C515.945 84.3783 522.168 86.2812 528.494 87.5669C525.254 79.1067 518.671 72.3437 514.916 64.1149Z" fill="#4D5068"/>
<path d="M408.534 145.966L401.308 142.597C399.996 141.98 399.431 140.437 400.048 139.125C400.562 138.02 401.873 137.557 402.979 138.071L410.565 141.62L408.534 145.966Z" fill="#536DFE"/>
<path d="M448.546 162.14L470.867 79.0295L455.309 84.8154C453.355 85.9212 451.915 87.7212 451.246 89.8556L432.783 145.297L448.546 162.14Z" fill="#27AAE1"/>
<path d="M414.602 139.511L408.739 142.288L405.165 146.891C404.342 147.971 404.291 149.463 405.088 150.569L406.451 152.497L408.971 157.023L411.825 159.903L415.014 162.14L422.034 164.043L430.314 155.274L423.963 149.617L417.791 140.385C417.071 139.357 415.708 138.971 414.602 139.511Z" fill="#536DFE"/>
<path d="M470.944 81.2153L446.232 124.982C441.783 132.234 440.189 140.874 441.732 149.231L438.492 176.464L432.294 227.328C447.518 243.657 521.834 234.554 521.834 234.554L513.476 169.932L514.865 76.6638L477.81 82.2439L470.944 81.2153Z" fill="#27AAE1"/>
<path opacity="0.3" d="M452.866 172.941C453.998 168.595 451.503 168.029 450.68 163.606C450.603 163.246 450.5 162.938 450.398 162.603C453.741 161.523 449.06 160.572 455.181 159.44C457.418 159.029 462.689 155.866 460.298 156.02C454.821 156.38 449.626 155.634 444.509 153.552C444.457 153.526 444.432 153.552 444.38 153.526C443.866 152.729 443.429 151.906 443.095 151.006C442.863 150.337 442.374 149.977 441.834 149.849L443.609 159.389C443.66 159.415 443.737 159.415 443.789 159.44C443.737 159.62 443.737 159.775 443.712 159.955L444.02 161.626C444.226 162.012 444.457 162.372 444.817 162.655C445.306 163.092 445.82 163.272 446.335 163.349C447.929 167.258 447.672 171.938 446.695 176.001L446.746 176.258C446.72 176.232 452.378 174.844 452.866 172.941Z" fill="#1D80A9"/>
<path d="M480.51 54.6003C480.458 50.7174 479.867 46.9115 479.636 43.1057C479.378 39.1199 480.175 35.0312 479.918 30.994C479.404 23.2281 477.578 15.565 474.493 8.41625C474.235 7.82481 473.952 7.20765 473.412 6.87335C472.872 6.51334 472.178 6.51335 471.535 6.53906C468.578 6.59049 465.415 6.74477 463.126 8.62197C461.095 10.2934 460.221 12.9678 459.475 15.4879C457.958 20.6309 454.795 27.3682 454.846 32.7426C454.898 37.8084 457.675 43.08 458.858 47.9402C460.735 55.6546 460.015 63.7291 461.172 71.5722C461.738 75.4294 462.715 79.5181 462.124 83.4525C461.584 87.0269 458.678 89.9841 456.286 92.607C456.132 92.787 455.952 92.967 455.746 93.0956C455.438 93.2756 455.078 93.3013 454.743 93.3271C452.609 93.6099 450.655 95.0242 449.678 96.9529C450.578 98.1615 452.455 98.0072 453.869 97.4929C455.283 96.9786 456.801 96.2328 458.241 96.6443C458.292 97.7243 456.749 98.5472 457.058 99.5758C457.238 100.244 458.086 100.502 458.781 100.527C463.255 100.81 463.692 98.8558 465.209 95.5385C467.395 90.6784 466.701 99.0872 466.521 100.424C467.729 100.167 468.707 99.2158 469.375 98.1872C470.044 97.1329 470.481 95.9757 471.072 94.87C472.461 92.2727 474.647 90.1384 476.01 87.5155C479.25 81.241 480.638 75.4037 480.664 68.3578C480.613 63.7806 480.587 59.1776 480.51 54.6003Z" fill="#4D5068"/>
<path d="M495.142 97.1329L480.021 109.27L477.887 83.504L477.013 52.7746L500.027 52.1317L500.902 82.8611C501.056 89.2384 495.142 97.1329 495.142 97.1329Z" fill="#FFCEBD"/>
<path opacity="0.4" d="M494.884 83.0411L494.01 52.3117L500.002 52.1317L500.876 82.8611C501.056 89.2127 496.042 94.51 489.69 94.69C488.636 94.7157 487.659 94.5614 486.681 94.33C491.542 92.8899 495.039 88.3641 494.884 83.0411Z" fill="#A58877"/>
<path d="M460.786 33.1283L461.172 46.7058C461.224 48.4287 461.712 50.1002 462.587 51.5917L473.541 69.9007C474.518 71.5208 476.293 72.498 478.17 72.4465L483.621 72.2922C484.933 72.2665 486.193 71.7265 487.119 70.8008L498.742 59.4348C500.619 57.609 501.648 55.0632 501.57 52.4403L500.748 22.6881C500.748 22.6881 489.304 11.2449 473.541 15.6936C465.801 17.8537 460.555 25.0796 460.786 33.1283Z" fill="#FFCEBD"/>
<path opacity="0.4" d="M492.03 61.0291C493.907 59.2033 493.676 55.2689 493.599 52.646L491.953 39.3513C485.936 34.4655 483.081 27.8311 482.413 21.068C482.13 18.2908 480.638 15.6421 476.138 15.0764C490.564 12.4792 500.747 22.6623 500.747 22.6623L501.57 52.4145C501.647 55.0375 500.619 57.5575 498.742 59.409L487.118 70.775C486.218 71.7008 492.03 61.0291 492.03 61.0291Z" fill="#A58877"/>
<g opacity="0.3">
<path opacity="0.3" d="M521.834 234.579L513.476 169.958V169.521L495.656 171.989C499.385 176.129 498.227 182.712 495.759 187.701C493.29 192.69 489.664 197.344 488.996 202.873C488.199 209.482 491.747 215.705 493.727 222.056C495.064 226.351 495.99 232.214 495.913 236.688L521.834 234.579Z" fill="#1D80A9"/>
</g>
<path d="M501.108 150.131L498.356 164.043L451.529 163.58L435.483 155.763L426.097 149.54L426.148 151.237C426.225 153.834 427.486 156.277 429.543 157.846L430.391 158.489L426.431 161.78L424.245 163.477C422.188 165.072 421.545 167.926 422.754 170.266L424.374 173.403C426.148 176.798 429.723 178.906 433.554 178.804L442.015 178.572L446.746 176.232L500.645 186.184C509.491 187.83 518.234 182.764 521.217 174.278L527.002 157.82L501.108 150.131Z" fill="#536DFE"/>
<path d="M450.398 162.603L451.632 161.909L495.887 163.683L504.785 116.856L501.776 85.124L511.779 73.9894L531.271 91.0127C538.06 96.9528 541.146 106.056 539.371 114.876L524.148 176.772C521.499 184.229 513.939 188.781 506.096 187.624L449.035 179.138L446.72 176.232L450.398 162.603Z" fill="#27AAE1"/>
<g opacity="0.3">
<path opacity="0.3" d="M506.636 185.541C512.525 184.615 517.231 179.858 519.674 174.432C522.117 169.006 522.708 162.937 523.197 157.023C523.685 150.929 524.097 144.654 522.142 138.843C521.551 137.12 520.779 135.268 521.422 133.571C521.731 132.774 522.322 132.105 522.862 131.462C528.828 124.339 530.783 114.156 528.185 105.259C527.208 101.89 525.64 98.7272 524.045 95.6157C521.114 89.8813 518.105 84.1725 516.151 78.0267C516.125 77.9495 516.099 77.8724 516.074 77.7952L531.245 91.0384C538.034 96.9786 541.12 106.082 539.346 114.902L524.122 176.798C521.474 184.255 513.913 188.807 506.07 187.65L499.77 186.724C501.776 185.824 504.373 185.901 506.636 185.541Z" fill="#7DCCED"/>
</g>
<g opacity="0.3">
<path opacity="0.3" d="M501.159 176.104C500.927 176.464 500.567 176.824 500.182 176.721C499.873 176.644 499.719 176.335 499.59 176.052C498.536 173.455 498.562 170.318 496.633 168.286C494.242 165.74 490.153 166.203 486.681 166.512C479.558 167.129 472.41 166.229 465.364 165.072C462.175 164.532 458.806 163.837 456.132 162.166L495.913 163.76L504.528 118.451C505.736 122.642 506.919 126.834 508.128 130.999C507.048 130.254 505.428 131.179 505.016 132.44C504.605 133.7 504.99 135.062 505.376 136.322C505.942 138.225 506.533 140.103 507.099 142.005C507.382 142.983 507.69 143.986 507.562 144.963C507.356 146.583 506.07 147.791 505.093 149.077C501.725 153.423 501.107 159.723 503.576 164.635C504.45 166.358 505.685 167.926 507.305 168.955C507.999 169.392 508.796 169.778 509.156 170.523C509.516 171.269 508.925 172.426 508.153 172.195C507.845 172.118 507.613 171.835 507.382 171.578C505.813 169.726 503.73 168.338 501.416 167.592C502.059 170.42 502.727 173.635 501.159 176.104Z" fill="#1D80A9"/>
</g>
<path d="M491.696 70.0806L500.259 53.0059L500.413 50.4858L492.57 65.6062L491.696 70.0806Z" fill="white"/>
<path d="M469.35 71.1607L463.641 52.1059L463.487 49.2001L468.63 66.3006L469.35 71.1607Z" fill="white"/>
<path d="M488.224 54.9088C488.764 50.6916 494.319 43.9542 500.053 41.4856L499.796 40.0713C493.599 42.4885 489.947 48.2744 488.584 51.4887C488.276 52.6459 488.173 53.7774 488.224 54.9088Z" fill="white"/>
<path d="M491.85 70.3121C481.718 74.8636 476.653 75.2237 465.981 72.1379C463.641 64.8348 461.635 56.5289 461.069 48.6087C471.201 44.0571 482.696 43.2342 493.393 46.32C493.933 54.266 493.264 62.0319 491.85 70.3121Z" fill="white"/>
<path d="M493.47 48.1201C493.444 47.5287 493.419 46.9372 493.367 46.3458C482.67 43.26 471.201 44.0829 461.044 48.6344C461.095 49.2259 461.146 49.8173 461.198 50.4088C471.33 45.8572 482.824 45.0343 493.47 48.1201Z" fill="#05668D"/>
<path opacity="0.3" d="M462.741 60.1547C472.538 57.7375 483.338 56.966 493.367 57.9946C493.393 57.7118 493.393 57.4032 493.419 57.1203C483.313 56.0917 472.41 56.8632 462.561 59.3061C462.612 59.5632 462.689 59.8461 462.741 60.1547Z" fill="#B3CDFA"/>
<path opacity="0.3" d="M464.952 68.8978C465.029 69.2064 465.132 69.515 465.209 69.7978C474.107 70.4921 483.518 69.8235 492.21 67.8949C492.262 67.5863 492.313 67.2778 492.364 66.9692C483.544 68.9749 473.978 69.6435 464.952 68.8978Z" fill="#B3CDFA"/>
<path d="M468.964 4.81618C471.15 3.68472 473.747 3.76186 476.164 3.22185C478.89 2.6304 481.41 1.24179 484.136 0.598918C490.59 -0.943979 497.507 1.91039 502.213 6.61623C506.893 11.3221 509.645 17.5965 511.548 23.9481C515.019 35.4684 516.048 47.7087 514.582 59.6662C513.939 64.9892 511.908 70.2865 511.625 75.6095C511.368 80.521 510.005 83.0154 506.842 87.0012C504.913 89.4184 503.01 91.8356 501.082 94.2271C499.616 96.0529 498.099 97.9815 496.17 99.3444C494.679 100.424 492.622 100.81 491.387 102.019C490.153 100.759 490.204 98.8815 490.59 97.2615C490.976 95.6414 491.696 94.0471 491.722 92.3756C490.821 94.2014 488.816 95.59 486.784 95.77C486.09 95.8471 484.29 96.0786 484.058 95.1014C483.776 93.8928 485.138 94.1242 485.627 93.5585C485.756 93.4042 485.756 93.1471 485.756 92.9413C485.704 92.247 485.653 91.5527 485.627 90.8584C483.801 91.707 481.693 91.9899 479.713 91.5784C483.158 88.7755 486.578 85.9469 490.024 83.1439C494.807 79.2353 497.173 71.4179 498.407 65.5549C499.616 59.8462 500.31 54.0089 500.49 48.1716C500.567 45.4972 500.336 42.8486 499.796 40.2514C499.23 37.4742 499.462 34.6455 498.793 31.894C498.587 31.0454 498.279 30.1711 497.739 29.4768C496.736 28.1911 495.116 27.6253 493.573 27.1368C488.507 25.4653 483.39 23.7938 478.093 23.2281C475.598 22.9709 473.052 22.9452 470.584 22.4052C468.115 21.8652 465.672 20.6823 464.258 18.5994C461.224 14.2278 464.618 7.05338 468.964 4.81618Z" fill="#4D5068"/>
<path d="M650.409 254.148H574.009L571.232 336.488H607.285L613.019 292.464L623.331 336.488H662.777L650.409 254.148Z" fill="#00A79D"/>
<path opacity="0.5" d="M655.886 148.126L574.009 259.703C574.009 259.703 652.954 278.629 650.409 259.703C646.757 232.754 655.886 148.126 655.886 148.126Z" fill="#007D76"/>
<path d="M595.816 72.9093L574.009 89.6755V254.123C574.009 254.123 649.817 273.203 650.409 254.123C651.334 224.679 655.912 142.545 655.912 142.545L628.448 72.3693L595.816 72.9093Z" fill="#00A79D"/>
<path d="M607.002 92.1956L592.267 78.7723C591.624 78.1809 591.598 77.2037 592.216 76.5866L595.816 72.935L595.404 58.7918H626.777V70.9293L631.328 74.9665C632.048 75.6094 631.997 76.7151 631.251 77.3066L612.093 92.4013C610.576 93.5584 608.442 93.4813 607.002 92.1956Z" fill="#FFCEBD"/>
<g opacity="0.4">
<path opacity="0.4" d="M595.816 72.9094L592.216 76.5609C591.598 77.178 591.624 78.1809 592.267 78.7467L607.002 92.1699C607.593 92.7099 608.339 93.0442 609.085 93.147C609.059 93.0442 609.008 92.9413 608.982 92.8127C607.465 87.644 610.602 81.8067 608.622 76.818C607.928 75.0694 606.667 73.6037 605.613 72.035C603.042 68.1007 601.91 63.472 601.627 58.7404H595.353L595.816 72.9094Z" fill="#A58877"/>
</g>
<path d="M589.67 25.0538L589.824 49.9201C589.85 56.426 592.319 62.6748 596.69 67.4578L600.136 71.2121C602.424 73.7065 605.665 75.1208 609.059 75.1208C612.068 75.0951 614.973 73.9379 617.185 71.8807L620.991 68.3321C626.339 63.3434 629.348 56.3489 629.297 49.0201L629.142 24.8223L618.625 15.6164L600.804 15.7192L589.67 25.0538Z" fill="#FFCEBD"/>
<path d="M631.817 21.7623C631.817 19.6279 631.045 17.5707 629.631 15.9764C624.899 10.6791 617.905 7.31049 610.113 7.31049C601.653 7.31049 594.17 11.2449 589.464 17.3136C588.307 18.8308 587.69 20.6823 587.69 22.6109V38.7342C592.139 31.174 600.522 26.0824 610.113 26.0824C619.216 26.0824 627.239 32.0226 631.817 38.9399V21.7623V21.7623Z" fill="#00A79D"/>
<path d="M628.422 72.3951L665.658 87.7469C673.655 91.1927 679.595 98.1615 681.781 106.596L695.616 160.443C696.361 163.323 696.516 166.332 696.104 169.263L683.889 254.74L681.909 257.903L663.883 252.657L661.749 245.894L668.203 171.166L639.531 104.564L628.422 72.3951Z" fill="white"/>
<path d="M658.457 86.7697L638.708 80.2381L626.905 67.5606C623.639 108.602 622.534 257.003 620.476 336.488H674.015L655.114 201.021L670.672 106.93C672.086 98.1357 666.918 89.5726 658.457 86.7697Z" fill="white"/>
<path d="M622.276 188.858C622.302 189.681 622.353 190.478 622.431 191.275L622.636 193.127C622.662 193.281 622.328 241.162 622.354 241.317L640.405 99.5757L633.951 90.5498L643.131 85.3554L626.905 67.5606C622.251 125.702 621.762 164.995 622.276 188.858Z" fill="#A9DDF3"/>
<path d="M595.584 67.5606L583.755 80.2381L564.006 86.7697C555.546 89.5726 550.377 98.11 551.843 106.905L567.401 200.996L548.5 336.462H597.899C595.276 311.056 594.016 277.523 600.084 241.317C600.907 236.354 599.982 222.365 599.982 222.365C599.982 222.365 598.079 98.9586 595.584 67.5606Z" fill="white"/>
<path d="M600.187 188.858C600.162 189.681 600.11 190.478 600.033 191.275L599.827 193.127C599.802 193.281 600.136 241.162 600.11 241.317L582.058 99.5757L588.513 90.5498L579.332 85.3554L595.559 67.5606C600.213 125.702 600.702 164.995 600.187 188.858Z" fill="#A9DDF3"/>
<g opacity="0.5">
<path opacity="0.5" d="M589.207 228.459C589.773 225.553 588.23 222.699 586.815 220.102C583.421 213.776 580.67 207.09 578.612 200.198C578.124 198.604 577.352 196.187 577.995 194.541C578.69 192.767 580.618 192.921 581.261 191.224C581.57 190.452 581.287 189.578 580.978 188.807C580.13 186.801 578.844 184.975 577.275 183.484C576.504 182.738 575.604 181.992 575.449 180.938C575.218 179.318 576.838 178.058 578.432 177.621C580.001 177.183 581.75 177.209 583.113 176.335C582.213 173.763 580.104 171.835 578.612 169.546C575.887 165.303 575.424 160.032 575.167 154.991C574.935 149.951 574.807 144.731 572.621 140.18C570.435 135.628 565.498 131.951 560.561 133.005L557.115 138.611L567.426 201.021L560.226 252.657C562.335 247.591 564.829 242.731 568.044 238.282C570.332 235.094 573.058 231.931 573.752 228.073C574.678 222.956 571.824 217.89 571.747 212.696C576.787 214.856 578.047 220.23 581.467 224.345C583.37 226.711 586.173 229.076 589.207 228.459Z" fill="#A9DDF3"/>
</g>
<path d="M575.552 82.6553L555.366 89.8298C546.52 92.967 540.169 100.836 538.986 110.17L532.403 161.703C530.628 170.395 531.76 179.446 535.668 187.418L560.946 239.362L562.746 241.162L578.587 232.779L578.87 227.353L562.772 177.852L565.729 150.26L574.035 89.1869L575.552 82.6553Z" fill="white"/>
<path opacity="0.5" d="M566.063 241.137L564.855 243.142L585.633 240.597L583.37 272.689L585.324 270.889L587.613 238.102L566.063 241.137Z" fill="#A9DDF3"/>
<path d="M578.587 232.754L583.833 238.642L566.064 241.137L563.261 240.879L578.587 232.754Z" fill="#536DFE"/>
<g opacity="0.5">
<path opacity="0.5" d="M655.089 201.021L661.8 160.469C661.312 159.054 660.746 157.666 660.103 156.329C660.206 160.675 655.14 162.937 651.103 164.532C647.066 166.126 642.463 169.958 644.314 173.892C649.663 178.546 647.837 188.755 641.228 191.301C639.274 192.047 636.574 192.767 636.548 194.875C636.523 197.164 639.686 197.833 641.948 197.473C644.211 197.113 647.169 196.83 648.146 198.913C646.474 201.407 644.314 203.567 641.846 205.213C644.443 203.567 647.94 206.37 648.326 209.404C648.711 212.439 647.22 215.37 646.166 218.225C643.337 225.888 643.466 234.579 646.5 242.165C649.586 249.828 655.397 256.077 659.126 263.431C661.826 268.754 663.498 274.695 666.146 279.966L655.089 201.021Z" fill="#A9DDF3"/>
</g>
<path d="M679.492 257.234L678.541 259.06L678.078 266.029C677.872 269.14 676.921 272.175 675.301 274.9C674.555 275.517 673.989 286.138 673.449 287.603C673.038 288.735 670.466 288.426 670.723 286.575C670.749 286.395 671.855 275.955 671.649 275.929C671.186 275.903 667.561 289.686 667.278 290.046C666.146 291.538 664.449 290.895 664.346 290.124C664.32 289.841 666.866 275.723 666.583 275.697C666.12 275.62 662.598 289.789 662.315 290.098C660.72 291.821 658.843 291.512 659.049 289.095C659.075 288.709 661.697 274.206 661.415 274.103L657.557 284.903C656.194 287.321 654.78 287.655 653.263 286.472L662.006 263.071L659.203 264.82C658.612 266.029 656.94 267.829 655.577 268.883C655.063 269.294 654.42 269.474 653.777 269.397L652.62 269.294C652.132 269.243 651.874 268.729 652.106 268.317L655.603 262.197C656.169 261.168 660.335 257.363 661.415 256.9L664.295 255.665L665.298 253.094L679.492 257.234Z" fill="#536DFE"/>
<g opacity="0.3">
<path opacity="0.3" d="M560.715 333.119C560.509 334.276 560.201 335.382 559.841 336.488H563.106C564.649 327.667 567.735 318.744 564.161 310.747C559.301 316.713 562.078 325.559 560.715 333.119Z" fill="#A9DDF3"/>
</g>
<g opacity="0.3">
<path opacity="0.3" d="M669.489 304.215C669.386 304.113 669.258 304.01 669.103 303.958C667.175 302.955 665.786 306.015 665.76 308.176C665.658 317.484 666.403 326.793 667.92 335.973C660.36 335.202 660.9 322.344 654.034 319.079C652.852 325.302 656.554 330.83 659.82 336.513H673.989L669.489 304.215Z" fill="#A9DDF3"/>
</g>
<g opacity="0.5">
<path opacity="0.5" d="M631.817 38.9656V21.7623C631.817 19.6279 631.045 17.5707 629.631 15.9764C624.899 10.6791 617.905 7.31049 610.113 7.31049C609.65 7.31049 609.188 7.33619 608.725 7.33619C609.779 11.7077 616.413 12.7363 617.699 17.0564C615.899 17.005 614.099 16.7479 612.35 16.3364C611.939 17.2365 612.505 18.2651 613.07 19.0879C614.819 21.6594 616.593 24.2566 618.779 26.4681C619.962 27.651 621.248 28.731 622.534 29.8368C626.314 32.2283 629.502 35.4684 631.817 38.9656Z" fill="#007D76"/>
</g>
<path d="M633.34 42.4638C633.729 38.8206 632.592 35.7116 630.798 35.5197C629.005 35.3278 627.235 38.1257 626.845 41.7689C626.455 45.4121 627.593 48.5211 629.387 48.713C631.18 48.9049 632.95 46.1071 633.34 42.4638Z" fill="#FFCEBD"/>
<path d="M589.615 48.6954C591.408 48.5035 592.546 45.3945 592.156 41.7513C591.767 38.1081 589.997 35.3102 588.203 35.5021C586.41 35.694 585.272 38.803 585.662 42.4463C586.052 46.0895 587.822 48.8873 589.615 48.6954Z" fill="#FFCEBD"/>
<g opacity="0.2">
<path opacity="0.2" d="M609.496 153.577C607.542 148.537 605.047 143.677 603.685 138.457C602.064 132.234 602.27 124.854 598.953 119.351L599.236 125.162L600.367 154.451C600.727 156.123 602.142 158.052 603.067 159.492C604.07 161.086 605.51 162.32 606.693 163.76C609.47 167.18 610.679 171.603 611.579 175.923C612.042 178.135 612.659 180.629 614.665 181.684C614.716 172.118 612.942 162.526 609.496 153.577Z" fill="#007D76"/>
</g>
<g opacity="0.2">
<path opacity="0.2" d="M606.925 197.395C605.639 195.673 604.173 194.053 603.325 192.072C602.373 189.861 602.27 187.418 602.167 185.001C602.013 181.195 601.884 177.415 601.73 173.609L600.342 174.046C599.879 176.669 599.956 179.369 600.007 182.044C600.444 199.504 600.856 216.965 601.293 234.425C603.427 226.865 605.587 218.842 603.427 211.282C603.17 210.382 602.887 209.276 603.556 208.607C604.147 207.99 605.15 208.144 605.999 208.016C608.133 207.707 609.496 205.367 609.419 203.207C609.342 201.047 608.21 199.118 606.925 197.395Z" fill="#007D76"/>
</g>
<g opacity="0.2">
<path opacity="0.2" d="M624.436 95.2557C619.576 102.379 614.511 110.325 615.436 118.888C616.568 118.168 617.673 117.473 618.805 116.753C617.699 123.696 616.568 130.639 615.462 137.583C616.388 137.377 617.031 136.605 617.776 135.988C618.496 135.397 619.576 134.934 620.374 135.474C621.865 136.477 621.068 140.745 622.636 141.568C623.536 126.705 623.845 110.556 624.745 95.6928L624.436 95.2557Z" fill="#007D76"/>
</g>
<path d="M631.38 72.395C638.015 76.8436 642.258 84.5581 641.872 93.1212L641.28 106.082L643.569 106.184L644.16 93.2241C644.649 82.7324 638.786 73.4236 629.992 68.9234L627.497 68.1263C627.497 68.152 630.634 71.9064 631.38 72.395Z" fill="#4D5068"/>
<path d="M642.823 134.831C642.926 132.799 644.648 131.205 646.68 131.308C648.711 131.411 648.377 138.791 646.346 138.688C644.314 138.611 642.72 136.862 642.823 134.831Z" fill="#4D5068"/>
<path d="M640.045 134.702C640.148 132.671 638.554 130.948 636.522 130.845C634.491 130.742 634.157 138.122 636.188 138.225C638.22 138.328 639.943 136.76 640.045 134.702Z" fill="#4D5068"/>
<path d="M642.488 104.307C650.331 104.667 656.426 111.353 656.066 119.196L655.886 123.182C655.68 127.965 655.5 132.079 653.031 134.342C651.694 135.551 649.869 136.091 647.4 135.988L647.477 134.137C649.406 134.214 650.82 133.854 651.771 132.979C653.674 131.231 653.829 127.476 654.034 123.105L654.214 119.119C654.523 112.279 649.226 106.467 642.386 106.159C635.545 105.85 629.734 111.147 629.425 117.988L629.245 121.973C629.039 126.345 628.859 130.099 630.582 132.028C631.457 132.979 632.82 133.494 634.748 133.571L634.671 135.422L633.874 135.371C631.817 135.165 630.299 134.471 629.219 133.288C626.957 130.819 627.162 126.679 627.394 121.922L627.574 117.936C627.959 110.042 634.645 103.947 642.488 104.307Z" fill="#E3EDFE"/>
<path d="M573.469 139.151C573.727 143.265 577.301 146.403 581.415 146.146C585.53 145.888 588.667 142.314 588.41 138.2C588.153 134.085 584.578 130.948 580.464 131.205C576.349 131.462 573.212 135.037 573.469 139.151Z" fill="#E3EDFE"/>
<path d="M575.835 138.997C576.015 141.825 578.432 143.96 581.261 143.78C584.09 143.6 586.224 141.183 586.044 138.354C585.864 135.551 583.447 133.417 580.618 133.597C577.789 133.751 575.655 136.168 575.835 138.997Z" fill="#4D5068"/>
<path d="M579.692 137.222L581.981 137.068L578.561 96.0013C577.969 86.7697 581.955 78.6437 589.233 74.3493C590.236 73.7579 593.424 69.8749 593.424 69.8749C581.93 73.3979 575.527 84.5839 576.272 96.1556L579.692 137.222Z" fill="#4D5068"/>
<path d="M577.584 138.894C577.712 140.745 579.307 142.16 581.158 142.057C583.01 141.928 584.424 140.334 584.321 138.482C584.192 136.631 582.598 135.217 580.747 135.319C578.869 135.422 577.455 137.017 577.584 138.894Z" fill="#E3EDFE"/>
<path d="M625.259 69.0778L630.377 48.7115H629.399L625.851 64.0377L625.259 69.0778Z" fill="white"/>
<path d="M594.967 71.2893L588.924 48.7115H589.85L594.376 66.2491L594.967 71.2893Z" fill="white"/>
<path d="M596.716 55.7317C597.59 51.4116 595.173 41.4856 590.39 37.1655L589.67 35.7769C594.993 38.5027 597.23 48.6858 597.487 52.2859C597.41 53.4945 597.153 54.6517 596.716 55.7317Z" fill="white"/>
<path d="M622.379 55.2945C621.505 50.9744 624.205 40.9199 629.014 36.5998L629.297 35.4169C623.974 38.1427 621.891 48.2486 621.608 51.8487C621.685 53.0573 621.942 54.2145 622.379 55.2945Z" fill="white"/>
<path d="M624.385 72.3436C612.633 76.4066 606.925 76.4066 595.173 72.3436C593.116 64.4748 591.547 55.5517 591.547 47.1429C603.299 43.08 616.285 43.08 628.037 47.1429C628.011 55.5517 626.648 63.7034 624.385 72.3436Z" fill="#00A79D"/>
<path d="M627.985 49.0201C628.011 48.403 628.011 47.7601 628.011 47.1429C616.259 43.08 603.273 43.08 591.521 47.1429C591.521 47.7601 591.521 48.403 591.547 49.0201C603.299 44.9829 616.233 44.9829 627.985 49.0201Z" fill="#05668D"/>
<path opacity="0.3" d="M592.499 59.4346C603.685 57.6089 615.899 57.6089 627.085 59.4346C627.137 59.1261 627.162 58.8175 627.214 58.5089C615.951 56.6574 603.633 56.6574 592.37 58.5089C592.396 58.8175 592.447 59.1261 592.499 59.4346Z" fill="#02606C"/>
<path opacity="0.3" d="M594.299 68.8463C594.376 69.1806 594.453 69.4892 594.53 69.8235C604.456 71.2378 615.076 71.2378 625.002 69.8235C625.079 69.4892 625.156 69.1806 625.234 68.8463C615.179 70.3121 604.379 70.3121 594.299 68.8463Z" fill="#02606C"/>
<path d="M282.633 185.541L245.655 83.4782H207.443L174.373 177.235L178.153 196.47L182.859 226.068C182.859 226.068 174.167 284.801 171.236 336.539H295.671C292.251 292.438 283.893 242.5 281.476 226.608C280.962 223.342 282.633 213.467 282.633 210.15V185.541Z" fill="#27AAE1"/>
<path d="M207.443 83.4782L175.865 100.142C165.347 105.696 158.533 116.419 157.993 128.299L155.858 174.561C155.215 188.241 167.713 198.836 181.11 195.981L246.838 181.967L250.849 177.209L246.838 158.746L241.618 156.612L190.702 157.692L194.045 135.911L207.443 83.4782Z" fill="#27AAE1"/>
<g opacity="0.3">
<path opacity="0.3" d="M231.923 156.817C232.643 155.274 234.058 154.143 235.729 153.783C239.535 153.012 243.624 153.577 247.558 153.86C248.869 153.963 250.258 153.989 251.441 153.423C252.624 152.857 253.55 151.469 253.138 150.234C252.778 149.154 251.57 148.383 251.57 147.226C251.595 145.554 254.012 145.04 254.681 143.523C255.17 142.468 254.63 141.208 253.884 140.308C253.112 139.434 252.11 138.791 251.39 137.865C251.107 137.505 250.85 137.068 250.875 136.605C250.927 136.142 251.39 135.834 251.57 135.397C253.37 131.102 255.735 128.042 255.89 123.311L262.267 156.766L231.923 156.817Z" fill="#1D80A9"/>
</g>
<path d="M231.923 227.636C212.123 227.636 194.405 225.939 182.422 223.239L182.859 226.016C182.859 226.016 182.833 226.171 182.782 226.479C194.739 229.128 212.303 230.799 231.898 230.799C251.724 230.799 269.467 229.102 281.425 226.402C281.322 225.631 281.322 224.525 281.399 223.239C269.467 225.939 251.75 227.636 231.923 227.636Z" fill="#05668D"/>
<g opacity="0.3">
<path opacity="0.3" d="M281.476 226.556C281.476 226.479 281.45 226.428 281.45 226.351C272.553 229.205 263.733 232.316 255.015 235.685C253.601 236.225 251.955 237.074 251.801 238.591C251.57 240.828 254.681 241.78 256.867 241.291C259.053 240.802 261.495 239.774 263.373 240.982C266.33 242.885 264.401 247.411 262.318 250.24C260.235 253.068 258.667 257.877 261.83 259.394C264.041 260.449 266.741 258.623 269.107 259.369C271.19 260.037 272.193 262.557 271.936 264.743C271.679 266.929 270.521 268.883 269.57 270.863C267.616 274.952 266.484 279.452 266.253 283.978C266.176 285.778 266.227 287.629 266.896 289.326C268.799 294.238 274.713 296.012 278.545 299.638C282.787 303.65 284.253 309.821 284.356 315.659C284.485 321.496 283.482 327.307 283.765 333.145C283.816 334.276 283.919 335.382 284.048 336.513H295.696C292.276 292.387 283.919 242.448 281.476 226.556Z" fill="#1D80A9"/>
</g>
<g opacity="0.3">
<path opacity="0.3" d="M245.989 196.701C246.838 196.778 247.661 196.547 248.484 196.444C252.109 195.904 255.992 197.653 258.024 200.687C259.284 202.564 259.824 204.801 260.827 206.833C261.804 208.864 263.424 210.819 265.661 211.179C266.047 208.067 268.027 205.187 270.804 203.721C272.501 202.821 274.816 202.538 276.179 203.901C276.95 204.673 277.31 205.881 278.262 206.447C279.264 207.013 280.576 206.627 281.425 205.856C281.939 205.367 282.325 204.776 282.633 204.159V188.035C281.759 187.315 280.73 186.749 279.676 186.235C275.356 184.178 270.676 183.098 265.996 182.018C261.65 181.015 257.304 180.012 252.984 179.009C243.855 176.901 234.546 174.792 225.186 175.409C219.554 175.795 214.077 177.158 208.6 178.521C205.283 179.344 201.965 180.166 198.648 180.989C194.559 182.018 190.394 183.047 186.639 184.975C183.296 186.672 180.365 189.038 177.639 191.61C177.51 191.738 177.382 191.867 177.253 191.97L178.128 196.393L179.85 207.219C180.21 206.679 180.545 206.113 180.905 205.573C181.702 204.313 183.142 202.873 184.428 203.619C184.839 203.85 185.122 204.287 185.431 204.673C186.639 206.216 188.491 207.244 190.419 207.424C195.022 207.861 198.725 204.056 202.402 201.304C205.36 199.093 208.651 197.395 211.943 195.724C216.597 193.358 221.329 190.967 226.472 190.092C231.615 189.218 237.298 190.041 241.206 193.487C242.724 194.824 244.086 196.521 245.989 196.701Z" fill="#1D80A9"/>
</g>
<path d="M245.655 83.4782L277.233 100.142C287.75 105.696 294.565 116.419 295.105 128.299L297.239 174.561C297.882 188.241 285.385 198.836 271.987 195.981L206.26 181.967L202.248 177.209L206.26 158.746L211.48 156.612L262.396 157.692L259.053 135.911L245.655 83.4782Z" fill="#27AAE1"/>
<path d="M247.095 159.929L264.144 156.38L282.813 143.6C283.816 142.931 285.128 143.034 286.002 143.857C286.979 144.783 287.03 146.326 286.156 147.328L280.113 154.297L291.453 155.789C292.353 155.917 293.228 156.251 293.973 156.792L295.516 157.872C297.291 159.132 298.319 161.163 298.319 163.349V178.341C298.319 180.064 296.468 181.144 294.976 180.295L290.708 177.904L280.345 176.952L261.521 175.512L250.207 174.355L247.095 159.929Z" fill="#536DFE"/>
<g opacity="0.3">
<path opacity="0.3" d="M176.945 195.158C176.893 194.978 176.79 194.798 176.713 194.644C173.576 189.527 166.89 187.058 163.521 181.761C160.076 176.335 159.047 169.443 160.153 163.169C160.539 161.009 161.207 158.746 162.93 157.383C164.139 156.432 165.81 155.917 166.402 154.503C167.353 152.137 164.524 150.209 162.724 148.383C160.616 146.274 159.664 143.086 160.23 140.154C160.384 139.357 160.77 138.483 161.541 138.251C162.056 138.097 162.621 138.303 163.161 138.2C164.216 138.02 164.833 136.785 164.704 135.705C164.576 134.625 163.959 133.7 163.367 132.8C161.31 129.534 159.793 125.959 158.816 122.205C158.353 124.185 158.07 126.216 157.967 128.274L155.833 174.535C155.318 185.798 164.473 196.187 175.865 196.367C176.173 196.367 176.533 196.367 176.765 196.161C177.073 195.93 177.073 195.544 176.945 195.158Z" fill="#1D80A9"/>
</g>
<g opacity="0.2">
<path opacity="0.2" d="M184.042 167.823C183.45 165.535 184.736 162.886 186.922 161.96C189.699 160.777 193.016 162.295 195.897 161.42C197.439 160.957 198.699 159.852 200.062 159.003C201.117 158.334 202.274 157.794 203.482 157.383L190.651 157.64L193.351 139.974C192.451 138.585 191.551 137.197 190.574 135.86C188.799 133.468 187.025 131.077 185.276 128.711C184.531 127.708 183.759 126.679 182.653 126.088C181.548 125.496 180.03 125.496 179.208 126.422C178.77 126.911 178.59 127.554 178.462 128.197C177.793 131.797 179.259 135.68 182.088 137.968C179.748 137.814 177.407 137.685 175.067 137.531C173.987 137.454 172.779 137.454 172.059 138.251C170.259 140.18 173.807 143.548 172.367 145.76C171.956 146.377 171.21 146.737 170.824 147.38C170.336 148.177 170.516 149.257 171.03 150.029C172.393 152.111 174.682 153.191 175.71 155.634C176.687 157.897 176.765 160.597 175.71 162.886C176.636 163.272 177.51 162.32 178.102 161.497C178.668 160.675 179.619 159.774 180.519 160.237C181.342 160.675 181.265 161.857 181.265 162.783C181.316 164.789 182.37 166.743 184.042 167.823Z" fill="#1D80A9"/>
</g>
<path d="M202.274 157.434L196.282 141.723L187.411 130.099C186.613 129.045 185.071 128.891 184.093 129.791C183.193 130.614 183.091 131.977 183.862 132.928L187.488 137.325L190.574 143.163L184.016 139.948L177.022 138.508C175.839 138.251 174.707 139.177 174.707 140.385C174.707 141.234 175.273 142.005 176.122 142.237L182.448 143.986L188.491 147.92L176.893 146.12C175.71 145.94 174.579 146.763 174.399 147.946C174.245 149.077 174.965 150.131 176.07 150.363L182.191 151.726L190.651 157.692L202.274 157.434Z" fill="#536DFE"/>
<g opacity="0.2">
<path opacity="0.2" d="M238.969 309.436C235.318 317.896 234.366 327.385 235.832 336.488H256.044C247.969 328.953 241.361 320.056 238.969 309.436Z" fill="#1D80A9"/>
</g>
<path d="M221.226 101.093L206.028 87.2584C205.36 86.6669 205.334 85.6383 205.977 84.9954L209.706 81.2153L209.268 66.6349H241.618V79.1581L246.324 83.324C247.044 83.9668 247.018 85.124 246.247 85.7412L226.472 101.299C224.903 102.507 222.692 102.43 221.226 101.093Z" fill="#FFCEBD"/>
<path d="M203.354 31.8426L203.508 57.4804C203.56 64.1663 206.08 70.6207 210.606 75.558L214.154 79.441C216.52 82.0125 219.863 83.4782 223.36 83.4525C226.472 83.4268 229.455 82.2439 231.743 80.1096L235.678 76.4323C241.181 71.2893 244.292 64.0634 244.241 56.5289L244.086 31.5854L233.235 22.0966L214.849 22.1995L203.354 31.8426Z" fill="#FFCEBD"/>
<path d="M248.767 28.4739C248.767 26.031 249.358 23.4595 247.995 21.4794C247.224 20.3737 245.887 19.628 245.449 18.3422C245.218 17.6993 245.269 17.005 245.166 16.3364C244.884 14.1764 243.161 12.2735 241.026 11.7849C240.178 11.5792 239.278 11.6049 238.455 11.2963C236.963 10.7563 235.986 9.36769 234.7 8.44195C233.08 7.28478 230.895 6.92477 228.992 7.51622C227.089 8.10766 225.289 9.59912 223.36 9.16196C222.769 9.03339 222.229 8.72482 221.663 8.49338C219.889 7.79908 217.754 8.00479 216.134 9.03339C214.154 10.2934 212.688 12.7878 210.348 12.7621C209.783 12.7621 209.217 12.5821 208.625 12.5306C205.977 12.2221 203.303 14.3821 203.045 17.0308C201.348 17.1593 199.882 18.4708 199.214 20.0394C198.545 21.608 198.545 23.3823 198.802 25.0795C197.182 25.6453 196.179 27.5739 196.642 29.2454C196.977 30.454 197.954 31.4568 198.031 32.6912C198.082 33.5912 197.645 34.4912 197.697 35.3912C197.722 36.1112 198.057 36.8055 198.391 37.4484C199.342 39.2999 202.634 43.6457 201.245 45.9858C205.823 38.1942 214.463 32.9483 224.389 32.9483C233.775 32.9483 242.055 39.0942 246.761 46.2172C246.324 45.5486 246.709 42.9 246.761 42.1286C246.967 39.8913 247.687 37.577 248.535 35.4941C248.895 34.5941 249.332 33.694 249.332 32.7426C249.332 31.9197 249.024 31.1225 248.869 30.2997C248.818 29.7082 248.767 29.0911 248.767 28.4739Z" fill="#00A79D"/>
<g opacity="0.5">
<path opacity="0.5" d="M248.767 28.4739C248.767 26.031 249.358 23.4595 247.995 21.4794C247.224 20.3737 245.887 19.628 245.449 18.3422C245.218 17.6993 245.269 17.005 245.167 16.3364C244.884 14.1764 243.161 12.2735 241.026 11.7849C240.178 11.5792 239.278 11.6049 238.455 11.2963C236.963 10.7563 235.986 9.36769 234.701 8.44195C233.08 7.28478 230.895 6.92477 228.992 7.51622C228.066 7.79908 227.166 8.31337 226.24 8.6991C226.266 8.6991 226.292 8.72482 226.317 8.72482C228.838 10.062 231.872 11.502 232.335 14.3307C230.2 13.7392 228.04 13.1221 225.906 12.5306C228.812 16.5936 231.718 20.6566 234.623 24.7195C232.823 24.4624 230.998 24.2309 229.198 23.9738C228.323 25.4653 231.152 26.2367 232.155 27.6253C232.566 28.1653 232.669 28.8596 232.772 29.5282C233.106 31.4826 233.672 33.3855 234.392 35.2369C239.509 37.6541 243.829 41.7171 246.787 46.1658C246.349 45.4972 246.735 42.8486 246.787 42.0771C246.992 39.8399 247.712 37.5256 248.561 35.4427C248.921 34.5426 249.358 33.6426 249.358 32.6912C249.358 31.8683 249.049 31.0711 248.895 30.2482C248.818 29.7082 248.767 29.0911 248.767 28.4739Z" fill="#007D76"/>
</g>
<path d="M198.854 23.8195C198.777 23.3823 198.751 22.9452 198.725 22.4823C198.7 22.9452 198.7 23.408 198.725 23.8709C198.751 23.8452 198.802 23.8452 198.854 23.8195Z" fill="white"/>
<path d="M248.792 27.8053C248.844 26.6738 248.947 25.5424 248.895 24.4623C248.869 25.3624 248.767 26.2881 248.767 27.2138C248.767 27.4196 248.767 27.6253 248.792 27.8053Z" fill="white"/>
<path d="M246.606 44.6486C241.849 37.6542 233.698 31.6883 224.414 31.6883C214.72 31.6883 206.234 36.7027 201.58 44.2115C201.657 44.8544 201.58 45.4715 201.271 45.9601C205.848 38.1685 214.488 32.9226 224.389 32.9226C233.775 32.9226 242.055 39.0685 246.761 46.1915C246.632 45.9087 246.581 45.3172 246.606 44.6486Z" fill="white"/>
<g opacity="0.4">
<path opacity="0.4" d="M209.371 71.0322L209.68 81.1896L205.951 84.9697C205.334 85.6126 205.36 86.6412 206.003 87.2326L221.2 101.067C221.817 101.633 222.589 101.967 223.386 102.096C223.9 99.2929 224.003 96.4385 223.695 93.6099C223.54 92.1699 223.283 90.7041 223.566 89.2641C223.875 87.8497 224.903 86.4611 226.343 86.2811C225.392 83.1182 223.36 80.4438 221.843 77.5123C220.094 74.1437 219.04 70.3893 218.783 66.6092H217.574L209.371 71.0322Z" fill="#A58877"/>
</g>
<path d="M239.201 77.2552L245.244 56.0917L244.189 56.2203L239.792 72.1893L239.201 77.2552Z" fill="white"/>
<path d="M208.908 79.4409L202.402 56.0917L203.482 56.246L208.317 74.4008L208.908 79.4409Z" fill="white"/>
<path d="M210.374 63.0862C211.248 58.766 208.831 48.8401 204.048 44.5199L203.328 43.1313C208.651 45.8571 210.888 56.0403 211.146 59.6404C211.068 60.8232 210.811 62.0061 210.374 63.0862Z" fill="white"/>
<path d="M237.298 62.7262C236.423 58.4061 239.123 48.3515 243.932 44.0314L244.215 42.8485C238.892 45.5743 236.809 55.6803 236.526 59.2804C236.603 60.489 236.861 61.6462 237.298 62.7262Z" fill="white"/>
<path d="M238.326 80.5209C226.575 84.5839 220.866 84.5839 209.114 80.5209C207.057 72.6521 205.488 63.729 205.488 55.3202C217.24 51.2573 230.226 51.2573 241.978 55.3202C241.952 63.729 240.589 71.8807 238.326 80.5209Z" fill="white"/>
<path d="M241.926 57.1974C241.952 56.5803 241.952 55.9374 241.952 55.3202C230.2 51.2573 217.214 51.2573 205.463 55.3202C205.463 55.9374 205.463 56.5803 205.488 57.1974C217.24 53.1602 230.2 53.1602 241.926 57.1974Z" fill="#05668D"/>
<path opacity="0.3" d="M206.44 67.5863C217.626 65.7606 229.84 65.7606 241.026 67.5863C241.078 67.2777 241.103 66.9692 241.155 66.6606C229.892 64.8091 217.574 64.8091 206.311 66.6606C206.363 66.9692 206.388 67.2777 206.44 67.5863Z" fill="#B3CDFA"/>
<path opacity="0.3" d="M208.24 77.0237C208.317 77.358 208.394 77.6666 208.471 78.0008C218.397 79.4152 229.018 79.4152 238.943 78.0008C239.021 77.6666 239.098 77.358 239.175 77.0237C229.12 78.4637 218.32 78.4637 208.24 77.0237Z" fill="#B3CDFA"/>
<path d="M248.383 49.7834C248.785 46.0272 247.611 42.8218 245.761 42.6238C243.911 42.4259 242.086 45.3104 241.684 49.0666C241.282 52.8228 242.456 56.0283 244.306 56.2262C246.155 56.4242 247.981 53.5396 248.383 49.7834Z" fill="#FFCEBD"/>
<path d="M203.279 56.2305C205.129 56.0326 206.303 52.8271 205.901 49.0709C205.499 45.3147 203.673 42.4302 201.823 42.6281C199.974 42.8261 198.8 46.0316 199.202 49.7878C199.604 53.544 201.429 56.4285 203.279 56.2305Z" fill="#FFCEBD"/>
<path opacity="0.4" d="M236.398 103.999H210.683C204.768 103.999 199.985 99.2157 199.985 93.3013V36.5226L223.026 22.2766L247.147 36.5226V93.2756C247.095 99.2157 242.312 103.999 236.398 103.999Z" fill="white"/>
<path opacity="0.4" d="M222.975 22.2766L199.934 36.5226V93.2756C199.934 99.19 204.717 103.973 210.631 103.973H236.346C242.261 103.973 247.044 99.19 247.044 93.2756V36.5226L222.975 22.2766ZM246.812 93.147C246.812 98.9843 242.081 103.716 236.243 103.716H210.837C205 103.716 200.268 98.9843 200.268 93.147V36.9855L223.026 22.9194L246.838 36.9855V93.147H246.812Z" fill="white"/>
<path opacity="0.5" d="M205.463 102.662C207.005 103.51 208.78 103.999 210.657 103.999H215.183V27.111L205.463 33.1283V102.662Z" fill="white"/>
<path d="M224.517 21.608C213.409 21.608 203.611 27.0081 197.748 35.2112C197.748 35.2626 197.748 35.3141 197.748 35.3398C197.774 36.0598 198.108 36.7541 198.442 37.397C198.725 37.9884 199.265 38.8113 199.805 39.737C205.771 32.9997 214.617 28.731 224.517 28.731C233.389 28.731 241.464 33.2311 247.327 39.2742C247.661 37.9627 248.124 36.6769 248.612 35.4426C248.792 35.0055 248.972 34.5683 249.127 34.1312C243.161 27.111 234.34 21.608 224.517 21.608Z" fill="#05668D"/>
<path d="M360.472 119.736L337.149 92.3499L344.169 87.0526C346.175 85.5354 347.358 83.1696 347.358 80.6753V65.3749H375.284V79.261C375.284 82.1925 376.878 84.8925 379.45 86.2811L386.959 90.3698L360.472 119.736Z" fill="#FFCEBD"/>
<g opacity="0.4">
<path opacity="0.4" d="M358.878 117.833C358.801 116.676 358.801 115.519 358.852 114.362C359.007 111.353 359.598 108.293 358.827 105.387C358.492 104.102 357.875 102.867 357.515 101.582C355.972 96.3357 358.338 90.7041 357.592 85.2783C357.129 81.8582 355.355 78.6438 352.758 76.3809L347.383 71.8808V80.6496C347.383 83.1697 346.201 85.5355 344.195 87.0269L337.175 92.3242L358.878 117.833Z" fill="#A58877"/>
</g>
<path d="M315.008 264.177V336.488H355.252L360.035 279.529L363.61 336.488H405.268L410.874 258.803L357.849 248.182L315.008 264.177Z" fill="#00A79D"/>
<g opacity="0.5">
<path opacity="0.5" d="M358.544 292.258C354.764 306.453 352.861 321.676 350.649 336.488H355.252L358.981 292.232C358.852 292.206 358.698 292.232 358.544 292.258Z" fill="#007D76"/>
</g>
<g opacity="0.5">
<path opacity="0.5" d="M361.758 306.736L363.61 336.488H366.747C365.075 326.562 363.404 316.662 361.758 306.736Z" fill="#007D76"/>
</g>
<g opacity="0.5">
<path opacity="0.5" d="M396.088 329.776C395.933 332.013 395.753 334.251 395.599 336.488H405.268L409.768 274.078C405.988 280.609 403.031 287.604 400.999 294.881C397.836 306.221 396.962 318.05 396.088 329.776Z" fill="#33B9B1"/>
</g>
<g opacity="0.5">
<path opacity="0.5" d="M318.84 290.252C318.634 285.829 317.605 281.226 315.008 277.755V336.488H317.683C317.58 335.768 317.477 335.022 317.374 334.302C318.634 335.202 320.023 335.948 321.488 336.488H321.771C325.32 326.896 319.817 316.507 318.84 306.298C318.351 300.975 319.097 295.601 318.84 290.252Z" fill="#33B9B1"/>
</g>
<path d="M339.077 30.094L340.363 56.2461C340.697 63.0863 343.552 69.5407 348.386 74.4008L352.166 78.2067C354.686 80.7267 358.158 82.0896 361.732 81.9096C364.921 81.7553 367.904 80.4181 370.141 78.1295L373.973 74.2208C379.373 68.7178 382.227 61.2348 381.841 53.5203L380.607 28.0625L369.113 18.8308L350.341 19.7565L339.077 30.094Z" fill="#FFCEBD"/>
<path d="M385.39 32.8969C385.467 29.7596 385.39 26.5453 384.516 23.5109C383.95 21.5051 383.05 19.6022 382.201 17.725C381.121 15.3335 380.093 12.8906 378.421 10.9106C376.75 8.9048 374.307 7.3619 371.684 7.46476C369.627 7.5419 369.473 9.41909 369.473 11.0134C369.473 13.5592 369.55 16.0793 369.627 18.5993C369.678 20.2451 369.781 21.9937 370.784 23.3052C371.838 24.6681 373.587 25.2338 375.078 26.0824C381.61 29.8882 380.581 38.0913 380.427 44.5714C380.401 45.6772 380.401 46.8858 381.121 47.7344C383.847 50.923 384.336 44.1857 384.516 43.08C385.004 39.7113 385.287 36.3169 385.39 32.8969Z" fill="#4D5068"/>
<path d="M386.759 47.6478C387.338 43.8285 386.67 40.5597 385.266 40.3467C383.862 40.1336 382.254 43.0571 381.674 46.8764C381.095 50.6957 381.763 53.9645 383.167 54.1775C384.572 54.3906 386.18 51.4671 386.759 47.6478Z" fill="#FFCEBD"/>
<path opacity="0.3" d="M315.008 264.177V269.603C328.689 271.737 378.421 278.166 410.462 264.383L410.874 258.777L357.849 248.157L315.008 264.177Z" fill="#007D76"/>
<path d="M360.472 119.736L334.655 89.3412L309.891 106.03C303.154 110.582 298.962 118.065 298.628 126.165L296.159 186.518L291.273 259.06L292.765 263.56H304.414L306.291 257.543L320.717 180.372L311.408 263.56C311.408 263.56 379.964 276.34 416.402 256.051L404.368 188.395L406.425 149.823L425.788 172.992L419.771 212.079L419.385 218.096L430.88 224.01L433.683 219.973L448.623 165.663C450.372 159.312 449.395 152.549 445.923 146.943L422.343 108.885C417.74 101.427 411.002 95.5385 403.031 91.9127L390.456 86.204L360.472 119.736Z" fill="#00A79D"/>
<g opacity="0.5">
<path opacity="0.5" d="M335.323 202.718C338.64 200.353 343.398 197.678 342.369 193.744C341.443 190.221 336.712 189.681 333.703 187.598C329.357 184.564 329.023 178.341 329.306 173.043C329.846 163.477 331.054 153.937 332.906 144.551C325.269 149.231 323.057 159.157 321.566 168.003L320.691 180.424L311.382 263.611C311.382 263.611 324.934 266.132 343.192 267.16C342.909 265.797 342.42 264.434 341.803 263.2C340.055 259.677 337.406 256.72 335.117 253.531C329.717 245.945 326.477 236.842 325.86 227.533C325.294 218.276 327.814 208.067 335.323 202.718Z" fill="#007D76"/>
</g>
<g opacity="0.5">
<path opacity="0.5" d="M416.402 256.077L404.368 188.421L406.194 154.04C406.116 152.626 406.091 151.186 406.116 149.771C399.276 158.36 391.999 168.646 394.57 179.318C395.368 182.584 397.065 185.772 396.576 189.09C396.088 192.407 391.613 195.184 389.402 192.664C387.73 194.747 388.99 197.935 390.893 199.813C392.822 201.664 395.342 202.924 396.833 205.161C402.568 213.647 388.759 225.81 394.313 234.399C394.93 235.325 395.753 236.225 395.83 237.331C395.908 238.642 394.905 239.697 394.262 240.828C392.462 244.017 393.568 247.977 393.799 251.628C394.082 256.36 392.565 261.04 389.839 264.923C399.533 263.174 408.688 260.371 416.402 256.077Z" fill="#007D76"/>
</g>
<path d="M292.765 263.586V284.543C292.765 286.601 293.845 288.504 295.619 289.532L305.185 295.087C306.008 295.575 307.011 295.652 307.885 295.292L314.005 292.901C314.88 292.567 315.6 291.898 315.985 291.024L316.68 289.481C317.271 288.195 316.397 286.729 314.983 286.601L308.708 287.346L308.914 272.997C308.94 271.095 308.348 269.217 307.242 267.649L304.337 263.56H292.765V263.586Z" fill="#536DFE"/>
<path d="M419.411 218.096L418.871 219.69L410.102 220.642H404.342L397.605 228.253C396.885 229.051 396.962 230.285 397.759 231.031C398.505 231.699 399.636 231.725 400.408 231.031L406.219 225.836L409.228 225.168L409.099 227.353L406.605 230.002L398.71 240.802C398.196 241.497 398.299 242.448 398.916 243.039L399.688 243.759C400.433 244.454 401.616 244.351 402.208 243.528L403.648 244.685C404.625 245.457 406.014 245.38 406.888 244.505L407.865 243.528L408.894 244.557C409.716 245.38 411.054 245.431 411.902 244.634L416.994 240.031L426.328 235.505C428 234.682 429.466 233.473 430.597 231.982C431.343 230.979 431.677 229.719 431.497 228.459L430.906 224.036L419.411 218.096Z" fill="#536DFE"/>
<g opacity="0.5">
<path opacity="0.5" d="M304.285 277.06C304.336 279.735 304.002 282.383 303.694 285.006C303.436 287.115 302.768 289.892 303.745 291.898C304.336 293.107 305.879 294.058 307.217 293.389C308.965 292.515 308.579 290.046 309.222 288.529C309.377 288.144 308.759 287.964 308.579 288.349C308.014 289.686 308.219 293.441 305.854 292.901C303.642 292.387 303.925 289.455 304.079 287.732C304.388 284.158 305.031 280.635 304.979 277.035C304.954 276.623 304.285 276.623 304.285 277.06Z" fill="#3E52BF"/>
</g>
<g opacity="0.5">
<path opacity="0.5" d="M402.645 242.937C404.033 241.625 405.345 240.237 406.528 238.719C407.608 237.305 408.534 235.762 410.102 234.811C410.462 234.579 410.128 234.014 409.768 234.245C408.405 235.094 407.505 236.354 406.554 237.639C405.242 239.388 403.802 241.008 402.182 242.5C401.848 242.757 402.336 243.22 402.645 242.937Z" fill="#3E52BF"/>
</g>
<g opacity="0.5">
<path opacity="0.5" d="M409.074 242.86C410.411 240.802 411.979 238.951 413.805 237.331C414.114 237.048 413.651 236.585 413.342 236.868C411.465 238.539 409.871 240.417 408.508 242.525C408.276 242.885 408.842 243.22 409.074 242.86Z" fill="#3E52BF"/>
</g>
<g opacity="0.5">
<path opacity="0.5" d="M422.368 108.885C417.765 101.427 411.028 95.5386 403.056 91.9128L400.999 90.9613C402.028 94.8185 404.445 98.5472 406.836 101.839C410.642 107.059 414.834 112.999 413.805 119.376C416.017 120.765 419.36 118.656 421.34 120.354C422.163 121.074 422.42 122.205 422.728 123.234C425.66 133.108 436.537 138.225 442.323 146.763C446.617 153.089 447.8 160.752 447.852 168.518L448.649 165.663C450.398 159.312 449.42 152.549 445.949 146.943L422.368 108.885Z" fill="#33B9B1"/>
</g>
<path d="M360.472 133.057L360.369 132.954L327.223 94.3814L327.429 94.2013L360.472 132.645L397.039 89.1355L397.245 89.3155L360.472 133.057Z" fill="#007D76"/>
<g opacity="0.5">
<path opacity="0.5" d="M306.959 133.468C307.86 135.937 308.888 139.228 311.511 139.177C310.791 131.257 310.071 123.336 309.351 115.416C309.094 112.588 309.66 108.679 312.514 108.447C313.363 108.37 314.185 108.73 315.034 108.833C319.508 109.476 322.543 104.127 322.748 99.6272C322.774 98.8558 322.774 98.0843 322.774 97.3129L309.865 106.005C303.128 110.556 298.936 118.039 298.602 126.139L296.133 186.492L294.745 207.141C295.516 203.747 295.953 200.276 296.185 196.855C296.905 186.235 296.082 175.358 298.988 165.123C300.068 161.292 301.662 157.589 302.254 153.654C303.257 146.814 301.096 139.948 300.814 133.031C300.788 132.259 300.788 131.437 301.199 130.768C302.665 128.659 306.059 130.999 306.959 133.468Z" fill="#33B9B1"/>
</g>
<g opacity="0.4">
<path opacity="0.4" d="M353.504 72.4979C351.626 67.7149 352.012 62.1862 354.224 57.5575C355.278 55.3717 356.744 53.2374 356.898 50.8202C357.104 47.5029 354.789 44.2114 355.638 40.9971C356.101 39.2742 357.387 37.9113 358.235 36.3426C360.344 32.434 359.238 27.0595 355.741 24.308L352.552 22.9709C351.472 22.0965 350.238 21.4537 348.926 21.0422L339.052 30.0939L340.338 56.246C340.672 63.0862 343.526 69.5407 348.361 74.4008L352.141 78.2066C354.661 80.7267 358.132 82.0896 361.707 81.9096C362.144 81.8838 362.555 81.8324 362.967 81.781C358.698 80.2895 355.175 76.7409 353.504 72.4979Z" fill="#A58877"/>
</g>
<path d="M341.212 43.8514C340.518 44.7514 339.746 45.5743 338.846 46.2686C338.486 46.5515 338.049 46.8344 337.586 46.7829C336.48 46.6801 336.635 42.9514 336.532 42.1028C335.863 35.2369 336.249 28.0881 339.026 21.7623C341.803 15.4364 347.229 10.0362 353.966 8.51906C355.252 8.23619 356.589 8.08191 357.901 7.95334C359.418 7.79905 360.961 7.61904 362.478 7.46475C364.432 7.25903 366.284 7.00188 368.187 7.59332C368.701 7.74761 369.215 7.97905 369.524 8.41621C369.781 8.77621 369.858 9.23908 369.935 9.70195C370.321 12.582 370.27 15.5135 370.193 18.4193C370.167 19.2679 370.141 20.1679 369.653 20.888C369.215 21.5308 368.521 21.9166 367.801 22.2509C364.15 23.948 360.215 24.8481 356.486 26.3652C352.732 27.9081 349.981 30.1968 347.538 33.3854C345.095 36.6255 343.68 40.6885 341.212 43.8514Z" fill="#4D5068"/>
<path d="M341.16 48.8658C342.112 52.6202 341.778 55.9374 340.389 56.2717C339.026 56.606 337.149 53.8545 336.197 50.1259C335.246 46.3715 335.58 43.0542 336.969 42.72C338.332 42.3599 340.209 45.1115 341.16 48.8658Z" fill="#FFCEBD"/>
<path opacity="0.4" d="M341.16 48.8658C342.112 52.6202 341.778 55.9374 340.389 56.2717C339.026 56.606 337.149 53.8545 336.197 50.1259C335.246 46.3715 335.58 43.0542 336.969 42.72C338.332 42.3599 340.209 45.1115 341.16 48.8658Z" fill="#A58877"/>
<path d="M377.213 84.3782C385.134 88.4926 390.405 96.9528 389.968 106.442L389.377 119.402L391.665 119.505L392.257 106.545C392.745 96.0528 386.882 86.744 378.088 82.2439L375.593 81.4467L377.213 84.3782Z" fill="#4D5068"/>
<path d="M390.945 148.151C391.047 146.12 392.77 144.526 394.802 144.628C396.833 144.731 396.499 152.111 394.468 152.009C392.41 151.906 390.842 150.183 390.945 148.151Z" fill="#4D5068"/>
<path d="M388.167 148.023C388.27 145.991 386.676 144.268 384.644 144.165C382.613 144.063 382.279 151.443 384.31 151.546C386.342 151.623 388.065 150.054 388.167 148.023Z" fill="#4D5068"/>
<path d="M390.61 117.602C398.453 117.962 404.548 124.648 404.188 132.491L404.008 136.477C403.802 141.26 403.622 145.374 401.153 147.637C399.816 148.846 397.99 149.386 395.522 149.283L395.599 147.431C397.528 147.509 398.942 147.149 399.893 146.274C401.796 144.526 401.951 140.771 402.156 136.4L402.336 132.414C402.645 125.574 397.348 119.762 390.507 119.453C383.667 119.145 377.856 124.442 377.547 131.282L377.367 135.268C377.161 139.64 376.981 143.394 378.704 145.323C379.579 146.274 380.941 146.788 382.87 146.866L382.793 148.717L381.996 148.666C379.939 148.46 378.421 147.766 377.341 146.583C375.078 144.114 375.284 139.974 375.516 135.217L375.696 131.231C376.081 123.336 382.767 117.242 390.61 117.602Z" fill="#E3EDFE"/>
<path d="M327.12 151.546C327.377 155.66 330.952 158.797 335.066 158.54C339.18 158.283 342.318 154.709 342.06 150.594C341.803 146.48 338.229 143.343 334.114 143.6C330 143.857 326.863 147.406 327.12 151.546Z" fill="#E3EDFE"/>
<path d="M329.486 151.391C329.666 154.22 332.083 156.354 334.912 156.174C337.74 155.994 339.875 153.577 339.695 150.749C339.515 147.946 337.097 145.811 334.269 145.991C331.44 146.146 329.306 148.563 329.486 151.391Z" fill="#4D5068"/>
<path d="M333.343 149.617L335.632 149.463L332.212 108.396C331.543 97.9043 336.763 88.8526 346.072 85.2011L347.101 82.2696C335.606 85.7925 329.203 96.9785 329.949 108.55L333.343 149.617Z" fill="#4D5068"/>
<path d="M331.234 151.263C331.363 153.114 332.957 154.529 334.809 154.426C336.66 154.297 338.075 152.703 337.972 150.851C337.843 149 336.249 147.586 334.397 147.689C332.52 147.817 331.106 149.411 331.234 151.263Z" fill="#E3EDFE"/>
<g opacity="0.5">
<path opacity="0.5" d="M382.819 23.5109C383.256 24.0252 383.693 24.5395 384.156 25.0538C382.87 21.8908 381.584 18.7279 380.299 15.5392C379.733 14.1249 379.141 12.6849 378.241 11.4505C377.341 10.2162 376.056 9.18763 374.564 8.87905C373.433 8.64762 372.07 8.98191 371.53 9.98479C371.195 10.5762 371.221 11.2963 371.221 11.9906C371.247 13.3277 371.633 14.5363 371.684 15.8478C371.787 18.2136 370.193 21.3508 372.918 22.8166C373.947 23.3823 375.156 23.5366 376.158 24.128C377.598 24.9766 378.421 26.5709 379.064 28.1138C379.039 27.3167 379.013 26.5195 378.987 25.7224C379.733 26.0824 380.479 26.4681 381.224 26.8281C380.864 25.9024 380.71 24.8995 380.761 23.8966C381.404 24.8223 382.176 25.6195 383.101 26.2367C382.844 25.3623 382.741 24.4366 382.819 23.5109Z" fill="#717386"/>
</g>
<g opacity="0.5">
<path opacity="0.5" d="M368.675 17.9308C369.19 16.0793 369.19 14.0735 368.727 12.222C368.315 10.5506 367.338 8.85338 365.718 8.31337C364.87 8.0305 363.97 8.08193 363.07 8.13336C360.009 8.33908 356.744 8.59624 354.275 10.422C354.095 10.5506 353.915 10.7049 353.889 10.9363C353.864 11.1934 354.044 11.4249 354.224 11.5792C354.944 12.2478 355.972 12.6078 356.975 12.5049C355.869 12.9935 354.738 13.4564 353.632 13.945C354.738 14.485 356.024 14.7164 357.258 14.5364C357.001 16.0793 355.998 17.4936 354.609 18.2394C355.844 18.2651 357.104 18.1108 358.312 17.7765C357.618 19.1136 356.975 20.5023 356.435 21.9166C357.361 21.1966 358.595 20.888 359.752 21.068C359.187 22.1223 358.647 23.1509 358.081 24.2052C360.524 23.1252 362.452 20.9394 365.075 20.3737C365.924 20.1937 366.85 20.168 367.647 19.808C368.444 19.448 369.087 18.5222 368.778 17.6993L368.675 17.9308Z" fill="#717386"/>
</g>
<path d="M376.596 75.6352L382.741 54.1375L382.15 53.006L377.187 70.5694L376.596 75.6352Z" fill="white"/>
<path d="M346.329 77.8209L340.183 56.3232L340.826 55.1146L345.738 72.7808L346.329 77.8209Z" fill="white"/>
<path d="M346.535 64.6034C347.409 60.2833 344.992 50.3573 340.209 46.0372L339.489 44.6486C344.812 47.3744 347.049 57.5575 347.306 61.1576C347.229 62.3662 346.972 63.5234 346.535 64.6034Z" fill="white"/>
<path d="M375.258 64.6034C374.384 60.2833 377.084 50.2288 381.893 45.9087L382.176 44.7258C376.853 47.4516 374.77 57.5575 374.487 61.1576C374.564 62.3662 374.821 63.5234 375.258 64.6034Z" fill="white"/>
<path d="M375.747 78.901C363.995 82.964 358.287 82.964 346.535 78.901C344.478 71.0322 342.909 62.1092 342.909 53.7004C354.661 49.6374 367.647 49.6374 379.399 53.7004C379.373 62.0834 378.01 70.2608 375.747 78.901Z" fill="#00A79D"/>
<path d="M379.347 55.5775C379.373 54.9604 379.373 54.3175 379.373 53.7004C367.621 49.6374 354.635 49.6374 342.883 53.7004C342.883 54.3175 342.883 54.9604 342.909 55.5775C354.661 51.5403 367.595 51.5403 379.347 55.5775Z" fill="#05668D"/>
<path opacity="0.3" d="M343.86 65.9663C355.046 64.1406 367.261 64.1406 378.447 65.9663C378.498 65.6577 378.524 65.3492 378.576 65.0406C367.312 63.1891 354.995 63.1891 343.732 65.0406C343.758 65.3492 343.809 65.6577 343.86 65.9663Z" fill="#02606C"/>
<path opacity="0.3" d="M345.66 75.4037C345.738 75.738 345.815 76.0466 345.892 76.3809C355.818 77.7952 366.438 77.7952 376.364 76.3809C376.441 76.0466 376.518 75.738 376.596 75.4037C366.541 76.8438 355.741 76.8438 345.66 75.4037Z" fill="#02606C"/>
<path d="M31.038 336.179L69.0448 336.231L76.3992 279.375L78.8679 336.359L119.24 336.488L126.055 228.896H29.058L31.038 336.179Z" fill="#05668D"/>
<g opacity="0.2">
<path opacity="0.2" d="M98.3598 269.937C101.034 285.598 106.331 300.77 108.029 316.559C108.749 323.219 108.8 329.853 108.414 336.462L119.24 336.488L125.772 233.319L115.872 228.896H101.677C95.9168 241.368 96.0197 256.206 98.3598 269.937Z" fill="#191C3C"/>
</g>
<g opacity="0.2">
<path opacity="0.2" d="M46.6213 336.205C46.7499 330.368 47.187 324.53 48.1385 318.77C51.4043 298.867 60.6617 279.889 60.6874 259.729C60.6874 249.031 58.013 238.359 52.9986 228.922H29.058L31.0123 336.205H46.6213Z" fill="#191C3C"/>
</g>
<path d="M11.4174 259.78L13.1661 266.697L10.9546 270.297C9.9774 271.892 9.66882 273.82 10.1317 275.646L12.8318 286.292L13.5518 287.192C14.7347 288.709 16.7147 289.378 18.5919 288.915L28.0807 286.498C29.4951 286.138 30.7294 285.315 31.6037 284.132L32.4008 283.052C33.4037 281.689 33.738 279.966 33.3266 278.346L31.8094 272.406L33.8152 269.577L32.0923 262.814L29.1093 261.76L25.1492 260.5L23.7349 256.694L11.4174 259.78Z" fill="#536DFE"/>
<path d="M117.029 225.425H31.038V117.988L66.576 80.6753L117.029 90.7298V225.425Z" fill="#27AAE1"/>
<path d="M152.181 259.06V266.183L155.19 269.115C156.527 270.426 157.298 272.226 157.298 274.103V285.084L156.836 286.138C156.064 287.912 154.315 289.044 152.387 289.044H142.589C141.124 289.044 139.709 288.529 138.604 287.604L137.575 286.755C136.264 285.701 135.518 284.106 135.518 282.409V276.289L132.869 274.052V267.057L135.518 265.309L139.041 263.123L139.478 259.086H152.181V259.06Z" fill="#536DFE"/>
<path d="M117.235 221.259H31.038V228.896H117.235V221.259Z" fill="#4D5068"/>
<path d="M82.2366 221.259H59.9674V228.896H82.2366V221.259Z" fill="#FEC55E"/>
<path d="M97.1767 87.4898L81.8763 98.7272L66.5759 87.4898V61.8519H97.1767V87.4898Z" fill="#FFCEBD"/>
<path opacity="0.3" d="M31.038 117.988V243.708H32.4523L32.478 243.914L46.4669 234.142C55.9815 227.482 59.7359 215.319 55.93 204.339C46.8012 177.981 40.2182 135.5 66.576 85.9211V80.6753L31.038 117.988Z" fill="#191C3C"/>
<path d="M66.576 80.6753L51.4813 91.0899L37.3638 93.3785C36.6181 93.507 34.9466 93.9185 32.8894 94.4842C24.3778 96.85 18.4633 104.59 18.3862 113.41L18.0519 150.569L22.4491 222.93L22.6806 329.956H52.9471C51.1985 276.135 41.5296 129.842 66.6017 87.4898V80.6753H66.576Z" fill="white"/>
<path opacity="0.3" d="M123.02 246.768L123.432 221.233H117.029V90.7298L99.9798 87.3354C91.931 141.671 88.6652 179.446 87.4051 203.207C86.4023 221.979 98.2569 239.002 116.18 244.634L123.02 246.768Z" fill="#191C3C"/>
<path d="M97.1769 73.7322L110.009 87.4897L131.455 94.5871C140.635 97.6214 146.267 106.905 144.672 116.471L127.778 218.687L141.741 329.956H91.931C91.7253 277.909 92.7282 129.328 97.1769 73.7322Z" fill="white"/>
<path d="M81.8764 98.7272L70.0475 110.736L62.5902 94.5871L66.576 87.4898L81.8764 98.7272Z" fill="#7DCCED"/>
<path d="M81.8765 98.7272L87.5595 110.736L94.9397 104.719L96.0711 88.3127L81.8765 98.7272Z" fill="#7DCCED"/>
<path d="M92.1624 205.496C92.1881 206.37 92.2653 207.244 92.3424 208.119L92.5738 210.124C92.5996 210.304 92.2395 262.3 92.2653 262.48L111.86 108.525L104.84 98.7272L114.792 93.0699L97.1511 73.7322C92.1367 136.862 91.5967 179.549 92.1624 205.496Z" fill="#A9DDF3"/>
<path d="M42.6611 102.147C42.6611 102.147 27.695 190.838 50.3242 259.06C51.2499 233.756 42.5582 169.881 66.576 87.4898V80.6753L51.4813 91.0899L57.6786 94.8185L42.6611 102.147Z" fill="#A9DDF3"/>
<path d="M19.0291 108.525L0 185.721L10.9546 260.166L28.595 260.449L24.5835 184.384L36.0781 142.957L19.0291 108.525Z" fill="white"/>
<g opacity="0.5">
<path opacity="0.5" d="M28.338 161.729C25.1493 168.158 21.0606 174.998 17.872 181.427C17.1005 182.995 16.4319 185.207 17.8205 186.287C18.4634 186.801 19.3892 186.878 19.9035 187.521C20.6492 188.472 19.7749 189.99 18.6177 190.324C17.4605 190.658 16.2262 190.221 15.0948 189.81C14.1176 190.71 14.8376 192.433 15.9691 193.127C17.1005 193.821 18.5148 193.95 19.672 194.593C20.8292 195.235 21.6778 196.881 20.8035 197.884C20.4692 198.27 19.9292 198.476 19.5177 198.81C17.8205 200.276 19.4406 202.976 20.9063 204.673C23.0407 207.142 24.7893 209.944 26.1008 212.927L24.5836 184.332L29.1866 167.695C28.9294 164.738 28.5951 164.738 28.338 161.729Z" fill="#A9DDF3"/>
</g>
<g opacity="0.5">
<path opacity="0.5" d="M120.475 224.062C118.469 223.342 116.232 223.368 114.354 222.39C114.174 220.77 115.743 219.459 117.286 218.919C118.829 218.379 120.552 218.25 121.915 217.376C123.277 216.476 124.023 214.316 122.789 213.236C121.375 212.002 119.112 213.416 117.337 212.824C117.774 206.91 126.029 203.618 125.926 197.678C125.9 195.827 124.975 194.104 124.64 192.252C123.946 188.447 125.746 184.692 127.469 181.221C130.735 174.715 134.026 168.209 137.292 161.703L127.829 218.636L136.392 285.083C135.672 284.183 135.055 283.181 134.566 282.178C132.303 277.549 131.301 272.406 130.349 267.34C129.115 260.886 127.906 254.457 126.672 248.003C125.669 242.705 123.56 236.302 118.263 235.479C117.414 234.142 118.674 232.445 120.063 231.648C121.426 230.851 123.123 230.208 123.663 228.742C124.357 226.813 122.455 224.756 120.475 224.062Z" fill="#A9DDF3"/>
</g>
<path d="M60.8158 64.732C60.7901 64.7063 60.7644 64.6549 60.7387 64.6291C60.6358 64.5777 60.5587 64.5263 60.4558 64.4749L60.8158 64.732Z" fill="#A58877"/>
<path d="M105.431 35.1084C105.508 34.697 105.56 34.2855 105.637 33.8484C106.151 30.2997 106.254 26.5711 104.84 23.2795C103.426 19.988 100.211 17.288 96.6368 17.3651C97.074 16.3622 96.8425 15.1536 96.2254 14.2279C95.6082 13.3021 94.7082 12.6335 93.7567 12.0935C90.3109 10.0878 86.2223 9.36774 82.2364 9.54774C78.7135 9.70203 75.3705 10.6021 72.0276 11.6307C69.6104 12.3764 67.1418 12.505 64.7503 13.5593C60.1216 15.5651 56.3415 19.2937 54.9271 24.231C54.3614 26.1596 54.1814 28.1911 54.13 30.1969C53.9757 35.8027 54.8243 41.3829 55.6729 46.9116C56.2386 50.6146 56.4958 54.5746 57.4472 58.2005C57.9615 60.1548 58.8358 63.472 60.713 64.5778C64.4417 66.7635 68.2475 68.9236 72.4905 69.7979C75.8848 70.4922 79.3821 70.3122 82.8279 70.1065C87.1737 69.875 91.9567 69.4379 94.9911 66.3007C96.1739 65.0664 96.9711 63.5235 97.7426 62.0063C98.7712 60.0005 99.7998 57.969 100.828 55.9633C101.626 54.3946 102.423 52.8518 102.963 51.1803C103.837 48.5059 103.76 45.3944 104.12 42.6429C104.428 40.1486 104.994 37.6285 105.431 35.1084Z" fill="#A58877"/>
<path d="M101.317 44.7772C101.317 44.7772 105.997 41.9743 105.997 44.4686C105.997 45.9087 106.614 48.3516 105.714 51.566C104.969 54.2146 102.988 56.3489 100.366 57.249L97.4083 49.6373L101.317 44.7772Z" fill="#FFCEBD"/>
<path opacity="0.4" d="M66.5247 82.604C68.2476 83.5297 70.1762 84.0954 72.182 84.0954H75.6792C79.7164 84.0954 83.6765 82.784 86.9166 80.3925L89.9767 78.1296C94.2197 74.9923 97.1255 70.4151 98.2312 65.3235V64.8864H66.5247V82.604Z" fill="#A58877"/>
<path d="M57.3444 42.4629L58.1673 58.3547C58.4759 64.4492 60.7902 70.2865 64.7503 74.9152C67.0132 77.5638 70.3304 79.1067 73.8277 79.1067H77.3249C81.3622 79.1067 85.3223 77.7952 88.5624 75.4038L91.6224 73.1408C96.6883 69.3865 99.8769 63.6006 100.366 57.3004L101.42 43.2601C101.986 35.6227 98.6426 28.1396 92.3939 23.691C88.4595 20.888 83.3937 18.7023 77.3506 19.1137C65.5218 19.9109 56.7529 30.5826 57.3444 42.4629Z" fill="#FFCEBD"/>
<g opacity="0.4">
<path opacity="0.4" d="M67.4761 77.2552C67.5018 77.2809 67.5275 77.2809 67.5532 77.3066C67.6818 77.3837 67.8104 77.4609 67.9389 77.538C68.0161 77.5638 68.0675 77.6152 68.1446 77.6409C68.2475 77.6923 68.3504 77.7438 68.4789 77.8209C68.5561 77.8723 68.6332 77.898 68.7104 77.9495C68.8132 78.0009 68.9418 78.0523 69.0447 78.1038C69.1218 78.1295 69.199 78.1809 69.2761 78.2066C69.4047 78.2581 69.5075 78.3095 69.6361 78.3352C69.7133 78.3609 69.7904 78.3866 69.8675 78.4124C69.9961 78.4638 70.1247 78.4895 70.2533 78.5409C70.3304 78.5667 70.4076 78.5924 70.4847 78.6181C70.6133 78.6438 70.7419 78.6952 70.8704 78.7209C70.9476 78.7466 71.0247 78.7466 71.1019 78.7724C71.2304 78.7981 71.359 78.8238 71.4876 78.8495C71.5647 78.8752 71.6419 78.8752 71.6933 78.9009C71.8219 78.9267 71.9505 78.9524 72.1047 78.9781C72.4905 79.0295 72.8505 79.0809 73.2362 79.1067C73.2619 79.1067 73.2619 79.1067 73.2876 79.1067C72.0276 77.9238 70.7419 76.7923 69.5075 75.558C68.4018 74.4522 67.4503 73.1922 66.9618 71.7007C66.4989 70.3379 66.4217 68.8978 66.4475 67.4578C66.4989 64.3206 67.0389 61.1833 68.0418 58.2004C68.5047 56.8632 69.0447 55.4746 68.8132 54.0603C68.4018 51.5145 65.496 49.6116 65.9074 47.0915C66.036 46.2172 66.5503 45.4715 67.0646 44.7515C68.3761 42.8228 69.6361 40.6628 69.6104 38.3227C69.5847 36.137 68.4018 34.1569 67.2703 32.2797C66.216 30.5568 65.1874 28.8339 64.1331 27.0853L62.7445 26.6481C61.1759 28.4996 59.8901 30.634 58.9644 32.9483C58.7073 33.6169 58.4758 34.2855 58.2701 34.9541C58.1672 35.2884 58.0901 35.6484 57.9872 35.9827C57.9101 36.317 57.8329 36.677 57.7558 37.037C57.6787 37.397 57.6272 37.7313 57.5758 38.0913C57.5244 38.4513 57.4729 38.8113 57.4472 39.1713C57.4215 39.5313 57.3958 39.8913 57.3701 40.2514C57.3444 40.6114 57.3444 40.9714 57.3444 41.3571C57.3444 41.7171 57.3444 42.1028 57.3701 42.4628L58.193 58.3547C58.3987 62.1605 59.3758 65.8635 61.0473 69.2578C61.5616 70.2607 62.1273 71.2636 62.7445 72.1893C63.1559 72.8322 63.5931 73.4494 64.0817 74.0408C64.3131 74.3494 64.5703 74.6323 64.8017 74.9151C65.5474 75.8151 66.4732 76.6123 67.4761 77.2552Z" fill="#A58877"/>
</g>
<path d="M59.0415 34.0283C59.0929 33.8483 59.1443 33.694 59.1958 33.514C59.3501 33.0512 59.5301 32.5883 59.9158 32.2797C60.2244 32.0226 60.6358 31.9454 61.0215 31.894C62.7959 31.7397 64.2102 33.0769 65.7788 33.7455C67.4503 34.4655 69.2503 34.9284 71.0504 35.1855C74.7533 35.6998 78.5849 35.2627 82.0307 33.7969C84.165 32.8969 86.1965 31.6111 88.4851 31.2254C90.7738 30.8397 93.5253 31.6626 94.3739 33.8483C94.6567 34.5941 94.7081 35.4427 95.0424 36.1627C95.7367 37.577 97.2796 38.0913 98.3082 39.1456C99.594 40.4571 99.7483 42.1543 99.6711 43.9029C99.594 45.7544 99.1568 47.8887 99.2083 49.6373C99.234 50.4602 99.3111 50.6659 100.083 50.9745C100.237 51.0516 101.883 51.0774 101.908 51.0002C102.243 49.2259 101.908 47.4001 101.934 45.6001C101.96 43.3886 102.448 41.2028 102.628 38.9913C102.783 37.1913 103.734 35.6227 103.837 33.7969C104.094 29.3997 101.137 25.3881 97.4854 22.9195C93.8338 20.4765 89.5394 19.2422 85.425 17.6736C82.0821 16.3879 79.5106 14.5364 75.7562 14.845C72.0018 15.1536 68.2989 16.1307 64.8788 17.7251C62.7444 18.7022 60.6615 19.9623 59.2215 21.8395C57.91 23.5109 56.4957 24.9252 55.8014 27.0082C55.1328 28.9625 54.9785 31.0711 54.9014 33.1283C54.7728 37.5256 54.9528 41.9228 55.4157 46.2944C55.5957 47.9658 55.9814 49.8945 57.4729 50.6916C58.3472 47.2973 58.0643 43.3372 58.27 39.8142C58.3986 37.8856 58.5272 35.9055 59.0415 34.0283Z" fill="#A58877"/>
<g opacity="0.3">
<path opacity="0.3" d="M91.4424 13.1478C94.271 14.2793 94.8368 16.105 93.5253 18.7537C92.0853 21.6338 89.8995 23.4852 87.1223 24.951C85.4765 25.8253 83.8308 26.6996 82.185 27.5739C81.0021 28.1911 79.8449 28.8082 78.5592 29.2197C75.2677 30.2997 71.6676 29.8625 68.2218 29.4511C64.776 29.0654 61.1502 28.7311 57.9358 30.0168C60.6101 28.3197 63.0788 26.3139 66.2932 25.9282C68.0418 25.7224 69.8418 25.9024 71.5904 26.0567C69.8418 24.8224 67.8618 24.2824 65.7017 24.5653C63.7988 24.7967 61.973 25.5939 60.353 26.6225C62.5131 23.7167 66.3446 22.5338 69.9704 22.3538C71.5133 22.2766 73.2619 22.3795 74.6505 21.608C73.3648 21.4538 72.0533 21.0938 70.7676 20.8109C70.1247 20.6823 69.4818 20.528 68.8132 20.528C67.116 20.4766 65.496 21.2223 63.9788 21.9423C64.776 20.9395 65.5731 19.9366 66.7046 19.3194C68.3246 18.4708 70.2533 18.6251 72.0533 18.6765C72.619 18.7022 78.0706 18.2651 76.4763 16.9536C76.2191 16.7479 75.8848 16.7222 75.5762 16.7222C74.0076 16.6965 72.439 17.1079 70.8704 17.0565C69.3018 17.0051 67.5789 16.3879 66.9103 14.9736C68.8389 15.4622 70.9476 15.2307 72.7219 14.305C73.8534 13.7135 74.8305 12.865 75.962 12.2735C77.1449 11.6306 78.1992 11.7335 79.4592 11.6049C80.7193 11.5021 81.9278 11.3221 83.2136 11.3735C86.0422 11.5021 88.8195 12.0935 91.4424 13.1478Z" fill="#B7A092"/>
</g>
<g opacity="0.3">
<path opacity="0.3" d="M101.008 21.0937C100.674 20.1679 100.083 19.345 99.3112 18.7279C98.6426 18.2136 97.8455 17.9565 97.0483 18.2393C96.1226 18.5993 95.8397 19.7051 95.1454 20.4251C94.6825 20.9137 94.1425 21.3251 93.6539 21.7623C92.5482 22.8166 91.6739 24.0766 90.7996 25.3366C90.3881 25.9281 89.9767 26.5452 89.8481 27.2653C89.7195 27.9853 89.951 28.8082 90.5939 29.1424C90.8767 29.2967 91.211 29.3225 91.5453 29.4253C93.5511 29.9396 94.7083 32.0225 95.6083 33.8997C95.7626 31.8682 95.094 29.8625 94.4511 27.9081C95.3511 28.371 96.1483 29.0396 96.7912 29.8368C96.8683 28.3196 97.074 26.8281 97.434 25.3623C97.9226 26.571 98.2826 27.831 98.4884 29.1167C98.8226 26.8024 99.1827 24.5138 99.517 22.1994C100.057 23.228 100.391 24.3337 100.494 25.4909C101.291 24.2309 101.497 22.5594 101.008 21.0937Z" fill="#B7A092"/>
</g>
<path d="M66.4732 81.8068C57.4987 84.6354 50.5042 92.4528 49.2185 102.379L47.4699 115.931L45.0784 115.622L46.827 102.07C48.2413 91.1156 56.0072 82.5011 65.9332 79.441L68.659 79.081L66.4732 81.8068Z" fill="#4D5068"/>
<path d="M40.6297 145.477C40.9126 143.343 39.3954 141.388 37.261 141.131C35.1267 140.848 34.1238 148.589 36.2581 148.846C38.3925 149.103 40.3468 147.611 40.6297 145.477Z" fill="#4D5068"/>
<path d="M43.5354 145.837C43.8183 143.703 45.7726 142.211 47.8812 142.468C50.0156 142.751 49.0127 150.466 46.8784 150.183C44.7697 149.926 43.2783 147.971 43.5354 145.837Z" fill="#4D5068"/>
<path d="M46.5441 113.848C38.3411 112.793 30.8066 118.605 29.7523 126.834L29.2122 131C28.5437 135.988 27.9779 140.308 30.138 143.111C31.2952 144.628 33.1209 145.503 35.6924 145.837L35.9496 143.908C33.9181 143.651 32.5295 143.008 31.7066 141.928C30.0351 139.768 30.5751 135.834 31.1666 131.257L31.7066 127.091C32.6323 119.942 39.1896 114.876 46.3384 115.802C53.4872 116.728 58.553 123.285 57.6273 130.434L57.0873 134.6C56.5215 139.177 56.0072 143.111 53.8729 144.783C52.7929 145.606 51.3014 145.888 49.2699 145.631L49.0128 147.56L49.8356 147.637C51.9957 147.791 53.7186 147.354 55.0558 146.326C57.8587 144.166 58.3987 139.845 59.0159 134.857L59.5559 130.691C60.5588 122.436 54.7472 114.902 46.5441 113.848Z" fill="#E3EDFE"/>
<path d="M117.723 152.677C117.44 157.023 113.686 160.315 109.34 160.032C104.994 159.749 101.703 155.994 101.986 151.649C102.268 147.303 106.023 144.011 110.369 144.294C114.689 144.603 118.006 148.331 117.723 152.677Z" fill="#E3EDFE"/>
<path d="M115.229 152.523C115.049 155.48 112.477 157.743 109.52 157.563C106.563 157.383 104.3 154.812 104.48 151.854C104.66 148.897 107.232 146.634 110.189 146.84C113.172 146.994 115.409 149.566 115.229 152.523Z" fill="#4D5068"/>
<path d="M111.166 150.646L108.774 150.491L112.374 107.239C113.095 96.1814 107.566 86.6669 97.7941 82.8096L96.5341 82.861L96.7141 79.7238C108.826 83.4525 115.563 95.2042 114.792 107.419L111.166 150.646Z" fill="#4D5068"/>
<path d="M113.403 152.394C113.275 154.349 111.577 155.84 109.623 155.712C107.669 155.583 106.177 153.886 106.306 151.932C106.434 149.977 108.132 148.486 110.086 148.614C112.04 148.769 113.532 150.44 113.403 152.394Z" fill="#E3EDFE"/>
<path d="M90.9536 78.0524L100.931 57.2747L100.34 56.1689L91.9822 73.4751L90.9536 78.0524Z" fill="white"/>
<path d="M63.5416 80.7781L58.2186 60.9519L58.1415 57.9432L62.9502 75.738L63.5416 80.7781Z" fill="white"/>
<path d="M64.3645 71.135C65.2388 66.8149 62.6159 56.9661 57.8329 52.646L57.7557 50.9488C63.0787 53.6746 64.8788 64.0891 65.1359 67.6892C65.0845 68.8978 64.8016 70.055 64.3645 71.135Z" fill="white"/>
<path d="M90.8251 67.5607C89.9508 63.2406 97.0739 50.1516 101.857 45.8572L100.314 45.9601C95.0424 50.3831 90.3108 60.5405 90.028 64.1406C90.1308 65.3235 90.388 66.4806 90.8251 67.5607Z" fill="white"/>
<path d="M90.4651 81.1382C79.0219 85.0983 73.4675 85.0983 61.9986 81.1382C59.9928 73.4752 58.45 64.7835 58.45 56.5804C69.8931 52.6203 82.5449 52.6203 93.988 56.5804C94.0137 64.7578 92.6766 72.7037 90.4651 81.1382Z" fill="white"/>
<path d="M93.9881 58.4062C94.0138 57.789 94.0138 57.1976 94.0138 56.5804C82.5706 52.6203 69.9189 52.6203 58.4757 56.5804C58.4757 57.1976 58.4757 57.789 58.5014 58.4062C69.9446 54.4718 82.5449 54.4718 93.9881 58.4062Z" fill="#05668D"/>
<path opacity="0.3" d="M59.4272 68.5378C70.3303 66.7635 82.2106 66.7635 93.1138 68.5378C93.1652 68.2293 93.1909 67.9464 93.2423 67.6378C82.262 65.8378 70.2789 65.8378 59.2986 67.6378C59.3243 67.9464 59.3757 68.255 59.4272 68.5378Z" fill="#B3CDFA"/>
<path opacity="0.3" d="M61.1759 77.7181C61.253 78.0267 61.3302 78.361 61.4073 78.6695C71.0762 80.0324 81.4393 80.0324 91.1081 78.6695C91.1853 78.361 91.2624 78.0267 91.3396 77.7181C81.5164 79.1324 70.999 79.1324 61.1759 77.7181Z" fill="#B3CDFA"/>
<path d="M87.7394 54.5746H83.7279C80.4878 54.5746 79.2278 51.9774 78.5335 50.0231C78.2506 48.8402 77.0163 43.1829 78.6878 41.64C81.2593 39.3256 90.2081 39.3256 92.7539 41.64C94.4253 43.1572 93.191 48.8402 92.9339 49.9716C92.9596 52.4403 90.5938 54.5746 87.7394 54.5746ZM85.7337 41.0485C83.1879 41.0485 80.6421 41.5114 79.5878 42.4372C78.7135 43.2343 79.1506 47.1687 79.7678 49.6888C80.6678 52.2603 81.8507 53.366 83.7279 53.366H87.7394C89.8995 53.366 91.6738 51.7717 91.6738 49.7916C92.291 47.143 92.7281 43.2086 91.8538 42.4114C90.8252 41.5371 88.2795 41.0485 85.7337 41.0485Z" fill="#4D5068"/>
<path d="M74.2134 45.6258L73.4934 44.5714C74.522 43.8514 76.9906 42.9771 78.8936 44.6229L78.045 45.6C76.4249 44.16 74.3163 45.5486 74.2134 45.6258Z" fill="#4D5068"/>
<path d="M93.2939 46.3715L93.0881 43.0286L101.986 44.4429L101.857 45.8572L93.2939 46.3715Z" fill="#4D5068"/>
<path d="M59.1444 46.3715L59.3244 43.0286L57.3444 43.6972L57.7301 45.6515L59.1444 46.3715Z" fill="#4D5068"/>
<path d="M68.6076 54.5746H64.5961C61.716 54.5746 59.376 52.466 59.376 49.8431C59.1188 48.8402 57.8845 43.1572 59.556 41.64C62.1275 39.3256 71.0763 39.3256 73.6221 41.64C75.2935 43.1572 74.0592 48.8402 73.8021 49.9716C72.9278 52.9031 71.0249 54.5746 68.6076 54.5746ZM66.6019 41.0485C64.0561 41.0485 61.5103 41.5114 60.4817 42.4629C59.6074 43.26 60.0446 47.1944 60.6617 49.7145C60.6874 51.7974 62.4361 53.3917 64.6218 53.3917H68.6334C71.2049 53.3917 72.2592 50.7945 72.5935 49.6631C73.1849 47.1687 73.6478 43.2343 72.7478 42.4372C71.6934 41.5114 69.1477 41.0485 66.6019 41.0485Z" fill="#4D5068"/>
<path d="M143.695 105.799L164.216 180.681C165.116 183.998 165.347 187.47 164.833 190.864L154.624 260.166L136.984 260.449L137.241 190.247L126.955 150.646L143.695 105.799Z" fill="white"/>
</svg>
